<svg xmlns="http://www.w3.org/2000/svg" width="14.828" height="17" viewBox="0 0 14.828 17"><defs><style>.a{fill:none;stroke:#fff;stroke-linecap:round;stroke-linejoin:round;stroke-width:2px;}.b{fill:#fff;}</style></defs><g transform="translate(-952.586 -934)"><path class="a" d="M658.927-408.45l6,6,6-6" transform="translate(295.073 1352.45)"/><path class="b" d="M664.927-408.45a1,1,0,0,0,1-1,1,1,0,0,0-1-1,1,1,0,0,0-1,1A1,1,0,0,0,664.927-408.45Z" transform="translate(295.073 1352.45)"/><path class="b" d="M664.927-412.45a1,1,0,0,0,1-1,1,1,0,0,0-1-1,1,1,0,0,0-1,1A1,1,0,0,0,664.927-412.45Z" transform="translate(295.073 1352.45)"/><path class="b" d="M664.927-412.45a1,1,0,0,0,1-1,1,1,0,0,0-1-1,1,1,0,0,0-1,1A1,1,0,0,0,664.927-412.45Z" transform="translate(295.073 1348.45)"/></g></svg>