<svg xmlns="http://www.w3.org/2000/svg" width="278" height="88.459" viewBox="0 0 278 88.459"><defs><style>.a{fill:#1e1f73;}.b{fill:#5a5dff;}.c{fill:#bd00ff;}.d{fill:#fff;}.e,.f,.g,.h{fill:none;stroke-width:2px;}.e,.g,.h{stroke:#fff;}.e,.h{stroke-miterlimit:10;}.f{stroke:#bd00ff;}.f,.g,.h{stroke-linecap:round;}.f,.g{stroke-linejoin:round;}</style></defs><g transform="translate(-214 -447.799)"><path class="a" d="M393.153,536.258c-6.274,0-12.213-3.687-14.121-8.767l-4.46-11.9a4.481,4.481,0,0,0-1.32-2.125l-.2-.2h-.4a2.954,2.954,0,0,0-1.592.7,15.473,15.473,0,0,1-10.47,3.961c-.309,0-.62-.008-.933-.026a17.781,17.781,0,0,1-10.7-4.337l-.26-.226H334.559l-.26.226a17.611,17.611,0,0,1-11.582,4.342,15.447,15.447,0,0,1-10.445-3.878,3.114,3.114,0,0,0-1.665-.759H310.5l-.191.043-.061.025c-.38.151-.958.667-1.555,2.258l-4.468,11.9c-1.9,5.08-7.843,8.767-14.117,8.767a15.3,15.3,0,0,1-4.506-.665,12.013,12.013,0,0,1-7.528-6.408c-1.709-3.581-1.908-8.153-.59-13.59l9.3-38.392c1.286-5.306,3.824-9.337,7.543-11.982a17.288,17.288,0,0,1,2.418-1.436l.516-.252v-1.364a6.377,6.377,0,0,1,6.369-6.37h4.32a6.377,6.377,0,0,1,6.37,6.37v1.665l.48.261a8.706,8.706,0,0,1,3.186,2.715l.272.422H365l.272-.421a8.726,8.726,0,0,1,3.194-2.719l.48-.26v-1.663a6.377,6.377,0,0,1,6.37-6.369h4.328a6.373,6.373,0,0,1,6.362,6.369v1.365l.516.253a17.005,17.005,0,0,1,2.422,1.438c3.717,2.646,6.253,6.676,7.538,11.978l9.3,38.393c1.317,5.436,1.119,10.007-.59,13.586a12.009,12.009,0,0,1-7.526,6.41,15.323,15.323,0,0,1-4.511.666Z"/><path class="b" d="M387.073,473.9a4.106,4.106,0,1,1,4.1-4.106A4.111,4.111,0,0,1,387.073,473.9Zm0-6.19a2.085,2.085,0,1,0,2.077,2.084A2.086,2.086,0,0,0,387.073,467.715Z"/><path class="c" d="M387.073,489.791a4.106,4.106,0,1,1,4.1-4.106A4.111,4.111,0,0,1,387.073,489.791Zm0-6.191a2.085,2.085,0,0,0,0,4.169,2.081,2.081,0,0,0,2.077-2.085A2.084,2.084,0,0,0,387.073,483.6Z"/><path class="b" d="M379.124,481.849a4.107,4.107,0,1,1,4.106-4.108A4.111,4.111,0,0,1,379.124,481.849Zm0-6.191a2.084,2.084,0,1,0,2.085,2.083A2.086,2.086,0,0,0,379.124,475.658Z"/><path class="c" d="M395.016,481.849a4.107,4.107,0,1,1,4.106-4.108A4.112,4.112,0,0,1,395.016,481.849Zm0-6.191a2.084,2.084,0,1,0,2.085,2.083A2.086,2.086,0,0,0,395.016,475.658Z"/><path class="d" d="M331.622,502.515a8.231,8.231,0,1,1,8.231-8.231A8.24,8.24,0,0,1,331.622,502.515Zm0-14.439a6.209,6.209,0,1,0,6.21,6.208A6.215,6.215,0,0,0,331.622,488.076Z"/><path class="d" d="M401.153,528.258c-6.274,0-12.213-3.687-14.121-8.767l-4.46-11.9a4.482,4.482,0,0,0-1.32-2.125l-.2-.2h-.4a2.954,2.954,0,0,0-1.592.7,15.473,15.473,0,0,1-10.47,3.961c-.309,0-.62-.008-.933-.026a17.781,17.781,0,0,1-10.7-4.337l-.26-.226H342.559l-.26.226a17.611,17.611,0,0,1-11.582,4.342,15.447,15.447,0,0,1-10.445-3.878,3.114,3.114,0,0,0-1.665-.759H318.5l-.191.043-.061.025c-.38.151-.958.667-1.555,2.258l-4.468,11.9c-1.9,5.08-7.843,8.767-14.117,8.767a15.3,15.3,0,0,1-4.506-.665,12.013,12.013,0,0,1-7.528-6.408c-1.709-3.581-1.908-8.153-.59-13.59l9.3-38.392c1.286-5.306,3.824-9.337,7.543-11.982a17.288,17.288,0,0,1,2.418-1.436l.516-.252v-1.364a6.377,6.377,0,0,1,6.369-6.37h4.32a6.377,6.377,0,0,1,6.37,6.37v1.665l.48.261a8.706,8.706,0,0,1,3.186,2.715l.272.422h18.7a1.012,1.012,0,0,1,0,2.024H326.546v4.864a4.878,4.878,0,0,0,4.872,4.873h36.427a4.875,4.875,0,0,0,4.866-4.873v-4.864H353.873a1.012,1.012,0,0,1,0-2.024H373l.272-.421a8.726,8.726,0,0,1,3.194-2.719l.48-.26v-1.663a6.377,6.377,0,0,1,6.37-6.369h4.328a6.373,6.373,0,0,1,6.362,6.369v1.365l.516.253a17.005,17.005,0,0,1,2.422,1.438c3.717,2.646,6.253,6.676,7.538,11.978l9.3,38.393c1.317,5.436,1.119,10.007-.59,13.586a12.009,12.009,0,0,1-7.526,6.41,15.323,15.323,0,0,1-4.511.666ZM313.3,455.9a18.171,18.171,0,0,0-6.426,1.142l-.066.025-.062.035a.9.9,0,0,1-.22.089l-.062.016-.06.025c-4.9,2.048-8.156,6.237-9.662,12.45l-9.3,38.392c-2.225,9.175.235,15.586,6.748,17.589a13.094,13.094,0,0,0,3.853.554c4.573,0,10.368-2.327,12.283-7.436l4.468-11.9c.752-2.005,1.723-3.157,2.966-3.52a3.024,3.024,0,0,1,.84-.119,4.926,4.926,0,0,1,2.887,1.164l.082.068a13.419,13.419,0,0,0,9.146,3.429,15.744,15.744,0,0,0,10.74-4.312,1.006,1.006,0,0,1,.7-.279h14.951a1,1,0,0,1,.7.278,15.731,15.731,0,0,0,10.738,4.31,13.432,13.432,0,0,0,9.154-3.432l.079-.064a4.922,4.922,0,0,1,2.883-1.162,2.994,2.994,0,0,1,.835.119c1.242.361,2.214,1.512,2.973,3.517l4.461,11.9c1.918,5.108,7.715,7.436,12.288,7.436a13.089,13.089,0,0,0,3.858-.556c6.511-2,8.969-8.414,6.743-17.587l-9.3-38.393c-1.506-6.214-4.758-10.4-9.666-12.45l-.058-.024-.059-.016a.945.945,0,0,1-.222-.089l-.061-.033-.063-.024a18.131,18.131,0,0,0-6.417-1.145,18.961,18.961,0,0,0-7.454,1.429,1.7,1.7,0,0,1-.224.1c-1.835.828-3.08,1.823-3.483,2.757l-.075.174v5.761a6.9,6.9,0,0,1-6.889,6.9H331.417a6.9,6.9,0,0,1-6.894-6.9v-5.762l-.075-.174a6.733,6.733,0,0,0-3.486-2.758l-.1-.045a19.236,19.236,0,0,0-7.526-1.483Zm.056-2.022a22.07,22.07,0,0,1,5.745.763l1.323.362-.168-1.362a4.351,4.351,0,0,0-4.313-3.817h-4.32a4.347,4.347,0,0,0-4.276,3.569l-.254,1.394,1.377-.335a20.8,20.8,0,0,1,4.824-.574Zm69.953-4.054A4.353,4.353,0,0,0,379,453.638L378.833,455l1.324-.362a22.1,22.1,0,0,1,5.745-.762,20.9,20.9,0,0,1,4.886.574l1.376.335-.253-1.393a4.34,4.34,0,0,0-4.269-3.57Z"/><path class="d" d="M369.152,502.515a8.231,8.231,0,1,1,8.23-8.231A8.24,8.24,0,0,1,369.152,502.515Zm0-14.439a6.209,6.209,0,1,0,6.209,6.208A6.215,6.215,0,0,0,369.152,488.076Z"/><path class="b" d="M311.766,490.15a5.011,5.011,0,0,1-5.005-5.005v-1.508h-1.507a5,5,0,0,1,0-10.008h1.507v-1.508a5,5,0,0,1,10.009,0v1.508h1.508a5,5,0,0,1,0,10.008H316.77v1.508A5.01,5.01,0,0,1,311.766,490.15Zm-6.511-14.5a2.982,2.982,0,1,0,0,5.964h2.518a1.012,1.012,0,0,1,1.012,1.011v2.519a2.981,2.981,0,1,0,5.963,0v-2.519a1.012,1.012,0,0,1,1.012-1.011h2.518a2.982,2.982,0,0,0,0-5.964H315.76a1.013,1.013,0,0,1-1.012-1.012v-2.518a2.981,2.981,0,1,0-5.963,0v2.518a1.013,1.013,0,0,1-1.012,1.012Z"/><path class="d" d="M341.761,482.8a1.012,1.012,0,0,1,0-2.023h2.805a1.012,1.012,0,0,1,0,2.023Z"/><path class="d" d="M354.691,482.8a1.012,1.012,0,1,1,0-2.023H357.5a1.012,1.012,0,0,1,0,2.023Z"/><path class="d" d="M348.974,492.916a1.011,1.011,0,0,1,0-2.023h2.8a1.011,1.011,0,0,1,0,2.023Z"/><circle class="e" cx="4" cy="4" r="4" transform="translate(271 465)"/><rect class="f" width="11.049" height="11.049" transform="translate(259.835 494.286) rotate(30)"/><path class="g" d="M224.319,454.859,215,471h18.638Z"/><line class="h" x2="8" y2="8" transform="translate(226 492)"/><line class="h" y1="8" x2="8" transform="translate(226 492)"/><circle class="e" cx="6.5" cy="6.5" r="6.5" transform="translate(478 489)"/><rect class="f" width="8.621" height="8.621" transform="translate(451.404 502.404) rotate(45)"/><path class="g" d="M428.74,484l-4.041,7h8.083Z"/><line class="h" x2="14" y2="14" transform="translate(452 454)"/><line class="h" y1="14" x2="14" transform="translate(452 454)"/></g></svg>