<svg id="Layer_1" data-name="Layer 1" xmlns="http://www.w3.org/2000/svg" viewBox="0 0 40 40"><defs><style>.cls-1{fill:#fff;}</style></defs><path class="cls-1" d="M31.04,24v.677a.6262.6262,0,0,0,.4658.5945A5.3023,5.3023,0,0,1,33.5639,26.4a.6837.6837,0,0,0,.7758.0851l.62-.3393L36,27.8544l-.6182.3386a.6092.6092,0,0,0-.31.6789,4.7256,4.7256,0,0,1,0,2.256.6091.6091,0,0,0,.31.6791L36,32.1454,34.96,33.8544l-.62-.3391a.6826.6826,0,0,0-.7755.0852,5.3032,5.3032,0,0,1-2.0578,1.1281.6259.6259,0,0,0-.4657.5945V36H28.9593v-.6769a.6257.6257,0,0,0-.4655-.5945,5.3033,5.3033,0,0,1-2.058-1.1281.6735.6735,0,0,0-.4483-.1683.6818.6818,0,0,0-.3272.0831l-.6195.3391L24,32.1454l.6183-.3384a.6089.6089,0,0,0,.31-.6791,4.7256,4.7256,0,0,1,0-2.256.6089.6089,0,0,0-.31-.6789L24,27.8544l1.0405-1.709.62.3393a.6827.6827,0,0,0,.7755-.0851,5.3027,5.3027,0,0,1,2.0578-1.1281.6261.6261,0,0,0,.4657-.5945V24H31.04m0-2H28.9593a2,2,0,0,0-1.9774,1.6986,7.3454,7.3454,0,0,0-1.1224.6221,1.999,1.999,0,0,0-2.5272.7846l-1.0406,1.709a2,2,0,0,0,.5216,2.65q-.0213.2671-.0214.5357t.0214.5355a2,2,0,0,0-.5215,2.65l1.0408,1.7091a1.9993,1.9993,0,0,0,2.5268.7846,7.3564,7.3564,0,0,0,1.1225.6222A2,2,0,0,0,28.9593,38h2.0814a2,2,0,0,0,1.9774-1.6985,7.3479,7.3479,0,0,0,1.1226-.6222,1.9995,1.9995,0,0,0,2.5271-.7848l1.0405-1.709a2,2,0,0,0-.5216-2.65q.0213-.267.0214-.5355t-.0214-.5359a2,2,0,0,0,.5213-2.65l-1.0405-1.709a1.9993,1.9993,0,0,0-2.5272-.7847,7.35,7.35,0,0,0-1.1225-.6221A2,2,0,0,0,31.04,22Z"/><path class="cls-1" d="M15,21a6,6,0,1,1,6-6,1,1,0,0,1-2,0,4,4,0,1,0-4,4,1,1,0,0,1,0,2Z"/><circle class="cls-1" cx="30" cy="30" r="1"/><path class="cls-1" d="M3,35a1,1,0,0,1-1-1V31a1,1,0,0,1,2,0v3A1,1,0,0,1,3,35Z"/><path class="cls-1" d="M11,35a1,1,0,0,1-1-1V31a1,1,0,0,1,2,0v3A1,1,0,0,1,11,35Z"/><path class="cls-1" d="M29,10a1,1,0,0,1-1-1V5a1,1,0,0,1,2,0V9A1,1,0,0,1,29,10Z"/><path class="cls-1" d="M33,12a1,1,0,0,1-1-1V8a1,1,0,0,1,2,0v3A1,1,0,0,1,33,12Z"/><path class="cls-1" d="M37,14a1,1,0,0,1-1-1V11a1,1,0,0,1,2,0v2A1,1,0,0,1,37,14Z"/><path class="cls-1" d="M33,20a1,1,0,0,1-1-1V15a1,1,0,0,1,2,0v4A1,1,0,0,1,33,20Z"/><path class="cls-1" d="M37,8a1,1,0,0,1-1-1V4a1,1,0,0,1,2,0V7A1,1,0,0,1,37,8Z"/><path class="cls-1" d="M7,37a1,1,0,0,1-1-1V33a1,1,0,0,1,2,0v3A1,1,0,0,1,7,37Z"/><path class="cls-1" d="M15,36a1,1,0,0,1-1-1V33a1,1,0,0,1,2,0v2A1,1,0,0,1,15,36Z"/><path class="cls-1" d="M16.453,4V5.1694a.6678.6678,0,0,0,.527.6525,9.2945,9.2945,0,0,1,3.1042,1.2862.6672.6672,0,0,0,.8341-.0886l.8268-.8269,2.056,2.0547-.8275.8277a.667.667,0,0,0-.0886.8341,9.3021,9.3021,0,0,1,1.2863,3.1042.6669.6669,0,0,0,.6524.5272H26v2.9068H24.8237a.6671.6671,0,0,0-.6524.5271,9.3,9.3,0,0,1-1.2863,3.1045.6678.6678,0,0,0,.0886.8342l.833.8328-2.0547,2.0563-.8336-.8337a.6668.6668,0,0,0-.8338-.0886A9.3034,9.3034,0,0,1,16.98,24.1664a.6673.6673,0,0,0-.527.6525V26H13.5467V24.8189a.6672.6672,0,0,0-.527-.6525A9.3,9.3,0,0,1,9.9153,22.88a.6669.6669,0,0,0-.8339.0886l-.8338.8337L6.1931,21.7459l.8331-.8328a.6675.6675,0,0,0,.0886-.8342,9.3045,9.3045,0,0,1-1.2863-3.1045.6672.6672,0,0,0-.6524-.5271H4l.0015-2.9068H5.1761a.667.667,0,0,0,.6524-.5272A9.3021,9.3021,0,0,1,7.1148,9.9091a.6674.6674,0,0,0-.0886-.8341l-.8276-.8277L8.2547,6.1926l.8267.8269a.6665.6665,0,0,0,.8341.0886,9.2938,9.2938,0,0,1,3.1039-1.2862.6672.6672,0,0,0,.527-.6525V4H16.453m0-2H13.5464a2,2,0,0,0-2,2v.1459a11.2487,11.2487,0,0,0-1.7745.7355L9.669,4.7785a2,2,0,0,0-2.8281-.0006L4.7848,6.8326a2,2,0,0,0,0,2.8289l.1038.1038a11.2533,11.2533,0,0,0-.7355,1.7752H4.0015a2,2,0,0,0-2,1.9989L2,16.4463a2,2,0,0,0,2,2.001h.1526a11.2671,11.2671,0,0,0,.7356,1.7752l-.1091.1091A2,2,0,0,0,4.7783,23.16l2.0545,2.0563a2,2,0,0,0,1.4143.5864h.0005a2,2,0,0,0,1.4141-.5857l.11-.11a11.2657,11.2657,0,0,0,1.775.7356V26a2,2,0,0,0,2,2H16.453a2,2,0,0,0,2-2v-.1578a11.2674,11.2674,0,0,0,1.7749-.7355l.11.11a2,2,0,0,0,1.4143.5859h0a2,2,0,0,0,1.4144-.5863L25.2213,23.16a2,2,0,0,0-.0007-2.828l-.109-.109a11.256,11.256,0,0,0,.7357-1.7753H26a2,2,0,0,0,2-2V13.5405a2,2,0,0,0-2-2h-.1529a11.2588,11.2588,0,0,0-.7355-1.7752l.1038-.1038a2,2,0,0,0,0-2.8288l-2.056-2.0548a2,2,0,0,0-2.8281.0005l-.1029.103a11.2586,11.2586,0,0,0-1.7749-.7355V4a2,2,0,0,0-2-2Z"/><circle class="cls-1" cx="19" cy="19" r="1"/></svg>