<svg xmlns="http://www.w3.org/2000/svg" viewBox="0 0 191.1528 69.4916"><defs><style>.cls-1{fill:#191a61;}.cls-2{fill:#00b2ff;}.cls-3{fill:#5a5dff;}.cls-4{fill:#fff;}</style></defs><title>Education</title><g id="Layer_2" data-name="Layer 2"><g id="Layer_1-2" data-name="Layer 1"><path class="cls-1" d="M183.3174,35.4916v-16c-13.4884,0-22.0767,6.1428-28.667,12.9365-6.59-6.7937-15.1786-12.9365-28.667-12.9365s-22.0772,6.1427-28.6675,12.9365c-6.59-6.7938-15.1786-12.9365-28.667-12.9365S46.5733,25.6342,39.9834,32.4277c-6.59-6.7935-15.1779-12.9361-28.666-12.9361v16c7.9306,0,12.7487,3.327,18.0338,9-5.2851,5.673-10.1032,9-18.0338,9v16c13.4881,0,22.0761-6.1427,28.666-12.9362,6.59,6.7935,15.1777,12.9362,28.6655,12.9362s22.0768-6.1428,28.667-12.9366c6.59,6.7938,15.1787,12.9366,28.6675,12.9366S148.06,63.3487,154.65,56.555c6.59,6.7937,15.1786,12.9366,28.667,12.9366v-16c-7.931,0-12.7495-3.327-18.0347-9C170.5679,38.8186,175.3864,35.4916,183.3174,35.4916Zm-114.6685,18c-7.9306,0-12.7484-3.327-18.0333-9,5.2849-5.673,10.1027-9,18.0333-9s12.7495,3.327,18.0348,9C81.3984,50.1646,76.58,53.4916,68.6489,53.4916Zm57.3345,0c-7.9313,0-12.75-3.327-18.0352-9,5.2853-5.673,10.1039-9,18.0352-9s12.75,3.327,18.0348,9C138.7331,50.1646,133.9147,53.4916,125.9834,53.4916Z"/><path class="cls-2" d="M34.9157,16.4059l-13.25-13.25a4,4,0,0,0-2.8284-1.1716l-17.8456,0A.9917.9917,0,0,1,0,.9922H0A.9917.9917,0,0,1,.9917,0L19.6585,0A4,4,0,0,1,22.487,1.1716L36.3647,15.05Z"/><path class="cls-2" d="M98.1156,44.5009a.9854.9854,0,0,1,.0278-1.3645c2.2056-2.2377,4.2236-4.6736,6.3488-7.239,1.9593-2.3657,3.9789-4.8043,6.1575-7.0529a.9961.9961,0,0,1,1.4364.0165h0a.9846.9846,0,0,1-.0153,1.3655c-2.0908,2.1551-4.0156,4.4784-6.0415,6.9248-2.0584,2.4842-4.18,5.0447-6.4776,7.3794a.9953.9953,0,0,1-1.4361-.03Z"/><path class="cls-3" d="M74.5433,18.3491h.0007a.9875.9875,0,0,1,1.0571.985v.0054a.9875.9875,0,0,1-.9175.985h0a.9875.9875,0,0,1-1.0466-.8391l-.0008-.0053A.9875.9875,0,0,1,74.5433,18.3491Z"/><path class="cls-3" d="M66.6334,20.0065l.0011,0a.9858.9858,0,0,1,1.2907.6715l.0017.0061a.9861.9861,0,0,1-.6145,1.1807h0a.986.986,0,0,1-1.23-.5065l-.0026-.0058A.9858.9858,0,0,1,66.6334,20.0065Z"/><path class="cls-3" d="M44.8556,40.7832a.987.987,0,0,1-.08-1.3786c1.0565-1.2218,2.0943-2.4746,3.1032-3.6927,2.1631-2.6114,4.3809-5.2891,6.7876-7.6968a41.1594,41.1594,0,0,1,4.7346-4.1121.9883.9883,0,0,1,1.4167.2831h0a.9942.9942,0,0,1-.2633,1.3311,39.17,39.17,0,0,0-4.4847,3.9012c-2.3442,2.3438-4.5307,4.9839-6.645,7.5371-1.0212,1.2326-2.0713,2.5005-3.1483,3.7459a.9951.9951,0,0,1-1.42.0818Z"/><path class="cls-3" d="M163.1246,33.2607h0a.9919.9919,0,0,1,1.4113-.1067l0,0a.9918.9918,0,0,1,.1047,1.3859h0a.9918.9918,0,0,1-1.3909.1239l0,0A.9917.9917,0,0,1,163.1246,33.2607Z"/><path class="cls-3" d="M135.0619,53.3162a.9911.9911,0,0,1,.93-.9886c6.2914-.4553,11.4974-2.7661,16.66-7.3935a.9988.9988,0,0,1,1.3777.03h0a.9988.9988,0,0,1-.0446,1.4467,29.1357,29.1357,0,0,1-17.87,7.89.99.99,0,0,1-1.0539-.9843Z"/><path class="cls-3" d="M158.0955,39.26h0a.9917.9917,0,0,1,1.387-.113h0a.9915.9915,0,0,1,.1147,1.4083h0a.9916.9916,0,0,1-1.4166.0872h0A.9915.9915,0,0,1,158.0955,39.26Z"/><path class="cls-3" d="M.16,16.2334V11.8813a3,3,0,0,1,3-3H7.5122a3,3,0,0,1,3,3v4.3521a3,3,0,0,1-3,3H3.16A3,3,0,0,1,.16,16.2334ZM3.1437,17.25l4.3838-.0007a1,1,0,0,0,1-1V11.8656a1,1,0,0,0-1-1l-4.3838,0a1,1,0,0,0-1,1V16.25A1,1,0,0,0,3.1437,17.25Z"/><path class="cls-4" d="M191.1519,45.5805H190.16a20.7716,20.7716,0,0,1-7.8384-1.41l-.8555-.3418,0-15.0039.8526-.3427a20.6559,20.6559,0,0,1,7.8418-1.417h.9917l0-15.65H190.16c-13.7427.0005-22.1246,6.7925-27.2349,11.9023l-.0923.0952-1.0659.875-.9707-.9712c-5.1094-5.1088-13.4907-11.9013-27.2339-11.9013A36.4005,36.4005,0,0,0,119.7041,14.05s-1.668.7354-2.3628,1.0508-2.103,1.1592-2.1616,1.1944a44.6377,44.6377,0,0,0-8.8779,7.05l-1.0406,1.0425-1.0805-1.0831a47.6934,47.6934,0,0,0-6.263-5.327.993.993,0,0,0-1.4493.37h0a.9876.9876,0,0,0,.3169,1.2609,45.6155,45.6155,0,0,1,5.992,5.0982l1.1343,1.1435-.8432.9556c-1.3594,1.5405-2.6167,3.0581-3.833,4.5259-.6929.8384-1.3272,1.6015-1.9331,2.3218l-.98,1.1626-1.0469-1.1016c-.3-.3154-.5957-.6216-.8848-.9111-3.8188-3.8184-8.876-7.7217-17.43-7.7212-8.5571,0-13.6172,3.9067-17.4389,7.728-.833.8335-1.7041,1.7686-2.6636,2.8584-1.1831,1.3472-2.3374,2.7363-3.7241,4.4126-1.6358,1.9741-3.3272,4.0156-5.1988,6.0322-.5908.6363-1.1787,1.2486-1.749,1.8174-7.14,7.14-14.5732,10.7129-23.3926,11.2441l-1.4419.087V47.5776l1.2466-.1045c7.272-.6094,11.76-4.1992,15.1909-7.63.8374-.8384,1.711-1.7754,2.6695-2.8652,1.166-1.3242,2.3364-2.7315,3.75-4.44,1.6308-1.9678,3.3174-4.0029,5.1772-6.0063.5855-.6314,1.1734-1.2422,1.7471-1.8159C58.96,16.89,66.9253,13.4,76.9614,13.3994a34.4941,34.4941,0,0,1,10.71,1.6093.9863.9863,0,0,0,1.1876-.4834h0a.9928.9928,0,0,0-.567-1.3979,37.1146,37.1146,0,0,0-11.3306-1.7119c-13.7426.0005-22.123,6.7905-27.2324,11.8994l-1.0576,1.0874-.9751-.9834c-5.1084-5.1528-13.5-12.0034-27.3364-12.0034h-.9912v15.65H20.36a20.78,20.78,0,0,1,7.8383,1.41l.8555.3413V43.8207l-.8525.3428a20.6494,20.6494,0,0,1-7.8418,1.417h-.9917v15.65H20.36c13.7446,0,22.123-6.79,27.2294-11.897L48.6621,48.26l1.0811,1.0835c5.27,5.2692,10.5625,8.5866,16.5021,10.3579a.9942.9942,0,0,0,.55-1.9107C61.1837,56.11,56.1644,52.9586,51.147,47.94l-1.1353-1.1446.8433-.955c1.35-1.53,2.6128-3.0528,3.8335-4.5259.6919-.8369,1.3247-1.6,1.93-2.32l.9785-1.1636L58.645,38.933c.2979.3125.5918.6167.877.9024a28.907,28.907,0,0,0,6.08,4.833l.68.3926,0,3.8282a.99.99,0,0,0,.99.99h.0038a.99.99,0,0,0,.99-.99V46.0541l1.7544.5318a22.786,22.786,0,0,0,4.7017.8852l1.2461.1045v3.48a.99.99,0,0,0,.99.99h.0039a.99.99,0,0,0,.99-.99v-3.48l1.2466-.104a22.742,22.742,0,0,0,4.7006-.8842l1.7549-.5318v2.8438a.99.99,0,0,0,.99.99h.0039a.99.99,0,0,0,.99-.99V45.0624l.68-.3925a28.8437,28.8437,0,0,0,6.0742-4.8282c.8413-.8422,1.7139-1.7788,2.668-2.8637,1.165-1.3233,2.332-2.7266,3.7436-4.4322,1.63-1.9672,3.3159-4.0014,5.1831-6.0131.59-.6363,1.1787-1.2481,1.7486-1.8174,7.8252-7.8262,15.791-11.3159,25.8271-11.3159s18.0025,3.4912,25.83,11.3193l1.1152,1.1318-.84.9517c-1.3667,1.5493-2.6763,3.1318-3.8325,4.5288-.6924.8379-1.3262,1.6011-1.9327,2.3218l-.9794,1.1626-1.0469-1.1016c-.3-.3159-.5962-.6225-.8838-.9106a28.8091,28.8091,0,0,0-6.1118-4.85l-.6831-.3916v-3.814a.99.99,0,0,0-.99-.99h-.0039a.99.99,0,0,0-.99.99v2.8257l-1.7515-.5269a22.8872,22.8872,0,0,0-4.7026-.875l-1.2481-.1025V21.5905a.99.99,0,0,0-.99-.99h-.0039a.99.99,0,0,0-.99.99v3.4807l-1.2441.106a22.8156,22.8156,0,0,0-4.7017.8921l-1.7563.5356V23.757a.99.99,0,0,0-.99-.99h-.0039a.99.99,0,0,0-.99.99v3.8474l-.6782.3926a28.9041,28.9041,0,0,0-6.0357,4.8067c-.831.8315-1.7041,1.7685-2.6684,2.8647-1.1851,1.35-2.3423,2.7422-3.7319,4.4219-1.6338,1.9717-3.3233,4.0107-5.1944,6.0229-.5942.6411-1.1841,1.2554-1.7554,1.8257C95.2426,55.4741,87.5744,58.9836,78.049,59.23a.992.992,0,1,0,.0408,1.9836c13.0753-.3607,21.1553-6.936,26.19-11.9735l1.082-.8775.9712.9717a47.3983,47.3983,0,0,0,6.6626,5.6181.9917.9917,0,0,0,1.4065-.3165h0a.987.987,0,0,0-.2943-1.3259,45.4564,45.4564,0,0,1-6.3719-5.3775l-1.126-1.1343.8432-.9551c1.3726-1.5537,2.6817-3.1343,3.899-4.6035.6684-.8071,1.2812-1.5459,1.8676-2.2437l.98-1.1635,1.0474,1.1025c.3.3145.5947.6206.8828.9092,3.8184,3.8179,8.875,7.7212,17.4336,7.7212,8.5552,0,13.6113-3.9033,17.43-7.7212.834-.8345,1.7065-1.7715,2.6684-2.8648,1.1841-1.3442,2.3316-2.7246,3.709-4.39,1.5572-1.8823,3.3223-4.0156,5.2183-6.0586.5864-.6318,1.1724-1.2412,1.7417-1.81,7.1426-7.1426,14.5771-10.7168,23.3965-11.2486l1.4419-.0869V25.07l-1.2466.104c-7.272.6089-11.76,4.1982-15.1909,7.6294-.8282.8281-1.7012,1.7651-2.6685,2.8642-1.2578,1.4243-2.5517,2.9878-3.7036,4.38-1.5474,1.8711-3.3013,3.9912-5.2246,6.0674-.5942.64-1.1841,1.2544-1.7549,1.8247-7.82,7.82-15.7822,11.3076-25.8164,11.3076a34.4046,34.4046,0,0,1-11.0662-1.719.9855.9855,0,0,0-1.2325.5521h0a.9936.9936,0,0,0,.5921,1.3216,37.0268,37.0268,0,0,0,11.7071,1.8292c13.7436,0,22.1406-6.81,27.2617-11.9321l1.0391-1.041,1.1509,1.1616c5.0712,5.07,13.4023,11.8115,27.1464,11.8115h.9917ZM37.5337,37.2524q-.591.6313-1.147,1.188a32.4419,32.4419,0,0,1-3.1587,2.7954l-2.19,1.6875V29.7055L33.23,31.3989a36.6424,36.6424,0,0,1,4.3042,3.9951l.87.9292Zm-10.2388-11.19a22.4041,22.4041,0,0,0-4.6963-.8906l-1.2465-.104V13.3842l1.4472.0923c11.7569.7549,19.1094,6.9082,23.6172,11.4712l.8931.9033-.8408.9522c-1.3462,1.5254-2.6465,3.0942-3.8355,4.5278-.6934.8389-1.3281,1.6035-1.9346,2.3242l-.9765,1.16-1.0474-1.0962a31.6944,31.6944,0,0,0-6.9609-5.7129l-.6758-.3931V23.739a.992.992,0,0,0-.992-.992h0a.9919.9919,0,0,0-.9919.992v2.864ZM66.2813,42.9218l-2.1895-1.6865a32.3926,32.3926,0,0,1-3.1665-2.8027q-.5523-.5515-1.14-1.18l-.871-.93.8715-.93q.5881-.627,1.1387-1.18a32.4548,32.4548,0,0,1,3.167-2.8022l2.1895-1.6865Zm9.6865,2.6846-1.4951-.1494a19.3031,19.3031,0,0,1-5.355-1.2945l-.8526-.3427.0005-14.9937.8526-.3428a19.3349,19.3349,0,0,1,5.354-1.2944l1.4956-.15Zm9.6855-1.7852-.8525.3428a19.303,19.303,0,0,1-5.354,1.2935l-1.4951.1494L77.9512,27.039l1.4951.1494a19.3069,19.3069,0,0,1,5.3545,1.2935l.8525.3428Zm8.4815-6.5688q-.5911.6321-1.1455,1.187a32.5912,32.5912,0,0,1-3.1617,2.7978l-2.19,1.6885V29.7236l2.19,1.6855a32.3532,32.3532,0,0,1,3.1611,2.7969q.5559.5559,1.1465,1.188l.8691.9292ZM122.8418,42.9,120.65,41.204a32.4729,32.4729,0,0,1-3.1172-2.7631c-.3711-.3706-.7519-.7676-1.147-1.1885l-.87-.9292.87-.93q.59-.6314,1.1455-1.1865a32.3454,32.3454,0,0,1,3.1191-2.7647l2.1919-1.6948Zm9.686,2.7051-1.498-.1528a19.27,19.27,0,0,1-5.354-1.3062l-.85-.3437.0005-14.9575.8491-.3438a19.2855,19.2855,0,0,1,5.354-1.3071l1.4985-.1528Zm9.6861-1.7636-.8555.3413a19.3276,19.3276,0,0,1-5.354,1.28l-1.4922.1465-.0005-18.5717,1.4927.1464a19.362,19.362,0,0,1,5.3535,1.2793l.856.3418Zm8.5224-6.5889q-.591.6321-1.1469,1.1875a32.29,32.29,0,0,1-3.2041,2.83l-2.1875,1.6772v-13.25l2.1879,1.6787a32.3747,32.3747,0,0,1,3.2051,2.8311q.5546.5552,1.145,1.1865l.87.9292Zm22.25-1.8584q.5911-.6321,1.147-1.188a32.4214,32.4214,0,0,1,3.1592-2.7964l2.19-1.6865-.0005,13.2182L177.29,41.2475a36.8251,36.8251,0,0,1-4.3032-3.9946l-.87-.9292ZM189.168,59.2622l-1.4473-.0923c-11.7568-.7549-19.1094-6.9082-23.6167-11.4717l-.8926-.9033.84-.9522c1.3925-1.5781,2.6728-3.126,3.8354-4.5312.6109-.7388,1.2656-1.5293,1.9331-2.3218l.9766-1.16,1.0473,1.0962a31.7007,31.7007,0,0,0,6.9615,5.7144l.6762.393v3.8743a.9919.9919,0,0,0,.992.9919h0a.9919.9919,0,0,0,.9919-.9919V46.0444l1.7588.5395a22.113,22.113,0,0,0,4.6968.89l1.2466.104Z"/></g></g></svg>