<svg xmlns="http://www.w3.org/2000/svg" width="36" height="36" viewBox="0 0 36 36"><defs><style>.a{fill:#bd00ff;}.b{fill:#1d1040;}.c{fill:#5a5dff;}</style></defs><g transform="translate(-2 -4)"><path class="a" d="M31.04,26v.677a.626.626,0,0,0,.466.594A5.32,5.32,0,0,1,33.564,28.4a.685.685,0,0,0,.776.085l.619-.34L36,29.854l-.618.339a.61.61,0,0,0-.311.679,4.712,4.712,0,0,1,0,2.256.61.61,0,0,0,.311.679l.618.338-1.041,1.709-.619-.339a.685.685,0,0,0-.776.085,5.3,5.3,0,0,1-2.058,1.129.625.625,0,0,0-.465.594V38H28.959v-.677a.625.625,0,0,0-.465-.594A5.3,5.3,0,0,1,26.436,35.6a.685.685,0,0,0-.776-.085l-.619.339L24,34.145l.618-.338a.61.61,0,0,0,.311-.679,4.712,4.712,0,0,1,0-2.256.61.61,0,0,0-.311-.679L24,29.854l1.041-1.709.619.34a.685.685,0,0,0,.776-.085,5.313,5.313,0,0,1,2.058-1.129.625.625,0,0,0,.465-.594V26H31.04m0-2H28.959a2,2,0,0,0-1.977,1.7,7.3,7.3,0,0,0-1.122.622,2,2,0,0,0-2.528.784l-1.04,1.709a2,2,0,0,0,.521,2.65c-.014.178-.021.357-.021.536s.007.357.021.535a2,2,0,0,0-.521,2.651L23.333,36.9a2,2,0,0,0,1.709.96,1.977,1.977,0,0,0,.817-.176,7.359,7.359,0,0,0,1.123.622A2,2,0,0,0,28.959,40h2.082a2,2,0,0,0,1.977-1.7,7.4,7.4,0,0,0,1.123-.623,1.981,1.981,0,0,0,.817.176,2,2,0,0,0,1.71-.96l1.04-1.71a2,2,0,0,0-.521-2.65c.014-.178.021-.356.021-.535s-.007-.358-.021-.536a2,2,0,0,0,.521-2.65L36.667,27.1a2,2,0,0,0-2.527-.784,7.3,7.3,0,0,0-1.122-.622A2,2,0,0,0,31.04,24Z"/><path class="b" d="M15,23a6,6,0,1,1,6-6,1,1,0,0,1-2,0,4,4,0,1,0-4,4,1,1,0,0,1,0,2Z"/><circle class="b" cx="1" cy="1" r="1" transform="translate(29 31)"/><path class="b" d="M3,37a1,1,0,0,1-1-1V33a1,1,0,0,1,2,0v3A1,1,0,0,1,3,37Z"/><path class="b" d="M11,37a1,1,0,0,1-1-1V33a1,1,0,0,1,2,0v3A1,1,0,0,1,11,37Z"/><path class="b" d="M29,12a1,1,0,0,1-1-1V7a1,1,0,0,1,2,0v4A1,1,0,0,1,29,12Z"/><path class="b" d="M33,14a1,1,0,0,1-1-1V10a1,1,0,0,1,2,0v3A1,1,0,0,1,33,14Z"/><path class="b" d="M37,16a1,1,0,0,1-1-1V13a1,1,0,0,1,2,0v2A1,1,0,0,1,37,16Z"/><path class="b" d="M33,22a1,1,0,0,1-1-1V17a1,1,0,0,1,2,0v4A1,1,0,0,1,33,22Z"/><path class="b" d="M37,10a1,1,0,0,1-1-1V6a1,1,0,0,1,2,0V9A1,1,0,0,1,37,10Z"/><path class="b" d="M7,39a1,1,0,0,1-1-1V35a1,1,0,0,1,2,0v3A1,1,0,0,1,7,39Z"/><path class="b" d="M15,38a1,1,0,0,1-1-1V35a1,1,0,0,1,2,0v2A1,1,0,0,1,15,38Z"/><path class="c" d="M16.453,6V7.169a.668.668,0,0,0,.527.653,9.287,9.287,0,0,1,3.1,1.286.666.666,0,0,0,.834-.089l.827-.826L23.8,10.247l-.827.828a.666.666,0,0,0-.089.834,9.3,9.3,0,0,1,1.286,3.1.667.667,0,0,0,.653.527H26v2.907H24.824a.668.668,0,0,0-.653.527,9.272,9.272,0,0,1-1.286,3.1.666.666,0,0,0,.089.834l.833.833L21.752,25.8l-.834-.833a.666.666,0,0,0-.834-.089,9.287,9.287,0,0,1-3.1,1.286.668.668,0,0,0-.527.653V28H13.547V26.819a.668.668,0,0,0-.527-.653A9.292,9.292,0,0,1,9.915,24.88a.666.666,0,0,0-.834.089l-.833.833L6.193,23.746l.833-.833a.666.666,0,0,0,.089-.834,9.294,9.294,0,0,1-1.287-3.1.666.666,0,0,0-.652-.527H4L4,15.54H5.176a.665.665,0,0,0,.652-.527,9.3,9.3,0,0,1,1.287-3.1.666.666,0,0,0-.089-.834L6.2,10.247,8.255,8.193l.826.826a.668.668,0,0,0,.835.089,9.282,9.282,0,0,1,3.1-1.286.667.667,0,0,0,.527-.653V6h2.907m0-2H13.546a2,2,0,0,0-2,2v.146a11.3,11.3,0,0,0-1.774.735l-.1-.1a2,2,0,0,0-2.828,0L4.785,8.833a2,2,0,0,0,0,2.828l.1.1a11.268,11.268,0,0,0-.735,1.775H4a2,2,0,0,0-2,2l0,2.907a2,2,0,0,0,2,2h.153a11.268,11.268,0,0,0,.735,1.775l-.109.11a2,2,0,0,0,0,2.828l2.055,2.056a2,2,0,0,0,1.414.586h0a2,2,0,0,0,1.414-.585l.11-.11a11.268,11.268,0,0,0,1.775.735V28a2,2,0,0,0,2,2h2.906a2,2,0,0,0,2-2v-.158a11.268,11.268,0,0,0,1.775-.735l.11.109a2,2,0,0,0,1.414.586h0a2,2,0,0,0,1.415-.586l2.054-2.056a2,2,0,0,0,0-2.828l-.109-.109a11.318,11.318,0,0,0,.735-1.776H26a2,2,0,0,0,2-2V15.54a2,2,0,0,0-2-2h-.153a11.268,11.268,0,0,0-.735-1.775l.1-.1a2,2,0,0,0,0-2.828L23.159,6.778a2,2,0,0,0-2.828,0l-.1.1a11.307,11.307,0,0,0-1.775-.735V6a2,2,0,0,0-2-2Z"/><circle class="b" cx="1" cy="1" r="1" transform="translate(18 20)"/></g></svg>