<svg xmlns="http://www.w3.org/2000/svg" width="206" height="103" viewBox="0 0 206 103"><defs><style>.a{fill:#191a61;}.b,.c,.f,.g{fill:none;stroke-linecap:round;stroke-width:2px;}.b,.c{stroke:#fff;}.b,.f,.g{stroke-linejoin:round;}.c{stroke-miterlimit:10;}.d{fill:#fff;}.e{fill:#5a5dff;}.f{stroke:#00b2ff;}.g{stroke:#5a5dff;}</style></defs><g transform="translate(-2236 -831.5)"><path class="a" d="M2351,902.5h-.937a12.622,12.622,0,0,0-5.11-4.658,17.865,17.865,0,0,0,3.915-9.342h1.642a5.5,5.5,0,0,0,5.49-5.49v-9.02a5.5,5.5,0,0,0-5.49-5.49H2349a11.014,11.014,0,0,0-11-11h-14a11.014,11.014,0,0,0-11,11h-1.51a5.5,5.5,0,0,0-5.49,5.49v9.02a5.5,5.5,0,0,0,5.49,5.49h1.642a17.865,17.865,0,0,0,3.915,9.342,12.622,12.622,0,0,0-5.11,4.658H2311a15.017,15.017,0,0,0-15,15v8a1,1,0,0,0,1,1c.553,0,33.447,8,34,8s33.447-8,34-8a1,1,0,0,0,1-1v-8A15.017,15.017,0,0,0,2351,902.5Z"/><path class="b" d="M2383,897.445c37.772,5.561,51,17.055,51,17.055v-62s-23-20-95-20-95,20-95,20v62s13.228-11.494,51-17.055"/><path class="c" d="M2327,895.5h-8a14,14,0,0,0-14,14v8"/><path class="c" d="M2373,917.5v-8a14,14,0,0,0-14-14h-8"/><circle class="b" cx="7" cy="7" r="7" transform="translate(2312 908.5)"/><circle class="d" cx="2" cy="2" r="2" transform="translate(2317 913.5)"/><circle class="e" cx="1" cy="1" r="1" transform="translate(2319 865.5)"/><circle class="e" cx="1" cy="1" r="1" transform="translate(2319 873.5)"/><circle class="e" cx="1" cy="1" r="1" transform="translate(2357 865.5)"/><circle class="e" cx="1" cy="1" r="1" transform="translate(2357 873.5)"/><path class="b" d="M2363,920.5h2v-6a6,6,0,0,0-6-6h0a6,6,0,0,0-6,6v6h2"/><line class="b" y1="22" transform="translate(2339 903.5)"/><path class="b" d="M2339,903.5l-10,6-2-14"/><path class="b" d="M2339,903.5l10,6,2-14"/><path class="b" d="M2326.667,890.2A11.654,11.654,0,0,0,2319,901.15v7.35"/><path class="b" d="M2359,908.5v-7.35a11.654,11.654,0,0,0-7.667-10.951"/><line class="c" y2="4" transform="translate(2327 891.5)"/><line class="c" y2="4" transform="translate(2351 891.5)"/><path class="f" d="M2269,882.5h-3a1,1,0,0,1-1-1v-3a1,1,0,0,0-1-1h-4a1,1,0,0,0-1,1v3a1,1,0,0,1-1,1h-3a1,1,0,0,0-1,1v4a1,1,0,0,0,1,1h3a1,1,0,0,1,1,1v3a1,1,0,0,0,1,1h4a1,1,0,0,0,1-1v-3a1,1,0,0,1,1-1h3a1,1,0,0,0,1-1v-4A1,1,0,0,0,2269,882.5Z"/><line class="b" y2="46" transform="translate(2441 871.5)"/><line class="b" y2="46" transform="translate(2237 871.5)"/><path class="b" d="M10,0H24A10,10,0,0,1,34,10v1a0,0,0,0,1,0,0H0a0,0,0,0,1,0,0V10A10,10,0,0,1,10,0Z" transform="translate(2322 850.5)"/><path class="b" d="M2355.971,879.5a17,17,0,0,1-16.971,16h0a17,17,0,0,1-16.971-16"/><path class="g" d="M2358.51,879.5h-14.2a4.487,4.487,0,0,1-2.8-.978,4.037,4.037,0,0,0-2.513-.9h0a4.037,4.037,0,0,0-2.513.9,4.487,4.487,0,0,1-2.8.978h-14.2a4.49,4.49,0,0,1-4.49-4.49v-9.02a4.49,4.49,0,0,1,4.49-4.49h39.02a4.49,4.49,0,0,1,4.49,4.49v9.02A4.49,4.49,0,0,1,2358.51,879.5Z"/><path class="b" d="M2267.668,866.5l5.781-11.365,7.986,20.365,13.93-27.294,5.5,11.794"/><path class="b" d="M2377,871.5l3,9,15.5-29.033,11.342,35.177,7-19.143"/></g></svg>