<svg xmlns="http://www.w3.org/2000/svg" width="80" height="80" viewBox="0 0 80 80"><defs><style>.a{fill:red;opacity:0;}.b{fill:#5a5dff;opacity:0.1;}.c,.d,.e{fill:none;stroke-linecap:round;stroke-linejoin:round;stroke-width:2px;}.c{stroke:#bd00ff;}.d{stroke:#5a5dff;}.e{stroke:#1d1040;}</style></defs><g transform="translate(-762 -2820)"><rect class="a" width="80" height="80" transform="translate(762 2820)"/><g transform="translate(764 2819)"><rect class="b" width="54" height="54" rx="15" transform="translate(5 21)"/><circle class="c" cx="6" cy="6" r="6" transform="translate(60 34)"/><circle class="c" cx="6" cy="6" r="6" transform="translate(8 34)"/><circle class="d" cx="12" cy="12" r="12" transform="translate(28 28)"/><circle class="c" cx="6" cy="6" r="6" transform="translate(34 8)"/><circle class="c" cx="6" cy="6" r="6" transform="translate(34 60)"/><path class="e" d="M14,28A14,14,0,0,1,28,14"/><path class="e" d="M28,66A14,14,0,0,1,14,52"/><path class="e" d="M66,52A14,14,0,0,1,52,66"/><path class="e" d="M52,14A14,14,0,0,1,66,28"/></g></g></svg>