<svg id="Layer_1" data-name="Layer 1" xmlns="http://www.w3.org/2000/svg" viewBox="0 0 40 40"><defs><style>.cls-1{fill:#fff;}</style></defs><path class="cls-1" d="M27,33H13a6.0066,6.0066,0,0,1-6-6V13a6.0066,6.0066,0,0,1,6-6H27a6.0066,6.0066,0,0,1,6,6V27A6.0066,6.0066,0,0,1,27,33ZM13,9a4.0042,4.0042,0,0,0-4,4V27a4.0042,4.0042,0,0,0,4,4H27a4.0039,4.0039,0,0,0,4-4V13a4.0039,4.0039,0,0,0-4-4Z"/><path class="cls-1" d="M37,10a1,1,0,0,1-1-1,5.0059,5.0059,0,0,0-5-5,1,1,0,0,1,0-2,7.0085,7.0085,0,0,1,7,7A1,1,0,0,1,37,10Z"/><path class="cls-1" d="M3,10A1,1,0,0,1,2,9,7.0081,7.0081,0,0,1,9,2,1,1,0,0,1,9,4,5.0059,5.0059,0,0,0,4,9,1,1,0,0,1,3,10Z"/><path class="cls-1" d="M9,38a7.0081,7.0081,0,0,1-7-7,1,1,0,0,1,2,0,5.0059,5.0059,0,0,0,5,5,1,1,0,0,1,0,2Z"/><path class="cls-1" d="M31,38a1,1,0,0,1,0-2,5.0059,5.0059,0,0,0,5-5,1,1,0,0,1,2,0A7.0085,7.0085,0,0,1,31,38Z"/><path class="cls-1" d="M20,8a1,1,0,0,1-1-1V5a1,1,0,0,1,2,0V7A1,1,0,0,1,20,8Z"/><path class="cls-1" d="M24,8a1,1,0,0,1-1-1V5a1,1,0,0,1,2,0V7A1,1,0,0,1,24,8Z"/><path class="cls-1" d="M16,8a1,1,0,0,1-1-1V5a1,1,0,0,1,2,0V7A1,1,0,0,1,16,8Z"/><path class="cls-1" d="M20,36a1,1,0,0,1-1-1V33a1,1,0,0,1,2,0v2A1,1,0,0,1,20,36Z"/><path class="cls-1" d="M24,36a1,1,0,0,1-1-1V33a1,1,0,0,1,2,0v2A1,1,0,0,1,24,36Z"/><path class="cls-1" d="M16,36a1,1,0,0,1-1-1V33a1,1,0,0,1,2,0v2A1,1,0,0,1,16,36Z"/><path class="cls-1" d="M35,21H33a1,1,0,0,1,0-2h2a1,1,0,0,1,0,2Z"/><path class="cls-1" d="M35,25H33a1,1,0,0,1,0-2h2a1,1,0,0,1,0,2Z"/><path class="cls-1" d="M35,17H33a1,1,0,0,1,0-2h2a1,1,0,0,1,0,2Z"/><path class="cls-1" d="M7,21H5a1,1,0,0,1,0-2H7a1,1,0,0,1,0,2Z"/><path class="cls-1" d="M7,25H5a1,1,0,0,1,0-2H7a1,1,0,0,1,0,2Z"/><path class="cls-1" d="M7,17H5a1,1,0,0,1,0-2H7a1,1,0,0,1,0,2Z"/><path class="cls-1" d="M17.999,29a1,1,0,0,1-.873-1.4854l3.9922-7.1875-3.9536.6592a1,1,0,0,1-1.0591-1.4336l4-8a1,1,0,0,1,1.789.8946L18.7725,18.69l4.0634-.6767a1,1,0,0,1,1.0381,1.4717l-5,9A.999.999,0,0,1,17.999,29Z"/></svg>