<svg xmlns="http://www.w3.org/2000/svg" width="36" height="36" viewBox="0 0 36 36"><defs><style>.a{fill:#1d1040;}.b{fill:#bd00ff;}.c{fill:#5a5dff;}</style></defs><g transform="translate(-122 -122)"><path class="a" d="M147,153H133a6.006,6.006,0,0,1-6-6V133a6.006,6.006,0,0,1,6-6h14a6.006,6.006,0,0,1,6,6v14A6.006,6.006,0,0,1,147,153Zm-14-24a4,4,0,0,0-4,4v14a4,4,0,0,0,4,4h14a4,4,0,0,0,4-4V133a4,4,0,0,0-4-4Z"/><path class="b" d="M157,130a1,1,0,0,1-1-1,5.006,5.006,0,0,0-5-5,1,1,0,0,1,0-2,7.009,7.009,0,0,1,7,7A1,1,0,0,1,157,130Z"/><path class="b" d="M123,130a1,1,0,0,1-1-1,7.008,7.008,0,0,1,7-7,1,1,0,0,1,0,2,5.006,5.006,0,0,0-5,5A1,1,0,0,1,123,130Z"/><path class="b" d="M129,158a7.008,7.008,0,0,1-7-7,1,1,0,0,1,2,0,5.006,5.006,0,0,0,5,5,1,1,0,0,1,0,2Z"/><path class="b" d="M151,158a1,1,0,0,1,0-2,5.006,5.006,0,0,0,5-5,1,1,0,0,1,2,0A7.009,7.009,0,0,1,151,158Z"/><path class="a" d="M140,128a1,1,0,0,1-1-1v-2a1,1,0,0,1,2,0v2A1,1,0,0,1,140,128Z"/><path class="a" d="M144,128a1,1,0,0,1-1-1v-2a1,1,0,0,1,2,0v2A1,1,0,0,1,144,128Z"/><path class="a" d="M136,128a1,1,0,0,1-1-1v-2a1,1,0,0,1,2,0v2A1,1,0,0,1,136,128Z"/><path class="a" d="M140,156a1,1,0,0,1-1-1v-2a1,1,0,0,1,2,0v2A1,1,0,0,1,140,156Z"/><path class="a" d="M144,156a1,1,0,0,1-1-1v-2a1,1,0,0,1,2,0v2A1,1,0,0,1,144,156Z"/><path class="a" d="M136,156a1,1,0,0,1-1-1v-2a1,1,0,0,1,2,0v2A1,1,0,0,1,136,156Z"/><path class="a" d="M155,141h-2a1,1,0,0,1,0-2h2a1,1,0,0,1,0,2Z"/><path class="a" d="M155,145h-2a1,1,0,0,1,0-2h2a1,1,0,0,1,0,2Z"/><path class="a" d="M155,137h-2a1,1,0,0,1,0-2h2a1,1,0,0,1,0,2Z"/><path class="a" d="M127,141h-2a1,1,0,0,1,0-2h2a1,1,0,0,1,0,2Z"/><path class="a" d="M127,145h-2a1,1,0,0,1,0-2h2a1,1,0,0,1,0,2Z"/><path class="a" d="M127,137h-2a1,1,0,0,1,0-2h2a1,1,0,0,1,0,2Z"/><path class="c" d="M138,149a1,1,0,0,1-.873-1.485l3.992-7.188-3.953.659a1,1,0,0,1-1.06-1.433l4-8a1,1,0,0,1,1.79.894l-3.123,6.243,4.064-.676a1,1,0,0,1,1.038,1.471l-5,9A1,1,0,0,1,138,149Z"/></g></svg>