<svg xmlns="http://www.w3.org/2000/svg" width="36" height="26" viewBox="0 0 36 26"><defs><style>.a{fill:#1d1040;}.b{fill:#5a5dff;}.c{fill:#bd00ff;}</style></defs><g transform="translate(-182 -128)"><path class="a" d="M201,154H186a4.054,4.054,0,0,1-4-4V132a4.054,4.054,0,0,1,4-4h28a4.054,4.054,0,0,1,4,4v5a1,1,0,0,1-2,0v-5a2.079,2.079,0,0,0-2-2H186a2.079,2.079,0,0,0-2,2v18a2.079,2.079,0,0,0,2,2h15a1,1,0,0,1,0,2Z"/><path class="b" d="M196,146a1,1,0,0,1-1-1v-8a1,1,0,0,1,1.447-.9l8,4a1,1,0,0,1,0,1.79l-8,4A1,1,0,0,1,196,146Zm1-7.382v4.764L201.764,141Z"/><path class="c" d="M213,154a1,1,0,0,1-1-1,5.006,5.006,0,0,1,5-5,1,1,0,0,1,0,2,3,3,0,0,0-3,3A1,1,0,0,1,213,154Z"/><path class="c" d="M209,154a1,1,0,0,1-1-1,9.01,9.01,0,0,1,9-9,1,1,0,0,1,0,2,7.009,7.009,0,0,0-7,7A1,1,0,0,1,209,154Z"/><path class="c" d="M205,154a1,1,0,0,1-1-1,13.015,13.015,0,0,1,13-13,1,1,0,0,1,0,2,11.013,11.013,0,0,0-11,11A1,1,0,0,1,205,154Z"/><circle class="c" cx="1" cy="1" r="1" transform="translate(216 152)"/></g></svg>