<svg id="Layer_1" data-name="Layer 1" xmlns="http://www.w3.org/2000/svg" viewBox="0 0 40 40"><defs><style>.cls-1{fill:#fff;}</style></defs><path class="cls-1" d="M20,33.999a2.6133,2.6133,0,0,1-.99-.1924L4.6221,27.9258a1,1,0,0,1,.7558-1.8516l14.3877,5.8809a.6281.6281,0,0,0,.4688,0l14.3877-5.8809a1,1,0,1,1,.7558,1.8516L20.99,33.8066A2.6133,2.6133,0,0,1,20,33.999Z"/><path class="cls-1" d="M20,37.999a2.6133,2.6133,0,0,1-.99-.1924L4.6221,31.9258a1,1,0,1,1,.7558-1.8516l14.3877,5.8809a.6281.6281,0,0,0,.4688,0l14.3877-5.8809a1,1,0,1,1,.7558,1.8516L20.99,37.8066A2.6133,2.6133,0,0,1,20,37.999Z"/><path class="cls-1" d="M26,22a.9964.9964,0,0,1-.5547-.168L20,18.2021l-5.4453,3.63a1,1,0,0,1-1.5166-1.1064l1.8174-6.36-4.48-3.5839a1,1,0,0,1,.4609-1.7676l5.4971-.916,2.7725-5.545a1.0412,1.0412,0,0,1,1.789,0l2.7725,5.545,5.4971.916a1,1,0,0,1,.4609,1.7676l-4.48,3.5839,1.8174,6.36A1,1,0,0,1,26,22Zm-6-6a.9964.9964,0,0,1,.5547.168l3.7363,2.4912-1.2529-4.3848a1.0011,1.0011,0,0,1,.3369-1.0556l3.252-2.6006-3.7911-.6319a1.0019,1.0019,0,0,1-.73-.539L20,5.2363l-2.1055,4.211a1.0019,1.0019,0,0,1-.73.539l-3.7911.6319,3.252,2.6006a1.0011,1.0011,0,0,1,.3369,1.0556L15.709,18.6592l3.7363-2.4912A.9964.9964,0,0,1,20,16Z"/><path class="cls-1" d="M20,30a2.5069,2.5069,0,0,1-1.0234-.2178L4.4951,23.3486a2.5178,2.5178,0,0,1,0-4.6015l5.9883-2.6612a1,1,0,0,1,.8125,1.8282l-5.9883,2.66a.5177.5177,0,0,0,0,.9463L19.79,27.9551a.5141.5141,0,0,0,.419.001l14.4834-6.4356a.5185.5185,0,0,0,0-.9473l-5.9883-2.6591a1,1,0,0,1,.8125-1.8282l5.9883,2.66a2.5186,2.5186,0,0,1,0,4.6025L21.0225,29.7832A2.5181,2.5181,0,0,1,20,30Z"/></svg>