<svg id="Layer_1" data-name="Layer 1" xmlns="http://www.w3.org/2000/svg" viewBox="0 0 40 40"><defs><style>.cls-1{fill:#fff;}</style></defs><path class="cls-1" d="M21,33H6a4.0539,4.0539,0,0,1-4-4V11A4.0539,4.0539,0,0,1,6,7H34a4.0539,4.0539,0,0,1,4,4v5a1,1,0,0,1-2,0V11a2.0787,2.0787,0,0,0-2-2H6a2.0787,2.0787,0,0,0-2,2V29a2.0787,2.0787,0,0,0,2,2H21a1,1,0,0,1,0,2Z"/><path class="cls-1" d="M16,25a1.0006,1.0006,0,0,1-1-1V16a1,1,0,0,1,1.4473-.8945l8,4a1,1,0,0,1,0,1.789l-8,4A1.0033,1.0033,0,0,1,16,25Zm1-7.3818v4.7636L21.7637,20Z"/><path class="cls-1" d="M33,33a1,1,0,0,1-1-1,5.0059,5.0059,0,0,1,5-5,1,1,0,0,1,0,2,3.0033,3.0033,0,0,0-3,3A1,1,0,0,1,33,33Z"/><path class="cls-1" d="M29,33a1,1,0,0,1-1-1,9.01,9.01,0,0,1,9-9,1,1,0,0,1,0,2,7.0085,7.0085,0,0,0-7,7A1,1,0,0,1,29,33Z"/><path class="cls-1" d="M25,33a1,1,0,0,1-1-1A13.015,13.015,0,0,1,37,19a1,1,0,0,1,0,2A11.0125,11.0125,0,0,0,26,32,1,1,0,0,1,25,33Z"/><circle class="cls-1" cx="37" cy="32" r="1"/></svg>