<svg xmlns="http://www.w3.org/2000/svg" width="241" height="114" viewBox="0 0 241 114"><defs><style>.a{fill:#1e1f73;}.b,.c,.d,.e{fill:none;stroke-linecap:round;stroke-width:2px;}.b,.e{stroke:#fff;}.b{stroke-miterlimit:10;}.c{stroke:#bd00ff;}.c,.d,.e{stroke-linejoin:round;}.d{stroke:#5a5dff;}.f{fill:#5a5dff;}</style></defs><g transform="translate(-63 -13)"><rect class="a" width="50" height="83" rx="6" transform="translate(187 44)"/><line class="b" y2="4" transform="translate(64 72)"/><line class="b" y2="10" transform="translate(71 69)"/><line class="b" y2="18" transform="translate(80 65)"/><line class="b" y2="14" transform="translate(89 67)"/><line class="b" y2="8" transform="translate(98 70)"/><line class="c" y2="26" transform="translate(107 61)"/><line class="d" y2="36" transform="translate(116 56)"/><line class="d" y2="72" transform="translate(125 38)"/><line class="d" y2="56" transform="translate(134 46)"/><line class="c" y2="32" transform="translate(143 58)"/><line class="c" y2="22" transform="translate(152 63)"/><line class="b" y2="8" transform="translate(161 70)"/><line class="b" y2="22" transform="translate(170 63)"/><line class="b" y2="12" transform="translate(179 68)"/><line class="b" y2="8" transform="translate(188 70)"/><path class="e" d="M244,97.7V113a5,5,0,0,1-5,5H201a5,5,0,0,1-5-5V42a5,5,0,0,1,5-5h38a5,5,0,0,1,5,5V61.649"/><line class="e" x2="48" transform="translate(196 43)"/><line class="e" x2="48" transform="translate(196 112)"/><circle class="e" cx="4" cy="4" r="4" transform="translate(210 98)"/><line class="e" x1="18" transform="translate(218 102)"/><line class="e" x1="6" transform="translate(204 102)"/><path class="e" d="M214.749,65.512l14.3,7.863a1.855,1.855,0,0,1,0,3.25l-14.3,7.863A1.855,1.855,0,0,1,212,82.863V67.137A1.855,1.855,0,0,1,214.749,65.512Z"/><circle class="d" cx="3.5" cy="3.5" r="3.5" transform="translate(283 24)"/><circle class="d" cx="3.5" cy="3.5" r="3.5" transform="translate(296 21)"/><path class="f" d="M289,27.5V19.158a3.982,3.982,0,0,1,2.823-3.824l7-2.153A4,4,0,0,1,304,17v7.5h-2V17a2,2,0,0,0-2.588-1.912l-7,2.154A1.99,1.99,0,0,0,291,19.158V27.5Z"/><circle class="d" cx="5" cy="5" r="5" transform="translate(264 50)"/><path class="d" d="M274,55V43a6,6,0,0,1,6-6h0"/><circle class="d" cx="6" cy="6" r="6" transform="translate(232 81)"/><path class="d" d="M244,87V71.96a5,5,0,0,1,3.855-4.867l9.458-2.225A3,3,0,0,1,261,67.788V83"/><circle class="d" cx="6" cy="6" r="6" transform="translate(249 77)"/></g></svg>