<svg xmlns="http://www.w3.org/2000/svg" width="26" height="61.917" viewBox="0 0 26 61.917"><defs><style>.a,.b,.d,.g{fill:none;}.b,.d{stroke:#fff;stroke-width:2px;}.b{stroke-linecap:round;stroke-linejoin:round;}.c,.f{fill:#fff;}.e,.f{stroke:none;}</style></defs><g transform="translate(-947 -889.083)"><g class="a" transform="translate(295.073 1356.533)"><path class="e" d="M664.927-467.45h0c7.18,0,13,5.55,13,12.4v21.122c0,6.847-5.82,12.4-13,12.4h0c-7.179,0-13-5.55-13-12.4v-21.122C651.927-461.9,657.748-467.45,664.927-467.45Z"/><path class="f" d="M 664.927001953125 -465.4500122070313 C 658.861572265625 -465.4500122070313 653.927001953125 -460.7857055664063 653.927001953125 -455.0525207519531 L 653.927001953125 -433.9308776855469 C 653.927001953125 -428.1976928710938 658.861572265625 -423.5333862304688 664.927001953125 -423.5333862304688 C 670.992431640625 -423.5333862304688 675.927001953125 -428.1976928710938 675.927001953125 -433.9308776855469 L 675.927001953125 -455.0525207519531 C 675.927001953125 -460.7857055664063 670.992431640625 -465.4500122070313 664.927001953125 -465.4500122070313 M 664.927001953125 -467.4500122070313 C 672.1068725585938 -467.4500122070313 677.927001953125 -461.8996276855469 677.927001953125 -455.0525207519531 L 677.927001953125 -433.9308776855469 C 677.927001953125 -427.0837707519531 672.1068725585938 -421.5333862304688 664.927001953125 -421.5333862304688 C 657.7481079101563 -421.5333862304688 651.927001953125 -427.0837707519531 651.927001953125 -433.9308776855469 L 651.927001953125 -455.0525207519531 C 651.927001953125 -461.8996276855469 657.7481079101563 -467.4500122070313 664.927001953125 -467.4500122070313 Z"/></g><path class="b" d="M658.927-408.45l6,6,6-6" transform="translate(295.073 1352.45)"/><path class="c" d="M664.927-408.45a1,1,0,0,0,1-1,1,1,0,0,0-1-1,1,1,0,0,0-1,1A1,1,0,0,0,664.927-408.45Z" transform="translate(295.073 1352.45)"/><path class="c" d="M664.927-412.45a1,1,0,0,0,1-1,1,1,0,0,0-1-1,1,1,0,0,0-1,1A1,1,0,0,0,664.927-412.45Z" transform="translate(295.073 1352.45)"/><g class="d" transform="translate(957 897)"><rect class="e" width="6" height="12" rx="3"/><rect class="g" x="1" y="1" width="4" height="10" rx="2"/></g></g></svg>