<svg xmlns="http://www.w3.org/2000/svg" width="296" height="88" viewBox="0 0 296 88"><defs><style>.a{fill:#1e1f73;}.b{fill:#fff;}.c,.d,.e,.f{fill:none;stroke-linecap:round;stroke-width:2px;}.c,.f{stroke:#fff;}.c{stroke-miterlimit:10;}.d{stroke:#5a5dff;}.d,.e,.f{stroke-linejoin:round;}.e{stroke:#bd00ff;}</style></defs><g transform="translate(-627 -1268)"><path class="a" d="M761.465,1300.167l2.561,7.371-4.663.565a29.553,29.553,0,0,1-3.547.215h-.8l-8.32-11.011.572-.945a1.584,1.584,0,0,0-1.353-2.4h-5.841a2.286,2.286,0,0,0-2.157,3.035l4.411,12.7-.087.113a3.746,3.746,0,0,0-.774,2.289v.265l-.266.1H738.92a2.833,2.833,0,0,0-2.831,2.83v1.421a2.833,2.833,0,0,0,2.831,2.83h2.551v.265a3.823,3.823,0,0,0,.774,2.385l.087.113-4.411,12.7a2.287,2.287,0,0,0,2.157,3.035h5.841a1.584,1.584,0,0,0,1.353-2.4l-.572-.945,8.321-11.011h.768a29.725,29.725,0,0,1,3.546.215l4.69.569-9.181,26.433a3.844,3.844,0,0,0,3.626,5.1h8.124a2.288,2.288,0,0,0,1.956-3.467l-1.145-1.894a1.543,1.543,0,0,1-.135-1.32l.063-.176H773.2a2.834,2.834,0,0,0,2.831-2.831v-1.421a2.834,2.834,0,0,0-2.831-2.831h-.533l.312-.426,2.253-2.98h5.952a2.834,2.834,0,0,0,2.831-2.831v-1.42a2.834,2.834,0,0,0-2.831-2.831h-.533l.254-.426,3.207-4.244,2.379.287a48.854,48.854,0,0,0,5.861.358c12.622,0,21.359-5.007,26.579-8,.482-.276.929-.533,1.343-.764a3.2,3.2,0,0,0,0-5.576l-1.017-.571c-5.784-3.258-14.525-8.181-26.89-8.181a49.081,49.081,0,0,0-5.876.36l-2.376.287-3.532-4.673h.533a2.85,2.85,0,0,0,2.9-2.832v-1.42a2.834,2.834,0,0,0-2.831-2.831h-5.952l-2.574-3.406h.533a2.836,2.836,0,0,0,2.84-2.831v-1.42a2.834,2.834,0,0,0-2.831-2.831h-5.871l-.063-.176a1.544,1.544,0,0,1,.136-1.322l1.144-1.89a2.29,2.29,0,0,0-1.956-3.47h-8.122a3.844,3.844,0,0,0-3.628,5.1l4.571,13.164Z"/><path class="b" d="M766.472,1268a3.844,3.844,0,0,0-3.628,5.1l4.571,13.164a1,1,0,1,0,1.888-.656l-4.571-13.164a1.84,1.84,0,0,1,1.74-2.445h8.387l.023.289v.074l-1.188,1.964a3.55,3.55,0,0,0,.322,4.133l15.808,20.922-15.768,1.91-2.7-7.78a1,1,0,0,0-.945-.672,1.021,1.021,0,0,0-.328.055,1,1,0,0,0-.616,1.272l2.561,7.371-4.663.565a29.553,29.553,0,0,1-3.547.215h-.8l-8.32-11.011.572-.945a1.584,1.584,0,0,0-1.353-2.4h-5.841a2.286,2.286,0,0,0-2.157,3.035l4.411,12.7-.087.113a3.746,3.746,0,0,0-.774,2.289v.265l-.266.1H746.92a2.833,2.833,0,0,0-2.831,2.83v1.421a2.833,2.833,0,0,0,2.831,2.83h2.551v.265a3.823,3.823,0,0,0,.774,2.385l.087.113-4.411,12.7a2.287,2.287,0,0,0,2.157,3.035h5.841a1.584,1.584,0,0,0,1.353-2.4l-.572-.945,8.321-11.011h.768a29.725,29.725,0,0,1,3.546.215l4.69.569-9.181,26.433a3.844,3.844,0,0,0,3.626,5.1h8.124a2.288,2.288,0,0,0,1.956-3.467l-1.145-1.894a1.543,1.543,0,0,1-.135-1.32l.063-.176H781.2a2.834,2.834,0,0,0,2.831-2.831v-1.421a2.834,2.834,0,0,0-2.831-2.831h-.533l.312-.426,2.253-2.98h5.952a2.834,2.834,0,0,0,2.831-2.831v-1.42a2.834,2.834,0,0,0-2.831-2.831h-.533l.254-.426,3.207-4.244,2.379.287a48.854,48.854,0,0,0,5.861.358c12.622,0,21.359-5.007,26.579-8,.482-.276.929-.533,1.343-.764a3.2,3.2,0,0,0,0-5.576l-1.017-.571c-5.784-3.258-14.525-8.181-26.89-8.181a49.081,49.081,0,0,0-5.876.36l-2.376.287-3.532-4.673h.533a2.85,2.85,0,0,0,2.9-2.832v-1.42a2.834,2.834,0,0,0-2.831-2.831h-5.952l-2.574-3.406h.533a2.836,2.836,0,0,0,2.84-2.831v-1.42a2.834,2.834,0,0,0-2.831-2.831h-5.871l-.063-.176a1.544,1.544,0,0,1,.136-1.322l1.144-1.89a2.29,2.29,0,0,0-1.956-3.47Zm10.35,8.857H781.2a.833.833,0,0,1,.832.832v1.42a.833.833,0,0,1-.832.832h-2.052Zm7.925,10.49h4.442a.832.832,0,0,1,.832.831v1.42a.833.833,0,0,1-.832.832h-2.112Zm-37.023.745.256-.114,5.165-.017-.19.382a2.141,2.141,0,0,0,.214,2.252l7.346,9.723h-7.264a3.862,3.862,0,0,0-.976.129l-.239.064Zm3.746,16.1a1.791,1.791,0,0,1,1.781-1.878h10.565a31.485,31.485,0,0,0,3.788-.229l27.133-3.289a47.3,47.3,0,0,1,5.7-.35,44.125,44.125,0,0,1,18.588,4.14l.227.1-.088.233a14.91,14.91,0,0,0,.013,10.162l.089.234-.229.1a44.868,44.868,0,0,1-18.725,4.122,46.3,46.3,0,0,1-5.576-.341c-.383-.045-27.16-3.291-27.16-3.291a31.473,31.473,0,0,0-3.788-.229H753.251a1.791,1.791,0,0,1-1.781-1.878v-.265H761.8a2.833,2.833,0,0,0,2.831-2.83v-1.421a2.833,2.833,0,0,0-2.831-2.83H751.47Zm69.5,7.975a12.9,12.9,0,0,1-.013-8.326l.1-.286.27.137c1.763.891,3.36,1.794,4.769,2.592l1.206.679a1.176,1.176,0,0,1,0,2.06c-.418.234-.867.491-1.347.766-1.334.764-2.845,1.631-4.616,2.526l-.269.136Zm-74.051-2.628a.832.832,0,0,1-.832-.831v-1.421a.832.832,0,0,1,.832-.831H761.8a.832.832,0,0,1,.832.831v1.421a.832.832,0,0,1-.832.831Zm.932,18.455-.055-.189-.014-.07,4.253-12.247.238.064a3.944,3.944,0,0,0,.977.128h7.264l-7.346,9.723a2.139,2.139,0,0,0-.214,2.252l.19.382h-5.1Zm18.62,18a1.841,1.841,0,0,1-1.74-2.445l9.323-26.845,15.766,1.911-15.8,20.92a3.546,3.546,0,0,0-.322,4.131l1.184,1.956v.2l-.1.1-.076.067Zm20.605-20.429h2.112a.833.833,0,0,1,.832.832v1.42a.832.832,0,0,1-.832.831h-4.442Zm-7.925,10.489H781.2a.832.832,0,0,1,.832.831v1.42a.833.833,0,0,1-.832.832h-4.382Z"/><line class="c" y2="8" transform="translate(669 1297)"/><line class="c" y2="8" transform="translate(645 1297)"/><line class="c" y2="8" transform="translate(628 1297)"/><rect class="d" width="5" height="8" rx="2.5" transform="translate(674 1297)"/><rect class="c" width="5" height="8" rx="2.5" transform="translate(654 1297)"/><line class="d" y2="8" transform="translate(684 1297)"/><line class="d" y2="8" transform="translate(699 1297)"/><line class="c" y2="8" transform="translate(704 1297)"/><rect class="c" width="5" height="8" rx="2.5" transform="translate(689 1297)"/><line class="c" y2="8" transform="translate(704 1311)"/><line class="c" y2="8" transform="translate(689 1311)"/><line class="c" y2="8" transform="translate(674 1311)"/><line class="d" y2="8" transform="translate(662 1311)"/><rect class="d" width="5" height="8" rx="2.5" transform="translate(699 1319) rotate(180)"/><rect class="d" width="5" height="8" rx="2.5" transform="translate(684 1319) rotate(180)"/><line class="c" y2="8" transform="translate(884 1297)"/><line class="c" y2="8" transform="translate(908 1297)"/><rect class="e" width="5" height="8" rx="2.5" transform="translate(879 1305) rotate(180)"/><rect class="c" width="5" height="8" rx="2.5" transform="translate(899 1305) rotate(180)"/><rect class="c" width="5" height="8" rx="2.5" transform="translate(922 1305) rotate(180)"/><line class="e" y2="8" transform="translate(868 1297)"/><line class="e" y2="8" transform="translate(863 1297)"/><rect class="c" width="5" height="8" rx="2.5" transform="translate(858 1305) rotate(180)"/><rect class="e" width="5" height="8" rx="2.5" transform="translate(848 1305) rotate(180)"/><line class="e" y2="8" transform="translate(848 1311)"/><line class="c" y2="8" transform="translate(863 1311)"/><line class="e" y2="8" transform="translate(905 1311)"/><line class="c" y2="8" transform="translate(894 1311)"/><rect class="e" width="5" height="8" rx="2.5" transform="translate(853 1311)"/><rect class="c" width="5" height="8" rx="2.5" transform="translate(869 1311)"/><rect class="c" width="5" height="8" rx="2.5" transform="translate(879 1311)"/><rect class="f" width="20" height="17" rx="2" transform="translate(715 1305)"/><path class="f" d="M8,0H8a8,8,0,0,1,8,8v3a0,0,0,0,1,0,0H0a0,0,0,0,1,0,0V8A8,8,0,0,1,8,0Z" transform="translate(717 1294)"/><path class="f" d="M723,1314.221V1318h4v-3.779a3,3,0,1,0-4,0Z"/><path class="f" d="M4,0H4A4,4,0,0,1,8,4V7A0,0,0,0,1,8,7H0A0,0,0,0,1,0,7V4A4,4,0,0,1,4,0Z" transform="translate(721 1298)"/></g></svg>