<svg id="Layer_1" data-name="Layer 1" xmlns="http://www.w3.org/2000/svg" viewBox="0 0 40 40"><defs><style>.cls-1{fill:#fff;}</style></defs><path class="cls-1" d="M34,24a4,4,0,1,1,4-4A4.0042,4.0042,0,0,1,34,24Zm0-6a2,2,0,1,0,2,2A2.0023,2.0023,0,0,0,34,18Z"/><path class="cls-1" d="M6,24a4,4,0,1,1,4-4A4.0042,4.0042,0,0,1,6,24Zm0-6a2,2,0,1,0,2,2A2.0023,2.0023,0,0,0,6,18Z"/><path class="cls-1" d="M20,27a7,7,0,1,1,7-7A7.0081,7.0081,0,0,1,20,27Zm0-12a5,5,0,1,0,5,5A5.0059,5.0059,0,0,0,20,15Z"/><path class="cls-1" d="M20,10a4,4,0,1,1,4-4A4.0042,4.0042,0,0,1,20,10Zm0-6a2,2,0,1,0,2,2A2.0023,2.0023,0,0,0,20,4Z"/><path class="cls-1" d="M20,38a4,4,0,1,1,4-4A4.0042,4.0042,0,0,1,20,38Zm0-6a2,2,0,1,0,2,2A2.0023,2.0023,0,0,0,20,32Z"/><path class="cls-1" d="M6,13a1,1,0,0,1-1-1,7.0081,7.0081,0,0,1,7-7,1,1,0,0,1,0,2,5.0059,5.0059,0,0,0-5,5A1,1,0,0,1,6,13Z"/><path class="cls-1" d="M12,35a7.0081,7.0081,0,0,1-7-7,1,1,0,0,1,2,0,5.0059,5.0059,0,0,0,5,5,1,1,0,0,1,0,2Z"/><path class="cls-1" d="M28,35a1,1,0,0,1,0-2,5.0059,5.0059,0,0,0,5-5,1,1,0,0,1,2,0A7.0081,7.0081,0,0,1,28,35Z"/><path class="cls-1" d="M34,13a1,1,0,0,1-1-1,5.0059,5.0059,0,0,0-5-5,1,1,0,0,1,0-2,7.0081,7.0081,0,0,1,7,7A1,1,0,0,1,34,13Z"/></svg>