<svg xmlns="http://www.w3.org/2000/svg" width="123.206" height="32" viewBox="0 0 123.206 32"><defs><style>.a{fill:#5a5dff;}</style></defs><path class="a" d="M927.312,541.709l-1.992-2.7a1.473,1.473,0,0,1-.215-1.338,3.762,3.762,0,0,0,.191-1.109,1.454,1.454,0,0,1,.621-1.151l.637-.452a2.308,2.308,0,0,1,2.048-.29,3.762,3.762,0,1,0-2.613-3.366,2.276,2.276,0,0,1-.946,2l-.02.014a1.3,1.3,0,0,1-1.454.013,3.764,3.764,0,0,0-2.675-.54,1.339,1.339,0,0,1-1.127-.309l-2.7-2.418a2.264,2.264,0,0,1-.731-1.974,3.759,3.759,0,1,0-2.749,3.157,2.2,2.2,0,0,1,2.035.514l1.721,1.543a2.032,2.032,0,0,1,.6,2.1,3.81,3.81,0,0,0-.153.821,2.094,2.094,0,0,1-1.142,1.749l-4.864,2.389a2.253,2.253,0,0,1-2.148-.059,3.761,3.761,0,1,0,1.785,3.771,2.219,2.219,0,0,1,1.231-1.656l5.959-2.927a.74.74,0,0,1,.756.07l.034.024a.747.747,0,0,1,.324.735l-.92,5.455a4.281,4.281,0,0,1-2.153,3.03,3.76,3.76,0,1,0,5.111,1.468c-.014-.025-.028-.05-.043-.075a6.2,6.2,0,0,1-.7-4.159l.873-5.178a.939.939,0,0,1,.667-.748h.012a.969.969,0,0,1,1.05.356l1.685,2.283a2.265,2.265,0,0,1,.3,2.2,3.76,3.76,0,1,0,3.5-2.32A2.254,2.254,0,0,1,927.312,541.709Z" transform="translate(-903.941 -523.856)"/><g transform="translate(37.294 0.379)"><path class="a" d="M954.967,533.414a5.226,5.226,0,0,0-2.2-1.652,10.11,10.11,0,0,0-3.942-.624h-.188c-.222,0-.63.019-1.149.053-.574.038-1.224.115-1.93.228a22.9,22.9,0,0,0-2.257.493,9.377,9.377,0,0,0-2.029.813c0,.259,0,.568-.016.925-.016.41-.016.8-.016,1.184v16h4.743V536.058L946.1,536a4.64,4.64,0,0,1,1.609-.487c.507-.048.824-.077,1-.077a2.837,2.837,0,0,1,1.275.272,2.264,2.264,0,0,1,.869.77,2.97,2.97,0,0,1,.45,1.111,6.391,6.391,0,0,1,.126,1.309v11.941h4.779V538.894a18.623,18.623,0,0,0-.242-3.048A5.647,5.647,0,0,0,954.967,533.414Z" transform="translate(-941.241 -524.236)"/><path class="a" d="M972.583,533.568a5.892,5.892,0,0,0-2.209-1.758,8.166,8.166,0,0,0-3.535-.674h-.233a9.641,9.641,0,0,0-3.13.522,5.869,5.869,0,0,0-3.655,3.7,8.788,8.788,0,0,0-.459,2.913v4.348a12.112,12.112,0,0,0,.41,3.181,7.792,7.792,0,0,0,1.286,2.7,6.5,6.5,0,0,0,2.3,1.891,7.653,7.653,0,0,0,3.463.726,10.945,10.945,0,0,0,3.113-.385,5.577,5.577,0,0,0,2.111-1.091,5.071,5.071,0,0,0,1.3-1.74,8.018,8.018,0,0,0,.611-2.072h-4.4c-.058.15-.122.312-.194.485a2.476,2.476,0,0,1-.459.7,2.707,2.707,0,0,1-.8.565,3.07,3.07,0,0,1-1.27.234,2.555,2.555,0,0,1-1.742-.545l-.012-.01a3.194,3.194,0,0,1-.874-1.339,5.722,5.722,0,0,1-.31-1.685c-.022-.634-.032-1.164-.032-1.618V542.4h10.184v-3.133a15,15,0,0,0-.322-3.121A6.646,6.646,0,0,0,972.583,533.568Zm-2.752,5.929h-5.965v-1.206a4.9,4.9,0,0,1,.672-2.841l.017-.024a2.618,2.618,0,0,1,2.281-.991,2.868,2.868,0,0,1,1.713.445l.012.008a2.693,2.693,0,0,1,.89,1.124,4.516,4.516,0,0,1,.328,1.427c.036.463.054.94.054,1.415Z" transform="translate(-941.244 -524.236)"/><path class="a" d="M982.544,536.072h2.349l2.148-4.363h-4.5v-7.474h-4.779v19.558a7.931,7.931,0,0,0,.473,2.724A6.209,6.209,0,0,0,979.7,548.8a7.222,7.222,0,0,0,2.531,1.607,9.963,9.963,0,0,0,3.655.6c.257,0,.451,0,.617-.017a.815.815,0,0,0,.25-.044V546.63a2.99,2.99,0,0,1-.7.047,6.831,6.831,0,0,1-1.019-.092,3.287,3.287,0,0,1-1.153-.4,2.835,2.835,0,0,1-.942-.864,2.6,2.6,0,0,1-.4-1.535Z" transform="translate(-941.247 -524.235)"/><path class="a" d="M995.273,536.072h2.343l2.148-4.363h-4.491v-7.474h-4.779v19.558a7.8,7.8,0,0,0,.474,2.723,6.188,6.188,0,0,0,1.461,2.283,7.188,7.188,0,0,0,2.528,1.607,9.99,9.99,0,0,0,3.66.6c.256,0,.451,0,.617-.017a.814.814,0,0,0,.25-.044V546.63a2.989,2.989,0,0,1-.7.047,7.131,7.131,0,0,1-1.019-.092,3.287,3.287,0,0,1-1.153-.4,2.878,2.878,0,0,1-.939-.864,2.6,2.6,0,0,1-.4-1.535Z" transform="translate(-941.249 -524.235)"/><path class="a" d="M1011.594,531.7a11.68,11.68,0,0,0-3.789.615,7.652,7.652,0,0,0-2.636,1.537,6.08,6.08,0,0,0-1.544,2.235,7.4,7.4,0,0,0-.5,2.729v12.027h4.809v-12.02a3.091,3.091,0,0,1,.26-1.385,2.163,2.163,0,0,1,.7-.838,2.455,2.455,0,0,1,1-.4,6.357,6.357,0,0,1,1.076-.092h2.682l2.19-4.41Z" transform="translate(-941.251 -524.236)"/></g><g transform="translate(113.501 0)"><path class="a" d="M1017.46,528.961a5.3,5.3,0,0,1,.64-2.563,4.776,4.776,0,0,1,1.769-1.863,4.733,4.733,0,0,1,4.888,0,4.775,4.775,0,0,1,1.769,1.863,5.454,5.454,0,0,1-.009,5.143,4.86,4.86,0,0,1-1.774,1.863,4.711,4.711,0,0,1-4.874-.007,4.854,4.854,0,0,1-1.766-1.866A5.292,5.292,0,0,1,1017.46,528.961Zm.834,0a4.5,4.5,0,0,0,.509,2.106,4.028,4.028,0,0,0,1.446,1.569,3.89,3.89,0,0,0,4.117,0,4.024,4.024,0,0,0,1.446-1.565,4.6,4.6,0,0,0,0-4.221,4,4,0,0,0-1.449-1.558,3.793,3.793,0,0,0-2.051-.585,3.854,3.854,0,0,0-2.02.561,3.979,3.979,0,0,0-1.466,1.545A4.435,4.435,0,0,0,1018.294,528.961Zm3.034.52v2.3H1020.3v-5.81h1.921a2.522,2.522,0,0,1,1.637.478,1.623,1.623,0,0,1,.584,1.327,1.277,1.277,0,0,1-.731,1.162,1.2,1.2,0,0,1,.554.6,2.519,2.519,0,0,1,.157.947c0,.376.008.642.024.8a1.314,1.314,0,0,0,.092.39v.11h-1.059a5.4,5.4,0,0,1-.089-1.327,1.036,1.036,0,0,0-.226-.748,1.025,1.025,0,0,0-.752-.229Zm0-.916h.875a1.6,1.6,0,0,0,.864-.216.652.652,0,0,0,.346-.577.841.841,0,0,0-.242-.68,1.441,1.441,0,0,0-.879-.209h-.964Z" transform="translate(-1017.46 -523.856)"/></g></svg>