<svg xmlns="http://www.w3.org/2000/svg" width="83.924" height="24" viewBox="0 0 83.924 24"><defs><style>.a{fill:#1d1040;}</style></defs><g transform="translate(0 0)"><path class="a" d="M397.758,214.552l-1.494-2.023a1.1,1.1,0,0,1-.161-1,2.836,2.836,0,0,0,.143-.832,1.091,1.091,0,0,1,.466-.863l.478-.339a1.733,1.733,0,0,1,1.536-.218,2.821,2.821,0,1,0-1.96-2.525,1.708,1.708,0,0,1-.71,1.5l-.015.011a.971.971,0,0,1-1.09.01,2.824,2.824,0,0,0-2.007-.405,1,1,0,0,1-.845-.232l-2.022-1.813a1.7,1.7,0,0,1-.548-1.48,2.821,2.821,0,1,0-2.062,2.368,1.655,1.655,0,0,1,1.527.386l1.291,1.157a1.523,1.523,0,0,1,.448,1.573,2.845,2.845,0,0,0-.115.616,1.57,1.57,0,0,1-.857,1.312l-3.649,1.792a1.69,1.69,0,0,1-1.611-.044,2.821,2.821,0,1,0,1.338,2.829,1.666,1.666,0,0,1,.923-1.242l4.47-2.2a.556.556,0,0,1,.567.052l.026.018a.56.56,0,0,1,.243.551l-.69,4.092a3.209,3.209,0,0,1-1.615,2.272,2.821,2.821,0,1,0,3.8,1.045,4.647,4.647,0,0,1-.525-3.12l.655-3.884a.706.706,0,0,1,.5-.561l.009,0a.727.727,0,0,1,.787.267l1.264,1.712a1.7,1.7,0,0,1,.226,1.65,2.821,2.821,0,1,0,2.626-1.74A1.691,1.691,0,0,1,397.758,214.552Z" transform="translate(-380.229 -201.162)"/><g transform="translate(27.975 0.285)"><path class="a" d="M129.209,179.684a3.923,3.923,0,0,0-1.647-1.239,7.584,7.584,0,0,0-2.957-.468h-.141c-.166,0-.473.014-.862.04-.431.028-.918.086-1.448.171a17.3,17.3,0,0,0-1.693.37,7.06,7.06,0,0,0-1.522.61c0,.194,0,.426-.012.694-.012.308-.012.6-.012.888v12h3.558V181.665l.089-.046a3.483,3.483,0,0,1,1.207-.366c.38-.036.618-.058.748-.058a2.134,2.134,0,0,1,.956.2,1.7,1.7,0,0,1,.652.578,2.228,2.228,0,0,1,.338.833,4.835,4.835,0,0,1,.095.982v8.96h3.585v-8.958a14,14,0,0,0-.182-2.286A4.245,4.245,0,0,0,129.209,179.684Z" transform="translate(-118.916 -172.802)"/><path class="a" d="M294.464,179.817a4.426,4.426,0,0,0-1.656-1.318,6.137,6.137,0,0,0-2.652-.505h-.009l-.165,0a7.231,7.231,0,0,0-2.349.391,4.4,4.4,0,0,0-2.741,2.779,6.584,6.584,0,0,0-.344,2.185v3.262a9.089,9.089,0,0,0,.307,2.386,5.843,5.843,0,0,0,.964,2.026,4.871,4.871,0,0,0,1.728,1.418,5.739,5.739,0,0,0,2.6.545,8.207,8.207,0,0,0,2.335-.289,4.186,4.186,0,0,0,1.583-.818,3.8,3.8,0,0,0,.973-1.305,6,6,0,0,0,.458-1.554h-3.3c-.043.113-.091.234-.145.364a1.858,1.858,0,0,1-.344.529,2.033,2.033,0,0,1-.6.423,2.3,2.3,0,0,1-.952.176,1.914,1.914,0,0,1-1.307-.409l-.009-.007a2.392,2.392,0,0,1-.655-1,4.3,4.3,0,0,1-.233-1.264c-.016-.476-.024-.873-.024-1.214v-.164h7.639V184.1a11.288,11.288,0,0,0-.242-2.341A4.985,4.985,0,0,0,294.464,179.817Zm-2.064,4.447h-4.474v-.9a3.672,3.672,0,0,1,.5-2.132l.012-.018a1.965,1.965,0,0,1,1.711-.744,2.156,2.156,0,0,1,1.285.333l.009.006a2.028,2.028,0,0,1,.668.843,3.385,3.385,0,0,1,.246,1.07c.027.347.041.7.041,1.061Z" transform="translate(-270.959 -172.82)"/><path class="a" d="M456.406,123.849l1.762,0,1.611-3.273H456.41v-5.606h-3.585v14.668a5.931,5.931,0,0,0,.355,2.043,4.644,4.644,0,0,0,1.1,1.712,5.417,5.417,0,0,0,1.9,1.2,7.465,7.465,0,0,0,2.742.454c.192,0,.338,0,.463-.012a.6.6,0,0,0,.187-.033v-3.235a2.241,2.241,0,0,1-.522.035,5.122,5.122,0,0,1-.764-.069,2.462,2.462,0,0,1-.865-.3,2.131,2.131,0,0,1-.707-.648,1.947,1.947,0,0,1-.3-1.151Z" transform="translate(-425.431 -114.973)"/><path class="a" d="M572.732,123.849l1.757,0,1.611-3.273h-3.369v-5.606h-3.585v14.668a5.85,5.85,0,0,0,.355,2.042,4.643,4.643,0,0,0,1.1,1.712,5.379,5.379,0,0,0,1.9,1.2,7.483,7.483,0,0,0,2.745.454c.192,0,.338,0,.462-.012a.6.6,0,0,0,.187-.033v-3.235a2.246,2.246,0,0,1-.522.035,5.208,5.208,0,0,1-.764-.069,2.459,2.459,0,0,1-.865-.3,2.155,2.155,0,0,1-.7-.648,1.95,1.95,0,0,1-.3-1.151Z" transform="translate(-532.21 -114.973)"/><path class="a" d="M690.941,183.133a8.778,8.778,0,0,0-2.843.461,5.74,5.74,0,0,0-1.977,1.153,4.56,4.56,0,0,0-1.158,1.676,5.545,5.545,0,0,0-.378,2.047v9.022H688.2v-9.016a2.324,2.324,0,0,1,.2-1.039,1.621,1.621,0,0,1,.525-.629,1.846,1.846,0,0,1,.748-.3,4.872,4.872,0,0,1,.807-.069h2.011l1.643-3.309Z" transform="translate(-638.179 -177.541)"/></g></g></svg>