<svg xmlns="http://www.w3.org/2000/svg" width="154.008" height="40" viewBox="0 0 154.008 40">
    <defs>
        <style>.a{fill:#1D1040;}</style>
    </defs>
    <path class="a"
          d="M933.155,546.172l-2.49-3.374a1.841,1.841,0,0,1-.269-1.672,4.7,4.7,0,0,0,.239-1.386,1.817,1.817,0,0,1,.776-1.438l.8-.565a2.885,2.885,0,0,1,2.56-.362,4.7,4.7,0,1,0-3.266-4.208,2.845,2.845,0,0,1-1.182,2.5l-.025.018a1.626,1.626,0,0,1-1.817.016,4.706,4.706,0,0,0-3.343-.675,1.673,1.673,0,0,1-1.409-.386l-3.375-3.022a2.83,2.83,0,0,1-.914-2.467A4.7,4.7,0,1,0,916,533.095a2.755,2.755,0,0,1,2.543.642l2.151,1.928a2.54,2.54,0,0,1,.75,2.625,4.762,4.762,0,0,0-.191,1.026,2.617,2.617,0,0,1-1.427,2.186l-6.08,2.986a2.816,2.816,0,0,1-2.685-.074,4.7,4.7,0,1,0,2.231,4.714,2.774,2.774,0,0,1,1.538-2.07l7.449-3.658a.925.925,0,0,1,.945.088l.043.03a.933.933,0,0,1,.4.919l-1.15,6.819a5.351,5.351,0,0,1-2.691,3.787,4.7,4.7,0,1,0,6.389,1.835c-.018-.031-.035-.062-.054-.094a7.752,7.752,0,0,1-.875-5.2l1.091-6.473a1.174,1.174,0,0,1,.834-.935h.015a1.211,1.211,0,0,1,1.312.445l2.106,2.853a2.831,2.831,0,0,1,.375,2.75,4.7,4.7,0,1,0,4.374-2.9A2.817,2.817,0,0,1,933.155,546.172Z"
          transform="translate(-903.941 -523.856)"/>
    <g transform="translate(46.617 0.474)">
        <path class="a"
              d="M958.4,533.985a6.532,6.532,0,0,0-2.75-2.065,12.638,12.638,0,0,0-4.928-.78h-.235c-.277,0-.787.024-1.436.066-.717.048-1.53.144-2.412.285a28.659,28.659,0,0,0-2.821.616,11.722,11.722,0,0,0-2.536,1.016c0,.324,0,.71-.02,1.156-.02.512-.02,1-.02,1.48v20h5.929V537.29l.149-.076a5.8,5.8,0,0,1,2.011-.609c.634-.06,1.03-.1,1.25-.1a3.546,3.546,0,0,1,1.594.34,2.83,2.83,0,0,1,1.086.962,3.715,3.715,0,0,1,.562,1.388,7.992,7.992,0,0,1,.157,1.636v14.926h5.974V540.835a23.286,23.286,0,0,0-.3-3.809A7.058,7.058,0,0,0,958.4,533.985Z"
              transform="translate(-941.241 -522.513)"/>
        <path class="a"
              d="M975.888,534.177a7.365,7.365,0,0,0-2.761-2.2,10.207,10.207,0,0,0-4.419-.842h-.291a12.052,12.052,0,0,0-3.913.652,7.337,7.337,0,0,0-4.568,4.63,10.99,10.99,0,0,0-.574,3.641V545.5a15.14,15.14,0,0,0,.512,3.976,9.74,9.74,0,0,0,1.607,3.374,8.119,8.119,0,0,0,2.875,2.363,9.567,9.567,0,0,0,4.328.907,13.681,13.681,0,0,0,3.892-.481,6.971,6.971,0,0,0,2.638-1.364,6.337,6.337,0,0,0,1.625-2.175,10.022,10.022,0,0,0,.764-2.59h-5.5c-.073.187-.153.39-.243.606a3.1,3.1,0,0,1-.574.875,3.385,3.385,0,0,1-1,.706,3.838,3.838,0,0,1-1.587.292,3.193,3.193,0,0,1-2.177-.681l-.015-.013a3.994,3.994,0,0,1-1.092-1.674,7.156,7.156,0,0,1-.387-2.106c-.027-.792-.04-1.455-.04-2.022v-.274h12.73V541.3a18.756,18.756,0,0,0-.4-3.9A8.309,8.309,0,0,0,975.888,534.177Zm-3.44,7.411h-7.456v-1.507a6.121,6.121,0,0,1,.84-3.552l.021-.03a3.272,3.272,0,0,1,2.851-1.239,3.586,3.586,0,0,1,2.141.556l.015.01a3.366,3.366,0,0,1,1.112,1.4,5.642,5.642,0,0,1,.41,1.783c.045.579.067,1.175.067,1.768Z"
              transform="translate(-936.715 -522.512)"/>
        <path class="a"
              d="M983.739,539.031h2.936l2.685-5.454h-5.62v-9.342h-5.974v24.447a9.914,9.914,0,0,0,.591,3.4,7.76,7.76,0,0,0,1.826,2.852,9.027,9.027,0,0,0,3.163,2.008,12.455,12.455,0,0,0,4.569.75c.321,0,.564-.006.771-.021a1.02,1.02,0,0,0,.313-.055v-5.392a3.738,3.738,0,0,1-.875.059,8.53,8.53,0,0,1-1.273-.115,4.107,4.107,0,0,1-1.441-.5,3.543,3.543,0,0,1-1.177-1.08,3.248,3.248,0,0,1-.5-1.919Z"
              transform="translate(-932.117 -524.235)"/>
        <path class="a"
              d="M996.468,539.031H999.4l2.685-5.454h-5.614v-9.342h-5.974v24.447a9.756,9.756,0,0,0,.592,3.4,7.734,7.734,0,0,0,1.826,2.853,8.985,8.985,0,0,0,3.159,2.008,12.489,12.489,0,0,0,4.576.75c.32,0,.564-.006.771-.021a1.019,1.019,0,0,0,.313-.055v-5.392a3.737,3.737,0,0,1-.875.059,8.9,8.9,0,0,1-1.273-.115,4.106,4.106,0,0,1-1.441-.5,3.6,3.6,0,0,1-1.174-1.08,3.249,3.249,0,0,1-.5-1.919Z"
              transform="translate(-928.938 -524.235)"/>
        <path class="a"
              d="M1013.711,531.7a14.6,14.6,0,0,0-4.737.769,9.567,9.567,0,0,0-3.294,1.921,7.6,7.6,0,0,0-1.93,2.793,9.251,9.251,0,0,0-.625,3.411v15.034h6.011V540.6a3.864,3.864,0,0,1,.325-1.731,2.7,2.7,0,0,1,.875-1.047,3.07,3.07,0,0,1,1.25-.5,7.946,7.946,0,0,1,1.345-.115h3.352l2.737-5.513Z"
              transform="translate(-925.782 -522.372)"/>
    </g>
    <g transform="translate(141.876 0)">
        <path class="a"
              d="M1017.46,530.237a6.619,6.619,0,0,1,.8-3.2,5.969,5.969,0,0,1,2.211-2.328,5.916,5.916,0,0,1,6.11,0,5.968,5.968,0,0,1,2.211,2.328,6.817,6.817,0,0,1-.011,6.429,6.075,6.075,0,0,1-2.217,2.328,5.888,5.888,0,0,1-6.093-.009,6.068,6.068,0,0,1-2.207-2.332A6.615,6.615,0,0,1,1017.46,530.237Zm1.042,0a5.623,5.623,0,0,0,.636,2.632,5.034,5.034,0,0,0,1.807,1.961,4.862,4.862,0,0,0,5.147,0,5.029,5.029,0,0,0,1.807-1.956,5.748,5.748,0,0,0,0-5.277,5,5,0,0,0-1.811-1.947,4.741,4.741,0,0,0-2.563-.731,4.817,4.817,0,0,0-2.525.7,4.973,4.973,0,0,0-1.832,1.931A5.544,5.544,0,0,0,1018.5,530.237Zm3.793.65v2.88h-1.29V526.5h2.4a3.152,3.152,0,0,1,2.046.6,2.028,2.028,0,0,1,.73,1.659,1.6,1.6,0,0,1-.913,1.452,1.5,1.5,0,0,1,.692.751,3.149,3.149,0,0,1,.2,1.184c0,.47.01.8.03.995a1.644,1.644,0,0,0,.115.487v.138h-1.324a6.759,6.759,0,0,1-.111-1.659,1.3,1.3,0,0,0-.282-.935,1.282,1.282,0,0,0-.94-.286Zm0-1.145h1.094a1.994,1.994,0,0,0,1.08-.27.815.815,0,0,0,.432-.721,1.051,1.051,0,0,0-.3-.85,1.8,1.8,0,0,0-1.1-.261h-1.2Z"
              transform="translate(-1017.46 -523.856)"/>
    </g>
</svg>