<svg xmlns="http://www.w3.org/2000/svg" viewBox="0 0 329.367 36.2808"><defs><style>.cls-1{isolation:isolate;}.cls-2{fill:#fff;}.cls-3,.cls-4{fill:none;}.cls-4{stroke:#fff;stroke-width:2px;}</style></defs><title>phone adv</title><g id="Layer_2" data-name="Layer 2"><g id="Layer_1-2" data-name="Layer 1"><g id="Group_342" data-name="Group 342"><g id="Ultimate_Experience" data-name="Ultimate Experience" class="cls-1"><g class="cls-1"><path class="cls-2" d="M75.6057,23.2554V31.57a4.7931,4.7931,0,0,1-.6368,2.4961A4.1479,4.1479,0,0,1,73.1271,35.71a6.5855,6.5855,0,0,1-2.8476.5713,5.4521,5.4521,0,0,1-3.85-1.27,4.506,4.506,0,0,1-1.3711-3.4765V23.2554h2.7168v7.8662a3.2952,3.2952,0,0,0,.5976,2.18,2.4825,2.4825,0,0,0,1.9766.6943,2.4273,2.4273,0,0,0,1.9385-.6992,3.3093,3.3093,0,0,0,.6025-2.1924V23.2554Z"/><path class="cls-2" d="M78.7521,36.105v-12.85h2.7246v10.6H86.69v2.25Z"/><path class="cls-2" d="M93.8791,36.105H91.1545V25.5229h-3.49V23.2554h9.7032v2.2675H93.8791Z"/><path class="cls-2" d="M99.3459,36.105v-12.85h2.7246v12.85Z"/><path class="cls-2" d="M110.7443,36.105l-3.0937-10.0811h-.0781q.1669,3.0762.166,4.1045V36.105h-2.4336v-12.85h3.709l3.041,9.8261h.0527l3.2246-9.8261h3.709v12.85h-2.5391V30.0229q0-.4306.0127-.9931t.1182-2.9883h-.0781L113.24,36.105Z"/><path class="cls-2" d="M130.1428,36.105l-.9317-3.0586h-4.6855l-.9317,3.0586h-2.9355l4.5351-12.9024h3.3321l4.5527,12.9024Zm-1.5821-5.3438q-1.2919-4.1573-1.455-4.7021t-.2325-.8613q-.29,1.125-1.6621,5.5634Z"/><path class="cls-2" d="M139.6525,36.105h-2.7246V25.5229h-3.49V23.2554h9.7031v2.2675h-3.4883Z"/><path class="cls-2" d="M152.52,36.105h-7.4v-12.85h7.4v2.2324h-4.6758v2.8213h4.35v2.2324h-4.35V33.855H152.52Z"/><path class="cls-2" d="M167.2756,36.105h-7.4v-12.85h7.4v2.2324H162.6v2.8213h4.3516v2.2324H162.6V33.855h4.6758Z"/><path class="cls-2" d="M180.3459,36.105h-3.1113l-2.9883-4.86-2.9883,4.86H168.34l4.2617-6.627-3.99-6.2226h3.0059l2.7695,4.623,2.7148-4.623h2.9356l-4.0332,6.372Z"/><path class="cls-2" d="M190.84,27.2632a3.9277,3.9277,0,0,1-1.2968,3.1728,5.5456,5.5456,0,0,1-3.6875,1.0987h-1.168v4.57h-2.7246v-12.85h4.1035a5.4669,5.4669,0,0,1,3.5557,1.0058A3.6721,3.6721,0,0,1,190.84,27.2632Zm-6.1523,2.039h.8965a2.9858,2.9858,0,0,0,1.8808-.496,1.7385,1.7385,0,0,0,.6231-1.4463,1.7821,1.7821,0,0,0-.5225-1.4151,2.4516,2.4516,0,0,0-1.64-.457h-1.2383Z"/><path class="cls-2" d="M200.6662,36.105h-7.4v-12.85h7.4v2.2324H195.99v2.8213h4.35v2.2324h-4.35V33.855h4.6758Z"/><path class="cls-2" d="M206.0705,31.1743V36.105h-2.7246v-12.85H207.09a6.4184,6.4184,0,0,1,3.877.9531,3.4051,3.4051,0,0,1,1.2558,2.8965,3.4125,3.4125,0,0,1-.623,2.0176,4.1384,4.1384,0,0,1-1.7676,1.3837q2.9,4.3331,3.7793,5.5987h-3.0234l-3.0664-4.9307Zm0-2.2148h.8789a3.366,3.366,0,0,0,1.9082-.4307,1.5371,1.5371,0,0,0,.6152-1.3535,1.4063,1.4063,0,0,0-.6289-1.3008,3.8152,3.8152,0,0,0-1.9472-.3867h-.8262Z"/><path class="cls-2" d="M215.2287,36.105v-12.85h2.7246v12.85Z"/><path class="cls-2" d="M228.5881,36.105h-7.4v-12.85h7.4v2.2324h-4.6758v2.8213h4.3516v2.2324h-4.3516V33.855h4.6758Z"/><path class="cls-2" d="M242.6682,36.105h-3.4629l-5.59-9.7207h-.0781q.167,2.5752.166,3.6738V36.105H231.27v-12.85h3.4356l5.582,9.624h.0605q-.1317-2.5048-.1308-3.542v-6.082h2.4512Z"/><path class="cls-2" d="M251.3615,25.3384a2.78,2.78,0,0,0-2.3828,1.1553,5.38,5.38,0,0,0-.8437,3.2216q0,4.298,3.2265,4.2979a10.1907,10.1907,0,0,0,3.2774-.6768v2.2852a9.1055,9.1055,0,0,1-3.5332.6592,5.3856,5.3856,0,0,1-4.2891-1.7012,7.1981,7.1981,0,0,1-1.4844-4.8818,7.9708,7.9708,0,0,1,.7285-3.5108,5.2817,5.2817,0,0,1,2.0967-2.3125,6.2127,6.2127,0,0,1,3.2041-.8037,8.6462,8.6462,0,0,1,3.7617.9053l-.8789,2.2148a14.5571,14.5571,0,0,0-1.4511-.5976A4.3191,4.3191,0,0,0,251.3615,25.3384Z"/><path class="cls-2" d="M264.7736,36.105h-7.4v-12.85h7.4v2.2324h-4.6758v2.8213h4.35v2.2324h-4.35V33.855h4.6758Z"/></g></g><g id="Rectangle_6" data-name="Rectangle 6"><path id="Path_42" data-name="Path 42" class="cls-3" d="M12.556,6.1761H316.81a11.8729,11.8729,0,0,1,11.873,11.872h0A11.8729,11.8729,0,0,1,316.81,29.921H12.556A11.8719,11.8719,0,0,1,.683,18.05v-.002h0A11.872,11.872,0,0,1,12.555,6.1761Z"/><path id="Path_43" data-name="Path 43" class="cls-4" d="M54.674,27.6051H12.556A11.556,11.556,0,0,1,1,16.0491H1A11.556,11.556,0,0,1,12.556,4.4931h0"/><path id="Path_44" data-name="Path 44" class="cls-4" d="M316.811,4.4931A11.5559,11.5559,0,0,1,328.367,16.049h0a11.556,11.556,0,0,1-11.556,11.556H274.653"/></g><g id="one_Protocol" data-name="one Protocol" class="cls-1"><g class="cls-1"><path class="cls-2" d="M23.6945,3.6719a3.9906,3.9906,0,0,1-.85,2.6885,2.9289,2.9289,0,0,1-2.3437.9882A2.9243,2.9243,0,0,1,18.1623,6.36a4.0056,4.0056,0,0,1-.85-2.6983A3.933,3.933,0,0,1,18.17.98,2.9486,2.9486,0,0,1,20.5109,0,2.9192,2.9192,0,0,1,22.85.9834,3.9915,3.9915,0,0,1,23.6945,3.6719Zm-5.84,0a3.657,3.657,0,0,0,.6836,2.37,2.3883,2.3883,0,0,0,1.9629.8379,2.4021,2.4021,0,0,0,1.9707-.83,3.66,3.66,0,0,0,.6806-2.3779,3.6234,3.6234,0,0,0-.6806-2.3662,2.4021,2.4021,0,0,0-1.961-.8223,2.4106,2.4106,0,0,0-1.9648.83A3.5894,3.5894,0,0,0,17.8547,3.6719Z"/><path class="cls-2" d="M30.5256,7.251h-.503L25.7941.9131h-.039q.0585,1.1323.0586,1.709V7.251h-.4786V.1123h.4981L30.0568,6.44h.0293q-.0439-.8789-.0439-1.67V.1123h.4834Z"/><path class="cls-2" d="M36.4484,7.251H32.5471V.1123h3.9013v.459H33.0451v2.7H36.258v.459H33.0451V6.792h3.4033Z"/></g><g class="cls-1"><path class="cls-2" d="M45.4816,2.3389a2.1838,2.1838,0,0,1-.72,1.7627,3.08,3.08,0,0,1-2.0488.61h-.6494V7.251H40.55V.1123h2.28a3.0377,3.0377,0,0,1,1.9755.5586A2.0412,2.0412,0,0,1,45.4816,2.3389ZM42.0637,3.4717h.498a1.6587,1.6587,0,0,0,1.0449-.2754.9664.9664,0,0,0,.3467-.8037.9913.9913,0,0,0-.29-.7862,1.365,1.365,0,0,0-.9112-.2539h-.6884Z"/><path class="cls-2" d="M48.343,4.5117V7.251H46.8293V.1123h2.08a3.5625,3.5625,0,0,1,2.1533.5293,1.891,1.891,0,0,1,.6982,1.6094,1.8953,1.8953,0,0,1-.3467,1.1211,2.2922,2.2922,0,0,1-.9814.7685q1.6113,2.4067,2.1,3.11h-1.68L49.1486,4.5117Zm0-1.23h.4882a1.87,1.87,0,0,0,1.06-.2393.8522.8522,0,0,0,.3418-.752.7814.7814,0,0,0-.3486-.7226,2.1185,2.1185,0,0,0-1.0821-.2149H48.343Z"/><path class="cls-2" d="M59.91,3.6719a3.8735,3.8735,0,0,1-.8789,2.7246,3.81,3.81,0,0,1-5.039,0,3.8881,3.8881,0,0,1-.8789-2.7344A3.8316,3.8316,0,0,1,53.9953.94,3.2935,3.2935,0,0,1,56.5217,0a3.2485,3.2485,0,0,1,2.5175.9473A3.8842,3.8842,0,0,1,59.91,3.6719Zm-5.21,0a2.98,2.98,0,0,0,.4541,1.8017,1.59,1.59,0,0,0,1.3574.6055q1.812,0,1.8115-2.4072,0-2.4126-1.8017-2.4121a1.5988,1.5988,0,0,0-1.3623.6084A2.967,2.967,0,0,0,54.7,3.6719Z"/><path class="cls-2" d="M64.1437,7.251H62.63V1.3721H60.6916V.1123h5.3906v1.26H64.1437Z"/><path class="cls-2" d="M73.66,3.6719a3.8735,3.8735,0,0,1-.8789,2.7246,3.81,3.81,0,0,1-5.039,0,3.8881,3.8881,0,0,1-.8789-2.7344A3.8316,3.8316,0,0,1,67.7453.94,3.2935,3.2935,0,0,1,70.2717,0a3.2485,3.2485,0,0,1,2.5175.9473A3.8842,3.8842,0,0,1,73.66,3.6719Zm-5.21,0a2.98,2.98,0,0,0,.4541,1.8017,1.59,1.59,0,0,0,1.3574.6055q1.812,0,1.8115-2.4072,0-2.4126-1.8017-2.4121a1.5988,1.5988,0,0,0-1.3623.6084A2.967,2.967,0,0,0,68.45,3.6719Z"/><path class="cls-2" d="M78.1721,1.27a1.5433,1.5433,0,0,0-1.3233.6416,2.9909,2.9909,0,0,0-.4687,1.79q0,2.3877,1.792,2.3877a5.6514,5.6514,0,0,0,1.8212-.376V6.9824a5.0564,5.0564,0,0,1-1.9628.3662,2.9922,2.9922,0,0,1-2.3829-.9453,3.9986,3.9986,0,0,1-.8251-2.7119,4.4345,4.4345,0,0,1,.4052-1.95A2.9336,2.9336,0,0,1,76.3928.4561,3.453,3.453,0,0,1,78.1721.01a4.8054,4.8054,0,0,1,2.09.5029l-.4883,1.2305a8.1028,8.1028,0,0,0-.8056-.3321A2.392,2.392,0,0,0,78.1721,1.27Z"/><path class="cls-2" d="M87.9914,3.6719a3.8739,3.8739,0,0,1-.8789,2.7246,3.81,3.81,0,0,1-5.0391,0,3.8886,3.8886,0,0,1-.8789-2.7344A3.8317,3.8317,0,0,1,82.0764.94,3.2932,3.2932,0,0,1,84.6027,0,3.2487,3.2487,0,0,1,87.12.9473,3.8842,3.8842,0,0,1,87.9914,3.6719Zm-5.21,0a2.9808,2.9808,0,0,0,.4541,1.8017,1.5905,1.5905,0,0,0,1.3575.6055q1.812,0,1.8115-2.4072,0-2.4126-1.8018-2.4121a1.5991,1.5991,0,0,0-1.3623.6084A2.9677,2.9677,0,0,0,82.7814,3.6719Z"/><path class="cls-2" d="M89.4709,7.251V.1123h1.5137V6.001H93.88v1.25Z"/></g></g><g id="one_DRM" data-name="one DRM" class="cls-1"><g class="cls-1"><path class="cls-2" d="M116.6945,3.6719a3.9906,3.9906,0,0,1-.85,2.6885,3.2677,3.2677,0,0,1-4.6826,0,4.0056,4.0056,0,0,1-.85-2.6983A3.933,3.933,0,0,1,111.17.98,2.9486,2.9486,0,0,1,113.5109,0,2.9192,2.9192,0,0,1,115.85.9834,3.9915,3.9915,0,0,1,116.6945,3.6719Zm-5.84,0a3.657,3.657,0,0,0,.6836,2.37,2.7361,2.7361,0,0,0,3.9336.0078,3.66,3.66,0,0,0,.6806-2.3779,3.6234,3.6234,0,0,0-.6806-2.3662,2.7449,2.7449,0,0,0-3.9258.0078A3.5894,3.5894,0,0,0,110.8547,3.6719Z"/><path class="cls-2" d="M123.5256,7.251h-.503L118.7941.9131h-.039q.0585,1.1323.0586,1.709V7.251h-.4786V.1123h.4981L123.0568,6.44h.0293q-.044-.8789-.0439-1.67V.1123h.4834Z"/><path class="cls-2" d="M129.4484,7.251h-3.9013V.1123h3.9013v.459h-3.4033v2.7h3.2129v.459h-3.2129V6.792h3.4033Z"/></g><g class="cls-1"><path class="cls-2" d="M139.4728,3.6133a3.5154,3.5154,0,0,1-1.0029,2.7,4.092,4.092,0,0,1-2.8984.9375H133.55V.1123h2.2412a3.7727,3.7727,0,0,1,2.7148.9229A3.3942,3.3942,0,0,1,139.4728,3.6133Zm-1.5722.039q0-2.3-2.0313-2.3h-.8056V6.001h.6494Q137.9016,6.001,137.9006,3.6523Z"/><path class="cls-2" d="M142.466,4.5117V7.251h-1.5137V.1123h2.08a3.5623,3.5623,0,0,1,2.1533.5293,1.8908,1.8908,0,0,1,.6983,1.6094,1.8959,1.8959,0,0,1-.3467,1.1211,2.2925,2.2925,0,0,1-.9815.7685q1.6114,2.4067,2.1,3.11h-1.68l-1.7041-2.7393Zm0-1.23h.4883a1.87,1.87,0,0,0,1.06-.2393.8522.8522,0,0,0,.3418-.752.7815.7815,0,0,0-.3487-.7226,2.1181,2.1181,0,0,0-1.082-.2149h-.459Z"/><path class="cls-2" d="M150.5764,7.251,148.8576,1.65h-.0439q.0938,1.7094.0927,2.28v3.32h-1.3525V.1123h2.06l1.69,5.459h.0293l1.792-5.459h2.06V7.251h-1.4111V3.8721c0-.1592.0029-.3438.0078-.5518s.0264-.7617.0654-1.66h-.0439L151.9631,7.251Z"/></g></g><g id="one_Player" data-name="one Player" class="cls-1"><g class="cls-1"><path class="cls-2" d="M177.6945,3.6719a3.9906,3.9906,0,0,1-.85,2.6885,3.2677,3.2677,0,0,1-4.6826,0,4.0056,4.0056,0,0,1-.85-2.6983A3.933,3.933,0,0,1,172.17.98,2.9486,2.9486,0,0,1,174.5109,0,2.9192,2.9192,0,0,1,176.85.9834,3.9915,3.9915,0,0,1,177.6945,3.6719Zm-5.84,0a3.657,3.657,0,0,0,.6836,2.37,2.7361,2.7361,0,0,0,3.9336.0078,3.66,3.66,0,0,0,.6806-2.3779,3.6234,3.6234,0,0,0-.6806-2.3662,2.7449,2.7449,0,0,0-3.9258.0078A3.5894,3.5894,0,0,0,171.8547,3.6719Z"/><path class="cls-2" d="M184.5256,7.251h-.503L179.7941.9131h-.039q.0585,1.1323.0586,1.709V7.251h-.4786V.1123h.4981L184.0568,6.44h.0293q-.0439-.8789-.0439-1.67V.1123h.4834Z"/><path class="cls-2" d="M190.4484,7.251h-3.9013V.1123h3.9013v.459h-3.4033v2.7h3.2129v.459h-3.2129V6.792h3.4033Z"/></g><g class="cls-1"><path class="cls-2" d="M199.4816,2.3389a2.1838,2.1838,0,0,1-.72,1.7627,3.08,3.08,0,0,1-2.0488.61h-.6494V7.251H194.55V.1123h2.28a3.0377,3.0377,0,0,1,1.9755.5586A2.0412,2.0412,0,0,1,199.4816,2.3389Zm-3.4179,1.1328h.498a1.6587,1.6587,0,0,0,1.0449-.2754.9664.9664,0,0,0,.3467-.8037.9913.9913,0,0,0-.29-.7862,1.365,1.365,0,0,0-.9112-.2539h-.6884Z"/><path class="cls-2" d="M200.8293,7.251V.1123h1.5137V6.001h2.8955v1.25Z"/><path class="cls-2" d="M210.8488,7.251l-.5176-1.6992h-2.6025l-.5176,1.6992H205.58L208.1.083H209.95L212.48,7.251ZM209.97,4.2822q-.7177-2.31-.8076-2.6123c-.0606-.2021-.1035-.3613-.13-.4785q-.1611.6255-.9228,3.0908Z"/><path class="cls-2" d="M215.6,3.0518,217.0891.1123H218.72l-2.3682,4.36V7.251h-1.5039v-2.73L212.48.1123H214.12Z"/><path class="cls-2" d="M223.73,7.251h-4.1114V.1123H223.73v1.24H221.132V2.92h2.417V4.16h-2.417V6.001H223.73Z"/><path class="cls-2" d="M226.7326,4.5117V7.251h-1.5137V.1123h2.08a3.5623,3.5623,0,0,1,2.1533.5293,1.8908,1.8908,0,0,1,.6983,1.6094,1.8959,1.8959,0,0,1-.3467,1.1211,2.2928,2.2928,0,0,1-.9814.7685q1.6113,2.4067,2.1,3.11h-1.68l-1.7041-2.7393Zm0-1.23h.4883a1.87,1.87,0,0,0,1.06-.2393.8522.8522,0,0,0,.3418-.752.7815.7815,0,0,0-.3487-.7226,2.1181,2.1181,0,0,0-1.082-.2149h-.459Z"/></g></g><g id="one_Source" data-name="one Source" class="cls-1"><g class="cls-1"><path class="cls-2" d="M254.6945,3.6719a3.9906,3.9906,0,0,1-.85,2.6885,3.2677,3.2677,0,0,1-4.6826,0,4.0056,4.0056,0,0,1-.85-2.6983A3.933,3.933,0,0,1,249.17.98,2.9486,2.9486,0,0,1,251.5109,0,2.9192,2.9192,0,0,1,253.85.9834,3.9915,3.9915,0,0,1,254.6945,3.6719Zm-5.84,0a3.657,3.657,0,0,0,.6836,2.37,2.7361,2.7361,0,0,0,3.9336.0078,3.66,3.66,0,0,0,.6806-2.3779,3.6234,3.6234,0,0,0-.6806-2.3662,2.7449,2.7449,0,0,0-3.9258.0078A3.5894,3.5894,0,0,0,248.8547,3.6719Z"/><path class="cls-2" d="M261.5256,7.251h-.503L256.7941.9131h-.039q.0585,1.1323.0586,1.709V7.251h-.4786V.1123h.4981L261.0568,6.44h.0293q-.0439-.8789-.0439-1.67V.1123h.4834Z"/><path class="cls-2" d="M267.4484,7.251h-3.9013V.1123h3.9013v.459h-3.4033v2.7h3.2129v.459h-3.2129V6.792h3.4033Z"/></g><g class="cls-1"><path class="cls-2" d="M275.7639,5.2686a1.8449,1.8449,0,0,1-.6954,1.5234,3.0231,3.0231,0,0,1-1.9365.5566,4.5507,4.5507,0,0,1-2.0215-.43V5.5127a8.3562,8.3562,0,0,0,1.2237.4541,3.6127,3.6127,0,0,0,.915.1318,1.3041,1.3041,0,0,0,.7647-.19.6522.6522,0,0,0,.2656-.5664.628.628,0,0,0-.1172-.374,1.3127,1.3127,0,0,0-.3438-.3145,8.9666,8.9666,0,0,0-.9257-.4834,4.4293,4.4293,0,0,1-.9815-.5908,2.2238,2.2238,0,0,1-.5224-.6592,1.8867,1.8867,0,0,1-.1954-.8789,1.8428,1.8428,0,0,1,.6426-1.4892A2.6665,2.6665,0,0,1,273.6105.01a4.1946,4.1946,0,0,1,1.0625.1318A7.3031,7.3031,0,0,1,275.73.5127L275.2414,1.69a7.0875,7.0875,0,0,0-.9443-.3272,3.0615,3.0615,0,0,0-.7354-.0928.9726.9726,0,0,0-.6592.2.663.663,0,0,0-.2295.5225.6454.6454,0,0,0,.0928.3486,1.0341,1.0341,0,0,0,.2959.2891,9.4527,9.4527,0,0,0,.959.5,3.8165,3.8165,0,0,1,1.3721.959A1.8709,1.8709,0,0,1,275.7639,5.2686Z"/><path class="cls-2" d="M283.5373,3.6719a3.8739,3.8739,0,0,1-.8789,2.7246,3.81,3.81,0,0,1-5.0391,0,3.8886,3.8886,0,0,1-.8789-2.7344A3.8317,3.8317,0,0,1,277.6223.94,3.2932,3.2932,0,0,1,280.1486,0a3.2487,3.2487,0,0,1,2.5176.9473A3.8842,3.8842,0,0,1,283.5373,3.6719Zm-5.21,0a2.9808,2.9808,0,0,0,.4541,1.8017,1.5905,1.5905,0,0,0,1.3575.6055q1.812,0,1.8115-2.4072,0-2.4126-1.8018-2.4121a1.5991,1.5991,0,0,0-1.3623.6084A2.9677,2.9677,0,0,0,278.3273,3.6719Z"/><path class="cls-2" d="M290.8273.1123V4.7314a2.67,2.67,0,0,1-.3535,1.3868,2.3058,2.3058,0,0,1-1.0234.9131,3.65,3.65,0,0,1-1.5821.3173,3.032,3.032,0,0,1-2.1386-.705,2.5042,2.5042,0,0,1-.7617-1.9317v-4.6h1.5087v4.37a1.8344,1.8344,0,0,0,.3321,1.211,1.3825,1.3825,0,0,0,1.0986.3857,1.3481,1.3481,0,0,0,1.0772-.3887,1.8383,1.8383,0,0,0,.3339-1.2177V.1123Z"/><path class="cls-2" d="M294.0891,4.5117V7.251h-1.5137V.1123h2.08a3.5625,3.5625,0,0,1,2.1533.5293,1.891,1.891,0,0,1,.6982,1.6094,1.8953,1.8953,0,0,1-.3467,1.1211,2.2922,2.2922,0,0,1-.9814.7685q1.6113,2.4067,2.1,3.11h-1.68l-1.7041-2.7393Zm0-1.23h.4882a1.87,1.87,0,0,0,1.06-.2393.8522.8522,0,0,0,.3418-.752.7814.7814,0,0,0-.3486-.7226,2.1185,2.1185,0,0,0-1.0821-.2149h-.4589Z"/><path class="cls-2" d="M302.2092,1.27a1.5433,1.5433,0,0,0-1.3233.6416,2.9909,2.9909,0,0,0-.4687,1.79q0,2.3877,1.792,2.3877a5.6524,5.6524,0,0,0,1.8213-.376V6.9824a5.0573,5.0573,0,0,1-1.9629.3662,2.9919,2.9919,0,0,1-2.3828-.9453,3.9986,3.9986,0,0,1-.8252-2.7119,4.4345,4.4345,0,0,1,.4052-1.95A2.9336,2.9336,0,0,1,300.43.4561,3.453,3.453,0,0,1,302.2092.01a4.8054,4.8054,0,0,1,2.09.5029l-.4883,1.2305a8.1028,8.1028,0,0,0-.8056-.3321A2.392,2.392,0,0,0,302.2092,1.27Z"/><path class="cls-2" d="M309.66,7.251H305.549V.1123H309.66v1.24h-2.5976V2.92h2.417V4.16h-2.417V6.001H309.66Z"/></g></g><circle id="Ellipse_4" data-name="Ellipse 4" class="cls-2" cx="101.683" cy="4.2171" r="1"/><circle id="Ellipse_195" data-name="Ellipse 195" class="cls-2" cx="162.683" cy="4.2171" r="1"/><circle id="Ellipse_196" data-name="Ellipse 196" class="cls-2" cx="239.683" cy="4.2171" r="1"/></g></g></g></svg>