<svg xmlns="http://www.w3.org/2000/svg" viewBox="0 0 1036 105.2998"><defs><style>.cls-1{isolation:isolate;}.cls-2{fill:#fff;}.cls-3,.cls-4{fill:none;}.cls-4{stroke:#fff;stroke-width:2px;}</style></defs><title>desktop adv</title><g id="Layer_2" data-name="Layer 2"><g id="Layer_1-2" data-name="Layer 1"><g id="Ultimate_Experience" data-name="Ultimate Experience" class="cls-1"><g class="cls-1"><path class="cls-2" d="M240.8711,64.7764V90.6436a14.9148,14.9148,0,0,1-1.9824,7.7656,12.8968,12.8968,0,0,1-5.7285,5.1133,20.476,20.476,0,0,1-8.8594,1.7773q-7.7109,0-11.9766-3.9512t-4.2656-10.8144V64.7764h8.4492V89.249q0,4.6217,1.8594,6.7813t6.1523,2.16q4.1558,0,6.0293-2.1738t1.8731-6.8223V64.7764Z"/><path class="cls-2" d="M250.66,104.7529V64.7764h8.4765V97.7529h16.2149v7Z"/><path class="cls-2" d="M297.7188,104.7529h-8.4766V71.8311H278.3867V64.7764h30.1875v7.0547H297.7188Z"/><path class="cls-2" d="M314.7266,104.7529V64.7764h8.4765v39.9765Z"/><path class="cls-2" d="M350.1914,104.7529,340.5664,73.39H340.32q.52,9.5713.52,12.77v18.5937h-7.5742V64.7764h11.5391l9.4609,30.57h.1641l10.0351-30.57h11.5391v39.9765h-7.9023V85.8311q0-1.3389.041-3.09.0409-1.749.3691-9.2969h-.2461L357.957,104.7529Z"/><path class="cls-2" d="M410.5391,104.7529l-2.8985-9.5156H393.0664l-2.8984,9.5156h-9.1328l14.1093-40.1406h10.3633l14.1641,40.1406Zm-4.9219-16.625q-4.02-12.933-4.5254-14.6289t-.7246-2.68q-.9024,3.501-5.168,17.3086Z"/><path class="cls-2" d="M440.125,104.7529h-8.4766V71.8311H420.793V64.7764h30.1875v7.0547H440.125Z"/><path class="cls-2" d="M480.1563,104.7529H457.1328V64.7764h23.0235v6.9453H465.6094V80.499h13.5351v6.9453H465.6094V97.7529h14.5469Z"/><path class="cls-2" d="M526.0664,104.7529H503.043V64.7764h23.0234v6.9453H511.52V80.499h13.5352v6.9453H511.52V97.7529h14.5469Z"/><path class="cls-2" d="M566.7266,104.7529h-9.68L547.75,89.6318l-9.2969,15.1211H529.375l13.2617-20.6172-12.414-19.3593h9.3515l8.6133,14.3828,8.4492-14.3828H565.77L553.2188,84.6006Z"/><path class="cls-2" d="M599.375,77.2451q0,6.4542-4.0332,9.8711-4.0328,3.4189-11.4707,3.418h-3.6367v14.2187h-8.4766V64.7764h12.7695q7.2731,0,11.0606,3.1308T599.375,77.2451Zm-19.1406,6.3438h2.789q3.91,0,5.8516-1.545a5.4071,5.4071,0,0,0,1.9414-4.498,5.5445,5.5445,0,0,0-1.6269-4.4023q-1.6275-1.421-5.1-1.4219h-3.8554Z"/><path class="cls-2" d="M629.9453,104.7529H606.9219V64.7764h23.0234v6.9453H615.3984V80.499h13.5352v6.9453H615.3984V97.7529h14.5469Z"/><path class="cls-2" d="M646.7617,89.4131v15.34h-8.4765V64.7764h11.6484q8.1489,0,12.0586,2.9668t3.91,9.01a10.6083,10.6083,0,0,1-1.9414,6.2754,12.8408,12.8408,0,0,1-5.4961,4.3067q9.0236,13.481,11.7579,17.4179h-9.4063l-9.543-15.34Zm0-6.8906h2.7344q4.02,0,5.9336-1.34a4.781,4.781,0,0,0,1.9141-4.2109,4.3749,4.3749,0,0,0-1.9551-4.0469q-1.9555-1.2027-6.0567-1.2031h-2.57Z"/><path class="cls-2" d="M675.2539,104.7529V64.7764h8.4766v39.9765Z"/><path class="cls-2" d="M716.8164,104.7529H693.793V64.7764h23.0234v6.9453H702.27V80.499h13.5352v6.9453H702.27V97.7529h14.5469Z"/><path class="cls-2" d="M760.6211,104.7529H749.8477L732.457,74.5107h-.2461q.52,8.0127.52,11.43v18.8125h-7.5742V64.7764h10.6914l17.3632,29.9414h.1914q-.41-7.793-.41-11.02V64.7764h7.6289Z"/><path class="cls-2" d="M787.6641,71.2568a8.6386,8.6386,0,0,0-7.41,3.5957q-2.625,3.5962-2.625,10.0215,0,13.3712,10.0352,13.3711A31.703,31.703,0,0,0,797.8633,96.14v7.1094A28.3241,28.3241,0,0,1,786.8711,105.3q-8.7231,0-13.3438-5.291t-4.621-15.1895a24.81,24.81,0,0,1,2.2695-10.9238,16.4008,16.4008,0,0,1,6.5215-7.1914,19.2935,19.2935,0,0,1,9.9668-2.502,26.9077,26.9077,0,0,1,11.7031,2.8165l-2.7344,6.8906a45.4657,45.4657,0,0,0-4.5117-1.8594A13.4681,13.4681,0,0,0,787.6641,71.2568Z"/><path class="cls-2" d="M829.3906,104.7529H806.3672V64.7764h23.0234v6.9453H814.8438V80.499h13.5351v6.9453H814.8438V97.7529h14.5468Z"/></g></g><g id="one_Protocol" data-name="one Protocol" class="cls-1"><g class="cls-1"><path class="cls-2" d="M79.0352,11.0156a11.9591,11.9591,0,0,1-2.5489,8.0635,8.7763,8.7763,0,0,1-7.0312,2.9668,8.76,8.76,0,0,1-7.0166-2.9668Q59.89,16.1142,59.89,10.9863q0-5.1123,2.5708-8.05A8.8554,8.8554,0,0,1,69.4844,0,8.756,8.756,0,0,1,76.501,2.9521Q79.0351,5.9038,79.0352,11.0156Zm-17.52,0q0,4.6,2.0508,7.1123A7.1643,7.1643,0,0,0,69.4551,20.64a7.2056,7.2056,0,0,0,5.9106-2.49q2.0434-2.49,2.0435-7.1338,0-4.6288-2.0435-7.0967A7.2011,7.2011,0,0,0,69.4844,1.45a7.2408,7.2408,0,0,0-5.896,2.49Q61.5156,6.4307,61.5156,11.0156Z"/><path class="cls-2" d="M99.5283,21.7529H98.02L85.334,2.7393h-.1172q.1758,3.3984.1758,5.1269V21.7529H83.957V.3369h1.4942L98.1221,19.3213H98.21q-.1318-2.6367-.1319-5.01V.3369h1.45Z"/><path class="cls-2" d="M117.2969,21.7529H105.5928V.3369h11.7041v1.377h-10.21V9.8145h9.6387v1.3769h-9.6387V20.376h10.21Z"/></g><g class="cls-1"><path class="cls-2" d="M144.3965,7.0166a6.5455,6.5455,0,0,1-2.1607,5.2881,9.2406,9.2406,0,0,1-6.145,1.831h-1.9482v7.6172h-4.541V.3369h6.8408a9.1,9.1,0,0,1,5.9253,1.6777A6.1148,6.1148,0,0,1,144.3965,7.0166ZM134.1426,10.415h1.4941a4.97,4.97,0,0,0,3.1348-.8281,2.8945,2.8945,0,0,0,1.04-2.4092,2.97,2.97,0,0,0-.8716-2.3584,4.0839,4.0839,0,0,0-2.7319-.7617h-2.0654Z"/><path class="cls-2" d="M152.9805,13.5352v8.2177H148.44V.3369h6.24q4.3652,0,6.46,1.59a5.6714,5.6714,0,0,1,2.0948,4.8261,5.6785,5.6785,0,0,1-1.04,3.3614,6.8755,6.8755,0,0,1-2.9443,2.3076q4.834,7.2216,6.2988,9.331H160.51l-5.1123-8.2177Zm0-3.6914h1.4648a5.604,5.604,0,0,0,3.1787-.7178A2.5621,2.5621,0,0,0,158.6494,6.87a2.3436,2.3436,0,0,0-1.0473-2.168,6.3569,6.3569,0,0,0-3.2447-.6445h-1.3769Z"/><path class="cls-2" d="M187.6826,11.0156q0,5.3174-2.6367,8.1739t-7.5586,2.8564q-4.9218,0-7.5586-2.8564t-2.6367-8.2032q0-5.3466,2.644-8.167Q172.58.0009,177.5166,0t7.5513,2.8418Q187.6826,5.6836,187.6826,11.0156Zm-15.63,0a8.946,8.946,0,0,0,1.3623,5.4053,4.7669,4.7669,0,0,0,4.0723,1.8164q5.4346,0,5.4346-7.2217,0-7.2363-5.4053-7.2363A4.8014,4.8014,0,0,0,173.43,5.6025,8.9116,8.9116,0,0,0,172.0527,11.0156Z"/><path class="cls-2" d="M200.3828,21.7529h-4.541V4.1162h-5.8154V.3369h16.1718V4.1162h-5.8154Z"/><path class="cls-2" d="M228.9326,11.0156q0,5.3174-2.6367,8.1739t-7.5586,2.8564q-4.9218,0-7.5586-2.8564t-2.6367-8.2032q0-5.3466,2.644-8.167Q213.83.0009,218.7666,0t7.5513,2.8418Q228.9326,5.6836,228.9326,11.0156Zm-15.63,0a8.946,8.946,0,0,0,1.3623,5.4053,4.7669,4.7669,0,0,0,4.0723,1.8164q5.4346,0,5.4346-7.2217,0-7.2363-5.4053-7.2363A4.8014,4.8014,0,0,0,214.68,5.6025,8.9116,8.9116,0,0,0,213.3027,11.0156Z"/><path class="cls-2" d="M242.4678,3.8086a4.6276,4.6276,0,0,0-3.97,1.9268,8.96,8.96,0,0,0-1.4062,5.3681q0,7.1631,5.376,7.1631a16.9946,16.9946,0,0,0,5.4638-1.1279v3.8086a15.1739,15.1739,0,0,1-5.8886,1.0986q-4.673,0-7.1485-2.834-2.4756-2.8359-2.4756-8.1377a13.2921,13.2921,0,0,1,1.2159-5.8525A8.7852,8.7852,0,0,1,237.1284,1.37,10.3265,10.3265,0,0,1,242.4678.0293a14.41,14.41,0,0,1,6.2695,1.5088L247.2725,5.23a24.2438,24.2438,0,0,0-2.417-.9961A7.2109,7.2109,0,0,0,242.4678,3.8086Z"/><path class="cls-2" d="M271.9258,11.0156q0,5.3174-2.6367,8.1739t-7.5586,2.8564q-4.9219,0-7.5586-2.8564t-2.6367-8.2032q0-5.3466,2.644-8.167Q256.8233.0009,261.76,0t7.5512,2.8418Q271.9258,5.6836,271.9258,11.0156Zm-15.63,0a8.946,8.946,0,0,0,1.3623,5.4053,4.7667,4.7667,0,0,0,4.0723,1.8164q5.4345,0,5.4345-7.2217,0-7.2363-5.4052-7.2363a4.8011,4.8011,0,0,0-4.0869,1.8232A8.9116,8.9116,0,0,0,256.2959,11.0156Z"/><path class="cls-2" d="M276.3643,21.7529V.3369h4.541v17.666h8.6865v3.75Z"/></g></g><g id="one_DRM" data-name="one DRM" class="cls-1"><g class="cls-1"><path class="cls-2" d="M369.0352,11.0156a11.9591,11.9591,0,0,1-2.5489,8.0635,9.7979,9.7979,0,0,1-14.0478,0q-2.5488-2.9649-2.5489-8.0928,0-5.1123,2.5708-8.05A8.8554,8.8554,0,0,1,359.4844,0a8.756,8.756,0,0,1,7.0166,2.9521Q369.0351,5.9038,369.0352,11.0156Zm-17.52,0q0,4.6,2.0508,7.1123a8.209,8.209,0,0,0,11.7993.0215q2.0435-2.49,2.0435-7.1338,0-4.6288-2.0435-7.0967a8.2325,8.2325,0,0,0-11.7773.0215Q351.5156,6.4307,351.5156,11.0156Z"/><path class="cls-2" d="M389.5283,21.7529H388.02L375.334,2.7393h-.1172q.1758,3.3984.1758,5.1269V21.7529H373.957V.3369h1.4942l12.6709,18.9844h.0879q-.1318-2.6367-.1319-5.01V.3369h1.45Z"/><path class="cls-2" d="M407.2969,21.7529H395.5928V.3369h11.7041v1.377h-10.21V9.8145h9.6387v1.3769h-9.6387V20.376h10.21Z"/></g><g class="cls-1"><path class="cls-2" d="M437.37,10.84q0,5.2881-3.01,8.1006t-8.6939,2.8125h-6.0644V.3369h6.7236q5.2441,0,8.1445,2.7686A10.1836,10.1836,0,0,1,437.37,10.84Zm-4.7168.1172q0-6.8994-6.0937-6.8994h-2.417V18.0029h1.9482Q432.6533,18.0029,432.6533,10.957Z"/><path class="cls-2" d="M446.35,13.5352v8.2177h-4.541V.3369h6.24q4.3653,0,6.46,1.59a5.6713,5.6713,0,0,1,2.0947,4.8261,5.6791,5.6791,0,0,1-1.04,3.3614,6.8758,6.8758,0,0,1-2.9444,2.3076q4.834,7.2216,6.2989,9.331h-5.0391l-5.1123-8.2177Zm0-3.6914h1.4649a5.6042,5.6042,0,0,0,3.1787-.7178A2.5621,2.5621,0,0,0,452.0186,6.87a2.3437,2.3437,0,0,0-1.0474-2.168,6.3567,6.3567,0,0,0-3.2446-.6445H446.35Z"/><path class="cls-2" d="M470.6807,21.7529,465.5244,4.9512h-.1318q.2782,5.1268.2783,6.8408v9.9609h-4.0576V.3369h6.1816l5.0684,16.377h.0879L478.3271.3369h6.1817v21.416h-4.2334V11.6162q0-.7177.022-1.6553t.1977-4.98h-.1318l-5.5225,16.7724Z"/></g></g><g id="one_Player" data-name="one Player" class="cls-1"><g class="cls-1"><path class="cls-2" d="M566.0352,11.0156a11.9591,11.9591,0,0,1-2.5489,8.0635,9.7979,9.7979,0,0,1-14.0478,0q-2.5488-2.9649-2.5489-8.0928,0-5.1123,2.5713-8.05A8.8529,8.8529,0,0,1,556.4844,0a8.756,8.756,0,0,1,7.0166,2.9521Q566.0351,5.9038,566.0352,11.0156Zm-17.52,0q0,4.6,2.0508,7.1123a8.2084,8.2084,0,0,0,11.7988.0215q2.045-2.49,2.044-7.1338,0-4.6288-2.044-7.0967a8.2325,8.2325,0,0,0-11.7773.0215Q548.5166,6.4307,548.5156,11.0156Z"/><path class="cls-2" d="M586.5283,21.7529H585.02L572.334,2.7393h-.1172q.1758,3.3984.1758,5.1269V21.7529H570.957V.3369h1.4942l12.6709,18.9844h.0879q-.1318-2.6367-.1319-5.01V.3369h1.45Z"/><path class="cls-2" d="M604.2969,21.7529H592.5928V.3369h11.7041v1.377h-10.21V9.8145h9.6387v1.3769h-9.6387V20.376h10.21Z"/></g><g class="cls-1"><path class="cls-2" d="M631.3965,7.0166a6.5483,6.5483,0,0,1-2.16,5.2881,9.2438,9.2438,0,0,1-6.1455,1.831h-1.9482v7.6172h-4.541V.3369h6.8408a9.0962,9.0962,0,0,1,5.9248,1.6777A6.1121,6.1121,0,0,1,631.3965,7.0166ZM621.1426,10.415h1.4941a4.97,4.97,0,0,0,3.1348-.8281,2.8945,2.8945,0,0,0,1.04-2.4092,2.9671,2.9671,0,0,0-.872-2.3584,4.081,4.081,0,0,0-2.7315-.7617h-2.0654Z"/><path class="cls-2" d="M635.44,21.7529V.3369h4.541v17.666h8.6865v3.75Z"/><path class="cls-2" d="M665.498,21.7529l-1.5527-5.0976h-7.8076l-1.5527,5.0976h-4.8926L657.251.249h5.5517l7.5879,21.5039Zm-2.6367-8.9062q-2.1533-6.9288-2.4238-7.8369-.2724-.9083-.3887-1.4356-.4833,1.875-2.7685,9.2725Z"/><path class="cls-2" d="M679.751,9.1553,684.2188.3369h4.8925L682.0068,13.418v8.3349h-4.5117V13.5645L670.3906.3369h4.9219Z"/><path class="cls-2" d="M704.1406,21.7529h-12.334V.3369h12.334V4.0576h-7.7929V8.76h7.2509v3.7207h-7.2509v5.5224h7.7929Z"/><path class="cls-2" d="M713.1494,13.5352v8.2177h-4.541V.3369h6.24q4.3653,0,6.46,1.59a5.6713,5.6713,0,0,1,2.0947,4.8261,5.6791,5.6791,0,0,1-1.04,3.3614,6.8758,6.8758,0,0,1-2.9444,2.3076q4.8341,7.2216,6.2989,9.331h-5.0391l-5.1123-8.2177Zm0-3.6914h1.4649a5.6042,5.6042,0,0,0,3.1787-.7178A2.5621,2.5621,0,0,0,718.8184,6.87a2.3452,2.3452,0,0,0-1.0469-2.168,6.361,6.361,0,0,0-3.2451-.6445h-1.377Z"/></g></g><g id="one_Source" data-name="one Source" class="cls-1"><g class="cls-1"><path class="cls-2" d="M808.0352,11.0156a11.9591,11.9591,0,0,1-2.5489,8.0635,9.7979,9.7979,0,0,1-14.0478,0q-2.5488-2.9649-2.5489-8.0928,0-5.1123,2.5713-8.05A8.8529,8.8529,0,0,1,798.4844,0a8.756,8.756,0,0,1,7.0166,2.9521Q808.0351,5.9038,808.0352,11.0156Zm-17.52,0q0,4.6,2.0508,7.1123a8.2084,8.2084,0,0,0,11.7988.0215q2.045-2.49,2.044-7.1338,0-4.6288-2.044-7.0967a8.2325,8.2325,0,0,0-11.7773.0215Q790.5166,6.4307,790.5156,11.0156Z"/><path class="cls-2" d="M828.5283,21.7529H827.02L814.334,2.7393h-.1172q.1758,3.3984.1758,5.1269V21.7529H812.957V.3369h1.4942l12.6709,18.9844h.0879q-.1318-2.6367-.1319-5.01V.3369h1.45Z"/><path class="cls-2" d="M846.2969,21.7529H834.5928V.3369h11.7041v1.377h-10.21V9.8145h9.6387v1.3769h-9.6387V20.376h10.21Z"/></g><g class="cls-1"><path class="cls-2" d="M871.2432,15.8057a5.5384,5.5384,0,0,1-2.0869,4.57,9.071,9.071,0,0,1-5.8086,1.67,13.64,13.64,0,0,1-6.0645-1.2891V16.5381a24.9618,24.9618,0,0,0,3.67,1.3623,10.8471,10.8471,0,0,0,2.7461.3955,3.9087,3.9087,0,0,0,2.293-.5713,1.956,1.956,0,0,0,.7978-1.6992,1.874,1.874,0,0,0-.3515-1.12,3.9469,3.9469,0,0,0-1.0322-.9453,26.6674,26.6674,0,0,0-2.7764-1.45,13.16,13.16,0,0,1-2.9444-1.7725A6.6552,6.6552,0,0,1,858.1182,8.76a5.6427,5.6427,0,0,1-.586-2.6368,5.532,5.532,0,0,1,1.9268-4.4677,8.0009,8.0009,0,0,1,5.3242-1.626,12.5637,12.5637,0,0,1,3.1856.3955,21.8692,21.8692,0,0,1,3.1718,1.1133l-1.4648,3.53a21.48,21.48,0,0,0-2.834-.9815,9.1354,9.1354,0,0,0-2.2051-.2783,2.9191,2.9191,0,0,0-1.9775.6006,1.981,1.981,0,0,0-.6885,1.5674,1.9416,1.9416,0,0,0,.2783,1.0478,3.0557,3.0557,0,0,0,.8858.8633A27.2889,27.2889,0,0,0,866.0137,9.39a11.4536,11.4536,0,0,1,4.1162,2.879A5.6162,5.6162,0,0,1,871.2432,15.8057Z"/><path class="cls-2" d="M894.5635,11.0156q0,5.3174-2.6367,8.1739t-7.5586,2.8564q-4.922,0-7.5586-2.8564t-2.6367-8.2032q0-5.3466,2.6435-8.167Q879.462.0009,884.3975,0t7.5517,2.8418Q894.5625,5.6836,894.5635,11.0156Zm-15.63,0a8.946,8.946,0,0,0,1.3623,5.4053,4.7667,4.7667,0,0,0,4.0723,1.8164q5.4345,0,5.4345-7.2217,0-7.2363-5.4052-7.2363a4.8015,4.8015,0,0,0-4.087,1.8232A8.9123,8.9123,0,0,0,878.9336,11.0156Z"/><path class="cls-2" d="M916.4336.3369V14.1943a7.98,7.98,0,0,1-1.0625,4.16,6.9055,6.9055,0,0,1-3.0684,2.7393,10.9759,10.9759,0,0,1-4.7461.9521,9.0835,9.0835,0,0,1-6.416-2.1172,7.5064,7.5064,0,0,1-2.2851-5.793V.3369h4.5263v13.11a5.4917,5.4917,0,0,0,.9961,3.6328,4.141,4.141,0,0,0,3.2959,1.1572,4.0542,4.0542,0,0,0,3.2305-1.1641,5.5287,5.5287,0,0,0,1.0029-3.6552V.3369Z"/><path class="cls-2" d="M926.2188,13.5352v8.2177h-4.5411V.3369h6.24q4.3651,0,6.46,1.59a5.6714,5.6714,0,0,1,2.0948,4.8261,5.6785,5.6785,0,0,1-1.04,3.3614,6.8755,6.8755,0,0,1-2.9443,2.3076q4.8339,7.2216,6.2988,9.331H933.748l-5.1123-8.2177Zm0-3.6914h1.4648a5.6042,5.6042,0,0,0,3.1787-.7178A2.5621,2.5621,0,0,0,931.8877,6.87a2.3418,2.3418,0,0,0-1.0479-2.168,6.3518,6.3518,0,0,0-3.2441-.6445h-1.3769Z"/><path class="cls-2" d="M950.5791,3.8086a4.6274,4.6274,0,0,0-3.97,1.9268,8.96,8.96,0,0,0-1.4063,5.3681q0,7.1631,5.376,7.1631a16.9957,16.9957,0,0,0,5.4639-1.1279v3.8086a15.174,15.174,0,0,1-5.8887,1.0986q-4.6728,0-7.1484-2.834Q940.53,16.376,940.53,11.0742a13.2921,13.2921,0,0,1,1.2158-5.8525A8.78,8.78,0,0,1,945.24,1.37,10.3221,10.3221,0,0,1,950.5791.0293a14.41,14.41,0,0,1,6.2695,1.5088L955.3838,5.23a24.2438,24.2438,0,0,0-2.417-.9961A7.21,7.21,0,0,0,950.5791,3.8086Z"/><path class="cls-2" d="M972.9326,21.7529h-12.334V.3369h12.334V4.0576H965.14V8.76h7.251v3.7207H965.14v5.5224h7.793Z"/></g></g><g id="Ellipse_4" data-name="Ellipse 4"><circle class="cls-3" cx="320" cy="11.7531" r="5"/><circle class="cls-4" cx="320" cy="11.7531" r="4"/></g><g id="Ellipse_5" data-name="Ellipse 5"><circle class="cls-3" cx="516" cy="11.7531" r="5"/><circle class="cls-4" cx="516" cy="11.7531" r="4"/></g><g id="Ellipse_6" data-name="Ellipse 6"><circle class="cls-3" cx="758" cy="11.7531" r="5"/><circle class="cls-4" cx="758" cy="11.7531" r="4"/></g><g id="Rectangle_6" data-name="Rectangle 6"><path id="Path_42" data-name="Path 42" class="cls-3" d="M37.5,10.7531h961a37.5,37.5,0,0,1,37.5,37.5h0a37.5,37.5,0,0,1-37.5,37.5H37.5A37.5,37.5,0,0,1,0,48.2531H0a37.5,37.5,0,0,1,37.5-37.5Z"/><path id="Path_43" data-name="Path 43" class="cls-4" d="M138.945,84.7531H37.5A36.5,36.5,0,0,1,1,48.2531H1a36.5,36.5,0,0,1,36.5-36.5"/><path id="Path_44" data-name="Path 44" class="cls-4" d="M998.5,11.7531a36.5,36.5,0,0,1,36.5,36.5h0a36.5,36.5,0,0,1-36.5,36.5H896.926"/></g></g></g></svg>