<svg xmlns="http://www.w3.org/2000/svg" width="180" height="180" viewBox="0 0 180 180"><defs><style>.a,.e,.f{fill:#1d1040;}.b{fill:#1e1f73;}.c,.d{fill:none;}.c,.f{stroke:#fff;stroke-linecap:round;stroke-linejoin:round;}.c,.d,.e,.f{stroke-width:2px;}.d,.e{stroke:#5a5dff;stroke-miterlimit:10;}</style></defs><g transform="translate(-800 -1497)"><rect class="a" width="180" height="180" transform="translate(800 1497)"/><path class="b" d="M882.64,1671.378a54.246,54.246,0,0,1-27.329-7.092,51.477,51.477,0,0,1-19.435-19.441q-.517-.909-1-1.836a15.391,15.391,0,0,1,9.864-21.8l.349-.093a15.52,15.52,0,0,1,17.606,7.741,21.551,21.551,0,0,0,8.38,8.4,22.416,22.416,0,0,0,11.562,2.951,22.873,22.873,0,0,0,12.157-3.244,21.712,21.712,0,0,0,7.36-7.36,24.44,24.44,0,0,0,.276-23.848,21.259,21.259,0,0,0-8.109-8.108,22.947,22.947,0,0,0-11.684-2.968h-31.4a15.008,15.008,0,0,1-11.087-4.561,15.511,15.511,0,0,1-4.314-11.027v-50.76a15.869,15.869,0,0,1,4.249-11.053,14.852,14.852,0,0,1,11.152-4.723h62.792a15.12,15.12,0,0,1,11.078,4.739,15.617,15.617,0,0,1,4.51,11.037,15.47,15.47,0,0,1-15.588,15.4h-47.2V1563.5H882.64a54.276,54.276,0,0,1,27.326,7.091,51.986,51.986,0,0,1,19.521,19.52,56.2,56.2,0,0,1,0,54.657,51.98,51.98,0,0,1-19.521,19.521A54.251,54.251,0,0,1,882.64,1671.378Z"/><path class="c" d="M906,1592.261a22.088,22.088,0,0,0-3.677-2.619,22.947,22.947,0,0,0-11.684-2.968"/><path class="c" d="M912.484,1616.285a23.4,23.4,0,0,0,.824-4.534"/><path class="c" d="M881.717,1630.55a23.243,23.243,0,0,0,8.923,1.652,24.987,24.987,0,0,0,6.073-.711"/><path class="c" d="M849.78,1645.212a52.042,52.042,0,0,1-5.9-8.367q-.517-.909-1-1.836A15.341,15.341,0,0,1,848.9,1614.8"/><path class="c" d="M896.982,1663.043a59.408,59.408,0,0,1-6.342.335,58.414,58.414,0,0,1-8.923-.673"/><path class="c" d="M850.315,1583.965a14.9,14.9,0,0,1-2.158-1.852,15.511,15.511,0,0,1-4.314-11.027v-50.76a15.869,15.869,0,0,1,4.249-11.053,14.852,14.852,0,0,1,11.152-4.723h62.792a15.12,15.12,0,0,1,11.078,4.739,15.617,15.617,0,0,1,4.51,11.037,15.47,15.47,0,0,1-15.588,15.4h-47.2V1555.5H890.64a54.276,54.276,0,0,1,27.326,7.091,51.986,51.986,0,0,1,19.521,19.52,56.2,56.2,0,0,1,0,54.657,52.692,52.692,0,0,1-7.907,10.539"/><path class="d" d="M818,1631l48-49,47,19,48-50"/><circle class="e" cx="7" cy="7" r="7" transform="translate(811 1624)"/><circle class="e" cx="7" cy="7" r="7" transform="translate(859 1575)"/><circle class="e" cx="7" cy="7" r="7" transform="translate(906 1594)"/><circle class="e" cx="7" cy="7" r="7" transform="translate(954 1544)"/><rect class="f" width="24" height="28" transform="translate(806 1646)"/><rect class="f" width="24" height="66" transform="translate(854 1608)"/><rect class="f" width="24" height="55" transform="translate(901 1619)"/><rect class="f" width="24" height="104" transform="translate(949 1570)"/></g></svg>