<svg xmlns="http://www.w3.org/2000/svg" width="80" height="80" viewBox="0 0 80 80"><defs><style>.a{fill:#5a5dff;opacity:0.08;}.b,.e{fill:#fff;}.b,.c{stroke:#5a5dff;}.b,.c,.d,.e{stroke-miterlimit:10;stroke-width:2px;}.c,.d{fill:none;}.d{stroke:#1d1040;}.e{stroke:#bd00ff;stroke-linecap:round;}.f{fill:#bd00ff;}</style></defs><g transform="translate(-519 -800)"><rect class="a" width="48" height="48" rx="3" transform="translate(528 824)"/><circle class="b" cx="3" cy="3" r="3" transform="translate(568 801)"/><circle class="b" cx="3" cy="3" r="3" transform="translate(557 801)"/><circle class="b" cx="3" cy="3" r="3" transform="translate(546 801)"/><circle class="b" cx="3" cy="3" r="3" transform="translate(568 873)"/><circle class="b" cx="3" cy="3" r="3" transform="translate(557 873)"/><circle class="b" cx="3" cy="3" r="3" transform="translate(546 873)"/><circle class="b" cx="3" cy="3" r="3" transform="translate(520 826)"/><circle class="b" cx="3" cy="3" r="3" transform="translate(520 837)"/><circle class="b" cx="3" cy="3" r="3" transform="translate(520 848)"/><circle class="b" cx="3" cy="3" r="3" transform="translate(592 826)"/><circle class="b" cx="3" cy="3" r="3" transform="translate(592 837)"/><circle class="b" cx="3" cy="3" r="3" transform="translate(592 848)"/><rect class="c" width="48" height="48" rx="3" transform="translate(536 816)"/><rect class="d" width="36" height="36" rx="2.571" transform="translate(542 822)"/><path class="e" d="M568.012,828.947a7.266,7.266,0,0,0-3.472-.94c-6.245-.109-9.016,5.935-7.54,10.492l-9,9V852h3.879a1.5,1.5,0,0,0,1.06-.439L554,850.5V849a1.5,1.5,0,0,1,1.5-1.5h0A1.5,1.5,0,0,0,557,846h0a1.5,1.5,0,0,1,1.5-1.5H560l1.5-1.5a8.381,8.381,0,0,0,8.238-1.8A7.755,7.755,0,0,0,568.012,828.947Z"/><circle class="f" cx="1.5" cy="1.5" r="1.5" transform="translate(564.5 832.499)"/><line class="c" y1="8" transform="translate(560 807)"/><line class="c" y1="8" transform="translate(571 807)"/><line class="c" y1="8" transform="translate(549 807)"/><line class="c" y1="9" transform="translate(560 864)"/><line class="c" y1="9" transform="translate(571 864)"/><line class="c" y1="9" transform="translate(549 864)"/><line class="c" x1="9" transform="translate(526 840)"/><line class="c" x1="9" transform="translate(526 829)"/><line class="c" x1="9" transform="translate(526 851)"/><line class="c" x1="8" transform="translate(584 840)"/><line class="c" x1="8" transform="translate(584 829)"/><line class="c" x1="8" transform="translate(584 851)"/></g></svg>