<svg xmlns="http://www.w3.org/2000/svg" width="180" height="180" viewBox="0 0 180 180"><defs><style>.a,.d{fill:#1d1040;}.b{fill:#1e1f73;}.c,.e,.g,.i{fill:none;}.c,.d,.i{stroke:#fff;}.c,.d{stroke-linecap:round;}.c,.d,.e,.g{stroke-linejoin:round;}.c,.d,.e,.g,.i{stroke-width:2px;}.e{stroke:#5a5dff;}.f{fill:#bd00ff;}.g{stroke:#bd00ff;}.h{fill:#5a5dff;}.i{stroke-miterlimit:10;}</style></defs><g transform="translate(-1000 -1497)"><rect class="a" width="180" height="180" transform="translate(1000 1497)"/><path class="b" d="M1061.768,1671.378a51.744,51.744,0,0,1-26-6.524,46.769,46.769,0,0,1-17.97-18.182,52.558,52.558,0,0,1-6.395-25.85,53.215,53.215,0,0,1,8.036-28.9l42.738-71.161c4.263-6.628,9.8-8.019,13.694-8.019a15.726,15.726,0,0,1,11.388,4.578,15.271,15.271,0,0,1,4.576,11.01,14.887,14.887,0,0,1-2.428,8.277l-20.464,33.908a49.652,49.652,0,0,1,18.641,6.088,46.832,46.832,0,0,1,17.973,18.186,55.829,55.829,0,0,1,0,51.887,46.8,46.8,0,0,1-17.972,18.184A51.4,51.4,0,0,1,1061.768,1671.378Zm-.188-72.38c-5.97,0-10.688,1.934-14.428,5.911-3.838,4.085-5.7,9.29-5.7,15.913s1.835,11.8,5.611,15.82c3.673,3.915,8.422,5.816,14.521,5.816s10.9-1.911,14.641-5.843c3.822-4.017,5.679-9.183,5.679-15.793s-1.866-11.828-5.705-15.914C1072.457,1600.932,1067.676,1599,1061.58,1599Z"/><path class="c" d="M1088.117,1660.3a53.727,53.727,0,0,1-18.349,3.078,51.744,51.744,0,0,1-26-6.524,46.769,46.769,0,0,1-17.97-18.182,52.558,52.558,0,0,1-6.4-25.85,53.215,53.215,0,0,1,8.036-28.9l29.773-49.574m39.2-4.094-19.47,32.261a52.786,52.786,0,0,1,6.309,1.166m-16.776-44.758,3.7-6.162c4.263-6.628,9.8-8.019,13.694-8.019a15.726,15.726,0,0,1,11.388,4.578q.555.556,1.046,1.148M1069.58,1591c-5.97,0-10.688,1.934-14.428,5.911-3.838,4.085-5.7,9.29-5.7,15.913s1.835,11.8,5.611,15.82c3.673,3.915,8.422,5.816,14.521,5.816"/><path class="d" d="M1124,1673c11,0,49-19,49-53v-46.108a5.006,5.006,0,0,0-4.8-4.992c-31.4-1.352-33.71-15.9-44.2-15.9s-12.8,14.548-44.2,15.9a5.006,5.006,0,0,0-4.8,4.992V1620C1075,1654,1113,1673,1124,1673Z"/><path class="e" d="M1124,1663c-6.354-.07-39-15.234-39-43v-41.422c19.383-1.723,28.469-8.36,34.633-12.864,1.741-1.273,3.715-2.714,4.367-2.714s2.626,1.441,4.367,2.714c6.164,4.5,15.25,11.141,34.633,12.864V1620C1163,1647.766,1130.354,1662.93,1124,1663Z"/><path class="f" d="M1117.349,1598.735l22.216,13.078a2.931,2.931,0,0,1,0,5.041l-22.216,13.077a2.892,2.892,0,0,1-4.349-2.52v-26.155A2.892,2.892,0,0,1,1117.349,1598.735Z"/><path class="e" d="M1011,1516c10.855,0,10.855,32,21.711,32s10.856-32,21.713-32,10.857,32,21.714,32,10.856-32,21.713-32,10.857,32,21.714,32,10.859-32,21.718-32,10.858,32,21.717,32"/><path class="g" d="M1011,1525c10.855,0,10.855,14,21.711,14s10.856-14,21.713-14,10.857,14,21.714,14,10.856-14,21.713-14,10.857,14,21.714,14,10.859-14,21.718-14,10.858,14,21.717,14"/><circle class="h" cx="2" cy="2" r="2" transform="translate(1122 1574)"/><circle class="h" cx="2" cy="2" r="2" transform="translate(1122 1652)"/><circle class="h" cx="2" cy="2" r="2" transform="translate(1152 1584)"/><circle class="h" cx="2" cy="2" r="2" transform="translate(1091 1584)"/><circle class="h" cx="2" cy="2" r="2" transform="translate(1152 1621)"/><circle class="h" cx="2" cy="2" r="2" transform="translate(1091 1621)"/><path class="i" d="M1115.9,1636.334a8.92,8.92,0,0,1-8.9-8.923v-26.155a8.882,8.882,0,0,1,13.393-7.692l22.216,13.078a8.932,8.932,0,0,1,0,15.382l-22.216,13.079A8.89,8.89,0,0,1,1115.9,1636.334Z"/></g></svg>