<svg xmlns="http://www.w3.org/2000/svg" width="180" height="180" viewBox="0 0 180 180"><defs><style>.a,.d,.f{fill:#1d1040;}.b{fill:#1e1f73;}.c,.g,.j{fill:none;}.c,.e,.f,.j{stroke:#fff;}.c,.d,.f,.g,.i{stroke-linecap:round;}.c,.d,.f,.i{stroke-linejoin:round;}.c,.d,.f,.g,.i,.j{stroke-width:2px;}.d,.g{stroke:#5a5dff;}.e,.i{fill:#fff;}.e,.g,.j{stroke-miterlimit:10;}.h{fill:#bd00ff;}.i{stroke:#bd00ff;}</style></defs><g transform="translate(-600 -1750)"><rect class="a" width="180" height="180" transform="translate(600 1750)"/><path class="b" d="M713.388,1924.378a14.427,14.427,0,0,1-10.78-4.728,15.626,15.626,0,0,1-4.244-10.86V1891.1h-56.6a15.074,15.074,0,0,1-11.344-4.727,15.4,15.4,0,0,1-4.245-10.673,14.911,14.911,0,0,1,3.125-9.3l71.99-94.357a15.627,15.627,0,0,1,12.666-6.5,14.03,14.03,0,0,1,10.924,4.889,16.135,16.135,0,0,1,3.912,10.887v80.48h5.279a16.817,16.817,0,0,1,10.66,3.347c2.253,1.774,4.929,5.168,4.929,11.3a13.919,13.919,0,0,1-4.808,10.57,15.847,15.847,0,0,1-10.781,4.078h-5.279v17.688a15.452,15.452,0,0,1-4.411,10.936A14.956,14.956,0,0,1,713.388,1924.378Zm-15.024-62.572v-38.442L669.1,1861.806Z"/><path class="c" d="M736.788,1832.5v21.308h5.279a16.817,16.817,0,0,1,10.66,3.347c2.253,1.774,4.929,5.168,4.929,11.3a13.919,13.919,0,0,1-4.808,10.57,15.847,15.847,0,0,1-10.781,4.078h-5.279v17.688a15.452,15.452,0,0,1-4.411,10.936,14.956,14.956,0,0,1-10.989,4.652,14.427,14.427,0,0,1-10.78-4.728,15.626,15.626,0,0,1-4.244-10.86V1883.1H689.793m-50.627-27.15,67.641-88.658m-.443,86.512v-38.442L677.1,1853.806Z"/><path class="d" d="M762.035,1773.9a14.361,14.361,0,0,0-2.93.3,12.409,12.409,0,0,0-6.379-8.656,11.762,11.762,0,0,0-10.547-.2,16,16,0,0,0-20.667-9.951,16.764,16.764,0,0,0-9.657,21.294,13.868,13.868,0,0,0,.4,27.7h49.776a15.254,15.254,0,0,0,0-30.495Z"/><rect class="e" width="36" height="30" rx="3" transform="translate(719.833 1796.398)"/><path class="e" d="M737.833,1776.4a13.936,13.936,0,0,0-14,13.871v6.129h5.21v-6.129a8.791,8.791,0,0,1,17.581,0v6.129h5.209v-6.129A13.936,13.936,0,0,0,737.833,1776.4Z"/><rect class="f" width="36" height="30" rx="3" transform="translate(719.833 1796.398)"/><path class="f" d="M737.833,1776.4a13.936,13.936,0,0,0-14,13.871v6.129h5.21v-6.129a8.791,8.791,0,0,1,17.581,0v6.129h5.209v-6.129A13.936,13.936,0,0,0,737.833,1776.4Z"/><path class="f" d="M742.833,1808.635a5.005,5.005,0,1,0-10,0,5.279,5.279,0,0,0,2.5,4.53v5.615a2.5,2.5,0,1,0,5,0v-5.615A5.279,5.279,0,0,0,742.833,1808.635Z"/><rect class="d" width="78" height="54" rx="3.003" transform="translate(603.333 1864.333)"/><path class="g" d="M3,0H75a3,3,0,0,1,3,3V7.915A.085.085,0,0,1,77.915,8H.085A.085.085,0,0,1,0,7.915V3A3,3,0,0,1,3,0Z" transform="translate(603.333 1864.333)"/><path class="g" d="M3,0H75a3,3,0,0,1,3,3V7.98a.02.02,0,0,1-.02.02H.02A.02.02,0,0,1,0,7.98V3A3,3,0,0,1,3,0Z" transform="translate(681.333 1918.333) rotate(180)"/><path class="h" d="M637.508,1883.534l11.108,6.539a1.466,1.466,0,0,1,0,2.521l-11.108,6.538a1.446,1.446,0,0,1-2.175-1.26V1884.8A1.447,1.447,0,0,1,637.508,1883.534Z"/><path class="i" d="M622.333,1914.333h0Z"/><path class="i" d="M674.333,1914.333h0Z"/><rect class="e" width="36" height="30" rx="3" transform="translate(652.333 1897.333)"/><path class="e" d="M670.333,1877.333a13.936,13.936,0,0,0-14,13.871v6.129h5.21V1891.2a8.791,8.791,0,0,1,17.581,0v6.129h5.209V1891.2A13.936,13.936,0,0,0,670.333,1877.333Z"/><rect class="f" width="36" height="30" rx="3" transform="translate(652.333 1897.333)"/><path class="f" d="M670.333,1877.333a13.936,13.936,0,0,0-14,13.871v6.129h5.21V1891.2a8.791,8.791,0,0,1,17.581,0v6.129h5.209V1891.2A13.936,13.936,0,0,0,670.333,1877.333Z"/><path class="f" d="M675.333,1909.57a5.005,5.005,0,1,0-10,0,5.279,5.279,0,0,0,2.5,4.53v5.615a2.5,2.5,0,1,0,5,0V1914.1A5.279,5.279,0,0,0,675.333,1909.57Z"/><path class="c" d="M616,1847v-44.848A26.152,26.152,0,0,1,642.152,1776H680"/><circle class="j" cx="4" cy="4" r="4" transform="translate(612 1847)"/><circle class="j" cx="4" cy="4" r="4" transform="translate(680 1772)"/></g></svg>