<svg xmlns="http://www.w3.org/2000/svg" width="180" height="180" viewBox="0 0 180 180"><defs><style>.a,.g,.h,.k{fill:#1d1040;}.b{fill:#1e1f73;}.c{fill:none;}.c,.h{stroke:#fff;}.c,.g,.h,.i{stroke-linecap:round;stroke-linejoin:round;}.c,.g,.h{stroke-width:2px;}.d{fill:#bd00ff;}.e{fill:#5a5dff;}.f,.i{fill:#fff;}.g{stroke:#5a5dff;}.j,.k{stroke:none;}</style></defs><g transform="translate(-400 -1750)"><rect class="a" width="180" height="180" transform="translate(400 1750)"/><path class="b" d="M484.143,1924.378a57.849,57.849,0,0,1-27.754-6.639A50.232,50.232,0,0,1,436.9,1899.4a49.71,49.71,0,0,1-7.071-26.138,16.121,16.121,0,0,1,3.912-10.888,14.233,14.233,0,0,1,21.473,0,16.138,16.138,0,0,1,3.912,10.888,20.71,20.71,0,0,0,3.073,11.075,22.923,22.923,0,0,0,8.62,8.227,24.248,24.248,0,0,0,12.2,3.086c6.9,0,12.143-1.753,16.042-5.361,3.765-3.482,5.594-8.313,5.594-14.771a24.077,24.077,0,0,0-2.7-11.417,19.508,19.508,0,0,0-7.145-7.827,18.279,18.279,0,0,0-9.907-2.768,15.166,15.166,0,0,1-11.179-4.652,15.673,15.673,0,0,1-4.41-11.124,15.318,15.318,0,0,1,15.589-15.588,15.044,15.044,0,0,0,7.364-1.99,16.361,16.361,0,0,0,5.957-5.466,12.968,12.968,0,0,0-2.01-16.571c-2.884-2.7-6.584-4.017-11.311-4.017a23.883,23.883,0,0,0-10.488,2.237,18.5,18.5,0,0,0-7.157,5.673,11.316,11.316,0,0,0-2.3,6.958,16.771,16.771,0,0,1-3.845,11.092,13.709,13.709,0,0,1-10.8,5.06,13.948,13.948,0,0,1-10.675-4.725,15.954,15.954,0,0,1-3.973-10.863,41.192,41.192,0,0,1,6.6-22.711A45.1,45.1,0,0,1,459.987,1771a53.5,53.5,0,0,1,24.533-5.636,47.931,47.931,0,0,1,22.742,5.495,42.754,42.754,0,0,1,16.466,15.183,40.144,40.144,0,0,1,6.084,21.606,32.039,32.039,0,0,1-7.845,21.492,49.208,49.208,0,0,1-7.641,7.161,42.2,42.2,0,0,1,13.291,12.207c5.323,7.7,8.022,16.85,8.022,27.2a45.932,45.932,0,0,1-7.138,25.024,49.642,49.642,0,0,1-18.889,17.405A53.676,53.676,0,0,1,484.143,1924.378Z"/><path class="c" d="M503.253,1810.082a16.448,16.448,0,0,0,2.964-3.4,12.968,12.968,0,0,0-2.01-16.571c-2.884-2.7-6.584-4.017-11.311-4.017a23.883,23.883,0,0,0-10.488,2.237,18.5,18.5,0,0,0-7.157,5.673,11.316,11.316,0,0,0-2.3,6.958,16.771,16.771,0,0,1-3.845,11.092,13.709,13.709,0,0,1-10.8,5.06,13.948,13.948,0,0,1-10.675-4.725,15.444,15.444,0,0,1-3.717-7.8"/><path class="c" d="M437.827,1865.258a16.121,16.121,0,0,1,3.912-10.888,14.233,14.233,0,0,1,21.473,0,16.138,16.138,0,0,1,3.912,10.888,20.71,20.71,0,0,0,3.073,11.075,22.923,22.923,0,0,0,8.62,8.227,24.248,24.248,0,0,0,12.2,3.086c6.9,0,12.143-1.753,16.042-5.361,3.765-3.482,5.594-8.313,5.594-14.771a24.077,24.077,0,0,0-2.7-11.417"/><path class="c" d="M513.717,1912a54.009,54.009,0,0,1-21.574,4.374,57.849,57.849,0,0,1-27.754-6.639q-1.857-1-3.6-2.115"/><path class="c" d="M458.994,1768.914a47.64,47.64,0,0,1,8.993-5.916,53.5,53.5,0,0,1,24.533-5.636,47.932,47.932,0,0,1,22.742,5.495,42.754,42.754,0,0,1,16.466,15.183,40.144,40.144,0,0,1,6.084,21.606,32.039,32.039,0,0,1-7.845,21.492,49.208,49.208,0,0,1-7.641,7.161,42.2,42.2,0,0,1,13.291,12.207,45.606,45.606,0,0,1,7.834,22.548"/><path class="d" d="M562.261,1774.543a4.164,4.164,0,0,1,.865,3.514,7.937,7.937,0,0,1-1.907,3.62,17.578,17.578,0,0,1-2.392,2.269,9.963,9.963,0,0,0-2.605,2.8,3.656,3.656,0,0,0-.292,3.047c.592,1.712,1.969,2.984,2.72,4.6-.83-.733-1.642-1.492-2.4-2.3a11,11,0,0,1-2.039-2.808,3.354,3.354,0,0,1-.23-2.392,5.517,5.517,0,0,1,1.4-2.049c1.6-1.6,3.567-2.772,5.13-4.4a6.542,6.542,0,0,0,1.828-3.187,6.416,6.416,0,0,0-.08-2.72Z"/><path class="d" d="M560.954,1784.6a17.939,17.939,0,0,1,5.748-2.649,29.7,29.7,0,0,0-4.67,3.276,4.344,4.344,0,0,0-1.2,1.721,2.2,2.2,0,0,0,.106,1.537,19.758,19.758,0,0,0,1.474,2.313,2.449,2.449,0,0,1,.168,2.225,5.9,5.9,0,0,1-2.34,2.428c-.123.071-.229.2-.379.221a3.078,3.078,0,0,0,1.112-2.26,2.718,2.718,0,0,0-.8-1.7,5.215,5.215,0,0,1-1.457-3.77,5.092,5.092,0,0,1,2.242-3.346Z"/><path class="e" d="M567.029,1794.807a2.21,2.21,0,0,1,1.5-.636,3.288,3.288,0,0,1,2.64.759,2.4,2.4,0,0,1,.786,2.119,3.758,3.758,0,0,1-1.43,2.243,11.251,11.251,0,0,1-4.318,1.969,1.367,1.367,0,0,1,.3-.256,10.556,10.556,0,0,0,3.179-2.384,2.869,2.869,0,0,0,.759-2.3,2.25,2.25,0,0,0-2.084-1.73,4.565,4.565,0,0,0-1.333.221Z"/><path class="e" d="M549.282,1795.61a12.733,12.733,0,0,1,5.165-1.121,20.438,20.438,0,0,0-3.064,1.015,1.418,1.418,0,0,0-.627.477c-.07.185.124.309.265.371a6.636,6.636,0,0,0,1.907.344,52.731,52.731,0,0,0,6.782-.079c2.224-.142,4.432-.442,6.63-.795a12.23,12.23,0,0,0-1.43.751,2.214,2.214,0,0,1-.768.264,40.858,40.858,0,0,1-8.229.83c-1.069.009-2.128-.008-3.188-.079a18.389,18.389,0,0,1-3.531-.477,2.363,2.363,0,0,1-.954-.441.311.311,0,0,1-.018-.442,3.572,3.572,0,0,1,1.06-.618Z"/><path class="e" d="M551.366,1799.38a5.28,5.28,0,0,1,1.554-.759c-.177.212-.424.415-.442.706a.493.493,0,0,0,.292.415,2.9,2.9,0,0,0,.944.248,30.082,30.082,0,0,0,5.121.158,37.677,37.677,0,0,0,4.662-.609,5.185,5.185,0,0,0,1.457.91,27.928,27.928,0,0,1-5.7,1.015,24.108,24.108,0,0,1-5.474-.177,7.535,7.535,0,0,1-2.1-.618,1.141,1.141,0,0,1-.645-.635.711.711,0,0,1,.336-.654Z"/><path class="e" d="M552.39,1803.23a3.879,3.879,0,0,1,1.4-.636c-.159.15-.442.336-.318.592.238.309.68.344,1.033.424a22.555,22.555,0,0,0,4.494.194,30.368,30.368,0,0,0,3.347-.468,16.234,16.234,0,0,0,1.977.971,14.666,14.666,0,0,1-3.284.98,17.381,17.381,0,0,1-5.739.08,8,8,0,0,1-2.455-.76,1.487,1.487,0,0,1-.724-.688.636.636,0,0,1,.265-.689Z"/><path class="e" d="M547.49,1805.729a8.726,8.726,0,0,1,2.507-.521,1.844,1.844,0,0,1,1,.185,7.564,7.564,0,0,0-2.967.786.98.98,0,0,0-.512.486c0,.273.309.362.512.45a16.182,16.182,0,0,0,3.991.768,69.207,69.207,0,0,0,12.026-.115,27.621,27.621,0,0,0,4.494-.75,2.543,2.543,0,0,0,1.307-.733.613.613,0,0,0-.124-.768c.3.168.724.379.662.786-.115.423-.547.644-.9.847a14.251,14.251,0,0,1-3.612,1.121,49.23,49.23,0,0,1-10.93.76,61.268,61.268,0,0,1-8.229-.83,2.62,2.62,0,0,1-1.387-.592c-.229-.265-.026-.635.2-.83a5.724,5.724,0,0,1,1.969-1.05Z"/><path class="e" d="M569.492,1808.748a5.957,5.957,0,0,0,2.508-1.342,2.441,2.441,0,0,1-1.43,1.643,13.953,13.953,0,0,1-4.053,1.2,51.19,51.19,0,0,1-8.935.53,34.494,34.494,0,0,1-6.1-.565,4.632,4.632,0,0,1-1.4-.5,42.43,42.43,0,0,0,5.4.494,57.916,57.916,0,0,0,8.918-.4,30.563,30.563,0,0,0,5.094-1.06Z"/><path class="f" d="M546.227,1821.842c.009-2.9-.009-5.792.009-8.7.6.018,1.2,0,1.8.018-.009,3.24,0,6.49-.009,9.739a5.747,5.747,0,0,1-.477,2.675,4.348,4.348,0,0,1-2.269,1.828c-.291-.318-.556-.653-.847-.971h0a3.126,3.126,0,0,0,1.659-1.943,15.631,15.631,0,0,0,.133-2.649Z"/><path class="f" d="M549.706,1816.633a7.657,7.657,0,0,1,3.814-.636,2.671,2.671,0,0,1,1.8.866,2.539,2.539,0,0,1,.486,1.624v5.925h-1.333c-.045-.292-.089-.592-.124-.892a4.6,4.6,0,0,1-1.669.936,3.6,3.6,0,0,1-2.2-.106,1.929,1.929,0,0,1-1.113-1.271,2.679,2.679,0,0,1,.477-2.446,3.506,3.506,0,0,1,2.084-1.051,11.25,11.25,0,0,1,2.181-.141,3.12,3.12,0,0,0-.23-1.66,1.462,1.462,0,0,0-1.157-.556,6.791,6.791,0,0,0-2.772.468c-.088-.354-.168-.707-.247-1.06m2.189,4.1a1.237,1.237,0,0,0-.856.812,1.577,1.577,0,0,0,.2,1.36,1.333,1.333,0,0,0,1.236.406,3.326,3.326,0,0,0,1.634-.8c0-.663-.009-1.316,0-1.978a6.7,6.7,0,0,0-2.217.2Z"/><path class="f" d="M565.228,1816.633a7.628,7.628,0,0,1,3.832-.636,2.688,2.688,0,0,1,1.757.83,2.629,2.629,0,0,1,.521,1.748c-.009,1.952.009,3.894-.018,5.846-.441-.018-.883.008-1.324-.018-.044-.3-.08-.592-.133-.883a3.954,3.954,0,0,1-2.2,1.033,2.885,2.885,0,0,1-2.234-.574,2.553,2.553,0,0,1,.8-4.009,7.55,7.55,0,0,1,3.4-.529,3.362,3.362,0,0,0-.195-1.6,1.352,1.352,0,0,0-1.085-.61,6.69,6.69,0,0,0-2.879.46c-.079-.354-.168-.707-.247-1.06m2.163,4.106a1.263,1.263,0,0,0-.83.794,1.629,1.629,0,0,0,.194,1.369,1.362,1.362,0,0,0,1.263.406,3.228,3.228,0,0,0,1.625-.83c-.018-.644-.009-1.3-.009-1.951a6.622,6.622,0,0,0-2.243.212Z"/><path class="f" d="M556.813,1816.1h1.855c.362,1.166.715,2.322,1.077,3.488.212.715.477,1.421.627,2.154.079.327.15.663.247.98a32.863,32.863,0,0,0,1.642-6.622h1.8a33.7,33.7,0,0,1-2.578,8.309h-2.119c-.848-2.773-1.7-5.536-2.552-8.309Z"/><path class="g" d="M562,1901.964v-17.435a6.81,6.81,0,0,0-3.406-5.9l-15.1-8.717a6.81,6.81,0,0,0-6.811,0l-15.1,8.717a6.81,6.81,0,0,0-3.406,5.9v17.435a6.812,6.812,0,0,0,3.406,5.9l15.1,8.717a6.809,6.809,0,0,0,6.811,0l15.1-8.717A6.812,6.812,0,0,0,562,1901.964Z"/><path class="f" d="M554.565,1894.054h-1.646v1.647h-1.647v-1.647h-1.647v-1.647h1.647v-1.647h1.647v1.647h1.646Z"/><path class="f" d="M560.573,1894.054h-1.647v1.647H557.28v-1.647h-1.646v-1.647h1.646v-1.647h1.647v1.647h1.647Z"/><path class="c" d="M546.327,1896.756a7.158,7.158,0,1,1-.046-7.1l6.257-3.6a14.376,14.376,0,1,0,.037,14.324Z"/><path class="g" d="M454,1771.53a3.7,3.7,0,0,0-.466-1.888,3.561,3.561,0,0,0-1.364-1.329q-7.553-4.353-15.117-8.707a3.721,3.721,0,0,0-4.022.035c-2,1.177-12.052,6.935-15.035,8.672a3.486,3.486,0,0,0-1.83,3.228v17.531a3.815,3.815,0,0,0,.443,1.853A3.649,3.649,0,0,0,418,1792.3c2.995,1.737,13.031,7.483,15.035,8.672a3.7,3.7,0,0,0,4.022.035q7.553-4.371,15.117-8.707a3.5,3.5,0,0,0,1.387-1.375,3.826,3.826,0,0,0,.443-1.853Z"/><path class="h" d="M435.071,1786.554a6.259,6.259,0,1,1,5.408-9.395l5.467-3.147a12.554,12.554,0,1,0,.047,12.507l-5.467-3.159A6.264,6.264,0,0,1,435.071,1786.554Z"/><path class="f" d="M451.214,1779.584v-1.247H450.2v-1.014h-1.247v1.014h-1.515v-1.014h-1.247v1.014h-1v1.247h1v1.5h-1v1.248h1v1.014h1.247v-1.014h1.515v1.014H450.2v-1.014h1.014v-1.248H450.2v-1.5Zm-2.261,1.5h-1.515v-1.5h1.515Z"/><path class="g" d="M426.4,1872.063H447.47a8.9,8.9,0,0,1,2.987.505,8.431,8.431,0,0,1,5.439,6.62,10.259,10.259,0,0,1,.1,1.648v20.529a9.653,9.653,0,0,1-.163,1.959,8.448,8.448,0,0,1-5.722,6.353,8.917,8.917,0,0,1-2.66.386c-.4,0-21.116,0-21.428-.015a8.483,8.483,0,0,1-4.28-1.41,8.583,8.583,0,0,1-2.9-3.325,8.376,8.376,0,0,1-.847-3.7v-21.108a7.878,7.878,0,0,1,.788-3.636,8.425,8.425,0,0,1,2.868-3.34,8.327,8.327,0,0,1,4.265-1.44A2.447,2.447,0,0,1,426.4,1872.063Z"/><g class="i"><path class="j" d="M 450.2229919433594 1905.4287109375 L 449.1988830566406 1903.711181640625 C 449.1724853515625 1903.668212890625 447.9614562988281 1901.72900390625 446.1180114746094 1901.72900390625 C 445.3780212402344 1901.72900390625 444.6913452148438 1902.084106445313 443.8219299316406 1902.533813476563 C 442.3899536132813 1903.2744140625 440.6077880859375 1904.196044921875 437.5580139160156 1904.196044921875 C 434.9931640625 1904.196044921875 432.5247802734375 1903.701416015625 430.2214965820313 1902.725952148438 C 428.3829345703125 1901.947265625 426.6481018066406 1900.863037109375 425.0652160644531 1899.503662109375 C 422.3722839355469 1897.190795898438 421.0506591796875 1894.883544921875 420.9956970214844 1894.786499023438 L 422.4156188964844 1893.45849609375 C 425.658447265625 1895.592041015625 428.8731689453125 1896.673828125 431.9705505371094 1896.673828125 C 433.7335510253906 1896.673828125 435.1220092773438 1896.3212890625 436.0609741210938 1895.974731445313 C 431.3613891601563 1892.194091796875 424.0446472167969 1882.673217773438 423.7021789550781 1882.226196289063 L 425.1443176269531 1880.856689453125 C 427.2388000488281 1882.640258789063 429.0210266113281 1884.077758789063 430.5077819824219 1885.2265625 C 428.8312683105469 1882.971069335938 427.4033813476563 1880.917114257813 427.2854309082031 1880.747192382813 L 428.8185729980469 1879.474365234375 C 432.3857727050781 1883.087036132813 438.8048400878906 1887.889892578125 441.4012145996094 1889.788818359375 C 441.9593505859375 1887.404418945313 441.7480773925781 1884.878540039063 440.7688598632813 1882.260864257813 C 439.8846740722656 1879.897216796875 438.6736145019531 1878.345458984375 438.6614685058594 1878.330078125 L 440.0083923339844 1876.883056640625 C 442.9766540527344 1878.90185546875 445.2939147949219 1881.147583007813 446.8957824707031 1883.557739257813 C 448.1991577148438 1885.518798828125 449.0346069335938 1887.591186523438 449.37890625 1889.717407226563 C 449.8124084472656 1892.394409179688 449.3542785644531 1894.479370117188 449.0580749511719 1895.449951171875 C 450.0168151855469 1896.7021484375 452.3452758789063 1900.241455078125 450.9815368652344 1903.57470703125 L 450.2229919433594 1905.4287109375 Z"/><path class="k" d="M 439.4460144042969 1877.7099609375 C 439.4460144042969 1877.7099609375 444.5719909667969 1884.173950195313 441.9570007324219 1891.426025390625 C 441.9570007324219 1891.426025390625 432.7439880371094 1884.873046875 428.1069946289063 1880.177001953125 C 428.1069946289063 1880.177001953125 433.9030151367188 1888.529052734375 435.9679870605469 1890.237060546875 C 435.9679870605469 1890.237060546875 432.5060119628906 1888.43896484375 424.4960021972656 1881.618041992188 C 424.4960021972656 1881.618041992188 433.6950073242188 1893.6259765625 438.0190124511719 1896.136962890625 C 438.0190124511719 1896.136962890625 435.7677307128906 1897.673828125 431.9705505371094 1897.673828125 C 429.2899169921875 1897.673828125 425.8386535644531 1896.907592773438 421.8659973144531 1894.2939453125 C 421.8659973144531 1894.2939453125 426.9039916992188 1903.196044921875 437.5580139160156 1903.196044921875 C 442.3429870605469 1903.196044921875 443.739990234375 1900.72900390625 446.1180114746094 1900.72900390625 C 448.5849914550781 1900.72900390625 450.0559997558594 1903.196044921875 450.0559997558594 1903.196044921875 C 451.4970092773438 1899.673950195313 447.9309997558594 1895.64697265625 447.9309997558594 1895.64697265625 C 447.9309997558594 1895.64697265625 451.9880065917969 1886.239990234375 439.4460144042969 1877.7099609375 M 439.4398193359375 1875.707885742188 C 439.8319396972656 1875.707885742188 440.2267761230469 1875.822265625 440.5707702636719 1876.05615234375 C 443.6465454101563 1878.148071289063 446.0547790527344 1880.485717773438 447.7286071777344 1883.004150390625 C 449.1114196777344 1885.084838867188 449.998779296875 1887.289672851563 450.3660278320313 1889.557495117188 C 450.7697143554688 1892.05029296875 450.4607238769531 1894.05712890625 450.1541137695313 1895.252685546875 C 450.5079650878906 1895.751586914063 450.93896484375 1896.425537109375 451.3287048339844 1897.218383789063 C 452.5191040039063 1899.639770507813 452.7190856933594 1901.968627929688 451.9070739746094 1903.953369140625 C 451.6175842285156 1904.660888671875 450.9591369628906 1905.156982421875 450.1963195800781 1905.207153320313 C 450.1507568359375 1905.210205078125 450.1052856445313 1905.211669921875 450.0601196289063 1905.211669921875 C 449.3525085449219 1905.211669921875 448.701416015625 1904.84765625 448.3433227539063 1904.229248046875 C 448.2751770019531 1904.125122070313 447.335205078125 1902.72900390625 446.1180114746094 1902.72900390625 C 445.6443786621094 1902.72900390625 445.1371154785156 1902.979370117188 444.2812805175781 1903.421997070313 C 442.8336486816406 1904.170654296875 440.85107421875 1905.196044921875 437.5580139160156 1905.196044921875 C 434.8584289550781 1905.196044921875 432.2588500976563 1904.6748046875 429.8314819335938 1903.646728515625 C 427.8977661132813 1902.827758789063 426.074951171875 1901.689086914063 424.4136657714844 1900.26220703125 C 421.589599609375 1897.836791992188 420.1838684082031 1895.38232421875 420.1253967285156 1895.279052734375 C 419.6704406738281 1894.47509765625 419.8252258300781 1893.464111328125 420.4998779296875 1892.833251953125 C 420.8810424804688 1892.476806640625 421.3722229003906 1892.2939453125 421.8665161132813 1892.2939453125 C 422.2471313476563 1892.2939453125 422.6295166015625 1892.402221679688 422.9652404785156 1892.623168945313 C 426.0420532226563 1894.6474609375 429.0718994140625 1895.673828125 431.9705505371094 1895.673828125 C 432.7149353027344 1895.673828125 433.3878173828125 1895.603759765625 433.9804382324219 1895.497436523438 C 432.3600769042969 1893.997680664063 430.4162292480469 1891.921142578125 428.1170654296875 1889.236938476563 C 425.2739868164063 1885.917846679688 423.0036010742188 1882.958618164063 422.9083557128906 1882.834350585938 C 422.2863464355469 1882.0224609375 422.3771362304688 1880.8720703125 423.1188049316406 1880.167724609375 C 423.503662109375 1879.80224609375 423.99951171875 1879.618041992188 424.4962463378906 1879.618041992188 C 424.956787109375 1879.618041992188 425.4180603027344 1879.7763671875 425.7926635742188 1880.095336914063 C 425.9014587402344 1880.18798828125 426.009033203125 1880.279418945313 426.1161193847656 1880.3701171875 C 426.0545043945313 1879.730224609375 426.3028869628906 1879.075317382813 426.8294982910156 1878.63818359375 C 427.2014770507813 1878.329345703125 427.6547546386719 1878.177001953125 428.1065063476563 1878.177001953125 C 428.6245727539063 1878.177001953125 429.1405944824219 1878.377319335938 429.5301208496094 1878.771728515625 C 432.5442504882813 1881.82421875 437.6484985351563 1885.756958007813 440.6689147949219 1888.005615234375 C 440.8056640625 1886.294921875 440.5337219238281 1884.509033203125 439.8536071777344 1882.668701171875 C 439.0442810058594 1880.478637695313 437.9295654296875 1879.018310546875 437.876708984375 1878.949829101563 C 437.2584838867188 1878.177978515625 437.30126953125 1877.075073242188 437.9723205566406 1876.34814453125 C 438.3620300292969 1875.926025390625 438.8983154296875 1875.707885742188 439.4398193359375 1875.707885742188 Z"/></g><path class="g" d="M489.765,1857a22.289,22.289,0,0,1-21.939-21.882,21.683,21.683,0,0,1,6.334-15.473A22.049,22.049,0,0,1,489.823,1813h0a22.164,22.164,0,0,1,22,21.8,22.107,22.107,0,0,1-21.882,22.2Z"/><path class="f" d="M472.761,1841.435v-12.853h3.126v1.152h-1.658v10.572h1.658v1.152Z"/><path class="f" d="M483.373,1834.882c0,2.344-1.422,3.68-3.351,3.68a3.252,3.252,0,0,1-3.213-3.559,3.345,3.345,0,0,1,3.317-3.662A3.289,3.289,0,0,1,483.373,1834.882Zm-5.217.1c0,1.422.714,2.551,1.941,2.551s1.929-1.152,1.929-2.6c0-1.319-.651-2.563-1.929-2.563s-1.952,1.2-1.952,2.643Z"/><path class="f" d="M484.456,1831.582a10.772,10.772,0,0,1,1.854-.155,3.315,3.315,0,0,1,2,.443,1.476,1.476,0,0,1,.726,1.307,1.625,1.625,0,0,1-1.152,1.515h0a1.762,1.762,0,0,1,1.411,1.727,1.815,1.815,0,0,1-.674,1.44,3.869,3.869,0,0,1-2.591.651,12.426,12.426,0,0,1-1.567-.092Zm1.267,2.759h.651c.881,0,1.376-.415,1.376-1.008s-.495-.956-1.307-.956a3.468,3.468,0,0,0-.726.052Zm0,3.213a5.6,5.6,0,0,0,.674.029c.817,0,1.543-.311,1.543-1.152s-.7-1.152-1.584-1.152h-.633Z"/><path class="f" d="M491.815,1831.49h1.273v4.544c0,1.929-.933,2.574-2.3,2.574a3.4,3.4,0,0,1-1.076-.185l.155-1.025a2.779,2.779,0,0,0,.789.127c.726,0,1.152-.334,1.152-1.543Z"/><path class="f" d="M496.71,1835.274v.881h-2.649v-.881Z"/><path class="f" d="M502.894,1838.268a4.42,4.42,0,0,1-1.8.311,3.3,3.3,0,0,1-3.564-3.513,3.511,3.511,0,0,1,3.322-3.693,3.464,3.464,0,0,1,.409,0,4.043,4.043,0,0,1,1.728.311l-.283,1.014a3.376,3.376,0,0,0-1.37-.271,2.328,2.328,0,0,0-2.447,2.574,2.3,2.3,0,0,0,2.435,2.522,3.566,3.566,0,0,0,1.388-.259Z"/><path class="f" d="M506.891,1828.548v12.887h-3.127v-1.152h1.658V1829.7h-1.658v-1.151Z"/></g></svg>