<svg xmlns="http://www.w3.org/2000/svg" width="76" height="1436" viewBox="0 0 76 1436"><defs><style>.a{opacity:0.25;}.b{fill:#5a5dff;}.c,.f{fill:none;}.c{stroke:#5a5dff;stroke-miterlimit:10;}.c,.d{stroke-width:2px;}.d{fill:#1d1040;stroke:#fff;}.e{stroke:none;}</style></defs><g transform="translate(-441 -2660)"><g transform="translate(-1314.588 2463.505)"><g class="a" transform="translate(1765.588 208.495)"><path class="b" d="M1767.537,208.5c1.468,16.777,2.983,32.916,5.1,48.162q3.13,22.886,7.879,42.755c3.135,13.292,6.823,25.534,10.806,37.48.972,3.009,2.026,5.936,3.063,8.873,1.014,2.961,2.094,5.914,3.143,8.867s2.163,5.893,3.241,8.841l3.261,9.011a397.191,397.191,0,0,1,12.606,39.379,375.384,375.384,0,0,1,9.015,47.731c2.183,16.9,3.337,34.321,4.01,51.306.67,17.032.866,33.8.924,50.594-.065,16.789-.146,33.551-.6,50.781q-.352,12.911-1.132,26.092c-.55,8.764-1.327,17.547-2.338,26.2a333.657,333.657,0,0,1-9.063,48.315,365.058,365.058,0,0,1-13.025,38.62c-4.548,11.678-9.192,22.382-13.6,33.519l-1.664,4.169-1.6,4.27c-.537,1.423-1.092,2.83-1.62,4.281l-1.544,4.429c-1.063,2.925-2.013,6.034-2.989,9.152-1.014,3.067-1.867,6.384-2.793,9.648a294.949,294.949,0,0,0-8.326,43.989,444.7,444.7,0,0,0-2.749,49.532,366.321,366.321,0,0,0,3.285,49.218,248.586,248.586,0,0,0,9.5,41.963c3.953,12.253,8.38,22.742,12.81,33.309s8.946,21.276,13.315,33.416a352.646,352.646,0,0,1,12.208,41.107,411.828,411.828,0,0,1,8.207,50.435c1.828,17.731,2.693,35.564,3.142,52.759.445,17.238.528,34,.581,50.791-.07,16.789-.024,33.553-.309,50.95-.268,17.347-.968,35.545-2.864,53.355a317.16,317.16,0,0,1-8.937,49.3c-1.957,7.361-4.141,14.024-6.37,20.4-2.214,6.416-4.455,12.51-6.688,18.5-4.452,11.914-8.818,23.214-12.854,34.778-4.047,11.547-7.735,23.42-11,36.227q-4.849,19.259-8.268,41.71c-2.292,15-4.024,31-5.761,47.781a442.41,442.41,0,0,1-1.831-52.195c.172-8.929.707-17.839,1.423-26.719.79-8.813,1.76-17.635,3.065-26.1a407.333,407.333,0,0,1,9.993-47.426c3.94-14.5,8.268-27.633,12.516-40.075l6.267-18.283c1-3.019,2.051-6,3.023-8.961l3.022-8.7c4.033-11.451,8.133-22.292,12.057-34.354,1.947-6.045,3.821-12.429,5.514-19.285l.648-2.569.577-2.659c.386-1.779.774-3.575,1.143-5.4.8-3.6,1.375-7.431,2.012-11.257a328.217,328.217,0,0,0,3.623-49.023,358.3,358.3,0,0,0-3.347-49.182,245.272,245.272,0,0,0-9.613-41.766c-3.965-12.187-8.391-22.609-12.786-33.221-4.4-10.592-8.84-21.482-13.161-33.744a369.823,369.823,0,0,1-12.056-41.433,423.267,423.267,0,0,1-8.185-50.345c-1.859-17.637-2.767-35.394-3.255-52.555-.486-17.2-.6-33.963-.647-50.753.051-16.789.353-33.564,1.18-50.444s2.25-33.845,4.429-50.536a482.654,482.654,0,0,1,8.779-47.706c3.567-14.927,7.617-28.654,11.769-41.33s8.268-24.671,12.346-36.229c4.066-11.6,8.156-22.813,11.931-35.341a286.532,286.532,0,0,0,9.287-42.223,358.6,358.6,0,0,0,3.329-49.193,403.583,403.583,0,0,0-3.006-49.381,299.429,299.429,0,0,0-8.744-43.216c-3.662-12.933-7.791-24.418-11.978-35.924-4.207-11.466-8.5-23.075-12.765-35.47l-3.251-9.294c-1.068-3.219-2.141-6.35-3.2-9.637-2.141-6.493-4.229-13.221-6.209-20.326a400.763,400.763,0,0,1-10.188-46.173,421.326,421.326,0,0,1-4.877-51.765A460.633,460.633,0,0,1,1767.537,208.5Z" transform="translate(-1765.588 -208.495)"/></g><path class="c" d="M1768,208.5c0,176.5,62.588,176.5,62.588,352.994s-62.588,176.5-62.588,353,62.588,176.5,62.588,353S1768,1443.989,1768,1620.5" transform="translate(0 0)"/></g><g class="d" transform="translate(441 2660)"><circle class="e" cx="12" cy="12" r="12"/><circle class="f" cx="12" cy="12" r="11"/></g><g class="d" transform="translate(441 3366)"><circle class="e" cx="12" cy="12" r="12"/><circle class="f" cx="12" cy="12" r="11"/></g><g class="d" transform="translate(441 4072)"><circle class="e" cx="12" cy="12" r="12"/><circle class="f" cx="12" cy="12" r="11"/></g></g></svg>