<svg xmlns="http://www.w3.org/2000/svg" width="80" height="80" viewBox="0 0 80 80"><defs><style>.a{fill:red;opacity:0;}.b{fill:#5a5dff;opacity:0.1;}.c,.d,.e{fill:none;stroke-linecap:round;stroke-width:2px;}.c{stroke:#bd00ff;}.c,.d{stroke-linejoin:round;}.d{stroke:#5a5dff;}.e{stroke:#1d1040;stroke-miterlimit:10;}</style></defs><g transform="translate(-334 -2714)"><rect class="a" width="80" height="80" transform="translate(334 2714)"/><g transform="translate(333.613 2711)"><path class="b" d="M37,79.716a4,4,0,0,1-1.625-.344h0L6.762,66.655a4,4,0,0,1,0-7.31L35.375,46.628a4.007,4.007,0,0,1,3.25,0L67.238,59.345a4,4,0,0,1,0,7.31L38.625,79.372A4,4,0,0,1,37,79.716Z"/><path class="c" d="M74.832,51.741,46.218,64.458a3,3,0,0,1-2.436,0L15.168,51.741"/><path class="c" d="M74.832,57.741,46.218,70.458a3,3,0,0,1-2.436,0L15.168,57.741"/><path class="d" d="M45,39.121,32.021,45.944,34.5,31.492,24,21.257l14.511-2.109L45,6l6.489,13.149L66,21.257,55.5,31.492l2.479,14.452Z"/><path class="e" d="M27,35,15.168,40.259a3,3,0,0,0,0,5.482L43.782,58.458a3,3,0,0,0,2.436,0L74.832,45.741a3,3,0,0,0,0-5.482L63,35"/></g></g></svg>