<svg xmlns="http://www.w3.org/2000/svg" width="428" height="36.571" viewBox="0 0 428 36.571"><defs><style>.a{fill:none;stroke:#5a5dff;stroke-miterlimit:10;stroke-width:2px;}.b{opacity:0.25;}.c{fill:#5a5dff;}</style></defs><g transform="translate(-760.035 -773.836)"><g transform="translate(760.035 779.394)"><path class="a" d="M760.035,810.015c61.112,0,127.358-30.01,213.976-30.013s152.876,30,214.024,30" transform="translate(-760.035 -780.002)"/></g><g class="b" transform="translate(760.035 773.836)"><path class="c" d="M760.035,809.414c18.052-1.435,35.681-4.717,53.165-8.753,17.491-3.99,34.9-8.508,52.524-12.583s35.455-7.687,53.543-10.213l6.783-.948c2.268-.274,4.547-.486,6.821-.731,4.551-.458,9.093-1.019,13.673-1.26l6.86-.44c2.287-.142,4.573-.315,6.868-.331l13.761-.32,13.761.32c2.3.017,4.58.193,6.868.333l6.86.439c4.58.24,9.12.8,13.673,1.26,2.274.246,4.553.455,6.821.732l6.783.947c18.088,2.525,35.93,6.122,53.543,10.211,17.622,4.073,35.033,8.589,52.525,12.576,17.484,4.033,35.114,7.313,53.167,8.747-18.091,1.262-36.352-.477-54.312-2.913-17.98-2.522-35.731-5.958-53.429-9.1-17.7-3.161-35.348-6.1-53.058-8.132l-6.639-.774c-2.214-.234-4.431-.4-6.647-.6-4.432-.372-8.858-.854-13.3-1.012L994,786.491c-2.218-.125-4.434-.286-6.654-.288l-13.311-.24-13.312.241c-2.22,0-4.436.159-6.653.286l-6.653.375c-4.44.159-8.866.638-13.3,1.012-2.215.2-4.433.372-6.647.6l-6.638.775c-17.711,2.03-35.361,4.972-53.057,8.135-17.7,3.143-35.449,6.581-53.428,9.106C796.387,808.933,778.125,810.676,760.035,809.414Z" transform="translate(-760.035 -773.836)"/></g></g></svg>