<svg xmlns="http://www.w3.org/2000/svg" width="619.864" height="501" viewBox="0 0 619.864 501"><defs><style>.a,.e,.f,.j,.n,.o,.r,.u{fill:none;}.a,.h,.n{stroke:#bd00ff;}.a,.b,.c,.e,.f,.h,.n,.r,.s,.u{stroke-linecap:round;}.a,.c,.f,.j,.r,.s{stroke-linejoin:round;}.a,.b,.c,.e,.f,.h,.j,.l,.m,.n,.o,.r,.s{stroke-width:2px;}.b,.c,.h,.i,.l,.s{fill:#fff;}.b,.c,.e,.f,.j,.l,.m,.o,.u{stroke:#5a5dff;}.b,.e,.h,.l,.m,.n,.o,.u{stroke-miterlimit:10;}.d,.g,.m,.p{fill:#5a5dff;}.d,.q{opacity:0.25;}.k{fill:#bd00ff;}.p{opacity:0.15;}.r,.s{stroke:#1d1040;}.t{fill:#1d1040;}.u{stroke-width:1.728px;}</style></defs><g transform="translate(-658 696)"><rect class="a" width="5" height="6" transform="translate(1101 -486)"/><rect class="b" width="64" height="38" rx="2" transform="translate(1097 -480)"/><circle class="c" cx="23" cy="23" r="23" transform="translate(1106 -484)"/><circle class="d" cx="16" cy="16" r="16" transform="translate(1113 -477)"/><circle class="e" cx="16" cy="16" r="16" transform="translate(1113 -477)"/><line class="f" y2="7" transform="translate(1124 -491)"/><line class="b" y2="7" transform="translate(1134 -491)"/><rect class="f" width="5" height="6" transform="translate(1153 -486)"/><line class="f" x2="12" y2="0.031" transform="translate(1097 -473.031)"/><line class="f" x2="12" y2="0.031" transform="translate(1149 -473)"/><path class="f" d="M1133.122-471.2A11,11,0,0,1,1140-461"/><rect class="g" width="2" height="2" rx="1" transform="translate(1128 -473)"/><rect class="h" width="28" height="12" rx="2" transform="translate(1115 -504)"/><path class="b" d="M725.5-381H721a3,3,0,0,1-3-3v-47a3,3,0,0,1,3-3h58a3,3,0,0,1,3,3v47a3,3,0,0,1-3,3h-4.5"/><circle class="i" cx="21" cy="21" r="21" transform="translate(729 -411)"/><line class="j" x1="63" transform="translate(718.5 -426)"/><circle class="d" cx="21" cy="21" r="21" transform="translate(729 -411)"/><circle class="e" cx="21" cy="21" r="21" transform="translate(729 -411)"/><path class="j" d="M734.082-376.306C737.933-379.18,743.636-381,750-381s12.068,1.82,15.919,4.7"/><line class="j" x2="42" transform="translate(729.5 -390)"/><ellipse class="j" cx="11" cy="21" rx="11" ry="21" transform="translate(739 -411)"/><line class="j" y1="42" transform="translate(750 -411)"/><path class="j" d="M734.082-404.694C737.933-401.82,743.636-400,750-400s12.067-1.82,15.918-4.7"/><path class="d" d="M782-426H718v-5a3,3,0,0,1,3-3h58a3,3,0,0,1,3,3Z"/><path class="e" d="M782-426H718v-5a3,3,0,0,1,3-3h58a3,3,0,0,1,3,3Z"/><circle class="k" cx="1" cy="1" r="1" transform="translate(721.5 -431)"/><circle class="k" cx="1" cy="1" r="1" transform="translate(725.5 -431)"/><circle class="k" cx="1" cy="1" r="1" transform="translate(729.5 -431)"/><path class="l" d="M0,0H80a0,0,0,0,1,0,0V0a6,6,0,0,1-6,6H6A6,6,0,0,1,0,0V0A0,0,0,0,1,0,0Z" transform="translate(1065 -566)"/><path class="l" d="M3,0H61a3,3,0,0,1,3,3V42a0,0,0,0,1,0,0H0a0,0,0,0,1,0,0V3A3,3,0,0,1,3,0Z" transform="translate(1073 -608)"/><path class="m" d="M0,0H18a0,0,0,0,1,0,0V0a2,2,0,0,1-2,2H2A2,2,0,0,1,0,0V0A0,0,0,0,1,0,0Z" transform="translate(1096 -566)"/><path class="e" d="M1124-603h7.415a.6.6,0,0,1,.585.615V-595"/><rect class="d" width="32" height="10" transform="translate(1088 -597)"/><rect class="e" width="32" height="10" transform="translate(1088 -597)"/><rect class="d" width="16" height="6" transform="translate(1087 -581)"/><rect class="n" width="16" height="6" transform="translate(1087 -581)"/><rect class="l" width="60" height="54" rx="3" transform="translate(1149 -339)"/><rect class="i" width="22" height="44" rx="3" transform="translate(1198 -324)"/><rect class="d" width="24" height="16" rx="4" transform="translate(1167 -320)"/><rect class="e" width="24" height="16" rx="4" transform="translate(1167 -320)"/><path class="a" d="M1171-315h7l5,6,4-6"/><line class="n" y1="3" transform="translate(1174 -312)"/><rect class="d" width="4" height="4" rx="2" transform="translate(1170 -335)"/><rect class="e" width="4" height="4" rx="2" transform="translate(1170 -335)"/><rect class="d" width="4" height="4" rx="2" transform="translate(1177 -335)"/><rect class="e" width="4" height="4" rx="2" transform="translate(1177 -335)"/><rect class="d" width="4" height="4" rx="2" transform="translate(1184 -335)"/><rect class="e" width="4" height="4" rx="2" transform="translate(1184 -335)"/><rect class="d" width="22" height="44" rx="3" transform="translate(1198 -324)"/><rect class="e" width="22" height="44" rx="3" transform="translate(1198 -324)"/><circle class="o" cx="5" cy="5" r="5" transform="translate(1204 -301)"/><circle class="o" cx="1" cy="1" r="1" transform="translate(1208 -297)"/><line class="e" x2="2" transform="translate(1202 -313)"/><line class="e" x2="2" transform="translate(1208 -313)"/><line class="e" x2="2" transform="translate(1214 -313)"/><line class="e" x2="2" transform="translate(1202 -309)"/><line class="e" x2="2" transform="translate(1208 -309)"/><line class="e" x2="2" transform="translate(1208 -305)"/><line class="e" x2="2" transform="translate(1214 -309)"/><line class="e" x2="2" transform="translate(1202 -287)"/><line class="e" x2="2" transform="translate(1208 -287)"/><line class="e" x2="2" transform="translate(1214 -287)"/><line class="e" x2="2" transform="translate(1202 -317)"/><line class="e" x2="2" transform="translate(1208 -317)"/><line class="e" x2="2" transform="translate(1214 -317)"/><rect class="l" width="78" height="42" rx="3" transform="translate(783 -589)"/><line class="o" x2="78" transform="translate(783 -551)"/><path class="p" d="M791-541l5.385-6H801l-5.385,6Z"/><path class="e" d="M791-541l5.385-6H801l-5.385,6Z"/><path class="p" d="M852-541l-5.385-6H842l5.385,6Z"/><path class="e" d="M852-541l-5.385-6H842l5.385,6Z"/><path class="f" d="M842-600a17.364,17.364,0,0,1,9-3,17.364,17.364,0,0,1,9,3"/><path class="f" d="M845-597a11.574,11.574,0,0,1,6-2,11.574,11.574,0,0,1,6,2"/><path class="f" d="M848-594a5.789,5.789,0,0,1,3-1,5.789,5.789,0,0,1,3,1"/><rect class="d" width="10" height="6" transform="translate(793 -578)"/><rect class="e" width="10" height="6" transform="translate(793 -578)"/><rect class="d" width="10" height="6" transform="translate(809 -578)"/><rect class="n" width="10" height="6" transform="translate(809 -578)"/><rect class="d" width="10" height="6" transform="translate(825 -578)"/><rect class="e" width="10" height="6" transform="translate(825 -578)"/><rect class="d" width="10" height="6" transform="translate(841 -578)"/><rect class="n" width="10" height="6" transform="translate(841 -578)"/><rect class="d" width="10" height="6" transform="translate(793 -566)"/><rect class="n" width="10" height="6" transform="translate(793 -566)"/><rect class="d" width="10" height="6" transform="translate(809 -566)"/><rect class="e" width="10" height="6" transform="translate(809 -566)"/><rect class="d" width="10" height="6" transform="translate(825 -566)"/><rect class="n" width="10" height="6" transform="translate(825 -566)"/><rect class="d" width="10" height="6" transform="translate(841 -566)"/><rect class="e" width="10" height="6" transform="translate(841 -566)"/><rect class="l" width="78" height="14" rx="2.999" transform="translate(919 -461)"/><rect class="l" width="78" height="14" rx="3.003" transform="translate(919 -443)"/><rect class="l" width="78" height="14" rx="2.999" transform="translate(919 -425)"/><rect class="l" width="78" height="14" rx="2.998" transform="translate(919 -407)"/><circle class="k" cx="2" cy="2" r="2" transform="translate(924 -456)"/><circle class="k" cx="2" cy="2" r="2" transform="translate(930 -456)"/><circle class="k" cx="2" cy="2" r="2" transform="translate(924 -438)"/><circle class="k" cx="2" cy="2" r="2" transform="translate(930 -438)"/><circle class="k" cx="2" cy="2" r="2" transform="translate(924 -420)"/><circle class="k" cx="2" cy="2" r="2" transform="translate(930 -420)"/><circle class="k" cx="2" cy="2" r="2" transform="translate(924 -402)"/><circle class="k" cx="2" cy="2" r="2" transform="translate(930 -402)"/><rect class="i" width="36" height="30" rx="3" transform="translate(951 -433)"/><path class="i" d="M969-453a13.936,13.936,0,0,0-14,13.871V-433h5.209v-6.129a8.751,8.751,0,0,1,8.791-8.71,8.751,8.751,0,0,1,8.791,8.71V-433H983v-6.129A13.936,13.936,0,0,0,969-453Z"/><rect class="d" width="36" height="30" rx="3" transform="translate(951 -433)"/><rect class="e" width="36" height="30" rx="3" transform="translate(951 -433)"/><path class="d" d="M969-453a13.936,13.936,0,0,0-14,13.871V-433h5.209v-6.129a8.751,8.751,0,0,1,8.791-8.71,8.751,8.751,0,0,1,8.791,8.71V-433H983v-6.129A13.936,13.936,0,0,0,969-453Z"/><path class="e" d="M969-453a13.936,13.936,0,0,0-14,13.871V-433h5.209v-6.129a8.751,8.751,0,0,1,8.791-8.71,8.751,8.751,0,0,1,8.791,8.71V-433H983v-6.129A13.936,13.936,0,0,0,969-453Z"/><path class="l" d="M974-420.764A5.122,5.122,0,0,0,969-426a5.122,5.122,0,0,0-5,5.236,5.277,5.277,0,0,0,2.5,4.53v5.616A2.561,2.561,0,0,0,969-408a2.561,2.561,0,0,0,2.5-2.618v-5.616A5.277,5.277,0,0,0,974-420.764Z"/><path class="n" d="M977-429h5.562a.451.451,0,0,1,.438.462V-423"/><circle class="l" cx="3" cy="3" r="3" transform="translate(705 -279)"/><circle class="l" cx="3" cy="3" r="3" transform="translate(694 -279)"/><circle class="l" cx="3" cy="3" r="3" transform="translate(683 -279)"/><circle class="l" cx="3" cy="3" r="3" transform="translate(705 -211)"/><circle class="l" cx="3" cy="3" r="3" transform="translate(694 -211)"/><circle class="l" cx="3" cy="3" r="3" transform="translate(683 -211)"/><circle class="l" cx="3" cy="3" r="3" transform="translate(659 -256)"/><circle class="l" cx="3" cy="3" r="3" transform="translate(659 -245)"/><circle class="l" cx="3" cy="3" r="3" transform="translate(659 -234)"/><circle class="l" cx="3" cy="3" r="3" transform="translate(728 -256)"/><circle class="l" cx="3" cy="3" r="3" transform="translate(728 -245)"/><circle class="l" cx="3" cy="3" r="3" transform="translate(728 -234)"/><rect class="l" width="48" height="48" rx="3" transform="translate(673 -266)"/><rect class="d" width="28" height="28" rx="2" transform="translate(683 -256)"/><rect class="e" width="28" height="28" rx="2" transform="translate(683 -256)"/><path class="h" d="M702.342-249.368a4.854,4.854,0,0,0-2.315-.627A5.246,5.246,0,0,0,695-243l-6,6v3h2.586a1,1,0,0,0,.707-.293L693-235v-1a1,1,0,0,1,1-1h0a1,1,0,0,0,1-1h0a1,1,0,0,1,1-1h1l1-1a5.588,5.588,0,0,0,5.492-1.2A5.17,5.17,0,0,0,702.342-249.368Z"/><circle class="k" cx="2" cy="2" r="2" transform="translate(698 -247)"/><line class="o" y1="7" transform="translate(697 -273)"/><line class="o" y1="7" transform="translate(708 -273)"/><line class="o" y1="7" transform="translate(686 -273)"/><line class="o" y1="7" transform="translate(697 -218)"/><line class="o" y1="7" transform="translate(708 -218)"/><line class="o" y1="7" transform="translate(686 -218)"/><line class="o" x1="8" transform="translate(665 -242)"/><line class="o" x1="8" transform="translate(665 -253)"/><line class="o" x1="8" transform="translate(665 -231)"/><line class="o" x1="7" transform="translate(721 -242)"/><line class="o" x1="7" transform="translate(721 -253)"/><line class="o" x1="7" transform="translate(721 -231)"/><path class="i" d="M952-369c12.869.478,25.961.262,39.051-.374s26.218-1.717,39.307-3.18a603.215,603.215,0,0,0,77.861-13.7c12.8-3.184,25.467-6.876,37.868-11.307a247.879,247.879,0,0,0,36.067-15.9,150.654,150.654,0,0,0,16.609-10.532,96.409,96.409,0,0,0,14.652-13.049l1.635-1.835,1.543-1.911c1.06-1.256,1.961-2.622,2.928-3.95a58.441,58.441,0,0,0,4.841-8.569A50.752,50.752,0,0,0,1229-472.5a51.5,51.5,0,0,1-3.252,19.77,60.258,60.258,0,0,1-4.32,9.191c-.891,1.441-1.724,2.93-2.717,4.307l-1.449,2.1-1.547,2.024a100.229,100.229,0,0,1-14.146,14.64,155.719,155.719,0,0,1-16.322,12.155,255.206,255.206,0,0,1-35.816,19.112c-12.368,5.494-25.042,10.241-37.872,14.477a618.131,618.131,0,0,1-78.525,19.972q-19.943,3.756-40.158,6.3C979.387-346.782,965.814-345.525,952-345a12.009,12.009,0,0,1-12.456-11.544A12.009,12.009,0,0,1,951.088-369q.439-.016.873,0Z"/><path class="i" d="M952-345a132.667,132.667,0,0,1-44.446-9.777,195.4,195.4,0,0,1-38.583-21.04c-23.822-16.546-44.276-36.764-62.217-58.7a369.971,369.971,0,0,1-24.882-34.347,343.95,343.95,0,0,1-20.644-36.886,254.574,254.574,0,0,1-15.2-39.319c-3.839-13.485-6.448-27.462-6.026-41.436.584,13.96,4.157,27.522,8.878,40.506a250.276,250.276,0,0,0,17.666,37.468,336.547,336.547,0,0,0,22.729,34.545,359.531,359.531,0,0,0,26.507,31.562c18.81,19.916,39.824,37.78,62.91,51.452a176.015,176.015,0,0,0,35.973,16.43A110.21,110.21,0,0,0,952-369a12.01,12.01,0,0,1,12.465,11.535A12.01,12.01,0,0,1,952.929-345q-.426.016-.846,0Z"/><g class="q"><path class="g" d="M952-369c12.869.478,25.961.262,39.051-.374s26.218-1.717,39.307-3.18a603.215,603.215,0,0,0,77.861-13.7c12.8-3.184,25.467-6.876,37.868-11.307a247.879,247.879,0,0,0,36.067-15.9,150.654,150.654,0,0,0,16.609-10.532,96.409,96.409,0,0,0,14.652-13.049l1.635-1.835,1.543-1.911c1.06-1.256,1.961-2.622,2.928-3.95a58.441,58.441,0,0,0,4.841-8.569A50.752,50.752,0,0,0,1229-472.5a51.5,51.5,0,0,1-3.252,19.77,60.258,60.258,0,0,1-4.32,9.191c-.891,1.441-1.724,2.93-2.717,4.307l-1.449,2.1-1.547,2.024a100.229,100.229,0,0,1-14.146,14.64,155.719,155.719,0,0,1-16.322,12.155,255.206,255.206,0,0,1-35.816,19.112c-12.368,5.494-25.042,10.241-37.872,14.477a618.131,618.131,0,0,1-78.525,19.972q-19.943,3.756-40.158,6.3C979.387-346.782,965.814-345.525,952-345a12.009,12.009,0,0,1-12.456-11.544A12.009,12.009,0,0,1,951.088-369q.439-.016.873,0Z"/><path class="g" d="M952-345a132.667,132.667,0,0,1-44.446-9.777,195.4,195.4,0,0,1-38.583-21.04c-23.822-16.546-44.276-36.764-62.217-58.7a369.971,369.971,0,0,1-24.882-34.347,343.95,343.95,0,0,1-20.644-36.886,254.574,254.574,0,0,1-15.2-39.319c-3.839-13.485-6.448-27.462-6.026-41.436.584,13.96,4.157,27.522,8.878,40.506a250.276,250.276,0,0,0,17.666,37.468,336.547,336.547,0,0,0,22.729,34.545,359.531,359.531,0,0,0,26.507,31.562c18.81,19.916,39.824,37.78,62.91,51.452a176.015,176.015,0,0,0,35.973,16.43A110.21,110.21,0,0,0,952-369a12.01,12.01,0,0,1,12.465,11.535A12.01,12.01,0,0,1,952.929-345q-.426.016-.846,0Z"/></g><path class="r" d="M952-357c88,0,277-34.726,277-115"/><path class="r" d="M952-357c-100,0-212-148.726-212-229"/><circle class="s" cx="4" cy="4" r="4" transform="translate(737 -592)"/><circle class="s" cx="4" cy="4" r="4" transform="translate(1225 -480)"/><path class="i" d="M845.972-335.094a86.129,86.129,0,0,0-8.056-7.966,52.287,52.287,0,0,0-8.878-6.036,36.2,36.2,0,0,0-20.1-4.225c-7.208.511-14.766,3.016-22.139,6.537a186.8,186.8,0,0,0-21.845,12.74c-7.212,4.743-14.381,9.79-21.8,14.629-7.431,4.813-15.112,9.511-23.506,13.014a60.575,60.575,0,0,1-13.124,3.879c-1.122.228-2.283.3-3.42.435-1.146.1-2.3.12-3.448.146a35.572,35.572,0,0,1-6.84-.709,34.838,34.838,0,0,1-12.428-5.175,51.539,51.539,0,0,1-9.911-8.7,50.783,50.783,0,0,0,10.661,7.4,32.546,32.546,0,0,0,12.112,3.505,33.309,33.309,0,0,0,12.306-1.3,55.455,55.455,0,0,0,11.5-4.894c7.352-4.108,14.123-9.374,20.773-14.858,6.648-5.507,13.167-11.315,19.966-17a199.8,199.8,0,0,1,21.754-16.242c7.869-4.909,16.71-9.254,26.839-11.229a55.9,55.9,0,0,1,15.66-.826,57.273,57.273,0,0,1,15.437,3.641,73.629,73.629,0,0,1,13.723,7.105,108.327,108.327,0,0,1,11.741,9.155,12.021,12.021,0,0,1,1.031,16.97A12.021,12.021,0,0,1,847-334.063a12.072,12.072,0,0,1-.964-.954Z"/><path class="i" d="M845.972-335.094a74.735,74.735,0,0,1-11.931-16.956,65.615,65.615,0,0,1-6.316-19.886,76.6,76.6,0,0,1-.259-20.118,105.606,105.606,0,0,1,4-18.764,193.6,193.6,0,0,1,14.4-33.626c5.623-10.57,11.75-20.681,17.969-30.643s12.565-19.751,18.669-29.632c6.089-9.885,11.994-19.846,17.039-30.191a140.429,140.429,0,0,0,6.648-15.857,77.148,77.148,0,0,0,3.863-16.624,43.862,43.862,0,0,0-1.361-16.924,39.546,39.546,0,0,0-8.631-14.883,40.307,40.307,0,0,1,10.047,14.388,46.112,46.112,0,0,1,2.94,17.594,80.884,80.884,0,0,1-2.541,17.719,145.487,145.487,0,0,1-5.46,16.972c-4.269,11.069-9.409,21.71-14.69,32.2-5.3,10.487-10.79,20.812-16.087,31.159s-10.4,20.708-14.872,31.191a177.387,177.387,0,0,0-10.521,31.7c-2.263,10.565-2.81,21.118-.524,30.428a43.752,43.752,0,0,0,5.4,12.95,51.656,51.656,0,0,0,9.189,10.832,12.014,12.014,0,0,1,.826,16.97,12.015,12.015,0,0,1-16.971.825q-.381-.345-.725-.715Z"/><g class="q"><path class="g" d="M845.787-335.094a86.129,86.129,0,0,0-8.056-7.966,52.328,52.328,0,0,0-8.878-6.036,36.2,36.2,0,0,0-20.1-4.225c-7.208.511-14.767,3.016-22.139,6.537a186.887,186.887,0,0,0-21.846,12.74c-7.211,4.743-14.38,9.79-21.8,14.629-7.431,4.813-15.113,9.511-23.506,13.014a60.592,60.592,0,0,1-13.124,3.879c-1.122.228-2.283.3-3.42.435-1.146.1-2.3.12-3.448.146a35.564,35.564,0,0,1-6.84-.709,34.823,34.823,0,0,1-12.428-5.175,51.508,51.508,0,0,1-9.911-8.7,50.756,50.756,0,0,0,10.661,7.4,32.547,32.547,0,0,0,12.111,3.505,33.315,33.315,0,0,0,12.307-1.3,55.455,55.455,0,0,0,11.5-4.894c7.352-4.108,14.122-9.374,20.773-14.858,6.647-5.507,13.166-11.315,19.965-17a199.993,199.993,0,0,1,21.754-16.242c7.87-4.909,16.71-9.254,26.84-11.229a55.9,55.9,0,0,1,15.66-.826,57.273,57.273,0,0,1,15.437,3.641,73.587,73.587,0,0,1,13.722,7.105,108.239,108.239,0,0,1,11.742,9.155,12.022,12.022,0,0,1,1.031,16.97,12.021,12.021,0,0,1-16.97,1.031,12.081,12.081,0,0,1-.964-.954Z"/><path class="g" d="M845.787-335.094a74.7,74.7,0,0,1-11.931-16.956,65.615,65.615,0,0,1-6.316-19.886,76.521,76.521,0,0,1-.259-20.118,105.6,105.6,0,0,1,4-18.764,193.524,193.524,0,0,1,14.4-33.626c5.622-10.57,11.749-20.681,17.968-30.643s12.566-19.751,18.67-29.632c6.088-9.885,11.994-19.846,17.038-30.191a140.249,140.249,0,0,0,6.648-15.857,77.147,77.147,0,0,0,3.864-16.624,43.881,43.881,0,0,0-1.361-16.924,39.559,39.559,0,0,0-8.631-14.883,40.307,40.307,0,0,1,10.047,14.388,46.132,46.132,0,0,1,2.94,17.594,80.823,80.823,0,0,1-2.542,17.719,145.482,145.482,0,0,1-5.459,16.972c-4.269,11.069-9.409,21.71-14.69,32.2-5.3,10.487-10.79,20.812-16.087,31.159s-10.4,20.708-14.872,31.191a177.227,177.227,0,0,0-10.521,31.7c-2.264,10.565-2.81,21.118-.525,30.428a43.781,43.781,0,0,0,5.4,12.95,51.659,51.659,0,0,0,9.189,10.832,12.014,12.014,0,0,1,.825,16.97,12.014,12.014,0,0,1-16.97.825q-.381-.345-.725-.715Z"/></g><path class="r" d="M854.458-343.579c-71.411-71.41-126.868,84.169-183.63,27.407"/><path class="r" d="M854.458-343.579c-71.411-71.41,102.724-198.5,45.962-255.266"/><circle class="s" cx="4" cy="4" r="4" transform="translate(894.298 -603.552)"/><circle class="s" cx="4" cy="4" r="4" transform="translate(664 -323)"/><path class="i" d="M1079.694-251.65a101.616,101.616,0,0,1,24.338-12.343,68.117,68.117,0,0,1,13.937-3.044,57.747,57.747,0,0,1,14.421.257,59.8,59.8,0,0,1,13.623,3.694,74.838,74.838,0,0,1,12.019,6.18A139.974,139.974,0,0,1,1178-241.119c6.07,5.584,11.771,11.293,17.635,16.649,5.862,5.336,11.893,10.379,18.607,14.122a42.672,42.672,0,0,0,10.588,4.254,32.984,32.984,0,0,0,11.413.849c7.758-.738,15.256-4.184,21.971-8.635a63.179,63.179,0,0,1-9.935,7.06,42.6,42.6,0,0,1-11.558,4.537,36.773,36.773,0,0,1-12.677.62,47.89,47.89,0,0,1-12.355-3.256c-7.9-3.2-14.973-7.8-21.691-12.536-6.719-4.762-13.116-9.752-19.571-14.356a126.839,126.839,0,0,0-19.645-11.963,49.268,49.268,0,0,0-20.049-5.082,42.469,42.469,0,0,0-19.077,4.43,79.871,79.871,0,0,0-17.427,11.874,12.024,12.024,0,0,1-16.961-1.215,12.024,12.024,0,0,1,1.215-16.961,12.309,12.309,0,0,1,1.136-.874Z"/><path class="i" d="M1079.694-251.65a36.229,36.229,0,0,0,10.913-11.971,45.452,45.452,0,0,0,4.912-16.683,84.284,84.284,0,0,0-.321-19.4,162.511,162.511,0,0,0-3.832-20.15,349.363,349.363,0,0,0-13.314-40.234c-5.213-13.316-10.921-26.537-16.776-39.741s-11.859-26.4-17.681-39.71-11.494-26.731-16.441-40.471c-2.467-6.87-4.751-13.821-6.661-20.893a138.161,138.161,0,0,1-4.2-21.59c-.239-1.821-.281-3.672-.4-5.505-.076-.916-.018-1.845-.033-2.764.018-.923-.033-1.841.045-2.763a52.654,52.654,0,0,1,.533-5.507,46.785,46.785,0,0,1,1.1-5.419,36.724,36.724,0,0,1,4.553-10.01,34,34,0,0,1,7.644-7.737,33.623,33.623,0,0,0-7.01,8.139,35.586,35.586,0,0,0-3.729,9.961,45.135,45.135,0,0,0-.7,5.277,50.729,50.729,0,0,0-.147,5.32c-.014.885.1,1.776.142,2.662.077.887.079,1.773.216,2.656.238,1.767.4,3.534.753,5.286a134.386,134.386,0,0,0,5.533,20.675c2.339,6.766,5.044,13.416,7.932,19.991,5.787,13.149,12.3,26.006,18.983,38.8s13.578,25.522,20.36,38.361,13.477,25.782,19.755,39.039a365.432,365.432,0,0,1,16.825,41.155,181,181,0,0,1,5.813,22.159,104.461,104.461,0,0,1,2,23.869A67.28,67.28,0,0,1,1110.8-253.7a59.587,59.587,0,0,1-16.57,21.146l-.084.068a12.009,12.009,0,0,1-16.886-1.806,12.009,12.009,0,0,1,1.806-16.886C1079.263-251.335,1079.491-251.505,1079.694-251.65Z"/><g class="q"><path class="g" d="M1079.694-251.65a101.616,101.616,0,0,1,24.338-12.343,68.117,68.117,0,0,1,13.937-3.044,57.747,57.747,0,0,1,14.421.257,59.8,59.8,0,0,1,13.623,3.694,74.838,74.838,0,0,1,12.019,6.18A139.974,139.974,0,0,1,1178-241.119c6.07,5.584,11.771,11.293,17.635,16.649,5.862,5.336,11.893,10.379,18.607,14.122a42.672,42.672,0,0,0,10.588,4.254,32.984,32.984,0,0,0,11.413.849c7.758-.738,15.256-4.184,21.971-8.635a63.179,63.179,0,0,1-9.935,7.06,42.6,42.6,0,0,1-11.558,4.537,36.773,36.773,0,0,1-12.677.62,47.89,47.89,0,0,1-12.355-3.256c-7.9-3.2-14.973-7.8-21.691-12.536-6.719-4.762-13.116-9.752-19.571-14.356a126.839,126.839,0,0,0-19.645-11.963,49.268,49.268,0,0,0-20.049-5.082,42.469,42.469,0,0,0-19.077,4.43,79.871,79.871,0,0,0-17.427,11.874,12.024,12.024,0,0,1-16.961-1.215,12.024,12.024,0,0,1,1.215-16.961,12.309,12.309,0,0,1,1.136-.874Z"/><path class="g" d="M1079.694-251.65a36.229,36.229,0,0,0,10.913-11.971,45.452,45.452,0,0,0,4.912-16.683,84.284,84.284,0,0,0-.321-19.4,162.511,162.511,0,0,0-3.832-20.15,349.363,349.363,0,0,0-13.314-40.234c-5.213-13.316-10.921-26.537-16.776-39.741s-11.859-26.4-17.681-39.71-11.494-26.731-16.441-40.471c-2.467-6.87-4.751-13.821-6.661-20.893a138.161,138.161,0,0,1-4.2-21.59c-.239-1.821-.281-3.672-.4-5.505-.076-.916-.018-1.845-.033-2.764.018-.923-.033-1.841.045-2.763a52.654,52.654,0,0,1,.533-5.507,46.785,46.785,0,0,1,1.1-5.419,36.724,36.724,0,0,1,4.553-10.01,34,34,0,0,1,7.644-7.737,33.623,33.623,0,0,0-7.01,8.139,35.586,35.586,0,0,0-3.729,9.961,45.135,45.135,0,0,0-.7,5.277,50.729,50.729,0,0,0-.147,5.32c-.014.885.1,1.776.142,2.662.077.887.079,1.773.216,2.656.238,1.767.4,3.534.753,5.286a134.386,134.386,0,0,0,5.533,20.675c2.339,6.766,5.044,13.416,7.932,19.991,5.787,13.149,12.3,26.006,18.983,38.8s13.578,25.522,20.36,38.361,13.477,25.782,19.755,39.039a365.432,365.432,0,0,1,16.825,41.155,181,181,0,0,1,5.813,22.159,104.461,104.461,0,0,1,2,23.869A67.28,67.28,0,0,1,1110.8-253.7a59.587,59.587,0,0,1-16.57,21.146l-.084.068a12.009,12.009,0,0,1-16.886-1.806,12.009,12.009,0,0,1,1.806-16.886C1079.263-251.335,1079.491-251.505,1079.694-251.65Z"/></g><path class="r" d="M1086.962-242.1c80.36-61.165,106.98,77.142,170.855,28.523"/><path class="r" d="M1086.962-242.1c80.36-61.165-121.5-271.172-57.624-319.79"/><circle class="s" cx="4" cy="4" r="4" transform="translate(1028.521 -568.314)"/><circle class="s" cx="4" cy="4" r="4" transform="translate(1257 -220)"/><path class="t" d="M883.878-230.278H864.655v33.094H831.671v-33.094H763.518V-253.76l70.01-103.1h31.127V-256.49h19.223ZM831.671-256.49v-27.087q0-6.771.546-19.659t.874-14.963h-.874a121.925,121.925,0,0,1-9.72,17.475L793.226-256.49Z"/><path class="t" d="M1007.078-277.024q0,41.833-13.707,61.928T951.157-195q-27.633,0-41.667-20.752t-14.035-61.272q0-42.267,13.653-62.309t42.049-20.042q27.63,0,41.777,20.97T1007.078-277.024Zm-78.092,0q0,29.382,5.078,42.1T951.157-222.2q11.8,0,17.038-12.887t5.242-41.941q0-29.379-5.3-42.213T951.157-332.07q-11.906,0-17.038,12.833T928.986-277.024Z"/><path class="t" d="M1139.233-230.278H1120.01v33.094h-32.984v-33.094h-68.153V-253.76l70.01-103.1h31.127V-256.49h19.223Zm-52.207-26.212v-27.087q0-6.771.546-19.659t.874-14.963h-.874a121.931,121.931,0,0,1-9.72,17.475l-29.271,44.234Z"/><line class="e" y2="70" transform="translate(722 -545)"/><line class="e" y2="44" transform="translate(1219 -552)"/><line class="e" y2="44" transform="translate(768 -658)"/><line class="e" y2="44" transform="translate(832 -695)"/><line class="e" y2="44" transform="translate(923 -674)"/><line class="e" y2="36" transform="translate(662 -449)"/><line class="e" y2="36" transform="translate(715 -629)"/><line class="e" y2="36" transform="translate(959 -598)"/><line class="e" y2="18" transform="translate(666 -541)"/><line class="e" y2="67" transform="translate(1008 -666)"/><line class="e" y2="36" transform="translate(679 -386)"/><line class="e" y2="36" transform="translate(693 -474)"/><line class="e" y2="36" transform="translate(1233 -265)"/><line class="e" y2="44" transform="translate(1252 -345)"/><line class="e" y2="44" transform="translate(1196 -609)"/><line class="e" y2="36" transform="translate(1134 -676)"/><line class="e" y2="18" transform="translate(1226 -396)"/><line class="e" y2="18" transform="translate(940 -508)"/><line class="e" y2="18" transform="translate(1164 -556)"/><line class="u" y2="50" transform="translate(1277 -306)"/><line class="e" y2="67" transform="translate(1266 -449)"/><line class="e" y2="36" transform="translate(987 -546)"/></g></svg>