<svg xmlns="http://www.w3.org/2000/svg" width="88.414" height="88.32" viewBox="0 0 88.414 88.32"><defs><style>.a{fill:#5a5dff;opacity:0.25;}.b{fill:none;stroke:#5a5dff;stroke-linecap:round;stroke-linejoin:round;stroke-width:2px;}</style></defs><g transform="translate(-7.586)"><path class="a" d="M61.4,65.8,53,82V63Z"/><path class="a" d="M95,1,40,59,11,50Z"/><path class="a" d="M95,1,53,63V82L40,59Z"/><path class="a" d="M95,1V77L61.4,65.8,53,63Z"/><path class="b" d="M95,1V77L61.4,65.8,53,63Z"/><path class="b" d="M40,59,11,50,95,1Z"/><path class="b" d="M53,63V82L40,59"/><line class="b" x1="8.4" y2="16.2" transform="translate(53 65.8)"/><line class="b" x1="9" y2="9" transform="translate(17 66)"/><line class="b" x1="3.56" y2="8" transform="translate(72.44 79)"/><line class="b" x1="4" y2="4" transform="translate(9 79)"/><line class="b" x1="7.2" y2="9" transform="translate(28.8 77)"/></g></svg>