<svg xmlns="http://www.w3.org/2000/svg" width="88" height="88" viewBox="0 0 88 88"><defs><style>.a{fill:#bd00ff;opacity:0.25;}.b{fill:none;stroke:#bd00ff;stroke-linecap:round;stroke-linejoin:round;stroke-width:2px;}</style></defs><g transform="translate(-139 -4)"><path class="a" d="M199.971,48l24.272-24.272a6,6,0,0,0,0-8.485l-8.486-8.486a6,6,0,0,0-8.485,0L183,31.029,158.728,6.757a6,6,0,0,0-8.485,0l-8.486,8.486a6,6,0,0,0,0,8.485L166.029,48,141.757,72.272a6,6,0,0,0,0,8.485l8.486,8.486a6,6,0,0,0,8.485,0L183,64.971l24.272,24.272a6,6,0,0,0,8.485,0l8.486-8.486a6,6,0,0,0,0-8.485Z"/><path class="b" d="M199.971,48l24.272-24.272a6,6,0,0,0,0-8.485l-8.486-8.486a6,6,0,0,0-8.485,0L183,31.029,158.728,6.757a6,6,0,0,0-8.485,0l-8.486,8.486a6,6,0,0,0,0,8.485L166.029,48,141.757,72.272a6,6,0,0,0,0,8.485l8.486,8.486a6,6,0,0,0,8.485,0L183,64.971l24.272,24.272a6,6,0,0,0,8.485,0l8.486-8.486a6,6,0,0,0,0-8.485Z"/></g></svg>