<svg xmlns="http://www.w3.org/2000/svg" width="60" height="60" viewBox="0 0 60 60"><defs><style>.a,.c{fill:#0080ff;}.a{opacity:0.15;}.b{fill:none;}.d{fill:#fff;stroke:#0080ff;stroke-linecap:round;stroke-linejoin:round;stroke-width:2px;}</style></defs><rect class="a" width="40" height="40" rx="4" transform="translate(10 10)"/><rect class="b" width="60" height="60"/><path class="c" d="M12,14a2,2,0,0,1,2-2H33a1,1,0,0,0,1-1h0a1,1,0,0,0-1-1H14a4,4,0,0,0-4,4V29a1,1,0,0,0,1,1h0a1,1,0,0,0,1-1Z"/><path class="c" d="M48,46a2,2,0,0,1-2,2H27a1,1,0,0,0-1,1h0a1,1,0,0,0,1,1H46a4,4,0,0,0,4-4V31a1,1,0,0,0-1-1h0a1,1,0,0,0-1,1Z"/><path class="d" d="M29,18H39V12l12,9L39,30V24H29Z"/><line class="d" y2="6" transform="translate(25 18)"/><line class="d" y2="4" transform="translate(21 19)"/><path class="d" d="M31,42H21v6L9,39l12-9v6H31Z"/><line class="d" y1="6" transform="translate(35 36)"/><line class="d" y1="4" transform="translate(39 37)"/></svg>