<svg xmlns="http://www.w3.org/2000/svg" width="60" height="60" viewBox="0 0 60 60"><defs><style>.a,.c,.d{fill:none;}.b,.g{fill:#0080ff;}.b{opacity:0.15;}.c{stroke-linecap:round;}.c,.d,.e{stroke-linejoin:round;}.d,.e{stroke:#0080ff;stroke-width:2px;}.e{fill:#fff;}.f,.g{stroke:none;}</style></defs><rect class="a" width="60" height="60"/><path class="b" d="M50,49.5l-20-1-20,1V9.5l20,2,20-2v40Z"/><g class="c"><path class="f" d="M50,49.5l-20-1-20,1V9.5l20,2,20-2v40Z"/><path class="g" d="M 48 47.39750671386719 L 48 29.5 L 48 11.70997142791748 L 30.19901084899902 13.49007034301758 C 30.13283920288086 13.49668979644775 30.06641960144043 13.5 30 13.5 C 29.93358039855957 13.5 29.86716079711914 13.49668979644775 29.80098915100098 13.49007034301758 L 12 11.70997142791748 L 12 29.5 L 12 47.39750671386719 L 29.90011978149414 46.50249862670898 C 29.93339538574219 46.50083541870117 29.96669769287109 46.50000381469727 30 46.50000381469727 C 30.03330230712891 46.50000381469727 30.06660461425781 46.50083541870117 30.09988021850586 46.50249862670898 L 48 47.39750671386719 M 50 49.5 L 30 48.5 L 10 49.5 L 10 29.5 L 10 9.5 L 30 11.5 L 50 9.5 L 50 29.5 L 50 49.5 Z"/></g><line class="d" y2="34" transform="translate(30 13)"/><rect class="e" width="5" height="5" transform="translate(15 17)"/><rect class="e" width="5" height="5" transform="translate(21 27)"/><rect class="e" width="5" height="5" transform="translate(15 37)"/><line class="d" x2="3" transform="translate(23 18)"/><line class="d" x2="3" transform="translate(23 22)"/><line class="d" x2="3" transform="translate(15 27)"/><line class="d" x2="3" transform="translate(15 31)"/><line class="d" x2="3" transform="translate(23 37)"/><line class="d" x2="3" transform="translate(23 41)"/><rect class="e" width="5" height="5" transform="translate(45 22) rotate(180)"/><rect class="e" width="5" height="5" transform="translate(39 32) rotate(180)"/><rect class="e" width="5" height="5" transform="translate(45 42) rotate(180)"/><line class="d" x1="3" transform="translate(34 18)"/><line class="d" x1="3" transform="translate(34 22)"/><line class="d" x1="3" transform="translate(42 27)"/><line class="d" x1="3" transform="translate(42 31)"/><line class="d" x1="3" transform="translate(34 37)"/><line class="d" x1="3" transform="translate(34 41)"/></svg>