<svg xmlns="http://www.w3.org/2000/svg" width="60" height="60" viewBox="0 0 60 60"><defs><style>.a,.c,.d,.e{fill:none;}.b,.f{fill:#0080ff;}.b{opacity:0.15;}.c,.d,.e{stroke:#0080ff;stroke-linejoin:round;}.c,.e{stroke-width:2px;}.d{stroke-width:4px;}.e{stroke-linecap:round;}</style></defs><rect class="a" width="60" height="60"/><rect class="b" width="40" height="26" rx="4" transform="translate(10 25)"/><line class="c" y2="5" transform="translate(16 41)"/><line class="d" y2="5" transform="translate(20 41)"/><line class="c" y2="5" transform="translate(24 41)"/><line class="c" y2="5" transform="translate(28 41)"/><line class="d" y2="5" transform="translate(32 41)"/><line class="c" y2="5" transform="translate(37 41)"/><line class="d" y2="5" transform="translate(43 41)"/><path class="e" d="M30,10l-9,9h6v7h6V19h6Z"/><line class="e" x2="6" transform="translate(27 30)"/><line class="e" x2="2" transform="translate(29 34)"/><path class="f" d="M46,25H36v2H46a2,2,0,0,1,2,2V47a2,2,0,0,1-2,2H14a2,2,0,0,1-2-2V29a2,2,0,0,1,2-2H24V25H14a4,4,0,0,0-4,4V47a4,4,0,0,0,4,4H46a4,4,0,0,0,4-4V29A4,4,0,0,0,46,25Z"/></svg>