<svg xmlns="http://www.w3.org/2000/svg" width="60" height="60" viewBox="0 0 60 60"><defs><style>.a{fill:none;}.b{opacity:0.15;}.c{fill:#0080ff;}</style></defs><rect class="a" width="60" height="60"/><g class="b"><path class="c" d="M28.977,18.694a19,19,0,0,1,.953,21.188L43.939,50.016a36,36,0,0,0,0-40.032Z"/></g><path class="c" d="M43.938,51a.984.984,0,0,1-.818-1.53,35.021,35.021,0,0,0,0-38.94.984.984,0,0,1,1.638-1.092,36.988,36.988,0,0,1,0,41.124A.986.986,0,0,1,43.938,51Z"/><path class="c" d="M29.93,40.867a.984.984,0,0,1-.611-.212c-3.867-3.052-13-10.978-17.768-15.222a18.164,18.164,0,0,0,.887,11.717.985.985,0,1,1-1.81.776,20.122,20.122,0,0,1-.5-14.577.984.984,0,0,1,1.587-.406C15.7,26.519,25.029,34.651,29.642,38.392a18.009,18.009,0,0,0-1.458-19.115.985.985,0,1,1,1.587-1.166,19.982,19.982,0,0,1,1,22.283.98.98,0,0,1-.666.457A1.033,1.033,0,0,1,29.93,40.867Z"/><path class="c" d="M36.473,46.655a.984.984,0,0,1-.809-1.543,26.589,26.589,0,0,0,0-30.224.984.984,0,1,1,1.62-1.117,28.556,28.556,0,0,1,0,32.458A.983.983,0,0,1,36.473,46.655Z"/></svg>