<svg xmlns="http://www.w3.org/2000/svg" width="60" height="60" viewBox="0 0 60 60"><defs><style>.a{fill:none;}.b{opacity:0.15;}.c{fill:#0080ff;}.d{fill:#fff;}</style></defs><rect class="a" width="60" height="60"/><g class="b"><rect class="c" width="40" height="40" rx="4.5" transform="translate(10 12)"/></g><path class="d" d="M26,17V30H18L30,45,42,30H34V17Z"/><path class="c" d="M30,46a1,1,0,0,1-.781-.375l-12-15A1,1,0,0,1,18,29h7V17a1,1,0,0,1,1-1h8a1,1,0,0,1,1,1V29h7a1,1,0,0,1,.781,1.625l-12,15A1,1,0,0,1,30,46ZM20.081,31,30,43.4,39.919,31H34a1,1,0,0,1-1-1V18H27V30a1,1,0,0,1-1,1Z"/><path class="c" d="M45.5,12H43a1,1,0,0,0-1,1h0a1,1,0,0,0,1,1h2.5A2.5,2.5,0,0,1,48,16.5v31A2.5,2.5,0,0,1,45.5,50h-31A2.5,2.5,0,0,1,12,47.5v-31A2.5,2.5,0,0,1,14.5,14H17a1,1,0,0,0,1-1h0a1,1,0,0,0-1-1H14.5A4.5,4.5,0,0,0,10,16.5v31A4.5,4.5,0,0,0,14.5,52h31A4.5,4.5,0,0,0,50,47.5v-31A4.5,4.5,0,0,0,45.5,12Z"/><line class="d" x2="8.051" transform="translate(26 13)"/><path class="c" d="M34.051,14H26a1,1,0,0,1,0-2h8.051a1,1,0,0,1,0,2Z"/><line class="d" x2="4" transform="translate(28 9)"/><path class="c" d="M32,10H28a1,1,0,0,1,0-2h4a1,1,0,0,1,0,2Z"/></svg>