<svg xmlns="http://www.w3.org/2000/svg" width="24" height="24" viewBox="0 0 24 24"><defs><style>.a{fill:none;}.b{fill:#fff;}</style></defs><g transform="translate(-1373 -9611)"><rect class="a" width="24" height="24" transform="translate(1373 9611)"/><path class="b" d="M67.508,37.638a5.453,5.453,0,0,1,2.6-4.576,5.587,5.587,0,0,0-4.4-2.378c-1.851-.195-3.646,1.107-4.589,1.107-.962,0-2.414-1.088-3.979-1.056a5.858,5.858,0,0,0-4.931,3.007c-2.132,3.691-.542,9.114,1.5,12.1,1.022,1.462,2.216,3.092,3.779,3.035,1.529-.062,2.1-.974,3.946-.974,1.828,0,2.365.974,3.959.937,1.641-.025,2.674-1.468,3.66-2.942a12.058,12.058,0,0,0,1.674-3.408A5.276,5.276,0,0,1,67.508,37.638ZM64.5,28.722a5.367,5.367,0,0,0,1.229-3.847A5.47,5.47,0,0,0,62.19,26.7a5.107,5.107,0,0,0-1.261,3.7A4.518,4.518,0,0,0,64.5,28.722Z" transform="translate(1323.805 9586.125)"/></g></svg>