<svg xmlns="http://www.w3.org/2000/svg" width="60" height="60" viewBox="0 0 60 60"><defs><style>.a,.c,.d,.e{fill:none;}.b,.f{fill:#0080ff;}.b{opacity:0.15;}.c,.d,.e{stroke:#0080ff;stroke-linejoin:round;}.c{stroke-linecap:round;}.c,.d{stroke-width:2px;}.e{stroke-width:4px;}.g{stroke:none;}</style></defs><rect class="a" width="60" height="60" transform="translate(0)"/><rect class="b" width="40" height="26" rx="4" transform="translate(10 24)"/><g class="c" transform="translate(10 24)"><rect class="g" width="40" height="26" rx="4"/><rect class="a" x="1" y="1" width="38" height="24" rx="3"/></g><line class="d" y2="5" transform="translate(16 40)"/><line class="e" y2="5" transform="translate(20 40)"/><line class="d" y2="5" transform="translate(24 40)"/><line class="d" y2="5" transform="translate(28 40)"/><line class="e" y2="5" transform="translate(32 40)"/><line class="d" y2="5" transform="translate(37 40)"/><line class="e" y2="5" transform="translate(43 40)"/><path class="f" d="M42.637,16.436a4,4,0,0,0-5.246-2.116L19.327,22h5.112l13.735-5.839a1.974,1.974,0,0,1,.78-.161A2,2,0,0,1,40.8,17.218L42.83,22H45Z"/><path class="f" d="M33.62,13.751l-3.1-2.746a4,4,0,0,0-5.646.344L15.443,22h2.671l8.255-9.326a2,2,0,0,1,2.824-.171l2.389,2.114Z"/></svg>