<svg xmlns="http://www.w3.org/2000/svg" width="60" height="60" viewBox="0 0 60 60"><defs><style>.a{fill:none;}.b{opacity:0.15;}.c{fill:#0080ff;}.d{fill:#fff;}</style></defs><rect class="a" width="60" height="60"/><g class="b"><rect class="c" width="40" height="40" rx="4.5" transform="translate(10 12)"/></g><path class="d" d="M34,37V24h8L30,9,18,24h8V37Z"/><path class="c" d="M34,38H26a1,1,0,0,1-1-1V25H18a1,1,0,0,1-.781-1.625l12-15a1.034,1.034,0,0,1,1.562,0l12,15A1,1,0,0,1,42,25H35V37A1,1,0,0,1,34,38Zm-7-2h6V24a1,1,0,0,1,1-1h5.919L30,10.6,20.081,23H26a1,1,0,0,1,1,1Z"/><path class="c" d="M45.5,12H43a1,1,0,0,0-1,1h0a1,1,0,0,0,1,1h2.5A2.5,2.5,0,0,1,48,16.5v31A2.5,2.5,0,0,1,45.5,50h-31A2.5,2.5,0,0,1,12,47.5v-31A2.5,2.5,0,0,1,14.5,14H17a1,1,0,0,0,1-1h0a1,1,0,0,0-1-1H14.5A4.5,4.5,0,0,0,10,16.5v31A4.5,4.5,0,0,0,14.5,52h31A4.5,4.5,0,0,0,50,47.5v-31A4.5,4.5,0,0,0,45.5,12Z"/><line class="d" x1="8.051" transform="translate(25.949 41)"/><path class="c" d="M34,42H25.949a1,1,0,1,1,0-2H34a1,1,0,0,1,0,2Z"/><line class="d" x1="4" transform="translate(28 45)"/><path class="c" d="M32,46H28a1,1,0,0,1,0-2h4a1,1,0,0,1,0,2Z"/></svg>