<svg xmlns="http://www.w3.org/2000/svg" width="60" height="60" viewBox="0 0 60 60"><defs><style>.a{fill:none;}.b{fill:#0080ff;}.c{opacity:0.25;}.d{opacity:0.15;}</style></defs><rect class="a" width="60" height="60"/><path class="b" d="M14,21v3H11V21Zm-3-9v3h3V12Zm0-6V9h3V6Zm6,24h3V27H17Zm-3-6v3h3V24ZM23,6H17V9H14v3h3v3h3V12h3a6,6,0,0,1,0,12H20v3h3v3A12,12,0,0,0,35,18h0A12,12,0,0,0,23,6ZM17,24h3V18H17V15H14v6h3Z"/><g class="c"><path class="b" d="M15,52.667v-4c2.667,0,6.667-9.334,9.333-9.334S29.667,46,33.667,46s8-12,10.666-12V52.667Z"/></g><g class="d"><circle class="b" cx="3" cy="3" r="3" transform="translate(12 33)"/></g><path class="b" d="M15,34a2,2,0,1,1-2,2,2,2,0,0,1,2-2m0-2a4,4,0,1,0,4,4,4,4,0,0,0-4-4Z"/><path class="b" d="M24,41a2,2,0,1,1-2,2,2,2,0,0,1,2-2m0-2a4,4,0,1,0,4,4,4,4,0,0,0-4-4Z"/><g class="d"><circle class="b" cx="3" cy="3" r="3" transform="translate(31 30)"/></g><path class="b" d="M34,31a2,2,0,1,1-2,2,2,2,0,0,1,2-2m0-2a4,4,0,1,0,4,4,4,4,0,0,0-4-4Z"/><g class="d"><circle class="b" cx="3" cy="3" r="3" transform="translate(41 17)"/></g><path class="b" d="M44,18a2,2,0,1,1-2,2,2,2,0,0,1,2-2m0-2a4,4,0,1,0,4,4,4,4,0,0,0-4-4Z"/><path class="b" d="M15,53.333a1,1,0,0,1-1-1V48a1,1,0,0,1,2,0v4.333A1,1,0,0,1,15,53.333Z"/><path class="b" d="M24,53.661a1,1,0,0,1-1-1V51a1,1,0,0,1,2,0v1.661A1,1,0,0,1,24,53.661Z"/><path class="b" d="M34,53a1,1,0,0,1-1-1V45a1,1,0,0,1,2,0v7A1,1,0,0,1,34,53Z"/><path class="b" d="M44,53a1,1,0,0,1-1-1V33a1,1,0,0,1,2,0V52A1,1,0,0,1,44,53Z"/><rect class="b" width="38" height="2" rx="1" transform="translate(11 52)"/><path class="b" d="M21.57,39.843l-2.9-2.256a3.989,3.989,0,0,1-1.239,1.57l2.9,2.256A4,4,0,0,1,21.57,39.843Z"/><path class="b" d="M30.566,35.02,26.02,39.566a3.991,3.991,0,0,1,1.414,1.414l4.546-4.546A3.991,3.991,0,0,1,30.566,35.02Z"/><path class="b" d="M40.856,22.446l-5.287,6.875a4,4,0,0,1,1.57,1.227l5.291-6.87A4,4,0,0,1,40.856,22.446Z"/></svg>