<svg xmlns="http://www.w3.org/2000/svg" width="24" height="24" viewBox="0 0 24 24"><defs><style>.a{fill:none;}.b{fill:#fff;}</style></defs><g transform="translate(-1438 -9612)"><rect class="a" width="24" height="24" transform="translate(1438 9612)"/><g transform="translate(1007.709 7573.7)"><path class="b" d="M443.417,2049.6l3.5-3.5-13.182-7.49a1.485,1.485,0,0,0-1.479-.2Z" transform="translate(-0.064)"/><path class="b" d="M431.491,2039.089a1.857,1.857,0,0,0-.2.935v20.647a1.852,1.852,0,0,0,.176.89l11.224-11.247Z" transform="translate(0 -0.052)"/><path class="b" d="M452.777,2049.54l-4.182-2.376-3.678,3.687,3.727,3.734,4.133-2.349C454.084,2051.494,454.084,2050.281,452.777,2049.54Z" transform="translate(-0.905 -0.589)"/><path class="b" d="M443.413,2051.821l-11.217,11.24a1.486,1.486,0,0,0,1.53-.171l13.232-7.518Z" transform="translate(-0.06 -0.898)"/></g></g></svg>