<svg xmlns="http://www.w3.org/2000/svg" xmlns:xlink="http://www.w3.org/1999/xlink" width="152.999" height="58" viewBox="0 0 152.999 58"><defs><style>.a,.j{fill:#fff;}.b,.c{fill:#1f333d;}.b{stroke:#1f333d;stroke-miterlimit:10;stroke-width:0.2px;}.d{fill:url(#c);}.e{fill:url(#d);}.f{fill:url(#e);}.g{fill:url(#f);}.h{opacity:0.2;}.h,.i,.j{isolation:isolate;}.i{opacity:0.12;}.j{opacity:0.25;}.k{filter:url(#a);}</style><filter id="a" x="0" y="0" width="152.999" height="58" filterUnits="userSpaceOnUse"><feOffset dy="3" input="SourceAlpha"/><feGaussianBlur stdDeviation="3" result="b"/><feFlood flood-opacity="0.349"/><feComposite operator="in" in2="b"/><feComposite in="SourceGraphic"/></filter><linearGradient id="c" x1="0.915" y1="1.039" x2="-0.383" y2="0.369" gradientUnits="objectBoundingBox"><stop offset="0" stop-color="#00a0ff"/><stop offset="0.007" stop-color="#00a1ff"/><stop offset="0.26" stop-color="#00beff"/><stop offset="0.512" stop-color="#00d2ff"/><stop offset="0.76" stop-color="#00dfff"/><stop offset="1" stop-color="#00e3ff"/></linearGradient><linearGradient id="d" x1="1.076" y1="0.759" x2="-1.305" y2="0.759" gradientUnits="objectBoundingBox"><stop offset="0" stop-color="#ffe000"/><stop offset="0.409" stop-color="#ffbd00"/><stop offset="0.775" stop-color="orange"/><stop offset="1" stop-color="#ff9c00"/></linearGradient><linearGradient id="e" x1="0.862" y1="-0.006" x2="-0.501" y2="-1.776" gradientUnits="objectBoundingBox"><stop offset="0" stop-color="#ff3a44"/><stop offset="1" stop-color="#c31162"/></linearGradient><linearGradient id="f" x1="-0.188" y1="2.714" x2="0.421" y2="1.924" gradientUnits="objectBoundingBox"><stop offset="0" stop-color="#32a071"/><stop offset="0.068" stop-color="#2da771"/><stop offset="0.476" stop-color="#15cf74"/><stop offset="0.801" stop-color="#06e775"/><stop offset="1" stop-color="#00f076"/></linearGradient></defs><g transform="translate(7746.999 -608)"><g class="k" transform="matrix(1, 0, 0, 1, -7747, 608)"><rect class="a" width="134.999" height="40" rx="6" transform="translate(9 6)"/></g><g transform="translate(-7696.647 620.866)"><path class="b" d="M657.912,371.285a2.706,2.706,0,0,1-.745,2,2.907,2.907,0,0,1-2.2.888,3.134,3.134,0,1,1,0-6.268,3.1,3.1,0,0,1,1.232.252,2.466,2.466,0,0,1,.938.67l-.527.528a2.026,2.026,0,0,0-1.643-.712,2.4,2.4,0,1,0,1.676,4.123,1.889,1.889,0,0,0,.5-1.215h-2.179v-.721h2.908A2.533,2.533,0,0,1,657.912,371.285Z" transform="translate(-651.846 -367.908)"/><path class="b" d="M663.956,368.807h-2.733v1.9h2.464v.721h-2.464v1.9h2.733v.738h-3.5v-6h3.5Z" transform="translate(-653.281 -367.935)"/><path class="b" d="M668.068,374.069H667.3v-5.262h-1.676v-.738h4.123v.738h-1.675Z" transform="translate(-654.142 -367.935)"/><path class="b" d="M674.149,374.069v-6h.77v6Z" transform="translate(-655.563 -367.935)"/><path class="b" d="M678.688,374.069h-.772v-5.262H676.24v-.738h4.123v.738h-1.676Z" transform="translate(-655.912 -367.935)"/><path class="b" d="M689.5,373.267a3.115,3.115,0,0,1-4.4,0,3.24,3.24,0,0,1,0-4.449,3.1,3.1,0,0,1,4.395,0,3.231,3.231,0,0,1,0,4.446Zm-3.83-.5a2.308,2.308,0,0,0,3.26,0,2.559,2.559,0,0,0,0-3.445,2.308,2.308,0,0,0-3.26,0,2.561,2.561,0,0,0,0,3.445Z" transform="translate(-657.241 -367.908)"/><path class="b" d="M692.913,374.069v-6h.938l2.916,4.668h.033l-.033-1.156v-3.512h.772v6h-.8l-3.051-4.893h-.033l.033,1.156v3.738Z" transform="translate(-658.691 -367.935)"/></g><path class="c" d="M678.567,384.83a4.253,4.253,0,1,0,4.269,4.253A4.192,4.192,0,0,0,678.567,384.83Zm0,6.831a2.584,2.584,0,1,1,2.4-2.577A2.461,2.461,0,0,1,678.567,391.661Zm-9.313-6.831a4.253,4.253,0,1,0,4.269,4.253A4.192,4.192,0,0,0,669.254,384.83Zm0,6.831a2.584,2.584,0,1,1,2.4-2.577A2.461,2.461,0,0,1,669.254,391.661Zm-11.079-5.526v1.8h4.318a3.767,3.767,0,0,1-.983,2.272,4.42,4.42,0,0,1-3.335,1.321,4.8,4.8,0,0,1,0-9.6,4.6,4.6,0,0,1,3.255,1.289l1.272-1.273a6.3,6.3,0,0,0-4.527-1.82,6.606,6.606,0,1,0,0,13.21,6.04,6.04,0,0,0,4.608-1.853,6.509,6.509,0,0,0,1.466-5.348Zm45.308,1.4a3.952,3.952,0,0,0-3.641-2.707,4.043,4.043,0,0,0-4.012,4.253,4.161,4.161,0,0,0,4.221,4.253,4.229,4.229,0,0,0,3.544-1.884l-1.449-.967a2.431,2.431,0,0,1-2.095,1.176,2.163,2.163,0,0,1-2.062-1.289l5.687-2.352Zm-5.8,1.418a2.332,2.332,0,0,1,2.222-2.481,1.647,1.647,0,0,1,1.579.9Zm-4.624,4.124h1.869v-12.5H693.06Zm-3.061-7.3h-.064a2.947,2.947,0,0,0-2.24-.951,4.257,4.257,0,0,0,0,8.506,2.9,2.9,0,0,0,2.24-.966H690v.612c0,1.628-.87,2.5-2.272,2.5a2.352,2.352,0,0,1-2.143-1.515l-1.628.677a4.053,4.053,0,0,0,3.77,2.513c2.191,0,4.043-1.288,4.043-4.43v-7.637H690Zm-2.142,5.88a2.587,2.587,0,0,1,0-5.155,2.6,2.6,0,0,1,0,5.155Zm24.381-11.083h-4.472v12.5h1.866v-4.737h2.606a3.888,3.888,0,1,0,0-7.764Zm.048,6.025h-2.654v-4.286h2.654a2.143,2.143,0,1,1,0,4.286Zm11.532-1.8a3.5,3.5,0,0,0-3.33,1.914l1.657.692a1.768,1.768,0,0,1,1.7-.917,1.8,1.8,0,0,1,1.963,1.608v.128a4.137,4.137,0,0,0-1.947-.483c-1.785,0-3.6.982-3.6,2.815a2.888,2.888,0,0,0,3.1,2.75,2.635,2.635,0,0,0,2.381-1.223h.064v.965h1.8v-4.793C727.612,386.045,725.955,384.807,723.817,384.807Zm-.226,6.852c-.611,0-1.463-.306-1.463-1.062,0-.965,1.062-1.335,1.978-1.335a3.331,3.331,0,0,1,1.705.418A2.262,2.262,0,0,1,723.591,391.658Zm10.583-6.578-2.139,5.42h-.065l-2.219-5.42h-2.01l3.329,7.576-1.9,4.213h1.947l5.13-11.789Zm-16.807,8h1.866v-12.5h-1.866Z" transform="translate(-8348.431 250.922)"/><g transform="translate(-7728.027 621.141)"><path class="d" d="M614.653,368.7a2,2,0,0,0-.463,1.4v22.116a2,2,0,0,0,.463,1.4l.074.072,12.388-12.388v-.293l-12.388-12.389Z" transform="translate(-614.19 -368.303)"/><path class="e" d="M633.831,387.092l-4.13-4.131v-.293l4.131-4.131.092.053,4.893,2.78c1.4.794,1.4,2.093,0,2.888l-4.893,2.781Z" transform="translate(-616.775 -369.955)"/><path class="f" d="M631.432,387.894l-4.223-4.224-12.463,12.463a1.626,1.626,0,0,0,2.078.061l14.608-8.3" transform="translate(-614.283 -370.81)"/><path class="g" d="M631.432,376.874l-14.608-8.3a1.626,1.626,0,0,0-2.078.062L627.208,381.1Z" transform="translate(-614.283 -368.238)"/><g transform="translate(0 16.991)"><path class="h" d="M631.339,388.627l-14.516,8.247a1.665,1.665,0,0,1-2,.011h0l-.074.074h0l.074.073h0a1.663,1.663,0,0,0,2-.011l14.608-8.3Z" transform="translate(-614.283 -388.627)"/><path class="i" d="M614.653,398.17a2,2,0,0,1-.463-1.4v.146a2,2,0,0,0,.463,1.4l.074-.074Z" transform="translate(-614.19 -389.983)"/></g><path class="i" d="M639.644,384.968l-4.986,2.833.092.093,4.893-2.78a1.756,1.756,0,0,0,1.048-1.443h0A1.864,1.864,0,0,1,639.644,384.968Z" transform="translate(-617.601 -370.81)"/><path class="j" d="M616.731,368.72l19.5,11.08a1.862,1.862,0,0,1,1.048,1.3h0a1.753,1.753,0,0,0-1.048-1.443l-19.5-11.08c-1.4-.794-2.541-.135-2.541,1.466v.147C614.19,368.586,615.333,367.926,616.731,368.72Z" transform="translate(-614.19 -368.238)"/></g></g></svg>