<svg xmlns="http://www.w3.org/2000/svg" width="94" height="94" viewBox="0 0 94 94"><defs><style>.a{fill:#fff;}</style></defs><g transform="translate(-645 -587)"><rect class="a" width="94" height="94" transform="translate(645 587)"/><g transform="translate(635 577)"><path d="M79.966,16.966V14H77v5.931h2.966Z" transform="translate(-36.31)"/><path d="M135.966,16.966V14H133v5.931h2.966Z" transform="translate(-68.586)"/><path d="M72.966,28H70v5.931h2.966V28Z" transform="translate(-32.276 -8.069)"/><path d="M149.966,19.931V16.966h2.966V14H147v8.9h2.966Z" transform="translate(-76.655)"/><rect width="2.966" height="2.966" transform="translate(64.414 22.897)"/><path d="M79.966,42H77v5.931h2.966V42Z" transform="translate(-36.31 -16.138)"/><path d="M142.966,44.966h2.966V42H140v2.966Z" transform="translate(-72.621 -16.138)"/><rect width="2.966" height="2.966" transform="translate(46.621 28.828)"/><rect width="2.966" height="2.966" transform="translate(52.552 28.828)"/><path d="M102.862,31.793h2.966v2.966h2.966V28.828h-2.966V25.862h-2.966V19.931H96.931V22.9H93.966V19.931h2.966V16.966h8.9V14H91V25.862h8.9v2.966h2.966Z" transform="translate(-44.379)"/><rect width="2.966" height="2.966" transform="translate(37.724 31.793)"/><rect width="2.966" height="2.966" transform="translate(43.655 31.793)"/><rect width="2.966" height="2.966" transform="translate(49.586 31.793)"/><rect width="2.966" height="2.966" transform="translate(55.517 31.793)"/><rect width="2.966" height="2.966" transform="translate(73.31 31.793)"/><rect width="2.966" height="2.966" transform="translate(46.621 34.759)"/><path d="M135.966,61.931h2.966V56h-2.966v2.966H133v2.966Z" transform="translate(-68.586 -24.207)"/><path d="M75.69,70H69.759v2.966H63.828V70H60.862v2.966H57.9V70H51.966v2.966h2.966v2.966H49v5.931h2.966V78.9h2.966v2.966H57.9V78.9h2.966V75.931H72.724V72.966h5.931V70Z" transform="translate(-20.172 -32.276)"/><path d="M37.966,72.966h2.966V70H35v5.931h2.966Z" transform="translate(-12.103 -32.276)"/><path d="M127.9,72.966h-2.966V70h-2.966v2.966H119v2.966h11.862V72.966Z" transform="translate(-60.517 -32.276)"/><path d="M180.931,75.931H183.9V72.966h2.966V70h-5.931v2.966H175v2.966h5.931Z" transform="translate(-92.793 -32.276)"/><rect width="2.966" height="2.966" transform="translate(94.069 40.69)"/><rect width="2.966" height="2.966" transform="translate(91.103 43.655)"/><path d="M177.966,91H175v2.966h5.931v2.966H183.9V91h-5.931Z" transform="translate(-92.793 -44.379)"/><rect width="2.966" height="2.966" transform="translate(97.034 46.621)"/><rect width="2.966" height="2.966" transform="translate(31.793 49.586)"/><path d="M158.862,89.931h-5.931V86.966h5.931V84H147v5.931h2.966V92.9H155.9v2.966h2.966V89.931Z" transform="translate(-76.655 -40.345)"/><rect width="2.966" height="2.966" transform="translate(94.069 49.586)"/><path d="M58.966,100.966v2.966H56V106.9h2.966v2.966H64.9v2.966h2.966v-8.9H64.9v-2.966h2.966V98H61.931v2.966Z" transform="translate(-24.207 -48.414)"/><rect width="2.966" height="2.966" transform="translate(85.172 52.552)"/><rect width="2.966" height="2.966" transform="translate(91.103 52.552)"/><path d="M16.966,112H14v5.931h2.966V112Z" transform="translate(0 -56.483)"/><path d="M25.862,91.828V85.9H22.9V79.966H19.931V77H14v5.931h5.931v5.931H22.9v5.931h5.931V91.828Z" transform="translate(0 -36.31)"/><path d="M149.966,112H147v8.9h5.931v-2.966h-2.966v-2.966h2.966V112Z" transform="translate(-76.655 -56.483)"/><rect width="2.966" height="2.966" transform="translate(82.207 55.517)"/><path d="M184.966,114.966H182v2.966h2.966V120.9H182v2.966h5.931v-5.931H190.9v-2.966h-2.965V112h-2.966Z" transform="translate(-96.828 -56.483)"/><path d="M210,110.931v5.931h2.966V105H210v5.931Z" transform="translate(-112.966 -52.448)"/><path d="M47.931,119H44.966v5.931H42V127.9h5.931v-2.966H50.9v-2.966H47.931Z" transform="translate(-16.138 -60.517)"/><rect width="2.966" height="2.966" transform="translate(76.276 58.483)"/><rect width="2.966" height="2.966" transform="translate(82.207 61.448)"/><path d="M70,135.966v2.966h2.966V133H70Z" transform="translate(-32.276 -68.586)"/><rect width="2.966" height="2.966" transform="translate(31.793 67.379)"/><rect width="2.966" height="2.966" transform="translate(70.345 67.379)"/><rect width="2.966" height="2.966" transform="translate(97.034 67.379)"/><path d="M42,147v2.966h2.966v2.966h8.9v5.931h2.966v-8.9h-8.9V147H42Z" transform="translate(-16.138 -76.655)"/><path d="M143.552,145.931V148.9h-2.966v-2.965h-2.966V140h-2.965v2.966h-5.931v2.966h-2.966v5.931h-2.966v5.931h-2.966v-5.931h-2.966v2.965H113.9v-2.965h2.966v-5.931h2.966v-2.966H107.966v2.966H105V148.9h2.966v11.862H105v8.9h5.931v-8.9H113.9v8.9h2.966v-8.9h2.966v2.965h2.966v-2.965h11.862v5.931h2.965v2.966h-2.965v2.965h5.931V166.69h2.966v-2.966h-5.931v-2.965h2.966v-2.966h2.966v-2.966h-2.966v-2.965h2.966v2.965h2.965v-8.9h2.966v-2.966h-2.966V140h-2.965v5.931Zm-32.621,0H113.9V148.9h-2.966Zm26.69,8.9v2.966h-8.9v-8.9h8.9v5.931Z" transform="translate(-52.448 -72.621)"/><path d="M19.931,137.862V134.9H22.9v-2.965H19.931v-2.966h5.931V126h-8.9v2.966H14v11.862H25.862v-2.966H19.931Z" transform="translate(0 -64.552)"/><rect width="2.966" height="2.966" transform="translate(97.034 73.31)"/><path d="M86.966,152.931v-2.966h2.966V147H84v11.862h5.931V155.9H92.9v-2.966H86.966Z" transform="translate(-40.345 -76.655)"/><rect width="2.966" height="2.966" transform="translate(79.241 79.241)"/><path d="M75.931,184.966V182H70v5.931h2.966v-2.966Z" transform="translate(-32.276 -96.828)"/><path d="M93.966,182H91v2.966h5.931V182Z" transform="translate(-44.379 -96.828)"/><path d="M198.966,180.931H196V183.9h2.966v2.966h2.966v2.966H204.9V183.9h-2.966v-2.966H204.9V175h-5.931v5.931Z" transform="translate(-104.897 -92.793)"/><rect width="2.966" height="2.966" transform="translate(43.655 88.138)"/><rect width="2.966" height="2.966" transform="translate(40.69 91.103)"/><path d="M154,196v2.966h2.966v2.966h2.966V196H154Z" transform="translate(-80.69 -104.897)"/><path d="M140,205.966v2.966h2.966V203H140Z" transform="translate(-72.621 -108.931)"/><rect width="2.966" height="2.966" transform="translate(91.103 94.069)"/><path d="M84,208.931h2.966V203H84v5.931Z" transform="translate(-40.345 -108.931)"/><rect width="2.966" height="2.966" transform="translate(49.586 97.034)"/><rect width="2.966" height="2.966" transform="translate(58.483 97.034)"/><rect width="2.966" height="2.966" transform="translate(73.31 97.034)"/><path d="M31.645,34.759h3.114V14H14V34.759H31.645ZM17.114,17.114H31.645V31.645H17.114Z"/><path d="M185.645,14H168V34.759h20.759V14Zm0,17.645H171.114V17.114h14.531Z" transform="translate(-88.759)"/><path d="M17.114,168H14v20.759H34.759V168H17.114Zm14.531,17.645H17.114V171.114H31.645Z" transform="translate(0 -88.759)"/><rect width="8.897" height="8.897" transform="translate(19.931 19.931)"/><rect width="8.897" height="8.897" transform="translate(85.172 19.931)"/><rect width="8.897" height="8.897" transform="translate(19.931 85.172)"/><path d="M99.09,113.2h2.62q.644-1.764,1.232-3.7t1.178-3.887q.587,1.948,1.192,3.887t1.247,3.7h2.622q.979-2.958,1.82-6.247t1.488-6.486h-2.977q-.185,1.084-.4,2.251t-.433,2.343q-.222,1.176-.471,2.278t-.489,2.04q-.294-.864-.605-1.875t-.615-2.021q-.3-1.01-.569-1.957t-.486-1.7H103q-.2.735-.451,1.672t-.543,1.947q-.295,1.011-.608,2.021t-.644,1.911q-.258-.937-.508-2.04t-.489-2.278q-.241-1.176-.462-2.343t-.406-2.251H95.787q.646,3.2,1.485,6.486T99.09,113.2Z" transform="translate(-47.138 -49.838)"/></g></g></svg>