<svg xmlns="http://www.w3.org/2000/svg" width="60" height="60" viewBox="0 0 60 60"><defs><style>.a,.c,.f{fill:none;}.b,.d,.h{fill:#0080ff;}.b{opacity:0.15;}.c,.e,.f{stroke-linecap:round;stroke-linejoin:round;}.e{fill:#fff;}.e,.f{stroke:#0080ff;stroke-width:2px;}.g,.h{stroke:none;}</style></defs><rect class="a" width="60" height="60"/><path class="b" d="M48,39a4,4,0,0,1,4-4V31a2,2,0,0,0-2-2H10a2,2,0,0,0-2,2v4a4,4,0,0,1,0,8v4a2,2,0,0,0,2,2H50a2,2,0,0,0,2-2V43A4,4,0,0,1,48,39Z"/><g class="c"><path class="g" d="M48,39a4,4,0,0,1,4-4V31a2,2,0,0,0-2-2H10a2,2,0,0,0-2,2v4a4,4,0,0,1,0,8v4a2,2,0,0,0,2,2H50a2,2,0,0,0,2-2V43A4,4,0,0,1,48,39Z"/><path class="h" d="M 10 31 L 10 33.34271240234375 C 12.32814025878906 34.16815948486328 14 36.39248657226563 14 39 C 14 41.60751342773438 12.32814025878906 43.83184051513672 10 44.65728759765625 L 10 47 L 50 47 L 50 44.65728759765625 C 47.67185974121094 43.83184051513672 46 41.60751342773438 46 39 C 46 36.39248657226563 47.67185974121094 34.16815948486328 50 33.34271240234375 L 50 31 L 10 31 M 10 29 L 50 29 C 51.10499954223633 29 52 29.89500045776367 52 31 L 52 35 C 49.79100036621094 35 48 36.79100036621094 48 39 C 48 41.20899963378906 49.79100036621094 43 52 43 L 52 47 C 52 48.10499954223633 51.10499954223633 49 50 49 L 10 49 C 8.895000457763672 49 8 48.10499954223633 8 47 L 8 43 C 10.20899963378906 43 12 41.20899963378906 12 39 C 12 36.79100036621094 10.20899963378906 35 8 35 L 8 31 C 8 29.89500045776367 8.895000457763672 29 10 29 Z"/></g><rect class="d" width="2" height="4" transform="translate(39 33)"/><rect class="d" width="2" height="4" transform="translate(39 39)"/><rect class="d" width="2" height="2" transform="translate(39 45)"/><g class="e" transform="translate(18 33)"><circle class="g" cx="3.5" cy="3.5" r="3.5"/><circle class="a" cx="3.5" cy="3.5" r="2.5"/></g><g class="e" transform="translate(28 38)"><circle class="g" cx="3.5" cy="3.5" r="3.5"/><circle class="a" cx="3.5" cy="3.5" r="2.5"/></g><line class="f" x1="5" y2="10" transform="translate(24 34)"/><path class="d" d="M12,27V25H48v2h2V25a2,2,0,0,0-2-2H12a2,2,0,0,0-2,2v2Z"/><path class="d" d="M14,21V19H46v2h2V19a2,2,0,0,0-2-2H14a2,2,0,0,0-2,2v2Z"/><path class="d" d="M16,15V13H44v2h2V13a2,2,0,0,0-2-2H16a2,2,0,0,0-2,2v2Z"/></svg>