<svg xmlns="http://www.w3.org/2000/svg" width="24" height="24" viewBox="0 0 24 24"><defs><style>.a{fill:none;}.b{fill:#fff;}</style></defs><g transform="translate(-1421 -9612)"><rect class="a" width="24" height="24" transform="translate(1421 9612)"/><path class="b" d="M130-267h0a12,12,0,0,0-12,12,12,12,0,0,0,12,12,12,12,0,0,0,12-12A12,12,0,0,0,130-267Zm4.436,19.421-3.173-4.629L130-254.053l-1.263,1.844-3.173,4.629h-1.3l4.592-6.7.494-.721-.494-.72-4.592-6.7h1.3l3.173,4.629L130-255.949l1.263-1.844,3.173-4.629h1.3l-4.592,6.7-.494.721.494.72,4.592,6.7Z" transform="translate(1303 9879.001)"/></g></svg>