<svg xmlns="http://www.w3.org/2000/svg" width="1920" height="231.054" viewBox="0 0 1920 231.054"><defs><style>.a{fill:#ffb300;}</style></defs><path class="a" d="M1999.2,2438.882a379.047,379.047,0,0,0-69.725,2.215c-91.945,11.766-97.429,42.149-183.478,61.812-169.881,38.819-218.2-77.037-449-64-60.943,3.442-100.894,13.967-185,8-87.59-6.215-150.463-25.165-175-32-231.537-64.5-338.529,33.359-694.165-8.334-40.469-4.745-104.708-13.7-163.632-15.092v102.726c51.157-7.949,103.924-11.264,137.991,13.264,26.241,18.892,10.416,32.005,36.628,50.932,66.595,48.084,167.742-31.78,304.01-14.415,25.178,3.208,43.455,8.19,58.5,14.177,55.414,22.048,93.138,43.332,104.49,50.208,99.429,60.229,241.352-92.714,462.176-67.466,83.471,9.543,108.781,36.608,183,23,59.792-10.964,96.475-38.267,164-31,38.66,4.16,60.475,16.752,88,28,133.336,54.486,276.119,26.548,381.2-1.414Z" transform="translate(-79.203 -2391.483)"/></svg>