<svg xmlns="http://www.w3.org/2000/svg" width="516.184" height="601.222" viewBox="0 0 516.184 601.222"><defs><style>.a{fill:#2b56f5;}</style></defs><path class="a" d="M334,463c7.97-59.031,67.224-115.829,130-120,35.839-2.382,84.506,11.614,102,45,11.888,22.689-1.133,34.269,10,58,22.26,47.45,99.571,54.978,112,56,71.071,5.843,94.333-30.592,125-15,54.52,27.72,32.043,168.83,30,181-8.7,51.818-31.143,185.549-148,246-120.877,62.531-290.486,19.606-322-59-24.994-62.344,54.5-103.186,39-207C397.908,553.6,324.317,534.717,334,463Z" transform="translate(-333.125 -342.741)"/></svg>