<svg xmlns="http://www.w3.org/2000/svg" width="283" height="615" viewBox="0 0 283 615"><defs><style>.a{fill:#2448cc;}</style></defs><path class="a" d="M2635.969,238h-28.411a4.859,4.859,0,0,0-4.851,4.868v2.306a15.768,15.768,0,0,1-15.773,15.764H2460a15.769,15.769,0,0,1-15.707-15.829v-2.241a4.86,4.86,0,0,0-4.848-4.868H2410.91A29.026,29.026,0,0,0,2382,267.141V823.982A29.024,29.024,0,0,0,2411.032,853h225.06A29.026,29.026,0,0,0,2665,823.859V267.019A29.026,29.026,0,0,0,2635.969,238Z" transform="translate(-2382 -238)"/></svg>