<svg xmlns="http://www.w3.org/2000/svg" width="24" height="24" viewBox="0 0 24 24"><defs><style>.a{fill:none;}.b{fill:#fff;}</style></defs><g transform="translate(-1354 -106)"><rect class="a" width="24" height="24" transform="translate(1354 106)"/><path class="b" d="M1572,302h-16a2,2,0,0,0-2,2v12a2,2,0,0,0,2,2h16a2,2,0,0,0,2-2V304A2,2,0,0,0,1572,302Zm0,2v.512l-7.4,5.788a1,1,0,0,1-1.184.012l-7.416-5.8V304Zm0,3.052v6.005l-4.013-2.867Zm-11.986,3.138L1556,313.057v-6.005ZM1556,316v-.486l5.656-4.04.543.425a2.987,2.987,0,0,0,1.8.6,3.031,3.031,0,0,0,1.821-.607l.529-.413,5.655,4.039V316Z" transform="translate(-198 -192)"/></g></svg>