<svg xmlns="http://www.w3.org/2000/svg" width="36" height="27" viewBox="0 0 36 27"><defs><style>.a{fill:#1d1040;}.b{fill:#5a5dff;}.c{fill:#bd00ff;}</style></defs><g transform="translate(8)"><path class="a" d="M-37.444,155a1.015,1.015,0,0,1-.407-.084.961.961,0,0,1-.593-.88v-3.857H-49a.982.982,0,0,1-1-.964V133.786a.982.982,0,0,1,1-.964h11.519v-3.857a.962.962,0,0,1,.608-.887,1.027,1.027,0,0,1,1.086.193l13.481,12.536a.95.95,0,0,1,.306.712.949.949,0,0,1-.331.7l-14.444,12.536A1.021,1.021,0,0,1-37.444,155ZM-48,148.25h10.556a.982.982,0,0,1,1,.964v2.657l11.977-10.4-11.014-10.242v2.551a.982.982,0,0,1-1,.964H-48Z" transform="translate(50 -128)"/></g><g transform="translate(25 9.5)"><path class="b" d="M-32,146a1,1,0,0,1-.554-.168,1,1,0,0,1-.277-1.387L-31.2,142l-1.63-2.445a1,1,0,0,1,.277-1.387,1,1,0,0,1,1.387.277l2,3a1,1,0,0,1,0,1.11l-2,3A1,1,0,0,1-32,146Z" transform="translate(33 -137.999)"/></g><g transform="translate(13 9.5)"><path class="b" d="M-42,146a1,1,0,0,1-.833-.445l-2-3a1,1,0,0,1,0-1.11l2-3a1,1,0,0,1,1.387-.277,1,1,0,0,1,.277,1.387L-42.8,142l1.63,2.445a1,1,0,0,1-.277,1.387A1,1,0,0,1-42,146Z" transform="translate(45 -137.999)"/></g><g transform="translate(17.999 8.5)"><path class="b" d="M-39,147a1,1,0,0,1-.446-.1,1,1,0,0,1-.448-1.342l4-8a1,1,0,0,1,1.342-.448,1,1,0,0,1,.448,1.342l-4,8A1,1,0,0,1-39,147Z" transform="translate(40.001 -137)"/></g><g transform="translate(0 8.654)"><path class="c" d="M-53,139h-4a1,1,0,0,1-1-1,1,1,0,0,1,1-1h4a1,1,0,0,1,1,1A1,1,0,0,1-53,139Z" transform="translate(58 -137)"/></g><g transform="translate(0 16.347)"><path class="c" d="M-53,147h-4a1,1,0,0,1-1-1,1,1,0,0,1,1-1h4a1,1,0,0,1,1,1A1,1,0,0,1-53,147Z" transform="translate(58 -145)"/></g><g transform="translate(2 12.5)"><path class="c" d="M-53,143h-2a1,1,0,0,1-1-1,1,1,0,0,1,1-1h2a1,1,0,0,1,1,1A1,1,0,0,1-53,143Z" transform="translate(56 -141)"/></g></svg>