<svg id="Layer_1" data-name="Layer 1" xmlns="http://www.w3.org/2000/svg" viewBox="0 0 40 40"><defs><style>.cls-1{fill:#fff;}</style></defs><path class="cls-1" d="M22.5557,34a1.0012,1.0012,0,0,1-1-1V29H11a1,1,0,0,1-1-1V12a1,1,0,0,1,1-1H22.5186V7a1,1,0,0,1,1.6943-.72l13.4814,13a1,1,0,0,1-.0254,1.4629l-14.4443,13A.9984.9984,0,0,1,22.5557,34ZM12,27H22.5557a1,1,0,0,1,1,1v2.7549l11.9775-10.78L24.5186,9.3535V12a1,1,0,0,1-1,1H12Z"/><path class="cls-1" d="M27.999,24a1,1,0,0,1-.831-1.5547L28.7983,20l-1.63-2.4453a1,1,0,1,1,1.664-1.1094l2,3a.999.999,0,0,1,0,1.1094l-2,3A.9988.9988,0,0,1,27.999,24Z"/><path class="cls-1" d="M18.001,24a.9988.9988,0,0,1-.833-.4453l-2-3a.999.999,0,0,1,0-1.1094l2-3a1,1,0,0,1,1.664,1.1094L17.2017,20l1.63,2.4453A1,1,0,0,1,18.001,24Z"/><path class="cls-1" d="M20.999,25a1,1,0,0,1-.8935-1.4473l4-8a1,1,0,1,1,1.789.8946l-4,8A1,1,0,0,1,20.999,25Z"/><path class="cls-1" d="M7,17H3a1,1,0,0,1,0-2H7a1,1,0,0,1,0,2Z"/><path class="cls-1" d="M7,25H3a1,1,0,0,1,0-2H7a1,1,0,0,1,0,2Z"/><path class="cls-1" d="M7,21H5a1,1,0,0,1,0-2H7a1,1,0,0,1,0,2Z"/></svg>