<svg xmlns="http://www.w3.org/2000/svg" width="80" height="80" viewBox="0 0 80 80"><defs><style>.a{fill:red;opacity:0;}.b{fill:#5a5dff;opacity:0.1;}.c,.d,.e{fill:none;stroke-linecap:round;stroke-linejoin:round;stroke-width:2px;}.c{stroke:#1d1040;opacity:0.75;}.d{stroke:#5a5dff;}.e{stroke:#bd00ff;}</style></defs><g transform="translate(-334 -2419)"><rect class="a" width="80" height="80" transform="translate(334 2419)"/><g transform="translate(334 2413.968)"><path class="b" d="M37,78.968a2.014,2.014,0,0,1-.885-.207A1.987,1.987,0,0,1,35,76.966V66H6a2,2,0,0,1-2-2V32a2,2,0,0,1,2-2H35V19.034a2,2,0,0,1,3.222-1.583L71.611,47.208a1,1,0,0,1,0,1.584L38.222,78.549A1.992,1.992,0,0,1,37,78.968Z"/><path class="c" d="M44,68.966V58a1,1,0,0,0-1-1H14a1,1,0,0,1-1-1V24a1,1,0,0,1,1-1H43a1,1,0,0,0,1-1V11.034a1,1,0,0,1,1.611-.791L79,40,45.611,69.757A1,1,0,0,1,44,68.966Z"/><path class="d" d="M49,34l4,6-4,6"/><path class="d" d="M31,46l-4-6,4-6"/><line class="d" x1="8" y2="20" transform="translate(36 30)"/><line class="e" x1="8" transform="translate(1 33)"/><line class="e" x1="8" transform="translate(1 47)"/><line class="e" x1="4" transform="translate(5 40)"/></g></g></svg>