<svg xmlns="http://www.w3.org/2000/svg" width="36" height="36" viewBox="0 0 36 36"><defs><style>.a{fill:#bd00ff;}.b{fill:#5a5dff;}.c{fill:#1d1040;}</style></defs><g transform="translate(118 56)"><path class="a" d="M-86-34a4,4,0,0,1-4-4,4,4,0,0,1,4-4,4,4,0,0,1,4,4A4,4,0,0,1-86-34Zm0-6a2,2,0,0,0-2,2,2,2,0,0,0,2,2,2,2,0,0,0,2-2A2,2,0,0,0-86-40Z"/><path class="a" d="M-114-34a4,4,0,0,1-4-4,4,4,0,0,1,4-4,4,4,0,0,1,4,4A4,4,0,0,1-114-34Zm0-6a2,2,0,0,0-2,2,2,2,0,0,0,2,2,2,2,0,0,0,2-2A2,2,0,0,0-114-40Z"/><path class="b" d="M-100-31a7.008,7.008,0,0,1-7-7,7.008,7.008,0,0,1,7-7,7.008,7.008,0,0,1,7,7A7.008,7.008,0,0,1-100-31Zm0-12a5.006,5.006,0,0,0-5,5,5.006,5.006,0,0,0,5,5,5.006,5.006,0,0,0,5-5A5.006,5.006,0,0,0-100-43Z"/><path class="a" d="M-100-48a4,4,0,0,1-4-4,4,4,0,0,1,4-4,4,4,0,0,1,4,4A4,4,0,0,1-100-48Zm0-6a2,2,0,0,0-2,2,2,2,0,0,0,2,2,2,2,0,0,0,2-2A2,2,0,0,0-100-54Z"/><path class="a" d="M-100-20a4,4,0,0,1-4-4,4,4,0,0,1,4-4,4,4,0,0,1,4,4A4,4,0,0,1-100-20Zm0-6a2,2,0,0,0-2,2,2,2,0,0,0,2,2,2,2,0,0,0,2-2A2,2,0,0,0-100-26Z"/><path class="c" d="M-114-45a1,1,0,0,1-1-1,7.008,7.008,0,0,1,7-7,1,1,0,0,1,1,1,1,1,0,0,1-1,1,5.006,5.006,0,0,0-5,5A1,1,0,0,1-114-45Z"/><path class="c" d="M-108-23a7.008,7.008,0,0,1-7-7,1,1,0,0,1,1-1,1,1,0,0,1,1,1,5.006,5.006,0,0,0,5,5,1,1,0,0,1,1,1A1,1,0,0,1-108-23Z"/><path class="c" d="M-92-23a1,1,0,0,1-1-1,1,1,0,0,1,1-1,5.006,5.006,0,0,0,5-5,1,1,0,0,1,1-1,1,1,0,0,1,1,1A7.008,7.008,0,0,1-92-23Z"/><path class="c" d="M-86-45a1,1,0,0,1-1-1,5.006,5.006,0,0,0-5-5,1,1,0,0,1-1-1,1,1,0,0,1,1-1,7.008,7.008,0,0,1,7,7A1,1,0,0,1-86-45Z"/></g></svg>