<svg xmlns="http://www.w3.org/2000/svg" width="80" height="80" viewBox="0 0 80 80"><defs><style>.a{fill:red;opacity:0;}.b{fill:#5a5dff;opacity:0.1;}.c,.d,.e{fill:none;stroke-linecap:round;stroke-linejoin:round;stroke-width:2px;}.c{stroke:#1d1040;}.d{stroke:#5a5dff;}.e{stroke:#bd00ff;}.f{fill:#bd00ff;}</style></defs><g transform="translate(-762 -2525)"><rect class="a" width="80" height="80" transform="translate(762 2525)"/><g transform="translate(662 2520)"><rect class="b" width="72" height="52" rx="7" transform="translate(100 23)"/><path class="c" d="M151,66H115a6,6,0,0,1-6-6V22a6,6,0,0,1,6-6h58a6,6,0,0,1,6,6V38"/><path class="d" d="M135,34.236V47.764a2,2,0,0,0,2.894,1.789l13.528-6.764a2,2,0,0,0,0-3.578l-13.528-6.764A2,2,0,0,0,135,34.236Z"/><path class="e" d="M170,66a9,9,0,0,1,9-9"/><path class="e" d="M164,66a15,15,0,0,1,15-15"/><path class="e" d="M158,66a21,21,0,0,1,21-21"/><circle class="f" cx="1" cy="1" r="1" transform="translate(178 65)"/></g></g></svg>