<svg xmlns="http://www.w3.org/2000/svg" width="38" height="36" viewBox="0 0 38 36"><defs><style>.a{fill:#fff;}.b{fill:#fff;}.c{fill:#fff;}</style></defs><g transform="translate(-241 -227)"><path class="a" d="M258.968,248.76a1,1,0,0,0-.137-.306c-.015-.023-.033-.043-.05-.065a1,1,0,0,0-.216-.2c-.014-.009-.021-.024-.035-.033l-8-5a1,1,0,0,0-1.06,0l-8,5c-.014.009-.021.024-.035.033a1.022,1.022,0,0,0-.216.2c-.017.022-.035.042-.05.065a1,1,0,0,0-.137.306c-.005.02,0,.041-.008.061A.975.975,0,0,0,241,249v8a1,1,0,0,0,.47.848l8,5c.007,0,.015.005.023.01s.014.012.023.017a.965.965,0,0,0,.146.058.763.763,0,0,0,.079.031.99.99,0,0,0,.248.035h.019a1.013,1.013,0,0,0,.251-.035c.027-.007.052-.021.079-.031a.956.956,0,0,0,.167-.074c.008-.005.017-.006.025-.011l8-5A1,1,0,0,0,259,257v-8a.977.977,0,0,0-.024-.179C258.972,248.8,258.973,248.78,258.968,248.76ZM250,245.18l6.113,3.82L250,252.821,243.887,249Zm-7,5.625,6,3.749V260.2l-6-3.751Zm14,5.64-6,3.75v-5.64l6-3.75Z"/><path class="a" d="M278.976,248.821c0-.021,0-.041-.008-.061a1,1,0,0,0-.137-.306c-.015-.023-.033-.043-.05-.065a1,1,0,0,0-.216-.2c-.014-.009-.021-.024-.035-.033l-8-5a1,1,0,0,0-1.06,0l-8,5c-.014.009-.021.024-.035.033a1.022,1.022,0,0,0-.216.2c-.017.022-.035.042-.05.065a1,1,0,0,0-.137.306c-.005.02,0,.041-.008.061A.977.977,0,0,0,261,249v8a1,1,0,0,0,.47.848l8,5c.007,0,.015.005.023.01s.014.012.023.017a.967.967,0,0,0,.146.058.762.762,0,0,0,.079.031.99.99,0,0,0,.248.035h.019a1.014,1.014,0,0,0,.251-.035c.027-.007.052-.021.079-.031a.957.957,0,0,0,.167-.074c.008-.005.017-.006.025-.011l8-5A1,1,0,0,0,279,257v-8A.977.977,0,0,0,278.976,248.821ZM270,245.18l6.113,3.82L270,252.821,263.887,249Zm-7,5.625,6,3.749V260.2l-6-3.751Zm14,5.64-6,3.75v-5.64l6-3.75Z"/><path class="b" d="M260,247a1,1,0,0,1-.53-.152l-8-5A1,1,0,0,1,251,241v-8a1,1,0,0,1,.47-.848l8-5a1,1,0,0,1,1.06,0l8,5A1,1,0,0,1,269,233v8a1,1,0,0,1-.47.848l-8,5A1,1,0,0,1,260,247Zm-7-6.555,7,4.375,7-4.375v-6.89l-7-4.375-7,4.375Z"/><path class="c" d="M248,239a1,1,0,0,1-1-1v-2a1,1,0,0,1,2,0v2A1,1,0,0,1,248,239Z"/><path class="c" d="M256,240a1,1,0,0,1-1-1v-4a1,1,0,0,1,2,0v4A1,1,0,0,1,256,240Z"/><path class="c" d="M260,242a1,1,0,0,1-1-1v-8a1,1,0,0,1,2,0v8A1,1,0,0,1,260,242Z"/><path class="c" d="M264,239a1,1,0,0,1-1-1v-2a1,1,0,0,1,2,0v2A1,1,0,0,1,264,239Z"/><path class="c" d="M272,239a1,1,0,0,1-1-1v-2a1,1,0,0,1,2,0v2A1,1,0,0,1,272,239Z"/><path class="c" d="M244,240a1,1,0,0,1-1-1v-4a1,1,0,0,1,2,0v4A1,1,0,0,1,244,240Z"/><path class="c" d="M276,240a1,1,0,0,1-1-1v-4a1,1,0,0,1,2,0v4A1,1,0,0,1,276,240Z"/></g></svg>