<svg xmlns="http://www.w3.org/2000/svg" width="294.01" height="104.01" viewBox="0 0 294.01 104.01"><defs><style>.a{fill:#1e1f73;}.b{fill:#fff;}.c,.d,.e,.f,.g,.h{fill:none;stroke-width:2px;}.c{stroke:#5a5dff;stroke-dasharray:4 6;}.c,.e,.g,.h{stroke-linecap:round;}.c,.d,.h{stroke-miterlimit:10;}.d,.e,.f,.h{stroke:#fff;}.e,.f,.g{stroke-linejoin:round;}.g{stroke:#bd00ff;}</style></defs><g transform="translate(-456 150.01)"><path class="a" d="M687.93-46a7.249,7.249,0,0,1-6.833-4.848l-.06-.17H647.176l-.06.17a7.2,7.2,0,0,1-4.438,4.438,7.226,7.226,0,0,1-2.4.41,7.249,7.249,0,0,1-6.832-4.848l-.059-.17H629a1,1,0,0,1-1-1v-7.445a5.483,5.483,0,0,1,2.748-4.736,29.445,29.445,0,0,1,14.214-3.853h.063l4.355-2.375a42.5,42.5,0,0,1,20.229-5.159h1.48a41.733,41.733,0,0,1,17.363,3.74,42.768,42.768,0,0,1,4.8,2.542l.046.028,8.568,1.223a1.006,1.006,0,0,1,.858.99v10.156a4.462,4.462,0,0,1-2.835,4.188l-4.062,1.63a1,1,0,0,1-.372.071h-.63l-.059.17a7.208,7.208,0,0,1-4.439,4.438A7.226,7.226,0,0,1,687.93-46Z"/><path class="a" d="M614-46H554a1,1,0,0,1-1-1v-4a1,1,0,0,1,1-1h1V-86h-3a1,1,0,0,1-.952-.693,1,1,0,0,1,.369-1.119L555-90.388V-100a1,1,0,0,1,1-1h6a1,1,0,0,1,1,1v3.862l20.416-14.674a1,1,0,0,1,1.168,0L605-96.138V-100a1,1,0,0,1,1-1h6a1,1,0,0,1,1,1v9.612l3.584,2.576a1,1,0,0,1,.368,1.119A1,1,0,0,1,616-86h-3v34h1a1,1,0,0,1,1,1v4A1,1,0,0,1,614-46Z"/><path class="b" d="M534.5-101h-41a5.507,5.507,0,0,0-5.5,5.5v26a5.506,5.506,0,0,0,5.5,5.5h13.28l-1.6,8H500a1,1,0,0,0-1,1,1,1,0,0,0,1,1h28a1,1,0,0,0,1-1,1,1,0,0,0-1-1h-5.181l-1.6-8H534.5a5.506,5.506,0,0,0,5.5-5.5v-26a5.506,5.506,0,0,0-5.5-5.5ZM507.22-56l1.6-8h10.36l1.6,8ZM538-69.5a3.5,3.5,0,0,1-3.5,3.5h-41a3.5,3.5,0,0,1-3.5-3.5V-72h48Zm0-4.5H490v-2h6a1,1,0,0,0,1-1,1,1,0,0,0-1-1h-6V-95.5a3.5,3.5,0,0,1,3.5-3.5h41a3.5,3.5,0,0,1,3.5,3.5Zm0,0"/><path class="b" d="M514-71a2,2,0,0,0-2,2,2,2,0,0,0,2,2,2,2,0,0,0,2-2,2,2,0,0,0-2-2Zm0,0"/><path class="b" d="M522.187-81.848l-2.121-2.122,1.767-1.768a1,1,0,0,0,.255-.982,1,1,0,0,0-.737-.7l-9.192-2.121a1,1,0,0,0-.932.267,1,1,0,0,0-.268.932l2.122,9.192a1,1,0,0,0,.7.737,1,1,0,0,0,.983-.254l1.767-1.768,2.122,2.121a.993.993,0,0,0,.706.293,1,1,0,0,0,.708-.293l2.121-2.121a1,1,0,0,0,0-1.414Zm-2.829,1.414-2.121-2.121a1,1,0,0,0-.707-.293,1,1,0,0,0-.707.293l-1.2,1.2-1.356-5.875,5.876,1.355-1.2,1.2a1,1,0,0,0,0,1.414l2.122,2.122Zm0,0"/><path class="b" d="M509.884-92.03l-1-1a1,1,0,0,0-1.415,0,1,1,0,0,0,0,1.415l1,1a1,1,0,0,0,.707.293,1,1,0,0,0,.707-.293,1,1,0,0,0,0-1.414Zm0,0"/><path class="b" d="M507.934-89.323H506.52a1,1,0,0,0-1,1,1,1,0,0,0,1,1h1.414a1,1,0,0,0,1-1,1,1,0,0,0-1-1Zm0,0"/><path class="b" d="M509.884-86.03a1,1,0,0,0-1.414,0l-1,1a1,1,0,0,0,0,1.414,1,1,0,0,0,.706.293,1,1,0,0,0,.708-.293l1-1a1,1,0,0,0,0-1.414Zm0,0"/><path class="b" d="M516.884-93.031a1,1,0,0,0-1.415,0l-1,1a1,1,0,0,0,0,1.414,1,1,0,0,0,.707.293,1,1,0,0,0,.707-.293l1-1a1,1,0,0,0,0-1.415Zm0,0"/><path class="b" d="M512.177-94.98a1,1,0,0,0-1,1v1.414a1,1,0,0,0,1,1,1,1,0,0,0,1-1V-93.98a1,1,0,0,0-1-1Zm0,0"/><path class="b" d="M499.98-77.195a.971.971,0,0,0-.057-.188,1.014,1.014,0,0,0-.092-.172.956.956,0,0,0-.124-.152.957.957,0,0,0-.152-.124.986.986,0,0,0-.173-.092.939.939,0,0,0-.187-.057.985.985,0,0,0-.39,0,.939.939,0,0,0-.187.057.986.986,0,0,0-.173.092.957.957,0,0,0-.152.124.956.956,0,0,0-.124.152,1.014,1.014,0,0,0-.092.172.971.971,0,0,0-.057.188A.985.985,0,0,0,498-77a.985.985,0,0,0,.02.195.941.941,0,0,0,.057.187.986.986,0,0,0,.092.173.956.956,0,0,0,.124.152.957.957,0,0,0,.152.124.986.986,0,0,0,.173.092,1.013,1.013,0,0,0,.187.058A.984.984,0,0,0,499-76a.984.984,0,0,0,.2-.019,1.013,1.013,0,0,0,.187-.058.986.986,0,0,0,.173-.092.957.957,0,0,0,.152-.124.956.956,0,0,0,.124-.152.986.986,0,0,0,.092-.173.941.941,0,0,0,.057-.187A.985.985,0,0,0,500-77a.985.985,0,0,0-.02-.195Zm0,0"/><rect class="b" width="4.506" height="1.999" transform="translate(667.347 -72.301)"/><path class="b" d="M695.93-54a7.249,7.249,0,0,1-6.833-4.848l-.06-.17H655.176l-.06.17a7.2,7.2,0,0,1-4.438,4.438,7.226,7.226,0,0,1-2.4.41,7.249,7.249,0,0,1-6.832-4.848l-.059-.17H637a1,1,0,0,1-1-1v-7.445a5.483,5.483,0,0,1,2.748-4.736,29.445,29.445,0,0,1,14.214-3.853h.063l4.355-2.375a42.5,42.5,0,0,1,20.229-5.159h1.48a41.733,41.733,0,0,1,17.363,3.74,42.768,42.768,0,0,1,4.8,2.542l.046.028,8.568,1.223a1.006,1.006,0,0,1,.858.99v10.156a4.462,4.462,0,0,1-2.835,4.188l-4.062,1.63a1,1,0,0,1-.372.071h-.63l-.059.17a7.208,7.208,0,0,1-4.439,4.438A7.226,7.226,0,0,1,695.93-54Zm0-12.543a5.285,5.285,0,0,0-5.158,4.216,5.233,5.233,0,0,0,.765,3.96,5.238,5.238,0,0,0,3.343,2.259,5.34,5.34,0,0,0,1.06.108,5.288,5.288,0,0,0,5.16-4.216,5.376,5.376,0,0,0,.1-1.055,5.286,5.286,0,0,0-4.215-5.165A5.331,5.331,0,0,0,695.926-66.543Zm-47.648,0a5.286,5.286,0,0,0-5.158,4.216,5.231,5.231,0,0,0,.766,3.96,5.238,5.238,0,0,0,3.343,2.259,5.347,5.347,0,0,0,1.06.108,5.287,5.287,0,0,0,5.158-4.216,5.276,5.276,0,0,0,.107-1.055,5.287,5.287,0,0,0-4.215-5.165A5.341,5.341,0,0,0,648.278-66.543Zm47.658-2c.253,0,.5.014.739.038.049,0,.4.06.4.06.106.014.212.028.317.049l.388.1c.1.024.205.048.306.079.06.02.411.15.411.15.089.031.181.062.253.093s.562.267.635.306c.1.05.178.1.28.167.056.038.318.195.318.195.072.047.141.1.21.154l.165.122c.06.043.119.085.178.135l.269.247c.129.112.188.164.248.224,0,0,.21.231.252.274.087.089.15.153.216.233s.118.15.171.223l.252.337a3.34,3.34,0,0,1,.182.294s.151.245.181.3c.041.074.077.152.113.227l.1.194a2,2,0,0,1,.1.2l.124.342c.064.167.094.247.12.33.023.068.039.135.056.2l.037.144c.05.178.074.266.092.347s.057.351.057.351l.02.12c.014.08.027.16.035.24s.022.368.022.368l.01.114c.005.071.012.142.012.213v.377l3.947-1.584a2.485,2.485,0,0,0,1.579-2.333v-5.4h-3.762v-2h3.762v-1.9l-7.92-1.131a.989.989,0,0,1-.388-.142,40.747,40.747,0,0,0-4-2.188l-.162-.078-3.38,3.38a1,1,0,0,1-.705.292H678.122v13.047h10.545v-.254A7.288,7.288,0,0,1,695.936-68.541Zm-47.653,0a7.277,7.277,0,0,1,7.269,7.268v.255h20.572V-74.064H653.3a27.39,27.39,0,0,0-13.559,3.6,3.465,3.465,0,0,0-1.742,3v6.446h3.018v-.255A7.276,7.276,0,0,1,648.283-68.539Zm29.839-7.523h13.634l2.538-2.538-.359-.143a39.773,39.773,0,0,0-14.807-2.845h-1.006Zm-2.264-5.471a40.571,40.571,0,0,0-17.521,4.86l-.242.132.122.479h17.907v-5.482Z"/><path class="c" d="M692.875-131.865a197.493,197.493,0,0,0-29.753-2.034"/><path class="c" d="M724.149-124.86C757.32-117,760.683-51,713.32-61"/><path class="c" d="M626.3-89.824c10.117-1.727,22.015-2.973,34.517,4.5"/><path class="c" d="M549.594-137.4C566-143,580.649-137.281,591-123"/><path class="c" d="M532.083-104.5c.867-3.414,1.251-7.119,1.915-10.923"/><path class="c" d="M478.289-103.766a65.167,65.167,0,0,0,6.5,6.622"/><circle class="d" cx="12" cy="12" r="12" transform="translate(457 -132)"/><path class="d" d="M474-131v-4a5,5,0,0,0-5-5h0a5,5,0,0,0-5,5v4"/><path class="d" d="M464-109v4a5,5,0,0,0,5,5h0a5,5,0,0,0,5-5v-4"/><path class="e" d="M469-127v7l4,3"/><path class="d" d="M538-137h0a2,2,0,0,0-2-2h-4a2,2,0,0,0-2,2h0a2,2,0,0,1-2,2h-3a2,2,0,0,0-2,2v10a2,2,0,0,0,2,2h18a2,2,0,0,0,2-2v-10a2,2,0,0,0-2-2h-3A2,2,0,0,1,538-137Z"/><circle class="d" cx="5" cy="5" r="5" transform="translate(529 -133)"/><circle class="b" cx="1" cy="1" r="1" transform="translate(533 -129)"/><circle class="b" cx="1" cy="1" r="1" transform="translate(525 -125)"/><rect class="d" width="22" height="16" rx="4" transform="translate(636 -144)"/><path class="f" d="M627-130l9-2v-8l-9-2Z"/><path class="g" d="M564-69.911,580-70l6-6"/><circle class="g" cx="3" cy="3" r="3" transform="translate(585 -81)"/><circle class="g" cx="3" cy="3" r="3" transform="translate(588 -70)"/><circle class="g" cx="3" cy="3" r="3" transform="translate(596 -90)"/><path class="g" d="M620-82h-8l-5-5h-5"/><path class="g" d="M620-74H606l-7,7h-5"/><rect class="f" width="60" height="4" transform="translate(562 -59)"/><rect class="f" width="56" height="36" transform="translate(564 -95)"/><path class="f" d="M592-118,560-95h64Z"/><path class="f" d="M564-98v-10h6v6"/><path class="f" d="M570.5-112.372a5.113,5.113,0,0,0-3.5-1.256,5.113,5.113,0,0,0-3.5,1.256"/><path class="f" d="M572.576-117A8.15,8.15,0,0,0,567-119a8.15,8.15,0,0,0-5.576,2"/><path class="f" d="M620-98v-10h-6v6"/><path class="f" d="M620.5-112.372a5.113,5.113,0,0,0-3.5-1.256,5.113,5.113,0,0,0-3.5,1.256"/><path class="f" d="M622.576-117A8.15,8.15,0,0,0,617-119a8.15,8.15,0,0,0-5.576,2"/><rect class="d" width="20" height="36" rx="2" transform="translate(707.071 -148.673) rotate(25.933)"/><line class="h" x2="5.396" y2="2.624" transform="translate(711.617 -142.014)"/><circle class="b" cx="1" cy="1" r="1" transform="translate(701.07 -116.522)"/><line class="h" y1="2.723" x2="3.548" transform="translate(727.706 -145.809)"/><line class="h" x2="6.27" y2="0.825" transform="translate(729.991 -138.639)"/><line class="h" x2="2.723" y2="3.548" transform="translate(727.804 -134.142)"/></g></svg>