<svg xmlns="http://www.w3.org/2000/svg" width="80" height="80" viewBox="0 0 80 80"><defs><style>.a{fill:red;opacity:0;}.b,.h{fill:#5a5dff;}.b{opacity:0.1;}.c,.d{fill:none;stroke-linecap:round;stroke-linejoin:round;}.d{stroke:#1d1040;stroke-width:2px;}.e{fill:#1d1040;}.f,.g,.h{stroke:none;}.g{fill:#bd00ff;}</style></defs><g transform="translate(-1190 -2746)"><rect class="a" width="80" height="80" transform="translate(1190 2746)"/><g transform="translate(1193 2743)"><path class="b" d="M62.337,67.094A2,2,0,0,0,61.4,65.88l-.618-.357a11.527,11.527,0,0,0,0-4.047l.618-.356a2,2,0,0,0,.732-2.732l-1.891-3.276a2,2,0,0,0-2.733-.732l-.619.358a11.544,11.544,0,0,0-3.5-2.025V52a2,2,0,0,0-2-2H47.609a2,2,0,0,0-2,2v.713a11.533,11.533,0,0,0-3.5,2.025l-.62-.358a1.975,1.975,0,0,0-.55-.209l1.491-1.492a2,2,0,0,0,0-2.828l-1.073-1.073a18.852,18.852,0,0,0,2.133-5.146H45a2,2,0,0,0,2-2V36.346a2,2,0,0,0-2-2H43.486A18.863,18.863,0,0,0,41.353,29.2l1.063-1.063a2,2,0,0,0,0-2.829l-3.738-3.736a2,2,0,0,0-2.828,0l-1.062,1.062A18.85,18.85,0,0,0,29.642,20.5V19a2,2,0,0,0-2-2H22.357a2,2,0,0,0-2,2v1.5a18.875,18.875,0,0,0-5.146,2.132L14.15,21.572a2,2,0,0,0-2.828,0L7.584,25.308a2,2,0,0,0,0,2.829L8.646,29.2a18.873,18.873,0,0,0-2.132,5.146H5a2,2,0,0,0-2,2L3,41.63a2,2,0,0,0,2,2H6.514a18.886,18.886,0,0,0,2.132,5.146L7.573,49.851a2,2,0,0,0,0,2.828l3.735,3.739A2,2,0,0,0,12.722,57h0a2,2,0,0,0,1.414-.586l1.074-1.074a18.877,18.877,0,0,0,5.147,2.133V59a2,2,0,0,0,2,2h5.284a2,2,0,0,0,2-2V57.477a18.858,18.858,0,0,0,5.146-2.133l1.074,1.074A2,2,0,0,0,37.276,57h0a1.938,1.938,0,0,0,.411-.045l-.824,1.429A2,2,0,0,0,37.6,61.12l.618.357a11.521,11.521,0,0,0,0,4.046l-.618.357a2,2,0,0,0-.732,2.732l1.892,3.276a2,2,0,0,0,2.731.732l.62-.358a11.544,11.544,0,0,0,3.5,2.025V75a2,2,0,0,0,2,2h3.782a2,2,0,0,0,2-2v-.713a11.533,11.533,0,0,0,3.5-2.025l.621.358a2,2,0,0,0,2.731-.732l1.891-3.276A2,2,0,0,0,62.337,67.094Z"/><g class="c"><path class="f" d="M66.718,53.338a9.548,9.548,0,0,1,0,4.324,1.189,1.189,0,0,0,.564,1.3l1.123.649-1.891,3.276-1.126-.65a1.188,1.188,0,0,0-1.41.163,9.5,9.5,0,0,1-3.74,2.162,1.191,1.191,0,0,0-.847,1.14V67H55.609V65.7a1.191,1.191,0,0,0-.847-1.14,9.5,9.5,0,0,1-3.74-2.162,1.19,1.19,0,0,0-1.41-.163l-1.125.65L46.6,59.612l1.124-.649a1.188,1.188,0,0,0,.563-1.3,9.548,9.548,0,0,1,0-4.324,1.189,1.189,0,0,0-.563-1.3L46.6,51.388l1.891-3.276,1.126.65a1.188,1.188,0,0,0,1.41-.163,9.5,9.5,0,0,1,3.74-2.162,1.191,1.191,0,0,0,.847-1.139V44h3.782v1.3a1.191,1.191,0,0,0,.847,1.139,9.508,9.508,0,0,1,3.74,2.162,1.19,1.19,0,0,0,1.41.163l1.125-.65L68.4,51.388l-1.124.649a1.189,1.189,0,0,0-.563,1.3Z"/><path class="g" d="M 55.60900115966797 44 L 55.60900115966797 45.29799652099609 C 55.60900115966797 45.82199859619141 55.26499938964844 46.28500366210938 54.76200103759766 46.43699645996094 C 53.37699890136719 46.85500335693359 52.08300018310547 47.60200119018555 51.02199935913086 48.5989990234375 C 50.79547882080078 48.81191635131836 50.50286102294922 48.92198944091797 50.20742797851563 48.92198944091797 C 50.00334167480469 48.92198944091797 49.79789733886719 48.86945343017578 49.61199951171875 48.76200103759766 L 48.48600006103516 48.11199951171875 L 46.59500122070313 51.38800048828125 L 47.71900177001953 52.0369987487793 C 48.17299652099609 52.29899978637695 48.4010009765625 52.82699966430664 48.28199768066406 53.3380012512207 C 48.11799621582031 54.04299926757813 48.03399658203125 54.77000045776367 48.03399658203125 55.5 C 48.03399658203125 56.22900009155273 48.11799621582031 56.95700073242188 48.28199768066406 57.6619987487793 C 48.40200042724609 58.17300033569336 48.17299652099609 58.70100021362305 47.71900177001953 58.9630012512207 L 46.59500122070313 59.61199951171875 L 48.48699951171875 62.88800048828125 L 49.61199951171875 62.23799896240234 C 49.79801177978516 62.13088989257813 50.0035400390625 62.07843780517578 50.20774841308594 62.07843780517578 C 50.50305938720703 62.07843780517578 50.79557800292969 62.18817138671875 51.02199935913086 62.4010009765625 C 52.08300018310547 63.39799880981445 53.37699890136719 64.14500427246094 54.76200103759766 64.56300354003906 C 55.26499938964844 64.71499633789063 55.60900115966797 65.17800140380859 55.60900115966797 65.7030029296875 L 55.60900115966797 67 L 59.39099884033203 67 L 59.39099884033203 65.7030029296875 C 59.39099884033203 65.17800140380859 59.73500061035156 64.71499633789063 60.23799896240234 64.56300354003906 C 61.62300109863281 64.14500427246094 62.91699981689453 63.39799880981445 63.97800064086914 62.4010009765625 C 64.20451354980469 62.18808364868164 64.49713134765625 62.07801055908203 64.79257202148438 62.07801055908203 C 64.99665832519531 62.07801055908203 65.20210266113281 62.13054656982422 65.38800048828125 62.23799896240234 L 66.51399993896484 62.88800048828125 L 68.40499877929688 59.61199951171875 L 67.28199768066406 58.9630012512207 C 66.82699584960938 58.70100021362305 66.5989990234375 58.17300033569336 66.71800231933594 57.6619987487793 C 66.88200378417969 56.95700073242188 66.96600341796875 56.22900009155273 66.96600341796875 55.5 C 66.96600341796875 54.77000045776367 66.88200378417969 54.04299926757813 66.71800231933594 53.3380012512207 C 66.5989990234375 52.82699966430664 66.82699584960938 52.29899978637695 67.28099822998047 52.0369987487793 L 68.40499877929688 51.38800048828125 L 66.51300048828125 48.11199951171875 L 65.38800048828125 48.76200103759766 C 65.20232391357422 48.86932373046875 64.99700927734375 48.92169189453125 64.79302978515625 48.92169189453125 C 64.49716186523438 48.92169189453125 64.20411682128906 48.81150054931641 63.97800064086914 48.5989990234375 C 62.91600036621094 47.60200119018555 61.62300109863281 46.85500335693359 60.23799896240234 46.43699645996094 C 59.73500061035156 46.28500366210938 59.39099884033203 45.82199859619141 59.39099884033203 45.29799652099609 L 59.39099884033203 44 L 55.60900115966797 44 M 55.60900115966797 42 L 59.39099884033203 42 C 60.49557113647461 42 61.39099884033203 42.89543151855469 61.39099884033203 44 L 61.39099884033203 44.71297454833984 C 62.66245651245117 45.17286682128906 63.85595321655273 45.86275482177734 64.89376831054688 46.73772430419922 L 65.51243591308594 46.38027191162109 C 65.81923675537109 46.20301055908203 66.16476440429688 46.11200714111328 66.51304626464844 46.11199188232422 C 66.68622589111328 46.11198425292969 66.86001586914063 46.13446807861328 67.03019714355469 46.18003082275391 C 67.54264831542969 46.31722259521484 67.97959899902344 46.65236663818359 68.24491119384766 47.11175918579102 L 70.13690948486328 50.38776016235352 C 70.40220642089844 50.84711837768555 70.47415161132813 51.39305877685547 70.33689880371094 51.90547180175781 C 70.19964599609375 52.41786956787109 69.86445617675781 52.85475921630859 69.40507507324219 53.12001037597656 L 68.78733825683594 53.47668838500977 C 68.90603637695313 54.14401626586914 68.96600341796875 54.82211685180664 68.96600341796875 55.5 C 68.96600341796875 56.17788314819336 68.90605163574219 56.85591888427734 68.78739929199219 57.52302932739258 L 69.40573883056641 57.88037109375 C 70.36174011230469 58.432861328125 70.68914031982422 59.65554809570313 70.13713836669922 60.61183929443359 L 68.24613952636719 63.88784027099609 C 67.98095703125 64.34724426269531 67.54415130615234 64.68247985839844 67.03179168701172 64.81980895996094 C 66.8614501953125 64.86546325683594 66.68739318847656 64.88800048828125 66.51405334472656 64.88800048828125 C 66.16598510742188 64.88800048828125 65.82077026367188 64.79714965820313 65.51411437988281 64.6201171875 L 64.89411163330078 64.26221466064453 C 63.85707855224609 65.13698577880859 62.66365814208984 65.82675170898438 61.39099884033203 66.28702545166016 L 61.39099884033203 67 C 61.39099884033203 68.10456848144531 60.49557113647461 69 59.39099884033203 69 L 55.60900115966797 69 C 54.50442886352539 69 53.60900115966797 68.10456848144531 53.60900115966797 67 L 53.60900115966797 66.28705596923828 C 52.33652114868164 65.826904296875 51.14311218261719 65.13715362548828 50.10605621337891 64.26237487792969 L 49.48755645751953 64.61973571777344 C 49.18076324462891 64.7969970703125 48.83523559570313 64.88800811767578 48.48694610595703 64.88800811767578 C 48.31377410888672 64.88800811767578 48.13998413085938 64.86552429199219 47.96980285644531 64.81996917724609 C 47.45735168457031 64.68278503417969 47.02040100097656 64.34762573242188 46.75508880615234 63.88824081420898 L 44.86309051513672 60.61223983764648 C 44.59779357910156 60.15288162231445 44.52584838867188 59.60694122314453 44.66310119628906 59.09452819824219 C 44.80034637451172 58.58213043212891 45.13553619384766 58.14524078369141 45.59493255615234 57.87998962402344 L 46.21274566650391 57.52326202392578 C 46.0938720703125 56.85485076904297 46.03399658203125 56.17729187011719 46.03399658203125 55.5 C 46.03399658203125 54.82206344604492 46.09398651123047 54.14384460449219 46.212646484375 53.47668075561523 L 45.59493255615234 53.12001037597656 C 44.63845825195313 52.56774139404297 44.31070709228516 51.34471130371094 44.86286163330078 50.38816070556641 L 46.75386047363281 47.11215972900391 C 47.01904296875 46.65276336669922 47.45584869384766 46.31752014160156 47.96820831298828 46.18019104003906 C 48.1385498046875 46.13453674316406 48.31260681152344 46.11199188232422 48.48595428466797 46.11199188232422 C 48.83401489257813 46.11199188232422 49.17922973632813 46.20285797119141 49.48589324951172 46.3798828125 L 50.10588836669922 46.73778533935547 C 51.14292144775391 45.86301422119141 52.33634185791016 45.17324066162109 53.60900115966797 44.71297454833984 L 53.60900115966797 44 C 53.60900115966797 42.89543151855469 54.50442886352539 42 55.60900115966797 42 Z"/></g><path class="d" d="M33,40a9,9,0,1,1,9-9"/><circle class="e" cx="1" cy="1" r="1" transform="translate(56.5 54.5)"/><line class="d" y2="8" transform="translate(15 60)"/><line class="d" y2="8" transform="translate(30 60)"/><line class="d" y2="8" transform="translate(56 10)"/><line class="d" y2="8" transform="translate(61 10)"/><line class="d" y2="8" transform="translate(71 23)"/><rect class="d" width="5" height="8" rx="2.5" transform="translate(61 23)"/><rect class="d" width="5" height="8" rx="2.5" transform="translate(66 10)"/><rect class="d" width="5" height="8" rx="2.5" transform="translate(20 60)"/><rect class="d" width="5" height="8" rx="2.5" transform="translate(35 60)"/><g class="c"><path class="f" d="M45.276,47l-1.515-1.516a1.215,1.215,0,0,0-1.517-.161A16.9,16.9,0,0,1,36.6,47.666a1.213,1.213,0,0,0-.958,1.186V51H30.358V48.852a1.213,1.213,0,0,0-.959-1.186,16.91,16.91,0,0,1-5.644-2.339,1.214,1.214,0,0,0-1.516.161L20.723,47l-3.735-3.739L18.5,41.751a1.214,1.214,0,0,0,.161-1.517,16.923,16.923,0,0,1-2.339-5.644,1.212,1.212,0,0,0-1.186-.958H13l0-5.286h2.135a1.212,1.212,0,0,0,1.186-.958,16.923,16.923,0,0,1,2.339-5.644,1.214,1.214,0,0,0-.161-1.517L17,18.722l3.739-3.736,1.5,1.5a1.212,1.212,0,0,0,1.517.161A16.9,16.9,0,0,1,29.4,14.313a1.214,1.214,0,0,0,.958-1.187V11h5.285v2.126a1.214,1.214,0,0,0,.958,1.187,16.9,16.9,0,0,1,5.644,2.338,1.214,1.214,0,0,0,1.517-.161l1.5-1.5L49,18.722l-1.5,1.5a1.215,1.215,0,0,0-.161,1.517,16.9,16.9,0,0,1,2.339,5.644,1.213,1.213,0,0,0,1.186.958H53v5.286H50.861a1.213,1.213,0,0,0-1.186.958,16.881,16.881,0,0,1-2.339,5.644,1.215,1.215,0,0,0,.161,1.517l1.515,1.514Z"/><path class="h" d="M 35.64199829101563 51 L 35.64199829101563 48.85200119018555 C 35.64199829101563 48.27999877929688 36.04100036621094 47.7859992980957 36.59999847412109 47.66600036621094 C 38.61299896240234 47.23300170898438 40.51200103759766 46.44699859619141 42.24399948120117 45.32699966430664 C 42.4462776184082 45.19663619995117 42.67506408691406 45.1329460144043 42.90242767333984 45.1329460144043 C 43.21572875976563 45.1329460144043 43.52631378173828 45.2538948059082 43.76100158691406 45.48799896240234 L 45.2760009765625 47.00400161743164 L 49.01200103759766 43.26499938964844 L 47.49700164794922 41.75099945068359 C 47.09299850463867 41.34700012207031 47.0260009765625 40.7140007019043 47.33599853515625 40.23400115966797 C 48.45600128173828 38.50199890136719 49.24300003051758 36.60300064086914 49.67499923706055 34.59000015258789 C 49.79499816894531 34.03099822998047 50.28900146484375 33.63199996948242 50.86100006103516 33.63199996948242 L 53 33.63199996948242 L 53 28.34600067138672 L 50.86100006103516 28.34600067138672 C 50.28900146484375 28.34600067138672 49.79499816894531 27.94700050354004 49.67499923706055 27.38800048828125 C 49.24200057983398 25.375 48.45600128173828 23.47599983215332 47.33599853515625 21.74399948120117 C 47.0260009765625 21.26300048828125 47.09299850463867 20.63199996948242 47.49700164794922 20.22699928283691 L 49.00199890136719 18.72200012207031 L 45.26399993896484 14.98600006103516 L 43.76100158691406 16.48999977111816 C 43.52621841430664 16.72420310974121 43.21518325805664 16.84547996520996 42.90166473388672 16.84547996520996 C 42.67436599731445 16.84547996520996 42.44573974609375 16.78170967102051 42.24399948120117 16.65099906921387 C 40.51200103759766 15.5319995880127 38.61299896240234 14.74499988555908 36.59999847412109 14.3129997253418 C 36.04100036621094 14.19200038909912 35.64199829101563 13.69799995422363 35.64199829101563 13.12600040435791 L 35.64199829101563 11 L 30.35700035095215 11 L 30.35700035095215 13.12600040435791 C 30.35700035095215 13.69799995422363 29.95800018310547 14.19200038909912 29.39900016784668 14.3129997253418 C 27.38599967956543 14.74499988555908 25.48800086975098 15.5319995880127 23.75600051879883 16.65099906921387 C 23.5536060333252 16.78186225891113 23.32453346252441 16.84578704833984 23.0969066619873 16.84578704833984 C 22.78356170654297 16.84578704833984 22.47300720214844 16.72458648681641 22.23900032043457 16.48999977111816 L 20.73600006103516 14.98600006103516 L 16.99699974060059 18.72200012207031 L 18.50200080871582 20.22699928283691 C 18.9060001373291 20.63199996948242 18.97400093078613 21.26300048828125 18.66300010681152 21.74399948120117 C 17.54400062561035 23.47599983215332 16.75699996948242 25.375 16.32399940490723 27.38800048828125 C 16.20499992370605 27.94700050354004 15.71000003814697 28.34600067138672 15.13799953460693 28.34600067138672 L 13.00300025939941 28.34600067138672 L 13 33.63199996948242 L 15.13799953460693 33.63199996948242 C 15.71000003814697 33.63199996948242 16.20499992370605 34.03099822998047 16.32399940490723 34.59000015258789 C 16.75699996948242 36.60300064086914 17.54400062561035 38.50199890136719 18.66300010681152 40.23400115966797 C 18.97400093078613 40.71500015258789 18.9060001373291 41.34700012207031 18.50200080871582 41.75099945068359 L 16.98800086975098 43.26499938964844 L 20.72299957275391 47.00400161743164 L 22.23900032043457 45.48799896240234 C 22.47312927246094 45.25387191772461 22.78375244140625 45.1329460144043 23.09706878662109 45.1329460144043 C 23.32439231872559 45.1329460144043 23.55317306518555 45.1966552734375 23.7549991607666 45.32699966430664 C 25.48800086975098 46.44699859619141 27.38599967956543 47.23300170898438 29.39900016784668 47.66600036621094 C 29.95800018310547 47.7859992980957 30.35799980163574 48.27999877929688 30.35799980163574 48.85200119018555 L 30.35799980163574 51 L 35.64199829101563 51 M 35.64199829101563 53 L 30.35799980163574 53 C 29.2534294128418 53 28.35799980163574 52.10456848144531 28.35799980163574 51 L 28.35799980163574 49.47698211669922 C 26.54237937927246 49.02274703979492 24.81630706787109 48.30750274658203 23.21117782592773 47.34424209594727 L 22.13721084594727 48.41820907592773 C 21.76214790344238 48.79328155517578 21.25339889526367 49.00398635864258 20.72298812866211 49.00400161743164 C 20.72279357910156 49.00400161743164 20.72265434265137 49.00400161743164 20.72245979309082 49.00400161743164 C 20.19185066223145 49.00386047363281 19.68302917480469 48.7928581237793 19.30802917480469 48.41746139526367 L 15.57303047180176 44.67845916748047 C 14.79269027709961 43.89728927612305 14.79302978515625 42.63153839111328 15.57378959655762 41.85078811645508 L 16.64620018005371 40.77838134765625 C 15.68258857727051 39.17239379882813 14.96727085113525 37.44644927978516 14.51325035095215 35.63199996948242 L 13 35.63199996948242 C 12.46936988830566 35.63199996948242 11.96049022674561 35.4211311340332 11.58539009094238 35.04581069946289 C 11.210280418396 34.67049026489258 10.99969959259033 34.16149139404297 11 33.630859375 L 11.00300025939941 28.3448600769043 C 11.00362968444824 27.2407398223877 11.89887046813965 26.34600067138672 13.00300025939941 26.34600067138672 L 14.51336097717285 26.34600067138672 C 14.96805095672607 24.52982902526855 15.68329048156738 22.80437278747559 16.64618682861328 21.19960594177246 L 15.58279037475586 20.13620948791504 C 15.20761966705322 19.76103973388672 14.9968900680542 19.25217056274414 14.99699974060059 18.72159957885742 C 14.99711036682129 18.19103050231934 15.20802974700928 17.6822395324707 15.58335018157959 17.30722045898438 L 19.32234954833984 13.57122039794922 C 19.71282386779785 13.18106079101563 20.22441673278809 12.98600101470947 20.73599052429199 12.98600101470947 C 21.24806213378906 12.98600101470947 21.7601146697998 13.18143463134766 22.15068054199219 13.5722599029541 L 23.21179389953613 14.6340799331665 C 24.81844329833984 13.67001914978027 26.54381942749023 12.95509147644043 28.35700035095215 12.5020055770874 L 28.35700035095215 11 C 28.35700035095215 9.895429611206055 29.2524299621582 9 30.35700035095215 9 L 35.64199829101563 9 C 36.7465705871582 9 37.64199829101563 9.895429611206055 37.64199829101563 11 L 37.64199829101563 12.50190830230713 C 39.45473861694336 12.95462512969971 41.18120956420898 13.66980361938477 42.78821182250977 14.63407421112061 L 43.84931945800781 13.5722599029541 C 44.22428131103516 13.19703960418701 44.73294067382813 12.98616027832031 45.26340103149414 12.98600006103516 C 45.26359558105469 12.98600006103516 45.26380920410156 12.98600006103516 45.26400375366211 12.98600006103516 C 45.79425430297852 12.98600006103516 46.30278778076172 13.19655704498291 46.67784118652344 13.57141017913818 L 50.41584014892578 17.30740928649902 C 50.79106903076172 17.68244934082031 51.00193023681641 18.19120979309082 51.00199890136719 18.72172927856445 C 51.00207138061523 19.25226020812988 50.79135131835938 19.76107978820801 50.41621017456055 20.13620948791504 L 49.35301208496094 21.19940567016602 C 50.31561279296875 22.80242347717285 51.0312385559082 24.52912330627441 51.48577117919922 26.34600067138672 L 53 26.34600067138672 C 54.10456848144531 26.34600067138672 55 27.24143028259277 55 28.34600067138672 L 55 33.63199996948242 C 55 34.73656845092773 54.10456848144531 35.63199996948242 53 35.63199996948242 L 51.48600006103516 35.63199996948242 C 51.03261184692383 37.44655609130859 50.31726455688477 39.17263031005859 49.35308074951172 40.77836608886719 L 50.42575073242188 41.85031890869141 C 51.20700836181641 42.63106918334961 51.20748138427734 43.89731979370117 50.42678070068359 44.67864990234375 L 46.69078063964844 48.41764831542969 C 46.31568145751953 48.79304885864258 45.80675888061523 49.00397872924805 45.27606964111328 49.00400161743164 C 44.74539184570313 49.00402069091797 44.2364501953125 48.79312133789063 43.86132049560547 48.41775131225586 L 42.78840637207031 47.3441276550293 C 41.18552398681641 48.30659484863281 39.458740234375 49.02227401733398 37.64199829101563 49.47677230834961 L 37.64199829101563 51 C 37.64199829101563 52.10456848144531 36.7465705871582 53 35.64199829101563 53 Z"/></g><circle class="e" cx="1" cy="1" r="1" transform="translate(38.531 36.193)"/></g></g></svg>