<svg xmlns="http://www.w3.org/2000/svg" width="80" height="80" viewBox="0 0 80 80"><defs><style>.a{fill:red;opacity:0;}.b{fill:#5a5dff;opacity:0.1;}.c,.d,.e,.f{fill:none;stroke-width:2px;}.c,.e{stroke:#1d1040;}.c{stroke-miterlimit:10;}.d{stroke:#bd00ff;}.d,.e,.f{stroke-linecap:round;stroke-linejoin:round;}.f{stroke:#5a5dff;}</style></defs><g transform="translate(-1190 -2419)"><rect class="a" width="80" height="80" transform="translate(1190 2419)"/><g transform="translate(1190 2419)"><rect class="b" width="46" height="46" rx="6" transform="translate(9 25)"/><rect class="c" width="44" height="44" rx="5" transform="translate(18 18)"/><path class="d" d="M60,9A11,11,0,0,1,71,20"/><path class="d" d="M9,20A11,11,0,0,1,20,9"/><path class="d" d="M20,71A11,11,0,0,1,9,60"/><path class="d" d="M71,60A11,11,0,0,1,60,71"/><line class="e" y2="5" transform="translate(40 13)"/><line class="e" y2="5" transform="translate(46 13)"/><line class="e" y2="5" transform="translate(34 13)"/><line class="e" y2="5" transform="translate(40 62)"/><line class="e" y2="5" transform="translate(46 62)"/><line class="e" y2="5" transform="translate(34 62)"/><line class="e" x1="5" transform="translate(62 40)"/><line class="e" x1="5" transform="translate(62 46)"/><line class="e" x1="5" transform="translate(62 34)"/><line class="e" x1="5" transform="translate(13 40)"/><line class="e" x1="5" transform="translate(13 46)"/><line class="e" x1="5" transform="translate(13 34)"/><path class="f" d="M38,54l7-15L35,41l7-15"/></g></g></svg>