<svg xmlns="http://www.w3.org/2000/svg" width="36" height="36" viewBox="0 0 36 36"><defs><style>.a{fill:#fff;}.b{fill:#fff;}.c{fill:#fff;}</style></defs><g transform="translate(-182 -265)"><path class="a" d="M191,301a1,1,0,0,1-.707-1.707L193,296.586V292a1,1,0,0,1,2,0v5a1,1,0,0,1-.293.707l-3,3A1,1,0,0,1,191,301Z"/><path class="a" d="M209,301a1,1,0,0,1-.707-.293l-3-3A1,1,0,0,1,205,297v-5a1,1,0,0,1,2,0v4.586l2.707,2.707A1,1,0,0,1,209,301Z"/><path class="a" d="M200,301a1,1,0,0,1-1-1v-4a1,1,0,0,1,2,0v4A1,1,0,0,1,200,301Z"/><path class="a" d="M213.223,292h-5.838a1,1,0,0,1,0-2h5.838a2.851,2.851,0,0,0,.992-5.494,1,1,0,0,1-.58-1.254,8.746,8.746,0,0,0,.476-2.829,8.541,8.541,0,0,0-8.444-8.615c-.063,0-.124,0-.186.008l-.175.011a1.021,1.021,0,0,1-.989-.674,6.064,6.064,0,0,0-11.817,2.059c0,.1.008.206.015.309l.006.112a1,1,0,0,1-1,1.06h0a6.636,6.636,0,0,0-6.577,6.692,6.772,6.772,0,0,0,.445,2.4,1,1,0,0,1-.31,1.134A2.853,2.853,0,0,0,184,287.154,2.815,2.815,0,0,0,186.777,290h5.841a1,1,0,0,1,0,2h-5.841a4.846,4.846,0,0,1-3.476-8.149,8.708,8.708,0,0,1,7.212-11.1,8.055,8.055,0,0,1,15.422-2.938,10.614,10.614,0,0,1,9.84,13.254A4.854,4.854,0,0,1,213.223,292Z"/><path class="b" d="M200,297a1,1,0,0,1-.555-.168l-6.764-4.51A6.005,6.005,0,0,1,190,287.313V278a1,1,0,0,1,.758-.97,41.978,41.978,0,0,1,18.484,0A1,1,0,0,1,210,278v9.313a6.005,6.005,0,0,1-2.681,5.009l-6.764,4.51A1,1,0,0,1,200,297Zm-8-18.2v8.508a4.01,4.01,0,0,0,1.79,3.345L200,294.8l6.21-4.14h0a4.01,4.01,0,0,0,1.79-3.345V278.8a40.154,40.154,0,0,0-16,0Z"/><path class="c" d="M197,282.869v4.262a1.17,1.17,0,0,0,1.795.833l3.691-2.132a.931.931,0,0,0,0-1.664l-3.691-2.132A1.17,1.17,0,0,0,197,282.869Z"/></g></svg>