<svg xmlns="http://www.w3.org/2000/svg" width="34" height="35.954" viewBox="0 0 34 35.954"><defs><style>.a{fill:#bd00ff;}.b{fill:#5a5dff;}.c{fill:#1d1040;}</style></defs><g transform="translate(-3 55.955)"><path class="a" d="M20-24a2.608,2.608,0,0,1-.99-.192L4.622-30.074a1,1,0,0,1-.548-1.3,1,1,0,0,1,1.3-.548l14.388,5.881a.621.621,0,0,0,.468,0l14.388-5.881a1,1,0,0,1,1.3.548,1,1,0,0,1-.548,1.3L20.99-24.193A2.608,2.608,0,0,1,20-24Z"/><path class="a" d="M20-20a2.608,2.608,0,0,1-.99-.192L4.622-26.074a1,1,0,0,1-.548-1.3,1,1,0,0,1,1.3-.548l14.388,5.881a.621.621,0,0,0,.468,0l14.388-5.881a1,1,0,0,1,1.3.548,1,1,0,0,1-.548,1.3L20.99-20.193A2.608,2.608,0,0,1,20-20Z"/><path class="b" d="M26-36a1,1,0,0,1-.555-.168L20-39.8l-5.445,3.63a1,1,0,0,1-1.145-.024,1,1,0,0,1-.372-1.082l1.817-6.361-4.48-3.584a1,1,0,0,1-.343-1.033,1,1,0,0,1,.8-.734l5.5-.916L19.1-55.447a1.042,1.042,0,0,1,1.79,0L23.667-49.9l5.5.916a1,1,0,0,1,.8.734,1,1,0,0,1-.343,1.033l-4.48,3.584,1.817,6.361a1,1,0,0,1-.372,1.082A1,1,0,0,1,26-36Zm-6-6a1,1,0,0,1,.555.168l3.736,2.491-1.253-4.385a1,1,0,0,1,.337-1.055l3.252-2.6-3.791-.632a1,1,0,0,1-.731-.539L20-52.764l-2.1,4.211a1,1,0,0,1-.731.539l-3.791.632,3.252,2.6a1,1,0,0,1,.337,1.055l-1.253,4.385,3.736-2.491A1,1,0,0,1,20-42Z"/><path class="c" d="M20-28a2.5,2.5,0,0,1-1.023-.218L4.495-34.651A2.489,2.489,0,0,1,3-36.951a2.486,2.486,0,0,1,1.495-2.3l5.988-2.661a1,1,0,0,1,1.321.508,1,1,0,0,1-.508,1.32l-5.988,2.66A.5.5,0,0,0,5-36.952a.5.5,0,0,0,.308.473L19.79-30.045a.51.51,0,0,0,.419,0l14.483-6.435A.5.5,0,0,0,35-36.952a.5.5,0,0,0-.308-.475L28.7-40.086a1,1,0,0,1-.508-1.32,1,1,0,0,1,1.321-.508l5.988,2.66A2.489,2.489,0,0,1,37-36.951a2.489,2.489,0,0,1-1.495,2.3L21.022-28.217A2.506,2.506,0,0,1,20-28Z"/></g></svg>