<svg width="24" height="24" xmlns="http://www.w3.org/2000/svg" xmlns:svg="http://www.w3.org/2000/svg">
    <defs>
        <style>.a{fill:#ffffff;}</style>
    </defs>
    <g>
        <g id="svg_1">
            <path class="a" d="m18.46338,13.52348l-1.494,-2.023a1.1,1.1 0 0 1 -0.161,-1a2.836,2.836 0 0 0 0.143,-0.832a1.091,1.091 0 0 1 0.466,-0.863l0.478,-0.339a1.733,1.733 0 0 1 1.536,-0.218a2.821,2.821 0 1 0 -1.96,-2.525a1.708,1.708 0 0 1 -0.71,1.5l-0.015,0.011a0.971,0.971 0 0 1 -1.09,0.01a2.824,2.824 0 0 0 -2.007,-0.405a1,1 0 0 1 -0.845,-0.232l-2.022,-1.813a1.7,1.7 0 0 1 -0.548,-1.48a2.821,2.821 0 1 0 -2.062,2.368a1.655,1.655 0 0 1 1.527,0.386l1.291,1.157a1.523,1.523 0 0 1 0.448,1.573a2.845,2.845 0 0 0 -0.115,0.616a1.57,1.57 0 0 1 -0.857,1.312l-3.649,1.792a1.69,1.69 0 0 1 -1.611,-0.044a2.821,2.821 0 1 0 1.338,2.829a1.666,1.666 0 0 1 0.923,-1.242l4.47,-2.2a0.556,0.556 0 0 1 0.567,0.052l0.026,0.018a0.56,0.56 0 0 1 0.243,0.551l-0.69,4.092a3.209,3.209 0 0 1 -1.615,2.272a2.821,2.821 0 1 0 3.8,1.045a4.647,4.647 0 0 1 -0.525,-3.12l0.655,-3.884a0.706,0.706 0 0 1 0.5,-0.561l0.009,0a0.727,0.727 0 0 1 0.787,0.267l1.264,1.712a1.7,1.7 0 0 1 0.226,1.65a2.821,2.821 0 1 0 2.626,-1.74a1.691,1.691 0 0 1 -1.347,-0.692z" id="svg_2" fill="black"/>
            <g id="svg_3"/>
        </g>
    </g>
</svg>