<svg width="473.785" height="502" xmlns="http://www.w3.org/2000/svg" xmlns:svg="http://www.w3.org/2000/svg">
<defs>
    <style>.a{fill:url(#a);}</style>
    <linearGradient id="a" x1="0.5" x2="0.5" y2="1" gradientUnits="objectBoundingBox"><stop offset="0" stop-color="#00b2ff"/>
        <stop offset="1" stop-color="#bd00ff"/>
    </linearGradient>
    <filter height="200%" width="200%" y="-50%" x="-50%" id="svg_1_blur">
        <feGaussianBlur stdDeviation="20" in="SourceGraphic"/>
    </filter>
</defs>
<g>
    <g stroke="null" filter="url(#svg_1_blur)" id="svg_1">
        <path fill="black" stroke="null" id="svg_2" d="m336.241,272.423l-23.03,-31.185a17.017,17.017 0 0 1 -2.486,-15.465a43.737,43.737 0 0 0 2.2,-12.829a16.82,16.82 0 0 1 7.18,-13.312l7.369,-5.221a26.724,26.724 0 0 1 23.68,-3.355a43.488,43.488 0 1 0 -30.214,-38.927a26.326,26.326 0 0 1 -10.942,23.09l-0.235,0.167a14.976,14.976 0 0 1 -16.809,0.15a43.529,43.529 0 0 0 -30.933,-6.247a15.443,15.443 0 0 1 -13.03,-3.573l-31.177,-27.955a26.184,26.184 0 0 1 -8.447,-22.825a43.491,43.491 0 1 0 -31.785,36.502a25.508,25.508 0 0 1 23.534,5.948l19.9,17.844a23.477,23.477 0 0 1 6.9,24.25a43.858,43.858 0 0 0 -1.772,9.5a24.2,24.2 0 0 1 -13.209,20.227l-56.257,27.626a26.056,26.056 0 0 1 -24.831,-0.685a43.485,43.485 0 1 0 20.633,43.608a25.681,25.681 0 0 1 14.232,-19.149l68.911,-33.843a8.575,8.575 0 0 1 8.742,0.8c0.128,0.094 0.261,0.188 0.393,0.278a8.626,8.626 0 0 1 3.744,8.5l-10.631,63.087a49.477,49.477 0 0 1 -24.891,35.033a43.483,43.483 0 1 0 58.606,16.107c-8.447,-14.434 -10.881,-31.614 -8.1,-48.106l10.1,-59.881a10.885,10.885 0 0 1 7.711,-8.653l0.137,-0.043a11.215,11.215 0 0 1 12.135,4.112l19.487,26.394a26.18,26.18 0 0 1 3.488,25.446a43.483,43.483 0 1 0 40.485,-26.826a26.063,26.063 0 0 1 -20.788,-10.589z" class="a"/>
    </g>
</g>
</svg>