<svg width="58.00000000000001" height="22" xmlns="http://www.w3.org/2000/svg" xmlns:svg="http://www.w3.org/2000/svg">
    <defs>
        <style>.a{fill:#ffffff;}</style>
    </defs>
    <g>
        <title>brand-text</title>
        <g id="svg_1">
            <g id="svg_3">
                <path class="a" d="m11.21527,7.70093a3.923,3.923 0 0 0 -1.647,-1.239a7.584,7.584 0 0 0 -2.957,-0.468l-0.141,0c-0.166,0 -0.473,0.014 -0.862,0.04c-0.431,0.028 -0.918,0.086 -1.448,0.171a17.3,17.3 0 0 0 -1.693,0.37a7.06,7.06 0 0 0 -1.522,0.61c0,0.194 0,0.426 -0.012,0.694c-0.012,0.308 -0.012,0.6 -0.012,0.888l0,12l3.558,0l0,-11.085l0.089,-0.046a3.483,3.483 0 0 1 1.207,-0.366c0.38,-0.036 0.618,-0.058 0.748,-0.058a2.134,2.134 0 0 1 0.956,0.2a1.7,1.7 0 0 1 0.652,0.578a2.228,2.228 0 0 1 0.338,0.833a4.835,4.835 0 0 1 0.095,0.982l0,8.96l3.585,0l0,-8.958a14,14 0 0 0 -0.182,-2.286a4.245,4.245 0 0 0 -0.752,-1.82z" id="svg_4" fill="black"/>
                <path class="a" d="m24.42725,7.81593a4.426,4.426 0 0 0 -1.656,-1.318a6.137,6.137 0 0 0 -2.652,-0.505l-0.009,0l-0.165,0a7.231,7.231 0 0 0 -2.349,0.391a4.4,4.4 0 0 0 -2.741,2.779a6.584,6.584 0 0 0 -0.344,2.185l0,3.262a9.089,9.089 0 0 0 0.307,2.386a5.843,5.843 0 0 0 0.964,2.026a4.871,4.871 0 0 0 1.728,1.418a5.739,5.739 0 0 0 2.6,0.545a8.207,8.207 0 0 0 2.335,-0.289a4.186,4.186 0 0 0 1.583,-0.818a3.8,3.8 0 0 0 0.973,-1.305a6,6 0 0 0 0.458,-1.554l-3.3,0c-0.043,0.113 -0.091,0.234 -0.145,0.364a1.858,1.858 0 0 1 -0.344,0.529a2.033,2.033 0 0 1 -0.6,0.423a2.3,2.3 0 0 1 -0.952,0.176a1.914,1.914 0 0 1 -1.307,-0.409l-0.009,-0.007a2.392,2.392 0 0 1 -0.655,-1a4.3,4.3 0 0 1 -0.233,-1.264c-0.016,-0.476 -0.024,-0.873 -0.024,-1.214l0,-0.164l7.639,0l0,-2.354a11.288,11.288 0 0 0 -0.242,-2.341a4.985,4.985 0 0 0 -0.86,-1.942zm-2.064,4.447l-4.474,0l0,-0.9a3.672,3.672 0 0 1 0.5,-2.132l0.012,-0.018a1.965,1.965 0 0 1 1.711,-0.744a2.156,2.156 0 0 1 1.285,0.333l0.009,0.006a2.028,2.028 0 0 1 0.668,0.843a3.385,3.385 0 0 1 0.246,1.07c0.027,0.347 0.041,0.7 0.041,1.061l0.002,0.481z" id="svg_5"/>
                <path class="a" d="m31.89727,9.69494l1.762,0l1.611,-3.273l-3.369,0l0,-5.606l-3.585,0l0,14.668a5.931,5.931 0 0 0 0.355,2.043a4.644,4.644 0 0 0 1.1,1.712a5.417,5.417 0 0 0 1.9,1.2a7.465,7.465 0 0 0 2.742,0.454c0.192,0 0.338,0 0.463,-0.012a0.6,0.6 0 0 0 0.187,-0.033l0,-3.235a2.241,2.241 0 0 1 -0.522,0.035a5.122,5.122 0 0 1 -0.764,-0.069a2.462,2.462 0 0 1 -0.865,-0.3a2.131,2.131 0 0 1 -0.707,-0.648a1.947,1.947 0 0 1 -0.3,-1.151l-0.008,-5.785z" id="svg_6"/>
                <path class="a" d="m41.44424,9.69494l1.757,0l1.611,-3.273l-3.369,0l0,-5.606l-3.585,0l0,14.668a5.85,5.85 0 0 0 0.355,2.042a4.643,4.643 0 0 0 1.1,1.712a5.379,5.379 0 0 0 1.9,1.2a7.483,7.483 0 0 0 2.745,0.454c0.192,0 0.338,0 0.462,-0.012a0.6,0.6 0 0 0 0.187,-0.033l0,-3.235a2.246,2.246 0 0 1 -0.522,0.035a5.208,5.208 0 0 1 -0.764,-0.069a2.459,2.459 0 0 1 -0.865,-0.3a2.155,2.155 0 0 1 -0.7,-0.648a1.95,1.95 0 0 1 -0.3,-1.151l-0.012,-5.784z" id="svg_7"/>
                <path class="a" d="m53.68425,6.41094a8.778,8.778 0 0 0 -2.843,0.461a5.74,5.74 0 0 0 -1.977,1.153a4.56,4.56 0 0 0 -1.158,1.676a5.545,5.545 0 0 0 -0.378,2.047l0,9.022l3.615,0l0,-9.016a2.324,2.324 0 0 1 0.2,-1.039a1.621,1.621 0 0 1 0.525,-0.629a1.846,1.846 0 0 1 0.748,-0.3a4.872,4.872 0 0 1 0.807,-0.069l2.011,0l1.643,-3.309l-3.193,0.003z" id="svg_8"/>
            </g>
        </g>
    </g>
</svg>