<svg xmlns="http://www.w3.org/2000/svg" viewBox="0 0 581.394 62.4033"><defs><style>.cls-1{isolation:isolate;}.cls-2{fill:#fff;}.cls-3,.cls-4{fill:none;}.cls-4{stroke:#fff;stroke-width:2px;}</style></defs><title>tablet adv</title><g id="Layer_2" data-name="Layer 2"><g id="Layer_1-2" data-name="Layer 1"><g id="Ultimate_Experience" data-name="Ultimate Experience" class="cls-1"><g class="cls-1"><path class="cls-2" d="M112.2851,36.3525V52.9814a9.5866,9.5866,0,0,1-1.2744,4.9922,8.2936,8.2936,0,0,1-3.6826,3.2871,13.1689,13.1689,0,0,1-5.6953,1.1426q-4.957,0-7.6992-2.54a9.0109,9.0109,0,0,1-2.7422-6.9522V36.3525H96.623V52.085a6.5892,6.5892,0,0,0,1.1954,4.3593,4.9689,4.9689,0,0,0,3.955,1.3887,4.8581,4.8581,0,0,0,3.876-1.3975,6.6243,6.6243,0,0,0,1.2041-4.3857V36.3525Z"/><path class="cls-2" d="M118.5781,62.0518V36.3525h5.4492V57.5518h10.4239v4.5Z"/><path class="cls-2" d="M148.83,62.0518h-5.4492V40.8877h-6.9786V36.3525h19.4063v4.5352H148.83Z"/><path class="cls-2" d="M159.7637,62.0518V36.3525h5.4492V62.0518Z"/><path class="cls-2" d="M182.5625,62.0518,176.375,41.89h-.1582q.3339,6.1524.334,8.209V62.0518h-4.8692V36.3525H179.1l6.082,19.6524h.1055l6.4512-19.6524h7.4179V62.0518h-5.08V49.8877q0-.8613.0263-1.9863t.2373-5.9766h-.1582l-6.6269,20.127Z"/><path class="cls-2" d="M221.3574,62.0518l-1.8633-6.1172H210.125l-1.8633,6.1172h-5.8711l9.07-25.8047h6.6621l9.1055,25.8047Zm-3.164-10.6875q-2.584-8.3145-2.9092-9.4043t-.4658-1.7227q-.58,2.25-3.3223,11.127Z"/><path class="cls-2" d="M240.3769,62.0518h-5.4492V40.8877h-6.9785V36.3525h19.4063v4.5352h-6.9786Z"/><path class="cls-2" d="M266.1113,62.0518H251.3105V36.3525h14.8008v4.4649H256.76V46.46h8.7011v4.4648H256.76v6.627h9.3515Z"/><path class="cls-2" d="M295.625,62.0518H280.8242V36.3525H295.625v4.4649h-9.3516V46.46h8.7012v4.4648h-8.7012v6.627h9.3516Z"/><path class="cls-2" d="M321.7637,62.0518H315.541l-5.9766-9.7207-5.9765,9.7207h-5.836l8.5254-13.2539-7.98-12.4454h6.0117l5.5371,9.2461,5.4316-9.2461h5.8711L313.08,49.0967Z"/><path class="cls-2" d="M342.7519,44.3682a7.8549,7.8549,0,0,1-2.5927,6.3457q-2.5927,2.1972-7.3741,2.1972h-2.3378v9.1407H324.998V36.3525h8.209q4.6758,0,7.11,2.0127A7.3389,7.3389,0,0,1,342.7519,44.3682Zm-12.3046,4.0781H332.24a5.971,5.971,0,0,0,3.7617-.9932,3.4757,3.4757,0,0,0,1.2481-2.8916,3.5641,3.5641,0,0,0-1.0459-2.83,4.9011,4.9011,0,0,0-3.2783-.914h-2.4785Z"/><path class="cls-2" d="M362.4043,62.0518H347.6035V36.3525h14.8008v4.4649h-9.3516V46.46h8.7012v4.4648h-8.7012v6.627h9.3516Z"/><path class="cls-2" d="M373.2148,52.19v9.8614h-5.4492V36.3525h7.4883q5.2383,0,7.752,1.9073a6.8072,6.8072,0,0,1,2.5136,5.792,6.8184,6.8184,0,0,1-1.248,4.0341,8.2583,8.2583,0,0,1-3.5332,2.7686q5.8008,8.6659,7.5586,11.1973H382.25L376.1152,52.19Zm0-4.43h1.7578a6.7251,6.7251,0,0,0,3.8145-.8613,3.0744,3.0744,0,0,0,1.2305-2.707,2.8121,2.8121,0,0,0-1.2569-2.6016,7.6269,7.6269,0,0,0-3.8935-.7734h-1.6524Z"/><path class="cls-2" d="M391.5312,62.0518V36.3525h5.4493V62.0518Z"/><path class="cls-2" d="M418.25,62.0518H403.4492V36.3525H418.25v4.4649h-9.3516V46.46H417.6v4.4648h-8.7012v6.627H418.25Z"/><path class="cls-2" d="M446.41,62.0518h-6.9257L428.3047,42.61h-.1582q.3339,5.15.334,7.3476V62.0518h-4.8692V36.3525h6.8731l11.1621,19.2481h.123q-.2637-5.01-.2636-7.084V36.3525H446.41Z"/><path class="cls-2" d="M463.7949,40.5186a5.5526,5.5526,0,0,0-4.7637,2.3115,10.754,10.754,0,0,0-1.6875,6.4424q0,8.5956,6.4512,8.5957a20.3924,20.3924,0,0,0,6.5567-1.3536v4.57a18.2089,18.2089,0,0,1-7.0665,1.3183q-5.6073,0-8.5781-3.4013t-2.9707-9.7647a15.9447,15.9447,0,0,1,1.459-7.0225,10.5453,10.5453,0,0,1,4.1924-4.623,12.4019,12.4019,0,0,1,6.4072-1.6084,17.2937,17.2937,0,0,1,7.5235,1.81l-1.7579,4.43a29.11,29.11,0,0,0-2.9-1.1953A8.653,8.653,0,0,0,463.7949,40.5186Z"/><path class="cls-2" d="M490.6191,62.0518H475.8184V36.3525h14.8007v4.4649h-9.3515V46.46h8.7011v4.4648h-8.7011v6.627h9.3515Z"/></g></g><g id="Rectangle_6" data-name="Rectangle 6"><path id="Path_42" data-name="Path 42" class="cls-3" d="M21.453,6.5391H559.945a21.0129,21.0129,0,0,1,21.013,21.013h0a21.0129,21.0129,0,0,1-21.013,21.013H21.453A21.0129,21.0129,0,0,1,.44,27.5521h0A21.0129,21.0129,0,0,1,21.453,6.5391Z"/><path id="Path_43" data-name="Path 43" class="cls-4" d="M78.297,48.0041H21.453A20.4519,20.4519,0,0,1,1,27.5531v-.002H1A20.452,20.452,0,0,1,21.452,7.0991h.001"/><path id="Path_44" data-name="Path 44" class="cls-4" d="M559.941,7.0991a20.453,20.453,0,0,1,20.453,20.453h0a20.453,20.453,0,0,1-20.453,20.453H503.024"/></g><g id="Group_272" data-name="Group 272"><g id="one_Protocol" data-name="one Protocol" class="cls-1"><g class="cls-1"><path class="cls-2" d="M43.061,6.6094a7.18,7.18,0,0,1-1.5293,4.8388,5.27,5.27,0,0,1-4.2187,1.7793,5.26,5.26,0,0,1-4.21-1.7793,7.2083,7.2083,0,0,1-1.5293-4.8564,7.08,7.08,0,0,1,1.5425-4.8291A5.3118,5.3118,0,0,1,37.3306,0a5.2559,5.2559,0,0,1,4.21,1.7705A7.1867,7.1867,0,0,1,43.061,6.6094Zm-10.5117,0a6.5788,6.5788,0,0,0,1.23,4.2666,4.2963,4.2963,0,0,0,3.5332,1.5078A4.3235,4.3235,0,0,0,40.8594,10.89a6.5882,6.5882,0,0,0,1.226-4.28,6.5207,6.5207,0,0,0-1.226-4.2588A4.3233,4.3233,0,0,0,37.3306.87,4.3445,4.3445,0,0,0,33.793,2.3643,6.4626,6.4626,0,0,0,32.5493,6.6094Z"/><path class="cls-2" d="M55.3569,13.0518h-.9052L46.84,1.6436h-.07q.1054,2.039.1055,3.0761v8.3321h-.8613V.2021h.8964l7.6026,11.3907h.0527q-.0791-1.5821-.0791-3.0059V.2021h.87Z"/><path class="cls-2" d="M66.0181,13.0518H58.9956V.2021h7.0225v.8262h-6.126v4.86h5.7832v.8261H59.8921v5.5108h6.126Z"/></g><g class="cls-1"><path class="cls-2" d="M82.2778,4.21a3.9271,3.9271,0,0,1-1.2964,3.1728,5.5443,5.5443,0,0,1-3.687,1.0986H76.1255v4.57H73.4009V.2021h4.1045A5.4649,5.4649,0,0,1,81.0605,1.208,3.6716,3.6716,0,0,1,82.2778,4.21ZM76.1255,6.249h.8965a2.9852,2.9852,0,0,0,1.8808-.4961,1.7388,1.7388,0,0,0,.624-1.4463,1.7822,1.7822,0,0,0-.5229-1.415,2.45,2.45,0,0,0-1.6392-.457H76.1255Z"/><path class="cls-2" d="M87.4282,8.1211v4.9307H84.7036V.2021h3.7441a6.415,6.415,0,0,1,3.876.9532,3.4056,3.4056,0,0,1,1.2569,2.8965,3.4121,3.4121,0,0,1-.6241,2.0175A4.1348,4.1348,0,0,1,91.19,7.4531q2.9,4.333,3.7793,5.5987H91.9458L88.8784,8.1211Zm0-2.2148h.8789a3.3623,3.3623,0,0,0,1.9072-.4307A1.5372,1.5372,0,0,0,90.83,4.1221a1.4061,1.4061,0,0,0-.6284-1.3008,3.8138,3.8138,0,0,0-1.9468-.3867h-.8262Z"/><path class="cls-2" d="M108.25,6.6094a6.9726,6.9726,0,0,1-1.582,4.9043,6.8575,6.8575,0,0,1-9.07,0,7,7,0,0,1-1.5821-4.9219,6.9028,6.9028,0,0,1,1.5865-4.8994A5.9327,5.9327,0,0,1,102.15,0a5.85,5.85,0,0,1,4.5308,1.7051A6.99,6.99,0,0,1,108.25,6.6094Zm-9.3779,0a5.3668,5.3668,0,0,0,.8174,3.2431,2.86,2.86,0,0,0,2.4433,1.09q3.2607,0,3.2608-4.333,0-4.3419-3.2432-4.3418a2.8772,2.8772,0,0,0-2.4522,1.0947A5.3418,5.3418,0,0,0,98.8716,6.6094Z"/><path class="cls-2" d="M115.87,13.0518H113.145V2.47h-3.4892V.2021h9.7031V2.47H115.87Z"/><path class="cls-2" d="M133,6.6094a6.9726,6.9726,0,0,1-1.582,4.9043,6.8575,6.8575,0,0,1-9.07,0,7,7,0,0,1-1.5821-4.9219,6.9028,6.9028,0,0,1,1.5865-4.8994A5.9327,5.9327,0,0,1,126.9,0a5.85,5.85,0,0,1,4.5308,1.7051A6.99,6.99,0,0,1,133,6.6094Zm-9.3779,0a5.3668,5.3668,0,0,0,.8174,3.2431,2.86,2.86,0,0,0,2.4433,1.09q3.2607,0,3.2608-4.333,0-4.3419-3.2432-4.3418a2.8772,2.8772,0,0,0-2.4522,1.0947A5.3418,5.3418,0,0,0,123.6216,6.6094Z"/><path class="cls-2" d="M141.1206,2.2852A2.7782,2.7782,0,0,0,138.7388,3.44a5.3808,5.3808,0,0,0-.8438,3.2217q0,4.2978,3.2256,4.2979a10.196,10.196,0,0,0,3.2783-.6768v2.2852a9.1051,9.1051,0,0,1-3.5332.6591,5.3858,5.3858,0,0,1-4.289-1.7011,7.1978,7.1978,0,0,1-1.4854-4.8819,7.9707,7.9707,0,0,1,.73-3.5107A5.28,5.28,0,0,1,137.917.8213a6.21,6.21,0,0,1,3.2036-.8037,8.6452,8.6452,0,0,1,3.7617.9053l-.8789,2.2148a14.5773,14.5773,0,0,0-1.45-.5977A4.3266,4.3266,0,0,0,141.1206,2.2852Z"/><path class="cls-2" d="M158.7954,6.6094a6.9726,6.9726,0,0,1-1.582,4.9043,6.8575,6.8575,0,0,1-9.07,0,7,7,0,0,1-1.5821-4.9219,6.9028,6.9028,0,0,1,1.5865-4.8994A5.9327,5.9327,0,0,1,152.6958,0a5.85,5.85,0,0,1,4.5308,1.7051A6.99,6.99,0,0,1,158.7954,6.6094Zm-9.3779,0a5.3668,5.3668,0,0,0,.8174,3.2431,2.86,2.86,0,0,0,2.4433,1.09q3.2607,0,3.2608-4.333,0-4.3419-3.2432-4.3418a2.8772,2.8772,0,0,0-2.4522,1.0947A5.3418,5.3418,0,0,0,149.4175,6.6094Z"/><path class="cls-2" d="M161.4585,13.0518V.2021h2.7246v10.6h5.2119v2.25Z"/></g></g><g id="one_DRM" data-name="one DRM" class="cls-1"><g class="cls-1"><path class="cls-2" d="M208.061,6.6094a7.18,7.18,0,0,1-1.5293,4.8388,5.8806,5.8806,0,0,1-8.4287,0,7.2083,7.2083,0,0,1-1.5293-4.8564,7.08,7.08,0,0,1,1.5425-4.8291A5.3118,5.3118,0,0,1,202.3306,0a5.2559,5.2559,0,0,1,4.21,1.7705A7.1867,7.1867,0,0,1,208.061,6.6094Zm-10.5117,0A6.5788,6.5788,0,0,0,198.78,10.876a4.9244,4.9244,0,0,0,7.08.0136,6.5882,6.5882,0,0,0,1.226-4.28,6.5207,6.5207,0,0,0-1.226-4.2588,4.94,4.94,0,0,0-7.0664.0137A6.4626,6.4626,0,0,0,197.5493,6.6094Z"/><path class="cls-2" d="M220.3569,13.0518h-.9052L211.84,1.6436h-.07q.1054,2.039.1055,3.0761v8.3321h-.8613V.2021h.8964l7.6026,11.3907h.0527q-.079-1.5821-.0791-3.0059V.2021h.87Z"/><path class="cls-2" d="M231.0181,13.0518h-7.0225V.2021h7.0225v.8262h-6.126v4.86h5.7832v.8261h-5.7832v5.5108h6.126Z"/></g><g class="cls-1"><path class="cls-2" d="M249.062,6.5039a6.3278,6.3278,0,0,1-1.8061,4.86,7.3655,7.3655,0,0,1-5.2164,1.6875h-3.6386V.2021h4.0342a6.7937,6.7937,0,0,1,4.8867,1.6612A6.11,6.11,0,0,1,249.062,6.5039Zm-2.83.07q0-4.14-3.6562-4.14h-1.45v8.3672h1.1689Q246.2319,10.8018,246.2319,6.5742Z"/><path class="cls-2" d="M254.45,8.1211v4.9307h-2.7246V.2021h3.7441a6.415,6.415,0,0,1,3.876.9532,3.4056,3.4056,0,0,1,1.2568,2.8965,3.4128,3.4128,0,0,1-.624,2.0175,4.1355,4.1355,0,0,1-1.7666,1.3838q2.9,4.333,3.7793,5.5987h-3.0234L255.9,8.1211Zm0-2.2148h.8789a3.3623,3.3623,0,0,0,1.9072-.4307,1.5372,1.5372,0,0,0,.6153-1.3535,1.406,1.406,0,0,0-.6285-1.3008,3.8131,3.8131,0,0,0-1.9467-.3867H254.45Z"/><path class="cls-2" d="M269.0483,13.0518,265.9546,2.9707h-.0791q.167,3.0762.167,4.1045v5.9766h-2.4346V.2021h3.709l3.041,9.8262h.0527L273.6362.2021h3.709v12.85h-2.54V6.97q0-.4306.0132-.9931t.1186-2.9883h-.0791l-3.3135,10.0635Z"/></g></g><g id="one_Player" data-name="one Player" class="cls-1"><g class="cls-1"><path class="cls-2" d="M316.061,6.6094a7.18,7.18,0,0,1-1.5293,4.8388,5.8806,5.8806,0,0,1-8.4287,0,7.2083,7.2083,0,0,1-1.5293-4.8564,7.08,7.08,0,0,1,1.5425-4.8291A5.3118,5.3118,0,0,1,310.3306,0a5.2559,5.2559,0,0,1,4.21,1.7705A7.1867,7.1867,0,0,1,316.061,6.6094Zm-10.5117,0A6.5788,6.5788,0,0,0,306.78,10.876a4.9244,4.9244,0,0,0,7.08.0136,6.5882,6.5882,0,0,0,1.226-4.28,6.5207,6.5207,0,0,0-1.226-4.2588,4.94,4.94,0,0,0-7.0664.0137A6.4626,6.4626,0,0,0,305.5493,6.6094Z"/><path class="cls-2" d="M328.3569,13.0518h-.9052L319.84,1.6436h-.07q.1055,2.039.1055,3.0761v8.3321h-.8613V.2021h.8964l7.6026,11.3907h.0527q-.079-1.5821-.0791-3.0059V.2021h.87Z"/><path class="cls-2" d="M339.0181,13.0518h-7.0225V.2021h7.0225v.8262h-6.126v4.86h5.7832v.8261h-5.7832v5.5108h6.126Z"/></g><g class="cls-1"><path class="cls-2" d="M355.2778,4.21a3.9271,3.9271,0,0,1-1.2964,3.1728,5.5443,5.5443,0,0,1-3.687,1.0986h-1.1689v4.57h-2.7246V.2021h4.1045a5.4649,5.4649,0,0,1,3.5551,1.0059A3.6716,3.6716,0,0,1,355.2778,4.21Zm-6.1523,2.039h.8965a2.9852,2.9852,0,0,0,1.8808-.4961,1.7388,1.7388,0,0,0,.624-1.4463,1.7822,1.7822,0,0,0-.5229-1.415,2.45,2.45,0,0,0-1.6392-.457h-1.2392Z"/><path class="cls-2" d="M357.7036,13.0518V.2021h2.7246v10.6H365.64v2.25Z"/><path class="cls-2" d="M375.7388,13.0518l-.9317-3.0586h-4.6845l-.9317,3.0586h-2.9355L370.7905.1494h3.3311l4.5527,12.9024ZM374.1567,7.708q-1.292-4.1573-1.4546-4.7021t-.2329-.8614q-.29,1.125-1.6611,5.5635Z"/><path class="cls-2" d="M384.2905,5.4932,386.9712.2021h2.936L385.644,8.0508v5.001h-2.707V8.1387L378.6743.2021h2.9531Z"/><path class="cls-2" d="M398.9248,13.0518h-7.4V.2021h7.4V2.4346H394.249V5.2559H398.6V7.4883H394.249v3.3135h4.6758Z"/><path class="cls-2" d="M404.33,8.1211v4.9307h-2.7246V.2021H405.35a6.415,6.415,0,0,1,3.876.9532,3.4056,3.4056,0,0,1,1.2568,2.8965,3.4128,3.4128,0,0,1-.624,2.0175,4.1355,4.1355,0,0,1-1.7666,1.3838q2.9,4.333,3.7793,5.5987h-3.0235L405.78,8.1211Zm0-2.2148h.8789a3.3625,3.3625,0,0,0,1.9072-.4307,1.5371,1.5371,0,0,0,.6152-1.3535,1.4063,1.4063,0,0,0-.6289-1.3008,3.8114,3.8114,0,0,0-1.9463-.3867H404.33Z"/></g></g><g id="one_Source" data-name="one Source" class="cls-1"><g class="cls-1"><path class="cls-2" d="M451.0615,6.6094a7.18,7.18,0,0,1-1.5293,4.8388,5.8806,5.8806,0,0,1-8.4287,0,7.2083,7.2083,0,0,1-1.5293-4.8564,7.08,7.08,0,0,1,1.542-4.8291A5.3128,5.3128,0,0,1,445.331,0a5.256,5.256,0,0,1,4.21,1.7705A7.1867,7.1867,0,0,1,451.0615,6.6094Zm-10.5117,0A6.5788,6.5788,0,0,0,441.78,10.876a4.9238,4.9238,0,0,0,7.0791.0136,6.5883,6.5883,0,0,0,1.2265-4.28,6.5207,6.5207,0,0,0-1.2265-4.2588,4.94,4.94,0,0,0-7.0664.0137A6.4626,6.4626,0,0,0,440.55,6.6094Z"/><path class="cls-2" d="M463.3574,13.0518h-.9053L454.8408,1.6436h-.07q.1054,2.039.1055,3.0761v8.3321h-.8614V.2021h.8965l7.6026,11.3907h.0527q-.079-1.5821-.0791-3.0059V.2021h.87Z"/><path class="cls-2" d="M474.0185,13.0518h-7.0224V.2021h7.0224v.8262h-6.1259v4.86h5.7832v.8261h-5.7832v5.5108h6.1259Z"/></g><g class="cls-1"><path class="cls-2" d="M488.9863,9.4834a3.3219,3.3219,0,0,1-1.2529,2.7422,5.442,5.442,0,0,1-3.4854,1.0019,8.1843,8.1843,0,0,1-3.6386-.7734V9.9229a14.9975,14.9975,0,0,0,2.2021.8173,6.5115,6.5115,0,0,0,1.6475.2373,2.3452,2.3452,0,0,0,1.376-.3427,1.1728,1.1728,0,0,0,.4794-1.02,1.129,1.129,0,0,0-.2109-.6728,2.3773,2.3773,0,0,0-.62-.5664,15.9057,15.9057,0,0,0-1.665-.87,7.908,7.908,0,0,1-1.7676-1.0635,3.9908,3.9908,0,0,1-.9395-1.1865,3.386,3.386,0,0,1-.3515-1.5821A3.32,3.32,0,0,1,481.915.9932a4.8012,4.8012,0,0,1,3.1944-.9756,7.5489,7.5489,0,0,1,1.9121.2373,13.1251,13.1251,0,0,1,1.9023.668l-.8789,2.1181a12.87,12.87,0,0,0-1.7-.5889,5.4786,5.4786,0,0,0-1.3232-.1669,1.7492,1.7492,0,0,0-1.1856.36,1.1893,1.1893,0,0,0-.414.94,1.1607,1.1607,0,0,0,.1679.628,1.8365,1.8365,0,0,0,.5313.5195,16.6519,16.6519,0,0,0,1.7265.9A6.89,6.89,0,0,1,488.3184,7.36,3.3738,3.3738,0,0,1,488.9863,9.4834Z"/><path class="cls-2" d="M502.9785,6.6094a6.9726,6.9726,0,0,1-1.582,4.9043,6.8575,6.8575,0,0,1-9.07,0,7,7,0,0,1-1.5821-4.9219,6.9032,6.9032,0,0,1,1.586-4.8994A5.9339,5.9339,0,0,1,496.8789,0a5.8488,5.8488,0,0,1,4.53,1.7051A6.9906,6.9906,0,0,1,502.9785,6.6094Zm-9.3789,0a5.3665,5.3665,0,0,0,.8184,3.2431,2.86,2.86,0,0,0,2.4433,1.09q3.2607,0,3.26-4.333,0-4.3419-3.2422-4.3418a2.8789,2.8789,0,0,0-2.4531,1.0947A5.3411,5.3411,0,0,0,493.6,6.6094Z"/><path class="cls-2" d="M516.1.2021V8.5166a4.7931,4.7931,0,0,1-.6367,2.4961,4.149,4.149,0,0,1-1.8418,1.6436,6.586,6.586,0,0,1-2.8477.5712,5.4524,5.4524,0,0,1-3.85-1.2695,4.5067,4.5067,0,0,1-1.3711-3.4766V.2021H508.27V8.0684a3.2941,3.2941,0,0,0,.5977,2.18,2.4821,2.4821,0,0,0,1.9765.6944,2.427,2.427,0,0,0,1.9385-.6992,3.3087,3.3087,0,0,0,.6026-2.1924V.2021Z"/><path class="cls-2" d="M521.9707,8.1211v4.9307h-2.7246V.2021H522.99a6.4184,6.4184,0,0,1,3.877.9532,3.405,3.405,0,0,1,1.2558,2.8965,3.4119,3.4119,0,0,1-.623,2.0175,4.1386,4.1386,0,0,1-1.7676,1.3838q2.9,4.333,3.7793,5.5987h-3.0234l-3.0664-4.9307Zm0-2.2148h.8789a3.3662,3.3662,0,0,0,1.9082-.4307,1.5371,1.5371,0,0,0,.6152-1.3535,1.4063,1.4063,0,0,0-.6289-1.3008,3.8152,3.8152,0,0,0-1.9472-.3867h-.8262Z"/><path class="cls-2" d="M536.5879,2.2852A2.78,2.78,0,0,0,534.2051,3.44a5.3808,5.3808,0,0,0-.8438,3.2217q0,4.2978,3.2266,4.2979a10.1907,10.1907,0,0,0,3.2773-.6768v2.2852a9.1051,9.1051,0,0,1-3.5332.6591,5.3858,5.3858,0,0,1-4.289-1.7011,7.1976,7.1976,0,0,1-1.4844-4.8819,7.9707,7.9707,0,0,1,.7285-3.5107A5.2805,5.2805,0,0,1,533.3838.8213a6.2117,6.2117,0,0,1,3.2041-.8037A8.6455,8.6455,0,0,1,540.35.9229l-.8789,2.2148A14.5836,14.5836,0,0,0,538.02,2.54,4.321,4.321,0,0,0,536.5879,2.2852Z"/><path class="cls-2" d="M550,13.0518h-7.4V.2021H550V2.4346h-4.6758V5.2559h4.35V7.4883h-4.35v3.3135H550Z"/></g></g><g id="Ellipse_4" data-name="Ellipse 4"><circle class="cls-3" cx="182.44" cy="6.0521" r="3"/><circle class="cls-4" cx="182.44" cy="6.0521" r="2"/></g><g id="Ellipse_5" data-name="Ellipse 5"><circle class="cls-3" cx="290.44" cy="6.0521" r="3"/><circle class="cls-4" cx="290.44" cy="6.0521" r="2"/></g><g id="Ellipse_6" data-name="Ellipse 6"><circle class="cls-3" cx="425.44" cy="5.0521" r="3"/><circle class="cls-4" cx="425.44" cy="5.0521" r="2"/></g></g></g></g></svg>