<svg xmlns="http://www.w3.org/2000/svg" width="180" height="180" viewBox="0 0 180 180"><defs><style>.a,.d{fill:#1d1040;}.b{fill:#1e1f73;}.c,.f,.g{fill:none;}.c{stroke:#fff;stroke-linejoin:round;}.c,.g{stroke-linecap:round;}.c,.d,.f,.g{stroke-width:2px;}.d,.f,.g{stroke:#5a5dff;stroke-miterlimit:10;}.e{fill:#fff;}</style></defs><g transform="translate(0 -1751)"><rect class="a" width="180" height="180" transform="translate(0 1751)"/><path class="b" d="M90.161,1925.378a15.055,15.055,0,0,1-10.823-4.578,15.271,15.271,0,0,1-4.577-11.01V1804.177l-5.38,2.283a21.917,21.917,0,0,1-8.36,1.794,15.521,15.521,0,0,1-11.035-4.32,15.008,15.008,0,0,1-4.553-11.08,16,16,0,0,1,2.45-8.781,14.684,14.684,0,0,1,7.759-5.9l29.433-10.566a17.46,17.46,0,0,1,5.462-1.056,15.031,15.031,0,0,1,11.079,4.554,15.787,15.787,0,0,1,4.321,11.222V1909.79a15.272,15.272,0,0,1-4.578,11.01A15.5,15.5,0,0,1,90.161,1925.378Z"/><path class="c" d="M98.161,1917.378a15.055,15.055,0,0,1-10.823-4.578,15.271,15.271,0,0,1-4.577-11.01V1796.177l-5.38,2.283a21.917,21.917,0,0,1-8.36,1.794,15.521,15.521,0,0,1-11.035-4.32,15.008,15.008,0,0,1-4.553-11.08,16,16,0,0,1,2.45-8.781,14.684,14.684,0,0,1,7.759-5.9l29.433-10.566a17.46,17.46,0,0,1,5.462-1.056,15.031,15.031,0,0,1,11.079,4.554,15.787,15.787,0,0,1,4.321,11.222V1901.79a15.272,15.272,0,0,1-4.578,11.01A15.5,15.5,0,0,1,98.161,1917.378Z"/><path class="d" d="M58,1856v7a4,4,0,0,1-4,4H32a4,4,0,0,1-4-4v-34a4,4,0,0,1,4-4H48.343a4,4,0,0,1,2.829,1.171l5.656,5.657A4,4,0,0,1,58,1834.657V1837"/><path class="e" d="M43.058,1851.1H41.247v-3.7H37.854v3.7H36.038v-8.566h1.816v3.357h3.393v-3.357h1.811Z"/><path class="e" d="M44.827,1850.268c-.121-1.337,2.162-1.328,2.051,0C46.974,1851.589,44.724,1851.6,44.827,1850.268Z"/><path class="e" d="M54.032,1851.1H48.044v-1.259c.7-.724,2.937-2.917,3.4-3.531,1.747-2.1-.967-3.206-2.437-1.508l-.984-1.166c1.955-2.255,6.9-1.27,5.563,2.206-.528,1.323-2.115,2.488-3.284,3.653v.082h3.732Z"/><path class="e" d="M54.835,1847.467c-.143-3.631,2.042-5.543,5.443-4.94v1.448c-1.974-.464-3.85.274-3.779,2.56h.076c.629-1.27,2.81-1.288,3.656-.275a3.4,3.4,0,0,1-.123,4.163C57.762,1852.419,54.621,1850.607,54.835,1847.467Zm3.094,2.308c1.566.1,1.669-2.944.035-2.847C56.134,1846.872,56.3,1849.722,57.929,1849.775Z"/><path class="e" d="M67.925,1849.33H66.894v1.775h-1.77v-1.775H61.468v-1.26l3.756-5.531h1.67v5.385h1.031Zm-2.8-1.406v-1.453q0-.363.029-1.055c.02-.461.035-.728.047-.8h-.047a6.484,6.484,0,0,1-.521.938l-1.57,2.373Z"/><path class="f" d="M0,1825H.343a4,4,0,0,1,2.829,1.171l5.656,5.657A4,4,0,0,1,10,1834.657V1837"/><path class="f" d="M10,1856v7a4,4,0,0,1-4,4H0"/><path class="e" d="M7.937,1851.1H6.12v-7.054H3.794v-1.512h6.469v1.512H7.937Z"/><path class="e" d="M16.638,1848.727c.047,2.752-3.708,2.929-5.584,1.98v-1.687c1.1.6,4.428,1.474,3.662-.654-.459-.637-2.1-1.081-2.7-1.667a2.436,2.436,0,0,1-.091-3.633c1.177-1,3.278-.711,4.673-.046l-.586,1.412c-1.022-.521-3.583-1.044-2.971.782.394.491.64.494,1.506.946C15.9,1846.848,16.595,1847.328,16.638,1848.727Z"/><path class="f" d="M180,1825h-2a4,4,0,0,0-4,4v34a4,4,0,0,0,4,4h2"/><path class="f" d="M154,1856v7a4,4,0,0,1-4,4H128a4,4,0,0,1-4-4v-34a4,4,0,0,1,4-4h16.343a4,4,0,0,1,2.829,1.171l5.656,5.657a4,4,0,0,1,1.172,2.829V1837"/><path class="e" d="M144.384,1851.1l-.621-2.039H140.64l-.621,2.039h-1.957l3.023-8.6h2.221l3.035,8.6Zm-1.055-3.562q-.861-2.772-.97-3.135t-.155-.574q-.193.75-1.107,3.709Z"/><path class="e" d="M152.306,1842.539h1.834l-2.912,8.566h-1.981l-2.906-8.566h1.834l1.611,5.1q.135.452.278,1.051t.179.835a15.044,15.044,0,0,1,.44-1.886Z"/><path class="e" d="M155.218,1851.1v-8.566h1.816v8.566Z"/><rect class="a" width="7" height="19" transform="translate(111 1837)"/><rect class="b" width="7" height="52" transform="translate(79 1820)"/><path class="d" d="M106,1856v7a4,4,0,0,1-4,4H80a4,4,0,0,1-4-4v-34a4,4,0,0,1,4-4H96.343a4,4,0,0,1,2.829,1.171l5.656,5.657a4,4,0,0,1,1.172,2.829V1837"/><path class="e" d="M91.058,1851.1H89.247v-3.7H85.854v3.7H84.038v-8.566h1.816v3.357h3.393v-3.357h1.811Z"/><path class="e" d="M92.827,1850.268c-.121-1.337,2.162-1.328,2.051,0C94.974,1851.589,92.724,1851.6,92.827,1850.268Z"/><path class="e" d="M102.032,1851.1H96.044v-1.259c.7-.724,2.937-2.917,3.4-3.531,1.747-2.1-.967-3.206-2.437-1.508l-.984-1.166c1.955-2.255,6.895-1.27,5.563,2.206-.528,1.323-2.115,2.488-3.284,3.653v.082h3.732Z"/><path class="e" d="M102.835,1847.467c-.143-3.631,2.042-5.543,5.443-4.94v1.448c-1.974-.464-3.85.274-3.779,2.56h.076c.629-1.27,2.81-1.288,3.656-.275a3.4,3.4,0,0,1-.123,4.163C105.762,1852.419,102.621,1850.607,102.835,1847.467Zm3.094,2.308c1.566.1,1.669-2.944.035-2.847C104.134,1846.872,104.3,1849.722,105.929,1849.775Z"/><path class="e" d="M112.86,1845.633c2.682-.211,3.568,3.262,1.828,4.816-.984.981-3.667.966-4.839.311v-1.565c1.15.642,3.968,1.092,3.9-.8.131-1.4-1.921-1.47-3.012-1.1l-.72-.387.322-4.365h4.646v1.535h-3.058l-.158,1.682.2-.041A4.013,4.013,0,0,1,112.86,1845.633Z"/><line class="g" x2="14" transform="translate(14 1883)"/><line class="g" x2="23" transform="translate(32 1877)"/><line class="f" x2="37" transform="translate(131 1880)"/><line class="g" x2="16" transform="translate(123 1887)"/><line class="g" x2="20" transform="translate(142 1814)"/><line class="g" x2="12" transform="translate(10 1814)"/><line class="g" x1="6" transform="translate(129 1814)"/></g></svg>