<svg xmlns="http://www.w3.org/2000/svg" width="80" height="80" viewBox="0 0 80 80"><defs><style>.a{fill:red;opacity:0;}.b{fill:#5a5dff;opacity:0.08;}.c,.d,.e,.f,.h{fill:none;}.c{stroke:#1d1040;}.c,.e,.f{stroke-miterlimit:10;stroke-width:2px;}.d{stroke-linecap:round;stroke-linejoin:round;}.e{stroke:#5a5dff;}.f{stroke:#bd00ff;}.g,.i{stroke:none;}.i{fill:#bd00ff;}</style></defs><g transform="translate(-976 -2003)"><rect class="a" width="80" height="80" transform="translate(976 2003)"/><g transform="translate(976 2003)"><circle class="b" cx="16" cy="16" r="16" transform="translate(20 28)"/><g class="c" transform="translate(34 4)"><circle class="g" cx="6" cy="6" r="6"/><circle class="h" cx="6" cy="6" r="5"/></g><g class="c" transform="translate(34 64)"><circle class="g" cx="6" cy="6" r="6"/><circle class="h" cx="6" cy="6" r="5"/></g><line class="c" y1="12" transform="translate(40 14)"/><line class="c" y1="12" transform="translate(40 54)"/><g class="c" transform="translate(64 34)"><circle class="g" cx="6" cy="6" r="6"/><circle class="h" cx="6" cy="6" r="5"/></g><g class="c" transform="translate(4 34)"><circle class="g" cx="6" cy="6" r="6"/><circle class="h" cx="6" cy="6" r="5"/></g><line class="c" x2="12" transform="translate(54 40)"/><line class="c" x2="12" transform="translate(14 40)"/><line class="c" y1="8.485" x2="8.485" transform="translate(49.899 21.615)"/><line class="c" y1="8.485" x2="8.485" transform="translate(21.615 49.899)"/><line class="c" x2="8.485" y2="8.485" transform="translate(49.899 49.899)"/><line class="c" x2="8.485" y2="8.485" transform="translate(21.615 21.615)"/><g class="d"><path class="g" d="M36,34V46l10-6Z"/><path class="i" d="M 36 34 L 36 46 L 46 40 L 36 34 M 35.99996948242188 32 C 36.3564453125 32 36.71255493164063 32.09515380859375 37.02899169921875 32.28501129150391 L 47.02899169921875 38.28501129150391 C 47.63140106201172 38.64646148681641 48 39.29747009277344 48 40 C 48 40.70252990722656 47.63140106201172 41.35353851318359 47.02899169921875 41.71498870849609 L 37.02899169921875 47.71498870849609 C 36.71259307861328 47.90482330322266 36.35640335083008 48 35.99996948242188 48 C 35.66035842895508 48 35.32053375244141 47.91361618041992 35.01459884643555 47.74039840698242 C 34.38758850097656 47.38539123535156 34 46.72053909301758 34 46 L 34 34 C 34 33.27946090698242 34.38758850097656 32.61460876464844 35.01459884643555 32.25960159301758 C 35.32049560546875 32.08640670776367 35.66040420532227 32 35.99996948242188 32 Z"/></g><g class="e" transform="translate(24 24)"><circle class="g" cx="16" cy="16" r="16"/><circle class="h" cx="16" cy="16" r="15"/></g><g class="f" transform="translate(55.213 12.787)"><circle class="g" cx="6" cy="6" r="6"/><circle class="h" cx="6" cy="6" r="5"/></g><g class="f" transform="translate(12.787 55.213)"><circle class="g" cx="6" cy="6" r="6"/><circle class="h" cx="6" cy="6" r="5"/></g><g class="e" transform="translate(55.213 55.213)"><circle class="g" cx="6" cy="6" r="6"/><circle class="h" cx="6" cy="6" r="5"/></g><g class="e" transform="translate(12.787 12.787)"><circle class="g" cx="6" cy="6" r="6"/><circle class="h" cx="6" cy="6" r="5"/></g></g></g></svg>