<svg xmlns="http://www.w3.org/2000/svg" width="180" height="180" viewBox="0 0 180 180"><defs><style>.a,.d{fill:#1d1040;}.b{fill:#1e1f73;}.c,.e,.f,.g,.h,.k{fill:none;}.c,.e{stroke:#fff;}.c,.f,.h{stroke-linecap:round;}.c,.h{stroke-linejoin:round;}.c,.e,.f,.g,.h{stroke-width:2px;}.d,.e,.f,.g{stroke-miterlimit:10;}.f,.g,.h{stroke:#5a5dff;}.i,.j{stroke:none;}.j{fill:#fff;}</style></defs><g transform="translate(-200 -1751)"><rect class="a" width="180" height="180" transform="translate(200 1751)"/><path class="b" d="M248.33,1925.378a15.166,15.166,0,0,1-11.179-4.652,15.448,15.448,0,0,1-4.409-10.936,15.216,15.216,0,0,1,4.205-10.824l53.259-62.261c6.821-7.8,10.4-14.556,10.4-19.6,0-6.725-1.586-11.842-4.85-15.642-3.03-3.526-7.168-5.241-12.65-5.241a17.489,17.489,0,0,0-9.588,2.744,19.531,19.531,0,0,0-7.012,7.6,21.945,21.945,0,0,0-2.592,10.538,15.571,15.571,0,0,1-26.6,10.822,15.056,15.056,0,0,1-4.576-10.822,50.986,50.986,0,0,1,6.624-25.735,48.833,48.833,0,0,1,18.081-18.183,50.466,50.466,0,0,1,25.662-6.637,49.7,49.7,0,0,1,25.078,6.248,43.043,43.043,0,0,1,17.012,17.969c3.872,7.536,5.835,16.4,5.835,26.338a42.4,42.4,0,0,1-5.509,20.041A96.221,96.221,0,0,1,312.8,1855.3L278.53,1894.2h39.36a15.5,15.5,0,0,1,11.2,4.576,15.531,15.531,0,0,1,0,22.022,15.5,15.5,0,0,1-11.2,4.578Z"/><path class="c" d="M285.978,1843l12.228-14.3c6.821-7.8,10.4-14.556,10.4-19.6,0-6.725-1.586-11.842-4.85-15.642-3.03-3.526-7.168-5.241-12.65-5.241a17.489,17.489,0,0,0-9.588,2.744,19.531,19.531,0,0,0-7.012,7.6,21.945,21.945,0,0,0-2.592,10.538,15.571,15.571,0,0,1-26.6,10.822,15.056,15.056,0,0,1-4.576-10.822,50.986,50.986,0,0,1,6.624-25.735,48.833,48.833,0,0,1,18.081-18.183,50.466,50.466,0,0,1,25.662-6.637,49.7,49.7,0,0,1,25.078,6.248,43.043,43.043,0,0,1,17.012,17.969c3.872,7.536,5.835,16.4,5.835,26.338a42.4,42.4,0,0,1-5.509,20.041,94.956,94.956,0,0,1-10.551,15.6"/><path class="c" d="M293.845,1877.9l-7.315,8.306h39.36a15.5,15.5,0,0,1,11.2,4.576,15.531,15.531,0,0,1,0,22.022,15.5,15.5,0,0,1-11.2,4.578H256.33a15.166,15.166,0,0,1-11.179-4.652,15.448,15.448,0,0,1-4.409-10.936,15.216,15.216,0,0,1,4.205-10.824"/><g class="d"><path class="i" d="M 259 1886 C 255.7596130371094 1886 252.6166687011719 1885.365600585938 249.6584777832031 1884.114379882813 C 246.8007049560547 1882.905639648438 244.2339324951172 1881.174926757813 242.0294799804688 1878.970581054688 C 239.8250274658203 1876.76611328125 238.0944061279297 1874.199340820313 236.8856506347656 1871.341552734375 C 235.6344299316406 1868.38330078125 235 1865.240356445313 235 1862 C 235 1858.759643554688 235.6344299316406 1855.61669921875 236.8856506347656 1852.658447265625 C 238.0944061279297 1849.800659179688 239.8250274658203 1847.23388671875 242.0294799804688 1845.029541015625 C 244.2339324951172 1842.825073242188 246.8007049560547 1841.094360351563 249.6584777832031 1839.885620117188 C 252.6166687011719 1838.634399414063 255.7596130371094 1838 259 1838 C 263.5733947753906 1838 268.0203247070313 1839.291381835938 271.8600463867188 1841.734497070313 C 275.5985412597656 1844.11328125 278.60498046875 1847.469604492188 280.5543212890625 1851.440673828125 L 280.8288879394531 1852 L 281.4519958496094 1852 L 332.9819946289063 1852 C 333.3007507324219 1852 333.6027221679688 1852.15380859375 333.7897644042969 1852.411499023438 L 340.3352661132813 1861.412109375 C 340.5918273925781 1861.76416015625 340.5918273925781 1862.23583984375 340.3359069824219 1862.587036132813 L 334.3202514648438 1870.85888671875 C 334.1297912597656 1871.120849609375 333.83447265625 1871.27099609375 333.510009765625 1871.27099609375 C 333.3130187988281 1871.27099609375 333.1216430664063 1871.212890625 332.9564819335938 1871.102905273438 L 329.6636657714844 1868.907958984375 C 329.1700744628906 1868.578369140625 328.5946044921875 1868.403930664063 328 1868.403930664063 C 327.4053955078125 1868.403930664063 326.8299255371094 1868.578369140625 326.3357238769531 1868.908325195313 L 322.5545043945313 1871.427856445313 C 322.3894653320313 1871.5380859375 322.1979675292969 1871.596069335938 322 1871.596069335938 C 321.8020324707031 1871.596069335938 321.6105346679688 1871.5380859375 321.4462280273438 1871.428344726563 L 317.6635131835938 1868.907836914063 C 317.1700744628906 1868.578369140625 316.5946044921875 1868.403930664063 316 1868.403930664063 C 315.4053955078125 1868.403930664063 314.8299255371094 1868.578369140625 314.3357238769531 1868.908325195313 L 310.5545043945313 1871.427856445313 C 310.3894653320313 1871.5380859375 310.1979675292969 1871.596069335938 310 1871.596069335938 C 309.8020324707031 1871.596069335938 309.6105346679688 1871.5380859375 309.4462280273438 1871.428344726563 L 305.6635131835938 1868.907836914063 C 305.1700744628906 1868.578369140625 304.5946044921875 1868.403930664063 304 1868.403930664063 C 303.4053955078125 1868.403930664063 302.8299255371094 1868.578369140625 302.3357238769531 1868.908325195313 L 298.5545043945313 1871.427856445313 C 298.3894653320313 1871.5380859375 298.1979675292969 1871.596069335938 298 1871.596069335938 C 297.8020324707031 1871.596069335938 297.6105346679688 1871.5380859375 297.4462280273438 1871.428344726563 L 293.6635131835938 1868.907836914063 C 293.1700744628906 1868.578369140625 292.5946044921875 1868.403930664063 292 1868.403930664063 C 291.4053955078125 1868.403930664063 290.8299255371094 1868.578369140625 290.3357238769531 1868.908325195313 L 285.9493713378906 1871.831787109375 C 285.7843017578125 1871.941772460938 285.5921325683594 1872 285.3940124511719 1872 L 281.4519958496094 1872 L 280.8288879394531 1872 L 280.5543212890625 1872.559326171875 C 278.60498046875 1876.530395507813 275.5985412597656 1879.88671875 271.8600463867188 1882.265502929688 C 268.0203247070313 1884.708618164063 263.5733947753906 1886 259 1886 Z"/><path class="j" d="M 259 1839 C 255.8941650390625 1839 252.8822937011719 1839.607788085938 250.0480346679688 1840.806640625 C 247.3094482421875 1841.964965820313 244.8495178222656 1843.623657226563 242.736572265625 1845.736572265625 C 240.6236572265625 1847.849487304688 238.9649963378906 1850.309448242188 237.806640625 1853.048095703125 C 236.6078491210938 1855.88232421875 236 1858.894165039063 236 1862 C 236 1865.105834960938 236.6078491210938 1868.11767578125 237.806640625 1870.951904296875 C 238.9649963378906 1873.690551757813 240.6236572265625 1876.150512695313 242.736572265625 1878.263427734375 C 244.8495178222656 1880.376342773438 247.3094482421875 1882.035034179688 250.0480346679688 1883.193359375 C 252.8822937011719 1884.392211914063 255.8941650390625 1885 259 1885 C 263.3829040527344 1885 267.6441955566406 1883.7626953125 271.3232116699219 1881.421752929688 C 274.9066162109375 1879.141723632813 277.7882690429688 1875.924682617188 279.6566467285156 1872.11865234375 L 280.2057800292969 1871 L 281.4519958496094 1871 L 285.394775390625 1870.999755859375 L 289.7804565429688 1868.07666015625 C 290.4395446777344 1867.636596679688 291.2070617675781 1867.404052734375 292 1867.404052734375 C 292.7929382324219 1867.404052734375 293.5604553222656 1867.636596679688 294.218017578125 1868.075561523438 L 298 1870.595703125 L 301.7804565429688 1868.07666015625 C 302.4395446777344 1867.636596679688 303.2070617675781 1867.404052734375 304 1867.404052734375 C 304.7929382324219 1867.404052734375 305.5604553222656 1867.636596679688 306.218017578125 1868.075561523438 L 310 1870.595703125 L 313.7804565429688 1868.07666015625 C 314.4395446777344 1867.636596679688 315.2070617675781 1867.404052734375 316 1867.404052734375 C 316.7929382324219 1867.404052734375 317.5604553222656 1867.636596679688 318.218017578125 1868.075561523438 L 322 1870.595703125 L 325.7804565429688 1868.07666015625 C 326.4395446777344 1867.636596679688 327.2070617675781 1867.404052734375 328 1867.404052734375 C 328.7929382324219 1867.404052734375 329.5604248046875 1867.636596679688 330.2183227539063 1868.075805664063 L 333.511474609375 1870.270751953125 L 339.5264892578125 1862.000244140625 L 332.9819946289063 1853 L 281.4519958496094 1853 L 280.2057800292969 1853 L 279.6566467285156 1851.88134765625 C 277.7882690429688 1848.075317382813 274.9066162109375 1844.858276367188 271.3232116699219 1842.578247070313 C 267.6441955566406 1840.2373046875 263.3829040527344 1839 259 1839 M 259 1837 C 268.8590087890625 1837 277.3819885253906 1842.708984375 281.4519958496094 1851 L 332.9819946289063 1851 C 333.6210021972656 1851 334.2229919433594 1851.306030273438 334.5989990234375 1851.823974609375 L 341.1440124511719 1860.823974609375 C 341.6549987792969 1861.525024414063 341.6549987792969 1862.474975585938 341.1440124511719 1863.176025390625 L 335.1289672851563 1871.447021484375 C 334.7386169433594 1871.984008789063 334.1293334960938 1872.27099609375 333.5099792480469 1872.27099609375 C 333.128173828125 1872.27099609375 332.7425537109375 1872.161987304688 332.4020080566406 1871.93505859375 L 329.1090087890625 1869.739990234375 C 328.7734985351563 1869.515991210938 328.3867492675781 1869.404052734375 328 1869.404052734375 C 327.6132507324219 1869.404052734375 327.2265014648438 1869.515991210938 326.8909912109375 1869.739990234375 L 323.1090087890625 1872.260009765625 C 322.7734985351563 1872.484008789063 322.3867492675781 1872.595947265625 322 1872.595947265625 C 321.6132507324219 1872.595947265625 321.2265014648438 1872.484008789063 320.8909912109375 1872.260009765625 L 317.1090087890625 1869.739990234375 C 316.7734985351563 1869.515991210938 316.3867492675781 1869.404052734375 316 1869.404052734375 C 315.6132507324219 1869.404052734375 315.2265014648438 1869.515991210938 314.8909912109375 1869.739990234375 L 311.1090087890625 1872.260009765625 C 310.7734985351563 1872.484008789063 310.3867492675781 1872.595947265625 310 1872.595947265625 C 309.6132507324219 1872.595947265625 309.2265014648438 1872.484008789063 308.8909912109375 1872.260009765625 L 305.1090087890625 1869.739990234375 C 304.7734985351563 1869.515991210938 304.3867492675781 1869.404052734375 304 1869.404052734375 C 303.6132507324219 1869.404052734375 303.2265014648438 1869.515991210938 302.8909912109375 1869.739990234375 L 299.1090087890625 1872.260009765625 C 298.7734985351563 1872.484008789063 298.3867492675781 1872.595947265625 298 1872.595947265625 C 297.6132507324219 1872.595947265625 297.2265014648438 1872.484008789063 296.8909912109375 1872.260009765625 L 293.1090087890625 1869.739990234375 C 292.7734985351563 1869.515991210938 292.3867492675781 1869.404052734375 292 1869.404052734375 C 291.6132507324219 1869.404052734375 291.2265014648438 1869.515991210938 290.8909912109375 1869.739990234375 L 286.5039978027344 1872.663940429688 C 286.1749877929688 1872.883056640625 285.7890014648438 1873 285.3940124511719 1873 L 281.4519958496094 1873 C 277.3819885253906 1881.291015625 268.8590087890625 1887 259 1887 C 245.1929931640625 1887 234 1875.807006835938 234 1862 C 234 1848.192993164063 245.1929931640625 1837 259 1837 Z"/></g><g class="e" transform="translate(242 1855)"><circle class="i" cx="7" cy="7" r="7"/><circle class="k" cx="7" cy="7" r="6"/></g><path class="e" d="M281,1872v-8a2,2,0,0,1,2-2h57"/><line class="f" x1="5.754" transform="translate(210 1862)"/><line class="f" x1="5" transform="translate(224 1862)"/><circle class="g" cx="4" cy="4" r="4" transform="translate(202 1858)"/><circle class="g" cx="4" cy="4" r="4" transform="translate(202 1843)"/><circle class="g" cx="4" cy="4" r="4" transform="translate(202 1828)"/><path class="h" d="M231,1852H221l-5-5h-5"/><path class="h" d="M228.145,1841H226l-9-9h-7"/><line class="h" x1="4.522" transform="translate(233.478 1841)"/><circle class="g" cx="4" cy="4" r="4" transform="translate(202 1873)"/><circle class="g" cx="4" cy="4" r="4" transform="translate(202 1888)"/><path class="h" d="M231,1872H221l-5,5h-5"/><path class="h" d="M238,1883H226l-9,9h-7"/><line class="f" x2="23" transform="translate(347 1862)"/><circle class="g" cx="4" cy="4" r="4" transform="translate(370 1858)"/><circle class="g" cx="4" cy="4" r="4" transform="translate(370 1843)"/><circle class="g" cx="4" cy="4" r="4" transform="translate(370 1828)"/><path class="h" d="M341,1852h18l5-5h5"/><line class="h" x1="5.5" y2="5.5" transform="translate(335.5 1842)"/><path class="h" d="M370,1832H351l-5,5"/><circle class="g" cx="4" cy="4" r="4" transform="translate(370 1873)"/><circle class="g" cx="4" cy="4" r="4" transform="translate(370 1888)"/><path class="h" d="M342,1872h17l5,5h5"/><path class="h" d="M357.234,1892H351l-15-15"/><line class="h" x1="6" transform="translate(364 1892)"/><path class="h" d="M365,1884h-9l-4.5-4.5"/><path class="h" d="M364,1840h-7l-4,4"/></g></svg>