<svg xmlns="http://www.w3.org/2000/svg" width="80" height="80" viewBox="0 0 80 80"><defs><style>.a,.g{fill:#5a5dff;}.a{opacity:0.08;}.b{fill:none;stroke:#5a5dff;}.b,.e{stroke-linecap:round;}.b,.c,.d{stroke-miterlimit:10;}.b,.d{stroke-width:2px;}.c,.d,.e{fill:#fff;}.d{stroke:#1d1040;}.e{stroke-linejoin:round;}.f,.g,.h{stroke:none;}.h{fill:#bd00ff;}</style></defs><g transform="translate(-419 -800)"><circle class="a" cx="36" cy="36" r="36" transform="translate(419 808)"/><path class="b" d="M447.353,804.684a35,35,0,1,1-2.559,61.214"/><path class="b" d="M428.428,841.487A35.4,35.4,0,0,1,428.512,830"/><g class="c"><path class="f" d="M 465.4670104980469 855.2020263671875 C 462.0454711914063 855.2020263671875 458.8666381835938 854.3373413085938 456.0187377929688 852.6320190429688 C 453.1851501464844 850.9359130859375 450.9218139648438 848.5855102539063 449.29150390625 845.6459350585938 C 447.6741943359375 842.7251586914063 446.85400390625 839.4725341796875 446.85400390625 835.97900390625 C 446.85400390625 832.5105590820313 447.6751708984375 829.2767333984375 449.2947387695313 826.3673706054688 C 450.92333984375 823.4501953125 453.1822814941406 821.1046142578125 456.0082092285156 819.3968505859375 C 458.8572692871094 817.6722412109375 462.0394592285156 816.7979736328125 465.4670104980469 816.7979736328125 C 467.8551330566406 816.7979736328125 469.9878234863281 817.1303100585938 471.8058471679688 817.7857055664063 C 473.6017761230469 818.4348754882813 475.4109191894531 819.4865112304688 477.1822509765625 820.9112548828125 L 477.1901550292969 820.9176025390625 L 477.1982421875 820.923828125 C 477.91259765625 821.474853515625 478.4315185546875 822.1187744140625 478.7406616210938 822.8377685546875 C 479.013427734375 823.494140625 479.14599609375 824.1808471679688 479.14599609375 824.93701171875 C 479.14599609375 826.3248291015625 478.5826721191406 827.5924072265625 477.5597839355469 828.5062866210938 C 476.6213073730469 829.3516235351563 475.462646484375 829.7969970703125 474.2059936523438 829.7969970703125 C 473.0041809082031 829.7969970703125 471.8603515625 829.3828735351563 470.8975830078125 828.5991821289063 C 469.9940795898438 827.8324584960938 469.1913146972656 827.3145751953125 468.4436340332031 827.0162353515625 C 467.9664306640625 826.8265380859375 467.0638732910156 826.6010131835938 465.4670104980469 826.6010131835938 C 463.9227600097656 826.6010131835938 462.5458679199219 826.9938354492188 461.2576293945313 827.8018798828125 C 459.9208984375 828.6375732421875 458.8844299316406 829.7516479492188 458.0902099609375 831.2069091796875 C 457.2873229980469 832.6777954101563 456.8970031738281 834.23876953125 456.8970031738281 835.97900390625 C 456.8970031738281 837.7440185546875 457.2854309082031 839.309326171875 458.08447265625 840.7643432617188 C 458.8778991699219 842.2092895507813 459.9152221679688 843.3193359375 461.2556762695313 844.1577758789063 C 462.5447692871094 844.9664916992188 463.9226684570313 845.3599853515625 465.4670104980469 845.3599853515625 C 467.4013061523438 845.3599853515625 469.2445678710938 844.6849365234375 471.1018981933594 843.2962646484375 C 472.1393737792969 842.5606689453125 473.16796875 842.2030029296875 474.2460021972656 842.2030029296875 C 475.5886840820313 842.2030029296875 476.8235778808594 842.73974609375 477.7232055664063 843.7142944335938 C 478.5756530761719 844.6365356445313 479.0260009765625 845.8364868164063 479.0260009765625 847.1849975585938 C 479.0260009765625 848.533935546875 478.4833068847656 849.8195190429688 477.4978942871094 850.804931640625 L 477.384765625 850.9180297851563 L 477.2614135742188 851.0174560546875 C 473.81689453125 853.7941284179688 469.8486938476563 855.2020263671875 465.4670104980469 855.2020263671875 Z"/><path class="g" d="M 465.4670104980469 854.2020263671875 C 469.6145324707031 854.2020263671875 473.3716125488281 852.86865234375 476.6338500976563 850.2388916015625 L 476.7154846191406 850.173095703125 L 476.790771484375 850.0978393554688 C 477.5873107910156 849.30126953125 478.0260009765625 848.2667846679688 478.0260009765625 847.1849975585938 C 478.0260009765625 846.0769653320313 477.6772155761719 845.1377563476563 476.9884338378906 844.392578125 C 476.2803039550781 843.62548828125 475.3063354492188 843.2030029296875 474.2460021972656 843.2030029296875 C 473.3736877441406 843.2030029296875 472.5611572265625 843.4896240234375 471.6905212402344 844.1047973632813 C 469.657470703125 845.6221923828125 467.6213989257813 846.3599853515625 465.4670104980469 846.3599853515625 C 463.7290649414063 846.3599853515625 462.1773071289063 845.91650390625 460.7253723144531 845.005615234375 C 459.2362976074219 844.0741577148438 458.0857238769531 842.8442993164063 457.2079467773438 841.2457275390625 C 456.3258056640625 839.639404296875 455.8970031738281 837.9166259765625 455.8970031738281 835.97900390625 C 455.8970031738281 834.0670776367188 456.3273010253906 832.3494262695313 457.2124328613281 830.7278442382813 C 458.0910949707031 829.1178588867188 459.2413024902344 827.8831787109375 460.7262573242188 826.9547119140625 C 462.178466796875 826.0438232421875 463.7291870117188 825.6010131835938 465.4670104980469 825.6010131835938 C 466.8760681152344 825.6010131835938 468.0014038085938 825.7643432617188 468.8142700195313 826.0874633789063 C 469.6617126464844 826.4255981445313 470.5523071289063 826.99560546875 471.536376953125 827.8297119140625 C 472.3171997070313 828.4625854492188 473.2399291992188 828.7969970703125 474.2059936523438 828.7969970703125 C 475.21142578125 828.7969970703125 476.138671875 828.4404907226563 476.8874206542969 827.7659912109375 L 476.8904724121094 827.7632446289063 L 476.8935241699219 827.7605590820313 C 477.7012023925781 827.0389404296875 478.14599609375 826.0361938476563 478.14599609375 824.93701171875 C 478.14599609375 824.3173828125 478.0392456054688 823.7581176757813 477.8196716308594 823.2274780273438 C 477.5781860351563 822.668701171875 477.1636657714844 822.1600952148438 476.5874633789063 821.7156372070313 L 476.5713500976563 821.7032470703125 L 476.5554809570313 821.6904296875 C 474.8704223632813 820.3350830078125 473.1577758789063 819.3377075195313 471.4667053222656 818.7264404296875 C 469.7577514648438 818.1103515625 467.7391662597656 817.7979736328125 465.4670104980469 817.7979736328125 C 462.2246704101563 817.7979736328125 459.2167053222656 818.6235961914063 456.525390625 820.2527465820313 C 453.8499450683594 821.8695678710938 451.7107849121094 824.0911865234375 450.1684875488281 826.853759765625 C 448.6326904296875 829.6126098632813 447.85400390625 832.6828002929688 447.85400390625 835.97900390625 C 447.85400390625 839.3010864257813 448.632080078125 842.3907470703125 450.1659851074219 845.1609497070313 C 451.7098388671875 847.9445190429688 453.8517456054688 850.16943359375 456.5325012207031 851.7741088867188 C 459.2229614257813 853.3851318359375 462.2289733886719 854.2020263671875 465.4670104980469 854.2020263671875 M 465.4670104980469 856.2020263671875 C 461.8630065917969 856.2020263671875 458.510986328125 855.2899780273438 455.5050048828125 853.489990234375 C 452.5180053710938 851.7020263671875 450.1329956054688 849.2249755859375 448.4169921875 846.1309814453125 C 446.7160034179688 843.0590209960938 445.85400390625 839.6439819335938 445.85400390625 835.97900390625 C 445.85400390625 832.3389892578125 446.7170104980469 828.9420166015625 448.4209899902344 825.8809814453125 C 450.135986328125 822.8090209960938 452.5140075683594 820.3400268554688 455.4909973144531 818.541015625 C 458.4960021972656 816.7219848632813 461.8529968261719 815.7979736328125 465.4670104980469 815.7979736328125 C 467.9739990234375 815.7979736328125 470.2200012207031 816.1510009765625 472.1449890136719 816.844970703125 C 474.0429992675781 817.531005859375 475.9490051269531 818.635986328125 477.8089904785156 820.1320190429688 C 478.6619873046875 820.7899780273438 479.2850036621094 821.5689697265625 479.6619873046875 822.448974609375 C 479.989013671875 823.2340087890625 480.14599609375 824.0579833984375 480.14599609375 824.93701171875 C 480.14599609375 826.6129760742188 479.4639892578125 828.14599609375 478.2260131835938 829.2520141601563 C 477.1069946289063 830.260009765625 475.7130126953125 830.7969970703125 474.2059936523438 830.7969970703125 C 472.7680053710938 830.7969970703125 471.4030151367188 830.302978515625 470.2579956054688 829.3679809570313 C 469.4259948730469 828.6610107421875 468.7120056152344 828.2000122070313 468.072998046875 827.9450073242188 C 467.7510070800781 827.8170166015625 466.9809875488281 827.6010131835938 465.4670104980469 827.6010131835938 C 464.1170043945313 827.6010131835938 462.9129943847656 827.9439697265625 461.7890014648438 828.6489868164063 C 460.5989990234375 829.3930053710938 459.6780090332031 830.385009765625 458.9679870605469 831.6859741210938 C 458.2479858398438 833.0050048828125 457.8970031738281 834.4089965820313 457.8970031738281 835.97900390625 C 457.8970031738281 837.572998046875 458.2460021972656 838.9810180664063 458.9609985351563 840.2830200195313 C 459.6709899902344 841.5759887695313 460.5950012207031 842.5650024414063 461.7860107421875 843.3099975585938 C 462.9129943847656 844.0170288085938 464.1170043945313 844.3599853515625 465.4670104980469 844.3599853515625 C 467.1809997558594 844.3599853515625 468.8309936523438 843.7479858398438 470.5130004882813 842.4879760742188 C 471.739013671875 841.6160278320313 472.9679870605469 841.2030029296875 474.2460021972656 841.2030029296875 C 475.8699951171875 841.2030029296875 477.3659973144531 841.85302734375 478.4580078125 843.0360107421875 C 479.4840087890625 844.14599609375 480.0260009765625 845.5819702148438 480.0260009765625 847.1849975585938 C 480.0260009765625 848.802001953125 479.3789978027344 850.3380126953125 478.2049865722656 851.5120239257813 L 478.0539855957031 851.6630249023438 L 477.8890075683594 851.7960205078125 C 474.2630004882813 854.718994140625 470.0840148925781 856.2020263671875 465.4670104980469 856.2020263671875 Z"/></g><path class="d" d="M445.519,812.927l-2.893-.949a8.864,8.864,0,0,0-.39-.94l1.342-2.684a.7.7,0,0,0-.132-.812l-1.988-1.988a.7.7,0,0,0-.812-.132l-2.684,1.342a8.871,8.871,0,0,0-.94-.39l-.949-2.893a.7.7,0,0,0-.667-.481h-2.812a.7.7,0,0,0-.667.481l-.949,2.893a8.871,8.871,0,0,0-.94.39l-2.684-1.342a.7.7,0,0,0-.812.132l-1.988,1.988a.7.7,0,0,0-.132.812l1.342,2.684a8.864,8.864,0,0,0-.39.94l-2.893.949a.7.7,0,0,0-.481.667v2.812a.7.7,0,0,0,.481.667l2.893.949a8.864,8.864,0,0,0,.39.94l-1.342,2.684a.7.7,0,0,0,.132.812l1.988,1.988a.7.7,0,0,0,.812.132l2.684-1.342a8.871,8.871,0,0,0,.94.39l.949,2.893a.7.7,0,0,0,.667.481h2.812a.7.7,0,0,0,.667-.481l.949-2.893a8.871,8.871,0,0,0,.94-.39l2.684,1.342a.7.7,0,0,0,.812-.132l1.988-1.988a.7.7,0,0,0,.132-.812l-1.342-2.684a8.864,8.864,0,0,0,.39-.94l2.893-.949a.7.7,0,0,0,.481-.667v-2.812A.7.7,0,0,0,445.519,812.927ZM434,818a3,3,0,1,1,3-3A3,3,0,0,1,434,818Z"/><g class="e"><path class="f" d="M 426.4792785644531 870.0000610351563 C 426.4791564941406 870.0000610351563 426.4790954589844 870.0000610351563 426.47900390625 870.0000610351563 C 424.5606689453125 869.9999389648438 423 868.5037841796875 423 866.6649780273438 L 423 849.3350219726563 C 423 847.4960327148438 424.5606994628906 845.9999389648438 426.4790649414063 845.9999389648438 C 427.102294921875 845.9999389648438 427.7196044921875 846.165771484375 428.2642211914063 846.4794921875 L 443.31494140625 855.1443481445313 C 444.3702087402344 855.7518310546875 445.000244140625 856.8193969726563 445.000244140625 858 C 445.000244140625 859.1806030273438 444.3702087402344 860.2481689453125 443.31494140625 860.8556518554688 L 428.2639465332031 869.5206298828125 C 427.7196044921875 869.834228515625 427.1023559570313 870.0000610351563 426.4792785644531 870.0000610351563 Z"/><path class="h" d="M 426.4790649414063 846.9999389648438 C 425.1889953613281 846.9998779296875 424 847.9699096679688 424 849.3350219726563 L 424 866.6649780273438 C 424 868.0299682617188 425.1891174316406 869.0000610351563 426.4790649414063 869.0000610351563 C 426.9100341796875 869.0000610351563 427.35205078125 868.8919067382813 427.7650146484375 868.6539916992188 L 442.8160095214844 859.989013671875 C 444.3949890136719 859.0800170898438 444.3949890136719 856.9199829101563 442.8160095214844 856.010986328125 L 427.7650146484375 847.3460083007813 C 427.3521423339844 847.108154296875 426.9099426269531 846.9999389648438 426.4790649414063 846.9999389648438 M 426.47900390625 844.9999389648438 C 426.4790344238281 844.9999389648438 426.4790649414063 844.9999389648438 426.4790649414063 844.9999389648438 C 427.27734375 844.9999389648438 428.0672302246094 845.2119750976563 428.7633972167969 845.613037109375 L 443.8138732910156 854.2777099609375 C 445.1828918457031 855.0658569335938 446.000244140625 856.4573364257813 446.000244140625 858 C 446.000244140625 859.5426635742188 445.1828918457031 860.9341430664063 443.8138427734375 861.7222900390625 L 428.7628784179688 870.3872680664063 C 428.0671691894531 870.7880859375 427.2772827148438 871.0000610351563 426.4790649414063 871.0000610351563 C 424.0093078613281 871.0000610351563 422 869.0553588867188 422 866.6649780273438 L 422 849.3350219726563 C 422 846.9446411132813 424.00927734375 844.9999389648438 426.47900390625 844.9999389648438 Z"/></g></g></svg>