<svg xmlns="http://www.w3.org/2000/svg" width="80" height="80" viewBox="0 0 80 80"><defs><style>.a{fill:red;opacity:0;}.b{fill:#5a5dff;opacity:0.08;}.c,.d,.f,.g{fill:none;}.c,.d{stroke:#1d1040;}.c,.f,.g{stroke-linecap:round;stroke-linejoin:round;}.c,.d,.e,.f,.g{stroke-width:2px;}.d,.e{stroke-miterlimit:10;}.e{fill:#fff;}.e,.f{stroke:#5a5dff;}.g{stroke:#bd00ff;}</style></defs><g transform="translate(-1190 -1775)"><rect class="a" width="80" height="80" transform="translate(1190 1775)"/><g transform="translate(1190 1775)"><path class="b" d="M65.615,72a13.838,13.838,0,0,1-2.153-.213c-3.729-.609-9.252-2.642-15.994-5.885a43.05,43.05,0,0,1-.578-6.953,27.055,27.055,0,0,0,5.1-10.056C59,48.07,59,41.937,59,36c0-3.529-2.152-6.617-6.231-8.953C52.119,23.658,49.16,15,36,15S19.881,23.658,19.231,27.047C15.152,29.383,13,32.471,13,36c0,5.937,0,12.07,7,12.893A27.055,27.055,0,0,0,25.11,58.949a43.05,43.05,0,0,1-.578,6.953c-6.742,3.243-12.265,5.276-15.994,5.885A13.838,13.838,0,0,1,6.385,72C1.334,72,0,76.578,0,79v1H72V79C72,76.578,70.666,72,65.615,72Z"/><path class="c" d="M34.114,50.794C33.936,61.208,32.146,63.1,28.744,65"/><path class="c" d="M59.256,65c-3.4-1.9-5.192-3.792-5.37-14.205"/><path class="d" d="M44,57c-4.211,0-16-8.167-16-23.683V21.067S28,8,44,8,60,21.067,60,21.067v12.25C60,48.833,48.211,57,44,57Z"/><path class="e" d="M58.348,40C50.7,40,48.783,32.615,44,32.615S37.3,40,29.652,40,22,34.462,22,28c0-8.308,13.391-12,22-12s22,3.692,22,12C66,34.462,66,40,58.348,40Z"/><path class="f" d="M26.343,29.638a6.831,6.831,0,0,1,.594-3.649C27.793,24.526,31,23,31,23"/><path class="c" d="M33.415,58.587C26.961,61.718,19.078,65,14.385,65,9,65,9,71,9,71H79s0-6-5.385-6c-4.693,0-12.576-3.282-19.03-6.413"/><path class="g" d="M9,13V3a2,2,0,0,1,2-2H21"/><path class="g" d="M21,55H11a2,2,0,0,1-2-2V43"/><line class="g" x2="2" transform="translate(15 7)"/><line class="g" x2="3" transform="translate(21 7)"/><line class="g" x2="2" transform="translate(15 49)"/><line class="g" x2="5" transform="translate(15 13)"/><path class="g" d="M79,13V3a2,2,0,0,0-2-2H67"/><path class="g" d="M67,55H77a2,2,0,0,0,2-2V43"/><line class="g" x1="2" transform="translate(71 7)"/><line class="g" x1="6" transform="translate(61 7)"/><line class="g" x1="2" transform="translate(71 49)"/><line class="g" x1="5" transform="translate(68 43)"/></g></g></svg>