<svg xmlns="http://www.w3.org/2000/svg" width="80" height="80" viewBox="0 0 80 80"><defs><style>.a{fill:red;opacity:0;}.b,.g{fill:#5a5dff;}.b{opacity:0.08;}.c,.d,.e,.f,.i{fill:none;}.c,.d{stroke:#5a5dff;}.c,.d,.e,.f{stroke-miterlimit:10;}.c{stroke-width:1.916px;}.d,.e,.f{stroke-width:2px;}.e{stroke:#1d1040;}.f{stroke:#bd00ff;}.h{stroke:none;}</style></defs><g transform="translate(-548 -2003)"><rect class="a" width="80" height="80" transform="translate(548 2003)"/><g transform="translate(548 2003)"><path class="b" d="M33.325,18.6c1.786-2.2,3.366-5.087,3.366-7.509A4.37,4.37,0,0,0,34.8,7.367,10,10,0,0,0,29,6a10,10,0,0,0-5.8,1.367A4.37,4.37,0,0,0,21.309,11.1c0,2.422,1.58,5.311,3.366,7.509C10.717,22.487,0,44.295,0,59,0,72.936,9.757,80,29,80s29-7.064,29-21C58,44.295,47.283,22.487,33.325,18.6Z"/><path class="c" d="M34.492,12.141C30.874,8.647,26.2,1,37,1c10.742,0,6.177,7.563,2.568,11.083"/><path class="d" d="M42.693,71.771C40.855,71.928,38.951,72,37,72,21.536,72,9,67.464,9,52S21.536,12,37,12c7.065,0,13.52,5.122,18.446,12.16"/><g class="e" transform="translate(40 23)"><rect class="h" width="40" height="50" rx="4.086"/><rect class="i" x="1" y="1" width="38" height="48" rx="3.086"/></g><line class="d" x2="8" transform="translate(48 47)"/><line class="d" y2="8" transform="translate(52 43)"/><line class="f" x2="8" transform="translate(48 61)"/><g class="e" transform="translate(60 41)"><rect class="h" width="14" height="26" rx="2"/><rect class="i" x="1" y="1" width="12" height="24" rx="1"/></g><line class="e" x2="6" transform="translate(64 56)"/><line class="e" x2="6" transform="translate(64 52)"/><path class="g" d="M29,43c-2.206,0-4-1.346-4-3s1.794-3,4-3,4,1.346,4,3h2c0-2.472-2.168-4.516-5-4.916V33H28v2.084c-2.832.4-5,2.444-5,4.916,0,2.758,2.691,5,6,5,2.206,0,4,1.346,4,3s-1.794,3-4,3-4-1.346-4-3H23c0,2.472,2.168,4.516,5,4.916V55h2V52.916c2.832-.4,5-2.444,5-4.916C35,45.242,32.309,43,29,43Z"/><g class="e" transform="translate(40 23)"><rect class="h" width="40" height="14" rx="4.086"/><rect class="i" x="1" y="1" width="38" height="12" rx="3.086"/></g></g></g></svg>