<svg xmlns="http://www.w3.org/2000/svg" width="24" height="24" viewBox="0 0 24 24"><defs><style>.a{fill:none;}.b{fill:#fff;}</style></defs><g transform="translate(-1353 -48)"><rect class="a" width="24" height="24" transform="translate(1353 48)"/><g transform="translate(1352 75)"><path class="b" d="M17-25H9a3,3,0,0,0-3,3V-8A3,3,0,0,0,9-5h8a3,3,0,0,0,3-3V-22A3,3,0,0,0,17-25ZM18-8a1,1,0,0,1-1,1H9A1,1,0,0,1,8-8V-22a1,1,0,0,1,1-1h2a1,1,0,0,0,1,1h2a1,1,0,0,0,1-1h2a1,1,0,0,1,1,1Z"/><path class="b" d="M14.5-9h-3a.5.5,0,0,0-.5.5.5.5,0,0,0,.5.5h3a.5.5,0,0,0,.5-.5A.5.5,0,0,0,14.5-9Z"/></g></g></svg>