<svg xmlns="http://www.w3.org/2000/svg" width="24" height="24" viewBox="0 0 83.924 24"><defs><style>.a{fill:#ffffff;}</style></defs><g transform="translate(0 0)"><path class="a" d="M397.758,214.552l-1.494-2.023a1.1,1.1,0,0,1-.161-1,2.836,2.836,0,0,0,.143-.832,1.091,1.091,0,0,1,.466-.863l.478-.339a1.733,1.733,0,0,1,1.536-.218,2.821,2.821,0,1,0-1.96-2.525,1.708,1.708,0,0,1-.71,1.5l-.015.011a.971.971,0,0,1-1.09.01,2.824,2.824,0,0,0-2.007-.405,1,1,0,0,1-.845-.232l-2.022-1.813a1.7,1.7,0,0,1-.548-1.48,2.821,2.821,0,1,0-2.062,2.368,1.655,1.655,0,0,1,1.527.386l1.291,1.157a1.523,1.523,0,0,1,.448,1.573,2.845,2.845,0,0,0-.115.616,1.57,1.57,0,0,1-.857,1.312l-3.649,1.792a1.69,1.69,0,0,1-1.611-.044,2.821,2.821,0,1,0,1.338,2.829,1.666,1.666,0,0,1,.923-1.242l4.47-2.2a.556.556,0,0,1,.567.052l.026.018a.56.56,0,0,1,.243.551l-.69,4.092a3.209,3.209,0,0,1-1.615,2.272,2.821,2.821,0,1,0,3.8,1.045,4.647,4.647,0,0,1-.525-3.12l.655-3.884a.706.706,0,0,1,.5-.561l.009,0a.727.727,0,0,1,.787.267l1.264,1.712a1.7,1.7,0,0,1,.226,1.65,2.821,2.821,0,1,0,2.626-1.74A1.691,1.691,0,0,1,397.758,214.552Z" transform="translate(-380.229 -201.162)"/></g></svg>