<svg xmlns="http://www.w3.org/2000/svg" xmlns:xlink="http://www.w3.org/1999/xlink" width="473.785" height="502" viewBox="0 0 473.785 502"><defs><style>.a{fill:url(#a);}</style><linearGradient id="a" x1="0.5" x2="0.5" y2="1" gradientUnits="objectBoundingBox"><stop offset="0" stop-color="#00b2ff"/><stop offset="1" stop-color="#bd00ff"/></linearGradient></defs><g transform="translate(66 66)"><path class="a" d="M650.47,407.585,627.44,376.4a17.017,17.017,0,0,1-2.486-15.465,43.737,43.737,0,0,0,2.2-12.829,16.82,16.82,0,0,1,7.18-13.312l7.369-5.221a26.724,26.724,0,0,1,23.68-3.355,43.488,43.488,0,1,0-30.214-38.927,26.326,26.326,0,0,1-10.942,23.09l-.235.167a14.976,14.976,0,0,1-16.809.15,43.529,43.529,0,0,0-30.933-6.247,15.443,15.443,0,0,1-13.03-3.573l-31.177-27.955a26.184,26.184,0,0,1-8.447-22.825A43.491,43.491,0,1,0,491.811,286.6a25.508,25.508,0,0,1,23.534,5.948l19.9,17.844a23.477,23.477,0,0,1,6.9,24.25,43.858,43.858,0,0,0-1.772,9.5,24.2,24.2,0,0,1-13.209,20.227l-56.257,27.626a26.056,26.056,0,0,1-24.831-.685,43.485,43.485,0,1,0,20.633,43.608,25.681,25.681,0,0,1,14.232-19.149l68.911-33.843a8.575,8.575,0,0,1,8.742.8c.128.094.261.188.393.278a8.626,8.626,0,0,1,3.744,8.5L552.1,454.591a49.477,49.477,0,0,1-24.891,35.033,43.483,43.483,0,1,0,58.606,16.107c-8.447-14.434-10.881-31.614-8.1-48.106l10.1-59.881a10.885,10.885,0,0,1,7.711-8.653l.137-.043a11.215,11.215,0,0,1,12.135,4.112l19.487,26.394A26.18,26.18,0,0,1,630.773,445a43.483,43.483,0,1,0,40.485-26.826A26.063,26.063,0,0,1,650.47,407.585Z" transform="translate(-380.229 -201.162)"/></g></svg>