<svg xmlns="http://www.w3.org/2000/svg" width="553.112" height="517.767" viewBox="0 0 553.112 517.767"><defs><style>.a,.g,.h{fill:#5a5dff;}.b{opacity:0.15;}.c{fill:#fff;stroke:#5a5dff;stroke-miterlimit:10;stroke-width:2px;}.d{fill:#1d1040;font-size:12px;}.d,.f,.g,.h{font-family:OpenSans-Bold, Open Sans;font-weight:700;}.e{font-size:10px;}.f{fill:#1e1f73;}.f,.h{font-size:14px;}.g{font-size:51px;}</style></defs><g transform="translate(-216 632)"><path class="a" d="M457-610l.414,53.375.238,53.375.2,106.75-.2,106.75-.238,53.375L457-183h-.3l-.415-53.375-.238-53.375-.2-106.75.2-106.75.238-53.375L456.7-610Z"/><path class="a" d="M512.15-610l.414,53.375.237,53.375L513-396.5l-.2,106.75-.238,53.375L512.15-183h-.3l-.416-53.375L511.2-289.75,511-396.5l.2-106.75.238-53.375L511.85-610Z"/><path class="a" d="M400.538-610l.414,53.375.238,53.375.2,106.75-.2,106.75-.238,53.375L400.538-183h-.3l-.416-53.375-.238-53.375-.2-106.75.2-106.75.237-53.375L400.238-610Z"/><path class="a" d="M342.762-610l.414,53.375.238,53.375.2,106.75-.2,106.75-.238,53.375L342.762-183h-.3l-.415-53.375-.238-53.375-.2-106.75.2-106.75.238-53.375L342.462-610Z"/><path class="a" d="M287.613-610l.414,53.375.238,53.375.2,106.75-.2,106.75-.238,53.375L287.613-183h-.3l-.416-53.375-.238-53.375-.2-106.75.2-106.75.238-53.375L287.313-610Z"/><path class="a" d="M231.15-524l.415,31.875.237,31.875.2,63.75-.2,63.75-.237,31.875L231.15-269h-.3l-.416-31.875-.237-31.875L230-396.5l.2-63.75.236-31.875L230.85-524Z"/><path class="a" d="M737.538-524l.415,31.875.237,31.875.2,63.75-.2,63.75-.237,31.875L737.538-269h-.3l-.416-31.875-.237-31.875-.2-63.75.2-63.75.237-31.875L737.238-524Z"/><path class="a" d="M679.762-529l.415,43.25.237,43.25.2,86.5-.2,86.5-.237,43.25L679.762-183h-.3l-.416-43.25-.237-43.25-.2-86.5.2-86.5.237-43.25.415-43.25Z"/><path class="a" d="M624.613-610l.414,53.375.238,53.375.2,106.75-.2,106.75-.238,53.375L624.613-183h-.3l-.416-53.375-.238-53.375-.2-106.75.2-106.75.238-53.375L624.313-610Z"/><path class="a" d="M568.15-610l.414,53.375.237,53.375L569-396.5l-.2,106.75-.238,53.375L568.15-183h-.3l-.416-53.375L567.2-289.75,567-396.5l.2-106.75.238-53.375L567.85-610Z"/><g class="b"><path class="a" d="M457.851-610c2.363,35.583,3.541,71.167,4.443,106.75q1.246,53.375,1.222,106.75.008,53.375-1.213,106.75c-.9,35.584-2.081,71.167-4.452,106.75h-2c-2.372-35.583-3.554-71.166-4.453-106.75q-1.247-53.375-1.213-106.75.006-53.375,1.222-106.75c.9-35.583,2.08-71.167,4.444-106.75Z"/><path class="a" d="M513-610c2.364,35.583,3.541,71.167,4.444,106.75q1.247,53.375,1.222,106.75.006,53.375-1.214,106.75c-.9,35.584-2.081,71.167-4.452,106.75h-2c-2.371-35.583-3.553-71.166-4.453-106.75q-1.245-53.375-1.213-106.75.007-53.375,1.222-106.75c.9-35.583,2.08-71.167,4.444-106.75Z"/><path class="a" d="M401.388-610c2.363,35.583,3.541,71.167,4.444,106.75q1.246,53.375,1.222,106.75.006,53.375-1.214,106.75c-.9,35.584-2.081,71.167-4.452,106.75h-2c-2.371-35.583-3.554-71.166-4.452-106.75q-1.248-53.375-1.214-106.75.008-53.375,1.222-106.75c.9-35.583,2.08-71.167,4.444-106.75Z"/><path class="a" d="M343.612-610c2.364,35.583,3.541,71.167,4.444,106.75q1.246,53.375,1.222,106.75.006,53.375-1.214,106.75c-.9,35.584-2.081,71.167-4.452,106.75h-2c-2.371-35.583-3.553-71.166-4.452-106.75q-1.246-53.375-1.214-106.75.007-53.375,1.222-106.75c.9-35.583,2.081-71.167,4.444-106.75Z"/><path class="a" d="M288.462-610c2.364,35.583,3.542,71.167,4.444,106.75q1.248,53.375,1.222,106.75.006,53.375-1.213,106.75c-.9,35.584-2.082,71.167-4.453,106.75h-2c-2.371-35.583-3.553-71.166-4.452-106.75q-1.247-53.375-1.213-106.75.006-53.375,1.222-106.75c.9-35.583,2.08-71.167,4.443-106.75Z"/><path class="a" d="M232-526c2.348,21.583,3.566,43.166,4.444,64.75q1.246,32.375,1.222,64.75.006,32.375-1.214,64.75c-.875,21.583-2.1,43.166-4.452,64.75h-2c-2.357-21.584-3.577-43.167-4.452-64.75q-1.247-32.376-1.214-64.75.008-32.376,1.222-64.75c.878-21.584,2.1-43.167,4.444-64.75Z"/><path class="a" d="M738.388-526c2.348,21.583,3.566,43.166,4.444,64.75q1.247,32.375,1.222,64.75.006,32.375-1.214,64.75c-.875,21.583-2.1,43.166-4.452,64.75h-2c-2.357-21.584-3.577-43.167-4.452-64.75q-1.248-32.376-1.214-64.75.008-32.376,1.222-64.75c.877-21.584,2.1-43.167,4.444-64.75Z"/><path class="a" d="M680.612-529c2.348,28.834,3.567,57.667,4.444,86.5q1.246,43.251,1.222,86.5.006,43.251-1.214,86.5c-.875,28.833-2.1,57.666-4.452,86.5h-2c-2.357-28.834-3.577-57.667-4.452-86.5q-1.246-43.251-1.214-86.5.008-43.25,1.222-86.5c.878-28.833,2.1-57.666,4.444-86.5Z"/><path class="a" d="M625.462-610c2.364,35.583,3.542,71.167,4.444,106.75q1.248,53.375,1.222,106.75.006,53.375-1.213,106.75c-.9,35.584-2.082,71.167-4.453,106.75h-2c-2.371-35.583-3.553-71.166-4.452-106.75q-1.246-53.375-1.213-106.75.006-53.375,1.222-106.75c.9-35.583,2.08-71.167,4.443-106.75Z"/><path class="a" d="M569-610c2.364,35.583,3.541,71.167,4.444,106.75q1.247,53.375,1.222,106.75.006,53.375-1.214,106.75c-.9,35.584-2.081,71.167-4.452,106.75h-2c-2.371-35.583-3.553-71.166-4.452-106.75q-1.246-53.375-1.214-106.75.008-53.375,1.222-106.75c.9-35.583,2.08-71.167,4.444-106.75Z"/></g><path class="c" d="M359-514v7a4,4,0,0,1-4,4H333a4,4,0,0,1-4-4v-34a4,4,0,0,1,4-4h16.343a4,4,0,0,1,2.829,1.172l5.656,5.656A4,4,0,0,1,359-535.343V-533"/><text class="d" transform="translate(363.112 -518.895)"><tspan x="-23.074" y="0">3GP</tspan></text><path class="c" d="M751-516v7a4,4,0,0,1-4,4H725a4,4,0,0,1-4-4v-34a4,4,0,0,1,4-4h16.343a4,4,0,0,1,2.829,1.172l5.656,5.656A4,4,0,0,1,751-537.343V-535"/><text class="d" transform="translate(755.112 -520.895)"><tspan x="-20.197" y="0">JPG</tspan></text><path class="c" d="M303-345v7a4,4,0,0,1-4,4H277a4,4,0,0,1-4-4v-34a4,4,0,0,1,4-4h16.343a4,4,0,0,1,2.829,1.172l5.656,5.656A4,4,0,0,1,303-366.343V-364"/><text class="d" transform="translate(307.112 -349.895)"><tspan x="-22.775" y="0">AC3</tspan></text><path class="c" d="M247-345v7a4,4,0,0,1-4,4H221a4,4,0,0,1-4-4v-34a4,4,0,0,1,4-4h16.343a4,4,0,0,1,2.829,1.172l5.656,5.656A4,4,0,0,1,247-366.343V-364"/><text class="d" transform="translate(251.112 -349.895)"><tspan x="-22.184" y="0">VP8</tspan></text><path class="c" d="M359-345v7a4,4,0,0,1-4,4H333a4,4,0,0,1-4-4v-34a4,4,0,0,1,4-4h16.343a4,4,0,0,1,2.829,1.172l5.656,5.656A4,4,0,0,1,359-366.343V-364"/><text class="d" transform="translate(363.112 -349.895)"><tspan x="-26.156" y="0">VC-3</tspan></text><path class="c" d="M695-431v7a4,4,0,0,1-4,4H669a4,4,0,0,1-4-4v-34a4,4,0,0,1,4-4h16.343a4,4,0,0,1,2.829,1.172l5.656,5.656A4,4,0,0,1,695-452.343V-450"/><text class="d" transform="translate(699.112 -435.895)"><tspan x="-22.184" y="0">VP9</tspan></text><path class="c" d="M751-431v7a4,4,0,0,1-4,4H725a4,4,0,0,1-4-4v-34a4,4,0,0,1,4-4h16.343a4,4,0,0,1,2.829,1.172l5.656,5.656A4,4,0,0,1,751-452.343V-450"/><text class="d" transform="translate(755.112 -435.895)"><tspan x="-18.791" y="0">J2K</tspan></text><path class="c" d="M583-516v7a4,4,0,0,1-4,4H557a4,4,0,0,1-4-4v-34a4,4,0,0,1,4-4h16.343a4,4,0,0,1,2.829,1.172l5.656,5.656A4,4,0,0,1,583-537.343V-535"/><text class="d" transform="translate(586.112 -520.895)"><tspan x="-26.08" y="0">DOC</tspan></text><path class="c" d="M639-516v7a4,4,0,0,1-4,4H613a4,4,0,0,1-4-4v-34a4,4,0,0,1,4-4h16.343a4,4,0,0,1,2.829,1.172l5.656,5.656A4,4,0,0,1,639-537.343V-535"/><text class="d" transform="translate(642.112 -520.895)"><tspan x="-23.004" y="0">PDF</tspan></text><path class="c" d="M695-516v7a4,4,0,0,1-4,4H669a4,4,0,0,1-4-4v-34a4,4,0,0,1,4-4h16.343a4,4,0,0,1,2.829,1.172l5.656,5.656A4,4,0,0,1,695-537.343V-535"/><text class="d" transform="translate(698.112 -520.895)"><tspan x="-22.02" y="0">PPT</tspan></text><path class="c" d="M695-344v7a4,4,0,0,1-4,4H669a4,4,0,0,1-4-4v-34a4,4,0,0,1,4-4h16.343a4,4,0,0,1,2.829,1.172l5.656,5.656A4,4,0,0,1,695-365.343V-363"/><text class="d" transform="translate(705.112 -348.895)"><tspan x="-33.357" y="0">E-AC3</tspan></text><path class="c" d="M415-259v7a4,4,0,0,1-4,4H389a4,4,0,0,1-4-4v-34a4,4,0,0,1,4-4h16.343a4,4,0,0,1,2.829,1.172l5.656,5.656A4,4,0,0,1,415-280.343V-278"/><text class="d" transform="translate(425.112 -263.895)"><tspan x="-33.152" y="0">H.265</tspan></text><path class="c" d="M359-259v7a4,4,0,0,1-4,4H333a4,4,0,0,1-4-4v-34a4,4,0,0,1,4-4h16.343a4,4,0,0,1,2.829,1.172l5.656,5.656A4,4,0,0,1,359-280.343V-278"/><text class="d" transform="translate(369.112 -263.895)"><tspan x="-33.152" y="0">H.264</tspan></text><path class="c" d="M247-259v7a4,4,0,0,1-4,4H221a4,4,0,0,1-4-4v-34a4,4,0,0,1,4-4h16.343a4,4,0,0,1,2.829,1.172l5.656,5.656A4,4,0,0,1,247-280.343V-278"/><text class="d" transform="translate(257.112 -263.895)"><tspan x="-30.996" y="0">Opus</tspan></text><path class="c" d="M303-259v7a4,4,0,0,1-4,4H277a4,4,0,0,1-4-4v-34a4,4,0,0,1,4-4h16.343a4,4,0,0,1,2.829,1.172l5.656,5.656A4,4,0,0,1,303-280.343V-278"/><text class="d" transform="translate(313.112 -263.895)"><tspan x="-24.205" y="0">AAC</tspan></text><path class="c" d="M639-431v7a4,4,0,0,1-4,4H613a4,4,0,0,1-4-4v-34a4,4,0,0,1,4-4h16.343a4,4,0,0,1,2.829,1.172l5.656,5.656A4,4,0,0,1,639-452.343V-450"/><text class="d" transform="translate(651.112 -435.895)"><tspan x="-33.275" y="0">LPCM</tspan></text><path class="c" d="M527-257v7a4,4,0,0,1-4,4H501a4,4,0,0,1-4-4v-34a4,4,0,0,1,4-4h16.343a4,4,0,0,1,2.829,1.172l5.656,5.656A4,4,0,0,1,527-278.343V-276"/><text class="d" transform="translate(547.112 -261.895)"><tspan x="-44.367" y="0">DTS-HD</tspan></text><path class="c" d="M751-339a4,4,0,0,1-4,4H725a4,4,0,0,1-4-4v-34a4,4,0,0,1,4-4h16.343a4,4,0,0,1,2.829,1.172l5.656,5.656A4,4,0,0,1,751-367.343"/><text class="d" transform="translate(749.112 -353.895)"><tspan x="-19.638" y="0">Object</tspan><tspan class="e"><tspan x="-14.788" y="10">based</tspan></tspan></text><path class="c" d="M639-344v7a4,4,0,0,1-4,4H613a4,4,0,0,1-4-4v-34a4,4,0,0,1,4-4h16.343a4,4,0,0,1,2.829,1.172l5.656,5.656A4,4,0,0,1,639-365.343V-363"/><text class="d" transform="translate(659.112 -348.895)"><tspan x="-37.898" y="0">Vorbis</tspan></text><path class="c" d="M639-259v7a4,4,0,0,1-4,4H613a4,4,0,0,1-4-4v-34a4,4,0,0,1,4-4h16.343a4,4,0,0,1,2.829,1.172l5.656,5.656A4,4,0,0,1,639-280.343V-278"/><text class="d" transform="translate(643.112 -263.895)"><tspan x="-13.559" y="0">TS</tspan></text><path class="c" d="M583-259v7a4,4,0,0,1-4,4H557a4,4,0,0,1-4-4v-34a4,4,0,0,1,4-4h16.343a4,4,0,0,1,2.829,1.172l5.656,5.656A4,4,0,0,1,583-280.343V-278"/><text class="d" transform="translate(587.112 -263.895)"><tspan x="-25.904" y="0">MXF</tspan></text><path class="c" d="M415-514v7a4,4,0,0,1-4,4H389a4,4,0,0,1-4-4v-34a4,4,0,0,1,4-4h16.343a4,4,0,0,1,2.829,1.172l5.656,5.656A4,4,0,0,1,415-535.343V-533"/><text class="d" transform="translate(419.112 -518.895)"><tspan x="-26.443" y="0">M4A</tspan></text><path class="c" d="M247-514v7a4,4,0,0,1-4,4H221a4,4,0,0,1-4-4v-34a4,4,0,0,1,4-4h16.343a4,4,0,0,1,2.829,1.172l5.656,5.656A4,4,0,0,1,247-535.343V-533"/><text class="d" transform="translate(251.112 -518.895)"><tspan x="-25.699" y="0">M2P</tspan></text><path class="c" d="M303-514v7a4,4,0,0,1-4,4H277a4,4,0,0,1-4-4v-34a4,4,0,0,1,4-4h16.343a4,4,0,0,1,2.829,1.172l5.656,5.656A4,4,0,0,1,303-535.343V-533"/><text class="d" transform="translate(307.112 -518.895)"><tspan x="-26.93" y="0">OGG</tspan></text><path class="c" d="M695-259v7a4,4,0,0,1-4,4H669a4,4,0,0,1-4-4v-34a4,4,0,0,1,4-4h16.343a4,4,0,0,1,2.829,1.172l5.656,5.656A4,4,0,0,1,695-280.343V-278"/><text class="d" transform="translate(699.112 -263.895)"><tspan x="-25.699" y="0">MP4</tspan></text><path class="c" d="M751-259v7a4,4,0,0,1-4,4H725a4,4,0,0,1-4-4v-34a4,4,0,0,1,4-4h16.343a4,4,0,0,1,2.829,1.172l5.656,5.656A4,4,0,0,1,751-280.343V-278"/><text class="d" transform="translate(755.112 -263.895)"><tspan x="-25.963" y="0">M4V</tspan></text><path class="c" d="M527-516v7a4,4,0,0,1-4,4H501a4,4,0,0,1-4-4v-34a4,4,0,0,1,4-4h16.343a4,4,0,0,1,2.829,1.172l5.656,5.656A4,4,0,0,1,527-537.343V-535"/><text class="d" transform="translate(531.112 -520.895)"><tspan x="-27.082" y="0">MKV</tspan></text><path class="c" d="M359-431v7a4,4,0,0,1-4,4H333a4,4,0,0,1-4-4v-34a4,4,0,0,1,4-4h16.343a4,4,0,0,1,2.829,1.172l5.656,5.656A4,4,0,0,1,359-452.343V-450"/><text class="d" transform="translate(363.112 -435.895)"><tspan x="-28.664" y="0">MOV</tspan></text><path class="c" d="M303-431v7a4,4,0,0,1-4,4H277a4,4,0,0,1-4-4v-34a4,4,0,0,1,4-4h16.343a4,4,0,0,1,2.829,1.172l5.656,5.656A4,4,0,0,1,303-452.343V-450"/><text class="d" transform="translate(310.112 -435.895)"><tspan x="-30.715" y="0">WMV</tspan></text><path class="c" d="M471-259v7a4,4,0,0,1-4,4H445a4,4,0,0,1-4-4v-34a4,4,0,0,1,4-4h16.343a4,4,0,0,1,2.829,1.172l5.656,5.656A4,4,0,0,1,471-280.343V-278"/><text class="d" transform="translate(475.112 -263.895)"><tspan x="-20.051" y="0">AVI</tspan></text><path class="c" d="M303-600v7a4,4,0,0,1-4,4H277a4,4,0,0,1-4-4v-34a4,4,0,0,1,4-4h16.343a4,4,0,0,1,2.829,1.172l5.656,5.656A4,4,0,0,1,303-621.343V-619"/><text class="d" transform="translate(307.112 -604.895)"><tspan x="-25.412" y="0">VOB</tspan></text><path class="c" d="M527-600v7a4,4,0,0,1-4,4H501a4,4,0,0,1-4-4v-34a4,4,0,0,1,4-4h16.343a4,4,0,0,1,2.829,1.172l5.656,5.656A4,4,0,0,1,527-621.343V-619"/><text class="d" transform="translate(531.112 -604.895)"><tspan x="-25.98" y="0">PNG</tspan></text><path class="c" d="M583-600v7a4,4,0,0,1-4,4H557a4,4,0,0,1-4-4v-34a4,4,0,0,1,4-4h16.343a4,4,0,0,1,2.829,1.172l5.656,5.656A4,4,0,0,1,583-621.343V-619"/><text class="d" transform="translate(595.112 -604.895)"><tspan x="-29.291" y="0">FLAC</tspan></text><path class="c" d="M639-600v7a4,4,0,0,1-4,4H613a4,4,0,0,1-4-4v-34a4,4,0,0,1,4-4h16.343a4,4,0,0,1,2.829,1.172l5.656,5.656A4,4,0,0,1,639-621.343V-619"/><text class="d" transform="translate(663.112 -604.895)"><tspan x="-48.727" y="0">TRUEHD</tspan></text><path class="c" d="M471-600v7a4,4,0,0,1-4,4H445a4,4,0,0,1-4-4v-34a4,4,0,0,1,4-4h16.343a4,4,0,0,1,2.829,1.172l5.656,5.656A4,4,0,0,1,471-621.343V-619"/><text class="d" transform="translate(479.112 -604.895)"><tspan x="-31.195" y="0">WMA</tspan></text><path class="c" d="M359-600v7a4,4,0,0,1-4,4H333a4,4,0,0,1-4-4v-34a4,4,0,0,1,4-4h16.343a4,4,0,0,1,2.829,1.172l5.656,5.656A4,4,0,0,1,359-621.343V-619"/><text class="d" transform="translate(363.112 -604.895)"><tspan x="-24.873" y="0">MTS</tspan></text><path class="c" d="M415-600v7a4,4,0,0,1-4,4H389a4,4,0,0,1-4-4v-34a4,4,0,0,1,4-4h16.343a4,4,0,0,1,2.829,1.172l5.656,5.656A4,4,0,0,1,415-621.343V-619"/><text class="d" transform="translate(419.112 -604.895)"><tspan x="-21.164" y="0">FLV</tspan></text><path class="c" d="M415-173v7a4,4,0,0,1-4,4H389a4,4,0,0,1-4-4v-34a4,4,0,0,1,4-4h16.343a4,4,0,0,1,2.829,1.172l5.656,5.656A4,4,0,0,1,415-194.343V-192"/><text class="d" transform="translate(419.112 -177.895)"><tspan x="-24.094" y="0">TIFF</tspan></text><path class="c" d="M471-173v7a4,4,0,0,1-4,4H445a4,4,0,0,1-4-4v-34a4,4,0,0,1,4-4h16.343a4,4,0,0,1,2.829,1.172l5.656,5.656A4,4,0,0,1,471-194.343V-192"/><text class="d" transform="translate(475.112 -177.895)"><tspan x="-22.928" y="0">AV1</tspan></text><path class="c" d="M303-173v7a4,4,0,0,1-4,4H277a4,4,0,0,1-4-4v-34a4,4,0,0,1,4-4h16.343a4,4,0,0,1,2.829,1.172l5.656,5.656A4,4,0,0,1,303-194.343V-192"/><text class="d" transform="translate(307.112 -177.895)"><tspan x="-26.76" y="0">MVC</tspan></text><path class="c" d="M695-173v7a4,4,0,0,1-4,4H669a4,4,0,0,1-4-4v-34a4,4,0,0,1,4-4h16.343a4,4,0,0,1,2.829,1.172l5.656,5.656A4,4,0,0,1,695-194.343V-192"/><text class="d" transform="translate(721.112 -177.895)"><tspan x="-50.057" y="0">IoT Data</tspan></text><path class="c" d="M359-173v7a4,4,0,0,1-4,4H333a4,4,0,0,1-4-4v-34a4,4,0,0,1,4-4h16.343a4,4,0,0,1,2.829,1.172l5.656,5.656A4,4,0,0,1,359-194.343V-192"/><text class="d" transform="translate(369.112 -177.895)"><tspan x="-26.156" y="0">VC-1</tspan></text><path class="c" d="M639-173v7a4,4,0,0,1-4,4H613a4,4,0,0,1-4-4v-34a4,4,0,0,1,4-4h16.343a4,4,0,0,1,2.829,1.172l5.656,5.656A4,4,0,0,1,639-194.343V-192"/><text class="d" transform="translate(649.112 -177.895)"><tspan x="-29.701" y="0">REAL</tspan></text><path class="c" d="M583-173v7a4,4,0,0,1-4,4H557a4,4,0,0,1-4-4v-34a4,4,0,0,1,4-4h16.343a4,4,0,0,1,2.829,1.172l5.656,5.656A4,4,0,0,1,583-194.343V-192"/><text class="d" transform="translate(587.112 -177.895)"><tspan x="-27.539" y="0">MPG</tspan></text><path class="c" d="M527-173v7a4,4,0,0,1-4,4H501a4,4,0,0,1-4-4v-34a4,4,0,0,1,4-4h16.343a4,4,0,0,1,2.829,1.172l5.656,5.656A4,4,0,0,1,527-194.343V-192"/><text class="d" transform="translate(537.112 -177.895)"><tspan x="-31.723" y="0">M2TS</tspan></text><path class="c" d="M471-516v7a4,4,0,0,1-4,4H445a4,4,0,0,1-4-4v-34a4,4,0,0,1,4-4h16.343a4,4,0,0,1,2.829,1.172l5.656,5.656A4,4,0,0,1,471-537.343V-535"/><text class="d" transform="translate(481.112 -520.895)"><tspan x="-27.375" y="0">DivX</tspan></text><path class="c" d="M247-431v7a4,4,0,0,1-4,4H221a4,4,0,0,1-4-4v-34a4,4,0,0,1,4-4h16.343a4,4,0,0,1,2.829,1.172l5.656,5.656A4,4,0,0,1,247-452.343V-450"/><text class="d" transform="translate(262.112 -435.895)"><tspan x="-37.699" y="0">WEBM</tspan></text><text class="f" transform="translate(475 -118.233)"><tspan x="-180.947" y="0" xml:space="preserve">IMAGES    AUDIO    VIDEO    MESSAGES    DOCUMENTS</tspan></text><rect class="c" width="185" height="128.089" rx="17.136" transform="translate(389.5 -462)"/><text class="g" transform="translate(482 -388.404)"><tspan x="-74.832" y="0">NMPS</tspan></text><text class="h" transform="translate(482 -367.905)"><tspan x="-72.293" y="0">STREAMING FORMAT</tspan></text></g></svg>