<svg xmlns="http://www.w3.org/2000/svg" width="585" height="602" viewBox="0 0 585 602"><defs><style>.a,.e,.f,.g,.h,.s,.t,.u{fill:#fff;}.b,.m{opacity:0.25;}.c,.j,.m{fill:#5a5dff;}.d,.i,.k,.l,.n,.p{fill:none;}.d,.e,.n,.t{stroke:#bd00ff;}.d,.e,.f,.h,.k,.l,.n,.p,.u{stroke-linecap:round;}.d,.e,.f,.l,.p,.u{stroke-linejoin:round;}.d,.e,.f,.g,.h,.i,.k,.l,.n,.p,.s,.t,.u{stroke-width:2px;}.f,.g,.h,.i,.k,.l{stroke:#5a5dff;}.g,.h,.i,.k,.n,.s,.t{stroke-miterlimit:10;}.j{opacity:0.15;}.o{fill:#bd00ff;}.p,.s,.u{stroke:#1d1040;}.q{fill:#1d1040;}.r{font-size:16px;font-family:OpenSans-Bold, Open Sans;font-weight:700;}</style></defs><g transform="translate(-165 1092)"><path class="a" d="M462-1023l12,41a12.5,12.5,0,0,1-8.488,15.512A12.5,12.5,0,0,1,450-974.976,12.4,12.4,0,0,1,450-982Z"/><path class="a" d="M474-984a57.217,57.217,0,0,0,2.993,8.938c1.231,2.979,2.645,5.958,4.194,8.937s3.249,5.958,5.042,8.938c1.865,2.979,3.8,5.958,5.951,8.937s4.366,5.958,6.826,8.938c2.357,2.979,4.9,5.958,7.423,8.937,5.122,5.958,10.406,11.917,15.14,17.875a102.816,102.816,0,0,1,11.909,17.875,58.689,58.689,0,0,1,5.9,17.875,56.962,56.962,0,0,1,.666,8.938,85.133,85.133,0,0,1-.441,8.937A83,83,0,0,1,535.725-841a92.871,92.871,0,0,1-3.507,8.938c-.628,1.489-1.4,2.979-2.1,4.468-.773,1.49-1.509,2.979-2.342,4.469-1.6,2.979-3.4,5.958-5.218,8.938-1.845,2.979-3.813,5.958-5.753,8.937-7.888,11.917-16.058,23.833-22.241,35.75a162.639,162.639,0,0,0-8,17.875c-2.289,5.958-4.277,11.917-6.08,17.875s-3.27,11.917-4.44,17.875A100.286,100.286,0,0,0,474-698a12,12,0,0,1-12.047,11.953A12,12,0,0,1,450-698a100.286,100.286,0,0,0-2.04-17.875q-1.755-8.937-4.44-17.875c-1.8-5.958-3.791-11.917-6.08-17.875a162.639,162.639,0,0,0-8-17.875c-6.183-11.917-14.353-23.833-22.241-35.75-1.94-2.979-3.908-5.958-5.753-8.937-1.818-2.98-3.615-5.959-5.218-8.938-.833-1.49-1.569-2.979-2.342-4.469-.7-1.489-1.472-2.979-2.1-4.468A92.61,92.61,0,0,1,388.275-841a83,83,0,0,1-3.882-17.875,85.158,85.158,0,0,1-.441-8.937,56.969,56.969,0,0,1,.666-8.938,58.688,58.688,0,0,1,5.9-17.875A102.814,102.814,0,0,1,402.431-912.5c4.734-5.958,10.018-11.917,15.14-17.875,2.521-2.979,5.066-5.958,7.423-8.937,2.46-2.98,4.669-5.959,6.826-8.938s4.086-5.958,5.951-8.937c1.793-2.98,3.5-5.959,5.042-8.938s2.963-5.958,4.194-8.937A57.217,57.217,0,0,0,450-984a12.31,12.31,0,0,1,14.744-9.256A12.329,12.329,0,0,1,474-984Z"/><path class="a" d="M474-710a22.48,22.48,0,0,0,1.812,10.574,27.682,27.682,0,0,0,7.513,9.142,60.305,60.305,0,0,0,12.186,7.363,118.9,118.9,0,0,0,14.444,5.528,264.966,264.966,0,0,0,31.469,7.49c10.776,1.968,21.709,3.588,32.7,5.111s22.043,2.95,33.107,4.54,22.144,3.321,33.152,5.633c5.5,1.161,10.986,2.472,16.4,4.077a103.706,103.706,0,0,1,15.886,6l1.91.944,1.864,1.05c1.258.661,2.425,1.508,3.626,2.267a35.372,35.372,0,0,1,6.4,5.676,23.953,23.953,0,0,1,4.337,7.314A24.023,24.023,0,0,1,692-619a23.67,23.67,0,0,0-1.881-8.009,22.827,22.827,0,0,0-4.735-6.568l-1.5-1.364c-.524-.428-1.08-.819-1.616-1.229-.272-.2-.535-.411-.813-.6l-.862-.54c-.578-.355-1.139-.731-1.726-1.067-1.214-.618-2.369-1.315-3.632-1.838l-1.856-.836-1.906-.737a99.986,99.986,0,0,0-15.777-4.386c-5.377-1.08-10.823-1.874-16.293-2.523-10.943-1.288-21.98-2.012-33.052-2.6s-22.186-1.009-33.341-1.549-22.355-1.172-33.62-2.2a280.911,280.911,0,0,1-34.046-4.951,137.721,137.721,0,0,1-17.225-4.883A80.421,80.421,0,0,1,471-673.284a49.667,49.667,0,0,1-14.87-15.245l-1.347-2.507-.658-1.266-.55-1.316-1.063-2.658c-.3-.9-.55-1.812-.816-2.723a42.941,42.941,0,0,1-1.177-5.51,26.3,26.3,0,0,1-.306-2.746L450-710a12.034,12.034,0,0,1,11.082-12.915A12.034,12.034,0,0,1,474-711.832a11.968,11.968,0,0,1,.022,1.5Z"/><path class="a" d="M474-710l-.21,2.745a26.3,26.3,0,0,1-.306,2.746,42.941,42.941,0,0,1-1.177,5.51c-.266.911-.515,1.824-.816,2.723l-1.063,2.658-.55,1.316-.658,1.266-1.347,2.507A49.667,49.667,0,0,1,453-673.284a80.421,80.421,0,0,1-17.124,8.408,137.721,137.721,0,0,1-17.225,4.883,280.911,280.911,0,0,1-34.046,4.951c-11.265,1.026-22.465,1.664-33.62,2.2s-22.269.963-33.341,1.549-22.109,1.308-33.052,2.6c-5.47.649-10.916,1.443-16.293,2.523a99.987,99.987,0,0,0-15.777,4.386l-1.906.737-1.856.836c-1.263.523-2.418,1.22-3.632,1.838-.587.336-1.148.712-1.726,1.067l-.862.54c-.278.191-.541.4-.813.6-.536.41-1.092.8-1.616,1.229l-1.5,1.364a22.827,22.827,0,0,0-4.735,6.568A23.67,23.67,0,0,0,232-619a24.022,24.022,0,0,1,1.186-8.29,23.953,23.953,0,0,1,4.337-7.314,35.373,35.373,0,0,1,6.4-5.676c1.2-.759,2.368-1.606,3.626-2.267l1.864-1.05,1.91-.944a103.708,103.708,0,0,1,15.886-6c5.417-1.6,10.9-2.916,16.4-4.077,11.008-2.312,22.091-4.045,33.152-5.633s22.116-3.011,33.107-4.54,21.924-3.143,32.7-5.111a264.966,264.966,0,0,0,31.469-7.49,118.9,118.9,0,0,0,14.444-5.528,60.305,60.305,0,0,0,12.186-7.363,27.682,27.682,0,0,0,7.513-9.142A22.48,22.48,0,0,0,450-710l-.014-.263a12.033,12.033,0,0,1,11.362-12.669,12.033,12.033,0,0,1,12.669,11.362A13.231,13.231,0,0,1,474-710Z"/><path class="a" d="M474-710l-.251,3.979-.132,2c-.043.667-.009,1.306-.019,1.963l-.007,3.937.262,3.846a53.918,53.918,0,0,0,3.2,14.617,41.658,41.658,0,0,0,7.771,12.7,72.6,72.6,0,0,0,12.26,10.713c4.626,3.345,9.671,6.511,14.657,10.082a71.987,71.987,0,0,1,13.945,12.487,41.48,41.48,0,0,1,8.209,16.734A59.137,59.137,0,0,1,535-599a57.659,57.659,0,0,0-3.959-17.017,36.935,36.935,0,0,0-9.7-13.524,64.88,64.88,0,0,0-14.225-8.9c-5.156-2.513-10.633-4.774-16.165-7.488a86.214,86.214,0,0,1-16.389-10.087,58.339,58.339,0,0,1-13.536-15.441,72.993,72.993,0,0,1-7.817-18.967c-.4-1.627-.814-3.265-1.187-4.9l-.848-4.893c-.129-.816-.3-1.645-.392-2.455l-.265-2.432L450-710a12.062,12.062,0,0,1,10.727-13.262,12.061,12.061,0,0,1,13.262,10.727,12.176,12.176,0,0,1,.049,1.961Z"/><path class="a" d="M474-710l-.516,4.887-.265,2.432c-.091.81-.263,1.639-.392,2.455l-.848,4.893c-.373,1.639-.788,3.277-1.187,4.9a72.993,72.993,0,0,1-7.817,18.967,58.339,58.339,0,0,1-13.536,15.441,86.214,86.214,0,0,1-16.389,10.087c-5.532,2.714-11.009,4.975-16.165,7.488a64.879,64.879,0,0,0-14.225,8.9,36.935,36.935,0,0,0-9.7,13.524A57.658,57.658,0,0,0,389-599a59.137,59.137,0,0,1,1.107-17.946,41.48,41.48,0,0,1,8.209-16.734,71.985,71.985,0,0,1,13.945-12.487c4.986-3.571,10.031-6.737,14.657-10.082a72.6,72.6,0,0,0,12.26-10.713,41.658,41.658,0,0,0,7.771-12.7,53.918,53.918,0,0,0,3.2-14.617l.262-3.846-.007-3.937c-.01-.657.024-1.3-.019-1.963l-.132-2L450-710l-.032-.507a12.062,12.062,0,0,1,11.277-12.8,12.062,12.062,0,0,1,12.8,11.277A13.029,13.029,0,0,1,474-710Z"/><g class="b"><path class="c" d="M462-1024l12,41a12.5,12.5,0,0,1-8.488,15.512A12.5,12.5,0,0,1,450-975.976,12.4,12.4,0,0,1,450-983Z"/><path class="c" d="M474-984a57.217,57.217,0,0,0,2.993,8.938c1.231,2.979,2.645,5.958,4.194,8.937s3.249,5.958,5.042,8.938c1.865,2.979,3.8,5.958,5.951,8.937s4.366,5.958,6.826,8.938c2.357,2.979,4.9,5.958,7.423,8.937,5.122,5.958,10.406,11.917,15.14,17.875a102.816,102.816,0,0,1,11.909,17.875,58.689,58.689,0,0,1,5.9,17.875,56.962,56.962,0,0,1,.666,8.938,85.133,85.133,0,0,1-.441,8.937A83,83,0,0,1,535.725-841a92.871,92.871,0,0,1-3.507,8.938c-.628,1.489-1.4,2.979-2.1,4.468-.773,1.49-1.509,2.979-2.342,4.469-1.6,2.979-3.4,5.958-5.218,8.938-1.845,2.979-3.813,5.958-5.753,8.937-7.888,11.917-16.058,23.833-22.241,35.75a162.639,162.639,0,0,0-8,17.875c-2.289,5.958-4.277,11.917-6.08,17.875s-3.27,11.917-4.44,17.875A100.286,100.286,0,0,0,474-698a12,12,0,0,1-12.047,11.953A12,12,0,0,1,450-698a100.286,100.286,0,0,0-2.04-17.875q-1.755-8.937-4.44-17.875c-1.8-5.958-3.791-11.917-6.08-17.875a162.639,162.639,0,0,0-8-17.875c-6.183-11.917-14.353-23.833-22.241-35.75-1.94-2.979-3.908-5.958-5.753-8.937-1.818-2.98-3.615-5.959-5.218-8.938-.833-1.49-1.569-2.979-2.342-4.469-.7-1.489-1.472-2.979-2.1-4.468A92.61,92.61,0,0,1,388.275-841a83,83,0,0,1-3.882-17.875,85.158,85.158,0,0,1-.441-8.937,56.969,56.969,0,0,1,.666-8.938,58.688,58.688,0,0,1,5.9-17.875A102.814,102.814,0,0,1,402.431-912.5c4.734-5.958,10.018-11.917,15.14-17.875,2.521-2.979,5.066-5.958,7.423-8.937,2.46-2.98,4.669-5.959,6.826-8.938s4.086-5.958,5.951-8.937c1.793-2.98,3.5-5.959,5.042-8.938s2.963-5.958,4.194-8.937A57.217,57.217,0,0,0,450-984a12.31,12.31,0,0,1,14.744-9.256A12.329,12.329,0,0,1,474-984Z"/><path class="c" d="M474-710a22.48,22.48,0,0,0,1.812,10.574,27.682,27.682,0,0,0,7.513,9.142,60.305,60.305,0,0,0,12.186,7.363,118.9,118.9,0,0,0,14.444,5.528,264.966,264.966,0,0,0,31.469,7.49c10.776,1.968,21.709,3.588,32.7,5.111s22.043,2.95,33.107,4.54,22.144,3.321,33.152,5.633c5.5,1.161,10.986,2.472,16.4,4.077a103.706,103.706,0,0,1,15.886,6l1.91.944,1.864,1.05c1.258.661,2.425,1.508,3.626,2.267a35.372,35.372,0,0,1,6.4,5.676,23.953,23.953,0,0,1,4.337,7.314A24.023,24.023,0,0,1,692-619a23.67,23.67,0,0,0-1.881-8.009,22.827,22.827,0,0,0-4.735-6.568l-1.5-1.364c-.524-.428-1.08-.819-1.616-1.229-.272-.2-.535-.411-.813-.6l-.862-.54c-.578-.355-1.139-.731-1.726-1.067-1.214-.618-2.369-1.315-3.632-1.838l-1.856-.836-1.906-.737a99.986,99.986,0,0,0-15.777-4.386c-5.377-1.08-10.823-1.874-16.293-2.523-10.943-1.288-21.98-2.012-33.052-2.6s-22.186-1.009-33.341-1.549-22.355-1.172-33.62-2.2a280.911,280.911,0,0,1-34.046-4.951,137.721,137.721,0,0,1-17.225-4.883A80.421,80.421,0,0,1,471-673.284a49.667,49.667,0,0,1-14.87-15.245l-1.347-2.507-.658-1.266-.55-1.316-1.063-2.658c-.3-.9-.55-1.812-.816-2.723a42.941,42.941,0,0,1-1.177-5.51,26.3,26.3,0,0,1-.306-2.746L450-710a12.034,12.034,0,0,1,11.082-12.915A12.034,12.034,0,0,1,474-711.832a11.968,11.968,0,0,1,.022,1.5Z"/><path class="c" d="M474-710l-.21,2.745a26.3,26.3,0,0,1-.306,2.746,42.941,42.941,0,0,1-1.177,5.51c-.266.911-.515,1.824-.816,2.723l-1.063,2.658-.55,1.316-.658,1.266-1.347,2.507A49.667,49.667,0,0,1,453-673.284a80.421,80.421,0,0,1-17.124,8.408,137.721,137.721,0,0,1-17.225,4.883,280.911,280.911,0,0,1-34.046,4.951c-11.265,1.026-22.465,1.664-33.62,2.2s-22.269.963-33.341,1.549-22.109,1.308-33.052,2.6c-5.47.649-10.916,1.443-16.293,2.523a99.987,99.987,0,0,0-15.777,4.386l-1.906.737-1.856.836c-1.263.523-2.418,1.22-3.632,1.838-.587.336-1.148.712-1.726,1.067l-.862.54c-.278.191-.541.4-.813.6-.536.41-1.092.8-1.616,1.229l-1.5,1.364a22.827,22.827,0,0,0-4.735,6.568A23.67,23.67,0,0,0,232-619a24.022,24.022,0,0,1,1.186-8.29,23.953,23.953,0,0,1,4.337-7.314,35.373,35.373,0,0,1,6.4-5.676c1.2-.759,2.368-1.606,3.626-2.267l1.864-1.05,1.91-.944a103.708,103.708,0,0,1,15.886-6c5.417-1.6,10.9-2.916,16.4-4.077,11.008-2.312,22.091-4.045,33.152-5.633s22.116-3.011,33.107-4.54,21.924-3.143,32.7-5.111a264.966,264.966,0,0,0,31.469-7.49,118.9,118.9,0,0,0,14.444-5.528,60.305,60.305,0,0,0,12.186-7.363,27.682,27.682,0,0,0,7.513-9.142A22.48,22.48,0,0,0,450-710l-.014-.263a12.033,12.033,0,0,1,11.362-12.669,12.033,12.033,0,0,1,12.669,11.362A13.231,13.231,0,0,1,474-710Z"/><path class="c" d="M474-710l-.251,3.979-.132,2c-.043.667-.009,1.306-.019,1.963l-.007,3.937.262,3.846a53.918,53.918,0,0,0,3.2,14.617,41.658,41.658,0,0,0,7.771,12.7,72.6,72.6,0,0,0,12.26,10.713c4.626,3.345,9.671,6.511,14.657,10.082a71.987,71.987,0,0,1,13.945,12.487,41.48,41.48,0,0,1,8.209,16.734A59.137,59.137,0,0,1,535-599a57.659,57.659,0,0,0-3.959-17.017,36.935,36.935,0,0,0-9.7-13.524,64.88,64.88,0,0,0-14.225-8.9c-5.156-2.513-10.633-4.774-16.165-7.488a86.214,86.214,0,0,1-16.389-10.087,58.339,58.339,0,0,1-13.536-15.441,72.993,72.993,0,0,1-7.817-18.967c-.4-1.627-.814-3.265-1.187-4.9l-.848-4.893c-.129-.816-.3-1.645-.392-2.455l-.265-2.432L450-710a12.062,12.062,0,0,1,10.727-13.262,12.061,12.061,0,0,1,13.262,10.727,12.176,12.176,0,0,1,.049,1.961Z"/><path class="c" d="M474-710l-.516,4.887-.265,2.432c-.091.81-.263,1.639-.392,2.455l-.848,4.893c-.373,1.639-.788,3.277-1.187,4.9a72.993,72.993,0,0,1-7.817,18.967,58.339,58.339,0,0,1-13.536,15.441,86.214,86.214,0,0,1-16.389,10.087c-5.532,2.714-11.009,4.975-16.165,7.488a64.879,64.879,0,0,0-14.225,8.9,36.935,36.935,0,0,0-9.7,13.524A57.658,57.658,0,0,0,389-599a59.137,59.137,0,0,1,1.107-17.946,41.48,41.48,0,0,1,8.209-16.734,71.985,71.985,0,0,1,13.945-12.487c4.986-3.571,10.031-6.737,14.657-10.082a72.6,72.6,0,0,0,12.26-10.713,41.658,41.658,0,0,0,7.771-12.7,53.918,53.918,0,0,0,3.2-14.617l.262-3.846-.007-3.937c-.01-.657.024-1.3-.019-1.963l-.132-2L450-710l-.032-.507a12.062,12.062,0,0,1,11.277-12.8,12.062,12.062,0,0,1,12.8,11.277A13.029,13.029,0,0,1,474-710Z"/></g><path class="d" d="M440-1009v14H430"/><circle class="e" cx="3" cy="3" r="3" transform="translate(424 -998)"/><path class="d" d="M484-1009v14h10"/><circle class="e" cx="3" cy="3" r="3" transform="translate(494 -998)"/><path class="f" d="M531-1033.5a24.5,24.5,0,0,0-24.5-24.5,24.531,24.531,0,0,0-5.485.624A24.506,24.506,0,0,0,477.5-1075a24.537,24.537,0,0,0-6.472.87A27,27,0,0,0,446-1091a27,27,0,0,0-27,27,26.9,26.9,0,0,0,2.364,11.046c-.451-.027-.9-.046-1.364-.046a22,22,0,0,0-22,22,22,22,0,0,0,22,22h87v-.013A24.5,24.5,0,0,0,531-1033.5Z"/><path class="d" d="M425-1064a21,21,0,0,1,21-21"/><rect class="g" width="70" height="90" rx="3" transform="translate(349 -581)"/><path class="a" d="M385-519l44.5-44.5a3.535,3.535,0,0,1,5,0h0a3.535,3.535,0,0,1,0,5L390-514l-8,3Z"/><rect class="g" width="86" height="76" rx="12" transform="translate(649 -598)"/><rect class="a" width="28" height="62" rx="3" transform="translate(721 -576)"/><rect class="g" width="106" height="72" rx="3" transform="translate(171 -605)"/><line class="h" x1="105.975" transform="translate(171 -539.863)"/><rect class="a" width="32" height="51" rx="3" transform="translate(166 -564)"/><rect class="g" width="111" height="60" rx="3" transform="translate(477 -567)"/><line class="i" x2="111" transform="translate(477 -512)"/><path class="j" d="M490-500l7-7h6l-7,7Z"/><path class="k" d="M490-500l7-7h6l-7,7Z"/><path class="j" d="M575-500l-7-7h-6l7,7Z"/><path class="k" d="M575-500l-7-7h-6l7,7Z"/><path class="l" d="M562-583a26.384,26.384,0,0,1,13-4,26.384,26.384,0,0,1,13,4"/><path class="l" d="M567-577.769a16.233,16.233,0,0,1,8-2.462,16.233,16.233,0,0,1,8,2.462"/><path class="l" d="M571-572.385a8.121,8.121,0,0,1,4-1.23,8.121,8.121,0,0,1,4,1.23"/><rect class="m" width="14" height="10" transform="translate(489 -554)"/><rect class="k" width="14" height="10" transform="translate(489 -554)"/><rect class="m" width="14" height="10" transform="translate(513 -554)"/><rect class="n" width="14" height="10" transform="translate(513 -554)"/><rect class="m" width="14" height="10" transform="translate(537 -554)"/><rect class="k" width="14" height="10" transform="translate(537 -554)"/><rect class="m" width="14" height="10" transform="translate(561 -554)"/><rect class="n" width="14" height="10" transform="translate(561 -554)"/><rect class="m" width="14" height="10" transform="translate(489 -534)"/><rect class="n" width="14" height="10" transform="translate(489 -534)"/><rect class="m" width="14" height="10" transform="translate(513 -534)"/><rect class="k" width="14" height="10" transform="translate(513 -534)"/><rect class="m" width="14" height="10" transform="translate(537 -534)"/><rect class="n" width="14" height="10" transform="translate(537 -534)"/><rect class="m" width="14" height="10" transform="translate(561 -534)"/><rect class="k" width="14" height="10" transform="translate(561 -534)"/><rect class="m" width="36" height="22" rx="4" transform="translate(674 -571)"/><rect class="k" width="36" height="22" rx="4" transform="translate(674 -571)"/><path class="d" d="M680-565h11l7,10,6-10"/><line class="n" y1="7" transform="translate(685 -562)"/><rect class="m" width="6" height="6" rx="3" transform="translate(679 -593)"/><rect class="k" width="6" height="6" rx="3" transform="translate(679 -593)"/><rect class="m" width="6" height="6" rx="3" transform="translate(689 -593)"/><rect class="k" width="6" height="6" rx="3" transform="translate(689 -593)"/><rect class="m" width="6" height="6" rx="3" transform="translate(699 -593)"/><rect class="k" width="6" height="6" rx="3" transform="translate(699 -593)"/><path class="k" d="M721.474-594c4.97,0,9.526,4.029,9.526,9"/><rect class="m" width="28" height="62" rx="3" transform="translate(721 -576)"/><rect class="k" width="28" height="62" rx="3" transform="translate(721 -576)"/><circle class="i" cx="7" cy="7" r="7" transform="translate(728 -544)"/><circle class="i" cx="3" cy="3" r="3" transform="translate(732 -540)"/><line class="k" x2="4" transform="translate(725 -561)"/><line class="k" x2="4" transform="translate(733 -561)"/><line class="k" x2="4" transform="translate(741 -561)"/><line class="k" x2="4" transform="translate(725 -569)"/><line class="k" x2="4" transform="translate(741 -569)"/><line class="k" x2="4" transform="translate(725 -557)"/><line class="k" x2="4" transform="translate(733 -557)"/><line class="k" x2="4" transform="translate(741 -557)"/><line class="k" x2="4" transform="translate(725 -553)"/><line class="k" x2="4" transform="translate(733 -553)"/><line class="k" x2="4" transform="translate(733 -548)"/><line class="k" x2="4" transform="translate(741 -553)"/><line class="k" x2="4" transform="translate(725 -525)"/><line class="k" x2="4" transform="translate(733 -525)"/><line class="k" x2="4" transform="translate(741 -525)"/><line class="k" x2="70" transform="translate(349 -497)"/><line class="n" x2="6" transform="translate(381 -494)"/><rect class="g" width="42" height="7" rx="3.5" transform="translate(203 -520)"/><rect class="g" width="22" height="13" transform="translate(213 -533)"/><path class="k" d="M257.316-599H270a1,1,0,0,1,1,1v12"/><rect class="m" width="32" height="51" rx="3" transform="translate(166 -564)"/><rect class="k" width="32" height="51" rx="3" transform="translate(166 -564)"/><line class="k" x2="30" transform="translate(167 -519)"/><line class="k" x2="6" transform="translate(179 -516)"/><path class="m" d="M223.205-570.795l13.574,5.43L234.414-563l2,2L233-557.586l-2-2-2.365,2.365Z"/><path class="o" d="M225-569l10,4-2,2,2,2-2,2-2-2-2,2-4-10m-3.59-3.59,1.733,4.333,4,10,1.127,2.816,2.144-2.145.586-.586.586.586L233-556.172l1.414-1.414,2-2L237.828-561l-1.414-1.414-.586-.586.586-.586,2.145-2.145-2.816-1.126-10-4-4.333-1.733Z"/><path class="m" d="M385-519l44.5-44.5a3.535,3.535,0,0,1,5,0h0a3.535,3.535,0,0,1,0,5L390-514l-8,3Z"/><path class="k" d="M385-519l44.5-44.5a3.535,3.535,0,0,1,5,0h0a3.535,3.535,0,0,1,0,5L390-514l-8,3Z"/><rect class="m" width="8" height="8" rx="3" transform="translate(357 -574)"/><rect class="n" width="8" height="8" rx="3" transform="translate(357 -574)"/><rect class="m" width="8" height="8" rx="3" transform="translate(372 -574)"/><rect class="k" width="8" height="8" rx="3" transform="translate(372 -574)"/><rect class="m" width="8" height="8" rx="3" transform="translate(387 -574)"/><rect class="n" width="8" height="8" rx="3" transform="translate(387 -574)"/><rect class="m" width="8" height="8" rx="3" transform="translate(402 -574)"/><rect class="k" width="8" height="8" rx="3" transform="translate(402 -574)"/><rect class="m" width="8" height="8" rx="3" transform="translate(357 -558)"/><rect class="k" width="8" height="8" rx="3" transform="translate(357 -558)"/><rect class="m" width="8" height="8" rx="3" transform="translate(372 -558)"/><rect class="n" width="8" height="8" rx="3" transform="translate(372 -558)"/><rect class="m" width="8" height="8" rx="3" transform="translate(387 -558)"/><rect class="k" width="8" height="8" rx="3" transform="translate(387 -558)"/><path class="p" d="M462-710c0,71.6,193.813,36.185,225.611,77.852"/><path class="q" d="M685.687-634.688l4.291-5.742.207.142.048,10.746Q691.118-624.271,692-619q-3.013-4.413-6.028-8.827l-7.409-7.784.019-.233Z"/><path class="p" d="M462-710c0,71.6-193.813,36.185-225.611,77.852"/><path class="q" d="M238.313-634.688l7.073-1.169.051.246-7.409,7.784Q235.014-623.412,232-619l1.767-10.542.048-10.746.175-.155Z"/><path class="p" d="M462-710c0,71.463,61.276,53.11,71.548,97.212"/><path class="q" d="M532.814-615.768l5.593-4.486.164.189-2.643,10.417Q535.465-604.324,535-599q-1.813-5.028-3.627-10.055l-5.224-9.391.076-.221Z"/><path class="p" d="M462-710c0,71.463-61.276,53.11-71.548,97.212"/><path class="q" d="M391.186-615.768l6.555-2.9.11.225-5.224,9.391Q390.813-604.027,389-599q-.463-5.324-.928-10.648l-2.643-10.417.131-.194Z"/><circle class="a" cx="4" cy="4" r="4" transform="translate(458 -710)"/><circle class="p" cx="4" cy="4" r="4" transform="translate(458 -710)"/><text class="r" transform="translate(392 -913.637)"><tspan x="-32.09" y="0">ROUTER</tspan></text><text class="r" transform="translate(462 -726.637)"><tspan x="-139.922" y="0">WEB SERVICE &amp; STAND ALONE APPS</tspan></text><text class="r" transform="translate(462 -1041.637)"><tspan x="-17.523" y="0">CDN</tspan></text><path class="q" d="M395.811-751.458c-3.435-.019-6.276-7.033-6.276-10.6,0-5.834,4.376-7.111,6.062-7.111a6.972,6.972,0,0,1,2.287.562,5.136,5.136,0,0,0,1.307.375,4.057,4.057,0,0,0,.936-.3,7.5,7.5,0,0,1,2.824-.683h.007a5.789,5.789,0,0,1,4.844,2.447l.353.531-.508.384a4.278,4.278,0,0,0-2.052,3.529,3.983,3.983,0,0,0,2.222,3.682c.318.191.648.389.648.821,0,.282-2.25,6.337-5.518,6.337a4.44,4.44,0,0,1-1.864-.452,3.769,3.769,0,0,0-1.658-.4,4.256,4.256,0,0,0-1.313.356,6.432,6.432,0,0,1-2.278.531Z"/><path class="q" d="M403.3-774.542c.085,3.069-2.11,5.2-4.3,5.065C398.635-771.927,401.188-774.542,403.3-774.542Z"/><path class="q" d="M534.31-755.007c-.681-.277-.973-.645-.945-1.194a1.83,1.83,0,0,0-.51-1.3,5.586,5.586,0,0,0,0-2.974,25.679,25.679,0,0,0-3.187-5.162,4.409,4.409,0,0,1-.628-2.643,8,8,0,0,0-.6-3.219,3.353,3.353,0,0,0-3.189-2.047,4.384,4.384,0,0,0-2.424.733c-1.392.954-1.208,3.035-1.087,4.412.017.188.033.366.042.518a6.794,6.794,0,0,1-.089,2.275,9.432,9.432,0,0,1-.7.969c-.337.44-.718.938-1.03,1.4a11,11,0,0,0-.966,2.24,10.644,10.644,0,0,1-.61,1.517,2.049,2.049,0,0,0-.2,1.552,1.591,1.591,0,0,0-.515.648c-.208.439-.628.675-1.5.842a1.153,1.153,0,0,0-.823.5,1.408,1.408,0,0,0,.008,1.13,1.74,1.74,0,0,1-.117,1.273c-.04.122-.086.259-.132.411a.734.734,0,0,0,.078.646c.33.5,1.293.678,2.285.795a8.843,8.843,0,0,1,1.867.532,8.8,8.8,0,0,0,1.826.523,2.085,2.085,0,0,0,.258.017,1.519,1.519,0,0,0,1.39-.81,15.458,15.458,0,0,1,2.506-.294,10.916,10.916,0,0,1,2.49.254,2,2,0,0,0,.75.812,1.832,1.832,0,0,0,.844.188h0a2.045,2.045,0,0,0,1.484-.608,13.293,13.293,0,0,1,2.69-1.707c.206-.111.4-.214.567-.308a1.26,1.26,0,0,0,.776-1.118A.945.945,0,0,0,534.31-755.007Zm-11.468-.1c-.064-.451-.648-.9-1.325-1.416a4.664,4.664,0,0,1-1.353-1.31,3.924,3.924,0,0,1,.415-3.074,7.811,7.811,0,0,0,.632-1.514,5.454,5.454,0,0,1,.66-1.5,3.8,3.8,0,0,0,.791-1.905,2.4,2.4,0,0,0,1.413.763.808.808,0,0,0,.227-.031,7.667,7.667,0,0,0,1.355-.677,5.743,5.743,0,0,1,1.15-.574,31.708,31.708,0,0,1,2.513,6.21,6.545,6.545,0,0,1-.093,2.368,1.829,1.829,0,0,0-.235-.017c-.55,0-.7.3-.733.476a19.407,19.407,0,0,0-.109,2.271,4.551,4.551,0,0,1-2.645,1.643,11.627,11.627,0,0,1-1.63.127,5.542,5.542,0,0,1-.8-.049l-.725-.823A.873.873,0,0,0,522.842-755.11Zm.92-13.577-.067.031a1.262,1.262,0,0,0-.015-.148.841.841,0,0,0-.718-.78.523.523,0,0,0-.077.006.6.6,0,0,0-.444.394c.075-.465.341-.809.656-.809.369,0,.681.495.681,1.08A1.6,1.6,0,0,1,523.762-768.687Zm2.872.349a1.132,1.132,0,0,0,.052-.343.863.863,0,0,0-.772-.947.872.872,0,0,0-.767.947.948.948,0,0,0,.005.106l-.066-.025a1.426,1.426,0,0,1-.073-.455,1.053,1.053,0,0,1,.911-1.151,1.053,1.053,0,0,1,.91,1.151A1.351,1.351,0,0,1,526.634-768.338Zm-.37,1.235c-.007.032-.023.046-.193.134-.086.045-.193.1-.327.181l-.089.054a8.358,8.358,0,0,1-1.431.753c-.155.021-.251-.039-.467-.185l-.156-.1a1.815,1.815,0,0,1-.667-.642c.126-.1.441-.341.6-.485a1.743,1.743,0,0,1,.819-.505l.024,0a8.4,8.4,0,0,1,1.008.357c.159.063.3.118.394.152A.939.939,0,0,1,526.264-767.1ZM529-753a11.135,11.135,0,0,0,.338-2.437c-.008-.14-.02-.293-.032-.441a3.971,3.971,0,0,1-.022-.808l.023-.009a1.368,1.368,0,0,0,.646,1.3,1.429,1.429,0,0,0,.575.111,2.351,2.351,0,0,0,1.457-.534,2.67,2.67,0,0,0,.37-.482.557.557,0,0,1,.025.227,1.629,1.629,0,0,0,.707,1.468l.071.036c.172.09.632.33.639.443a.1.1,0,0,1-.03.037,6.559,6.559,0,0,1-.911.509,8,8,0,0,0-1.835,1.12,2.506,2.506,0,0,1-1.4.869.389.389,0,0,1-.112-.015C529.144-751.713,528.84-752.242,529-753Zm-12.585-1.966a1.028,1.028,0,0,1-.035-.447c.023-.1.516-.205.727-.25a2.837,2.837,0,0,0,.8-.251,1.619,1.619,0,0,0,.546-.728,1.136,1.136,0,0,1,.3-.454.066.066,0,0,1,.036-.009c.215,0,.667.45.928.853.066.1.188.305.33.54a17.163,17.163,0,0,0,1.306,1.991c.273.29.715.849.606,1.328a1.455,1.455,0,0,1-.6.74.633.633,0,0,1-.134.012,8.621,8.621,0,0,1-2.343-.736l-.092-.038a7.466,7.466,0,0,0-1.449-.321,4.723,4.723,0,0,1-1.123-.251c-.08-.088.012-.376.094-.631a4.09,4.09,0,0,0,.152-.569A2.05,2.05,0,0,0,516.419-754.963Z"/><path class="q" d="M471.958-763.224v-6.292l9.1-1.141v7.433Z"/><path class="q" d="M483.5-763.224v-7.738l10.542-1.321v9.06Z"/><path class="q" d="M483.5-753.038v-7.738h10.542v9.06Z"/><path class="q" d="M471.958-754.484v-6.292h9.1v7.433Z"/><path class="q" d="M443.457-750.231a1.509,1.509,0,0,0,1.473-1.474v-3.44h.984a.93.93,0,0,0,.984-.984v-9.827H435.1v9.827a.93.93,0,0,0,.984.984h.984v3.44a1.509,1.509,0,0,0,1.473,1.474,1.509,1.509,0,0,0,1.473-1.474v-3.44h1.968v3.44A1.509,1.509,0,0,0,443.457-750.231Z"/><path class="q" d="M449.355-756.129a1.508,1.508,0,0,0,1.473-1.473v-6.882a1.51,1.51,0,0,0-1.473-1.472,1.511,1.511,0,0,0-1.474,1.472v6.882A1.509,1.509,0,0,0,449.355-756.129Z"/><path class="q" d="M432.645-756.129a1.509,1.509,0,0,0,1.474-1.473v-6.882a1.511,1.511,0,0,0-1.474-1.472,1.51,1.51,0,0,0-1.473,1.472v6.882A1.508,1.508,0,0,0,432.645-756.129Z"/><path class="q" d="M445.717-773.62a.47.47,0,0,0-.686,0l-1.319,1.315-.061.061a5.83,5.83,0,0,0-2.637-.59h-.028a5.83,5.83,0,0,0-2.637.59l-.061-.061-1.319-1.315a.47.47,0,0,0-.686,0,.471.471,0,0,0,0,.685l1.276,1.277a5.283,5.283,0,0,0-1.108.995,5.771,5.771,0,0,0-1.34,3.415l0,.041c0,.088-.006.177-.006.266h11.8c0-.089,0-.178-.006-.266l0-.041a5.771,5.771,0,0,0-1.34-3.415,5.338,5.338,0,0,0-1.108-.995l1.276-1.277A.471.471,0,0,0,445.717-773.62Zm-7.176,4.961a.736.736,0,0,1-.737-.736.737.737,0,0,1,.737-.737.737.737,0,0,1,.737.737A.736.736,0,0,1,438.541-768.659Zm4.918,0a.736.736,0,0,1-.737-.736.737.737,0,0,1,.737-.737.737.737,0,0,1,.737.737A.736.736,0,0,1,443.459-768.659Z"/><path class="s" d="M402.346-888.095h0a4.5,4.5,0,0,0-.056,6.364l32.561,33.14,10.062-2.6-36.2-36.847A4.5,4.5,0,0,0,402.346-888.095Z"/><rect class="s" width="18" height="4" transform="translate(402 -819)"/><rect class="s" width="18" height="4" transform="translate(504 -819)"/><path class="s" d="M521.654-888.095h0a4.5,4.5,0,0,1,.056,6.364l-32.561,33.14-10.062-2.6,36.2-36.847A4.5,4.5,0,0,1,521.654-888.095Z"/><rect class="g" width="140" height="32" rx="7" transform="translate(392 -851)"/><rect class="m" width="14" height="10" rx="2" transform="translate(509 -840)"/><rect class="i" width="14" height="10" rx="2" transform="translate(509 -840)"/><rect class="m" width="14" height="10" rx="2" transform="translate(485 -840)"/><rect class="i" width="14" height="10" rx="2" transform="translate(485 -840)"/><rect class="m" width="14" height="10" rx="2" transform="translate(462 -840)"/><rect class="i" width="14" height="10" rx="2" transform="translate(462 -840)"/><circle class="g" cx="5" cy="5" r="5" transform="translate(418 -840)"/><circle class="t" cx="5" cy="5" r="5" transform="translate(401 -840)"/><circle class="t" cx="5" cy="5" r="5" transform="translate(457 -878)"/><path class="t" d="M435.13-899.87l5.657,5.657A29.906,29.906,0,0,1,462-903a29.906,29.906,0,0,1,21.213,8.787l5.657-5.657A37.881,37.881,0,0,0,462-911,37.881,37.881,0,0,0,435.13-899.87Z"/><path class="t" d="M462-894a20.935,20.935,0,0,0-14.849,6.151l5.657,5.657A12.956,12.956,0,0,1,462-886a12.956,12.956,0,0,1,9.192,3.808l5.657-5.657A20.935,20.935,0,0,0,462-894Z"/><circle class="u" cx="4" cy="4" r="4" transform="translate(458 -1031)"/><line class="p" y2="67.141" transform="translate(462 -1023)"/><path class="q" d="M462-958.91l6.125-3.726.139.209-3.967,9.988q-1.149,5.22-2.3,10.439-1.148-5.22-2.3-10.439l-3.967-9.988.105-.209Z"/></g></svg>