<svg xmlns="http://www.w3.org/2000/svg" width="144.839" height="41.42" viewBox="0 0 144.839 41.42"><defs><style>.a{fill:#fff;}</style></defs><g transform="translate(-346.616 -61.406)"><g transform="translate(346.616 61.406)"><path class="a" d="M410.482,224.27l-2.578-3.492a1.905,1.905,0,0,1-.278-1.731,4.9,4.9,0,0,0,.247-1.436,1.883,1.883,0,0,1,.8-1.49l.825-.584a2.992,2.992,0,0,1,2.651-.376,4.868,4.868,0,1,0-3.382-4.358,2.947,2.947,0,0,1-1.225,2.585l-.026.019a1.676,1.676,0,0,1-1.882.017,4.873,4.873,0,0,0-3.463-.7,1.729,1.729,0,0,1-1.459-.4l-3.49-3.129a2.931,2.931,0,0,1-.946-2.555,4.869,4.869,0,1,0-3.559,4.087,2.856,2.856,0,0,1,2.635.666l2.228,2a2.628,2.628,0,0,1,.773,2.715,4.911,4.911,0,0,0-.2,1.063,2.709,2.709,0,0,1-1.479,2.264l-6.3,3.093a2.917,2.917,0,0,1-2.78-.077,4.868,4.868,0,1,0,2.31,4.882,2.875,2.875,0,0,1,1.593-2.144l7.714-3.789a.96.96,0,0,1,.979.09l.044.031a.966.966,0,0,1,.419.951l-1.191,7.063a5.539,5.539,0,0,1-2.786,3.922,4.868,4.868,0,1,0,6.561,1.8,8.02,8.02,0,0,1-.907-5.385l1.13-6.7a1.219,1.219,0,0,1,.863-.969l.015,0a1.255,1.255,0,0,1,1.359.46l2.181,2.955a2.931,2.931,0,0,1,.391,2.848,4.868,4.868,0,1,0,4.532-3A2.918,2.918,0,0,1,410.482,224.27Z" transform="translate(-380.229 -201.162)"/></g><g transform="translate(394.897 61.898)"><path class="a" d="M136.68,180.928a6.77,6.77,0,0,0-2.842-2.138,13.089,13.089,0,0,0-5.1-.808h-.243c-.287,0-.816.025-1.487.069-.743.049-1.584.148-2.5.295a29.854,29.854,0,0,0-2.921.638,12.183,12.183,0,0,0-2.626,1.052c0,.335,0,.735-.021,1.2-.021.531-.021,1.04-.021,1.532v20.718h6.14V184.347l.154-.079a6.012,6.012,0,0,1,2.083-.631c.657-.062,1.067-.1,1.291-.1a3.682,3.682,0,0,1,1.651.352,2.937,2.937,0,0,1,1.125,1,3.845,3.845,0,0,1,.582,1.438,8.345,8.345,0,0,1,.164,1.694v15.464h6.188V188.022a24.166,24.166,0,0,0-.314-3.945A7.326,7.326,0,0,0,136.68,180.928Z" transform="translate(-118.916 -169.051)"/><path class="a" d="M301.663,181.144a7.639,7.639,0,0,0-2.859-2.275,10.591,10.591,0,0,0-4.577-.872h-.016q-.142,0-.284,0a12.479,12.479,0,0,0-4.053.675,7.6,7.6,0,0,0-4.73,4.8,11.363,11.363,0,0,0-.595,3.771v5.629a15.687,15.687,0,0,0,.53,4.118,10.084,10.084,0,0,0,1.664,3.5,8.407,8.407,0,0,0,2.982,2.448,9.9,9.9,0,0,0,4.483.94,14.163,14.163,0,0,0,4.03-.5,7.223,7.223,0,0,0,2.732-1.412,6.558,6.558,0,0,0,1.68-2.252,10.352,10.352,0,0,0,.791-2.681h-5.695c-.075.195-.157.4-.251.627a3.2,3.2,0,0,1-.594.912,3.508,3.508,0,0,1-1.037.731,3.966,3.966,0,0,1-1.643.3,3.3,3.3,0,0,1-2.255-.705l-.015-.013a4.127,4.127,0,0,1-1.131-1.733,7.426,7.426,0,0,1-.4-2.182c-.028-.821-.042-1.506-.042-2.095v-.283h13.185v-4.055a19.481,19.481,0,0,0-.417-4.04A8.6,8.6,0,0,0,301.663,181.144Zm-3.562,7.676h-7.722v-1.562a6.337,6.337,0,0,1,.87-3.679l.022-.031a3.392,3.392,0,0,1,2.952-1.283,3.721,3.721,0,0,1,2.217.575l.016.011a3.5,3.5,0,0,1,1.152,1.455,5.843,5.843,0,0,1,.424,1.847c.046.6.07,1.216.07,1.831Z" transform="translate(-261.096 -169.068)"/><path class="a" d="M459.005,130.292l3.041,0,2.78-5.649h-5.814v-9.675h-6.187v25.314a10.235,10.235,0,0,0,.612,3.526,8.014,8.014,0,0,0,1.891,2.954,9.348,9.348,0,0,0,3.277,2.08,12.884,12.884,0,0,0,4.732.783c.332,0,.584-.007.8-.021a1.041,1.041,0,0,0,.324-.057v-5.584a3.87,3.87,0,0,1-.9.061,8.844,8.844,0,0,1-1.319-.119,4.249,4.249,0,0,1-1.492-.522,3.677,3.677,0,0,1-1.22-1.119,3.362,3.362,0,0,1-.521-1.987Z" transform="translate(-405.548 -114.973)"/><path class="a" d="M575.335,130.292l3.033,0,2.78-5.649h-5.814v-9.675h-6.188v25.314a10.1,10.1,0,0,0,.613,3.525,8.012,8.012,0,0,0,1.891,2.955,9.284,9.284,0,0,0,3.272,2.08,12.915,12.915,0,0,0,4.738.783c.332,0,.583-.007.8-.021a1.038,1.038,0,0,0,.323-.057v-5.584a3.877,3.877,0,0,1-.9.061,8.987,8.987,0,0,1-1.318-.119,4.245,4.245,0,0,1-1.492-.522,3.721,3.721,0,0,1-1.215-1.119,3.366,3.366,0,0,1-.52-1.987Z" transform="translate(-505.4 -114.973)"/><path class="a" d="M695.555,183.133a15.15,15.15,0,0,0-4.906.8,9.907,9.907,0,0,0-3.412,1.989,7.869,7.869,0,0,0-2,2.893,9.568,9.568,0,0,0-.653,3.532v15.57h6.235V192.353a4.007,4.007,0,0,1,.337-1.793,2.8,2.8,0,0,1,.906-1.085,3.186,3.186,0,0,1,1.29-.513,8.409,8.409,0,0,1,1.393-.119h3.471l2.835-5.71Z" transform="translate(-604.495 -173.483)"/></g></g></svg>