<svg xmlns="http://www.w3.org/2000/svg" width="585" height="668" viewBox="0 0 585 668"><defs><style>.a,.e,.f,.g,.h,.l,.t{fill:#fff;}.b,.j{opacity:0.25;}.c,.j,.q,.u,.v{fill:#5a5dff;}.d,.i,.k,.m,.n,.p,.r{fill:none;}.d,.g,.l,.r{stroke:#bd00ff;}.d,.e,.g,.h,.k,.l,.m,.n,.r,.t{stroke-linecap:round;}.d,.g,.h,.i,.m,.n,.t{stroke-linejoin:round;}.d,.e,.f,.g,.h,.i,.k,.l,.m,.n,.p,.r,.t{stroke-width:2px;}.e,.f,.h,.i,.k,.m,.p{stroke:#5a5dff;}.e,.f,.k,.l,.p,.r{stroke-miterlimit:10;}.n,.t{stroke:#1d1040;}.o{fill:#1d1040;}.q{opacity:0.15;}.s{fill:#bd00ff;}.u{font-size:51px;}.u,.v,.w{font-family:OpenSans-Bold, Open Sans;font-weight:700;}.v{font-size:14px;}.w{font-size:16px;}</style></defs><g transform="translate(-165 877)"><path class="a" d="M450-673l.237-3.04.139-1.515c.059-.505.174-1.019.262-1.528l.6-3.046c.261-1.007.591-2.008.9-3l.482-1.49c.188-.486.4-.964.61-1.444.419-.958.838-1.915,1.285-2.853a44.681,44.681,0,0,1,3.239-5.224,46.932,46.932,0,0,1,7.957-8.539l2.183-1.71,1.1-.84,1.119-.753,2.24-1.489c.75-.474,1.511-.887,2.267-1.33a95.83,95.83,0,0,1,18.361-7.879,171.277,171.277,0,0,1,18.346-4.68,351.045,351.045,0,0,1,36.332-5.077c12.044-1.136,24.035-1.9,35.988-2.581s23.873-1.259,35.755-1.988,23.729-1.591,35.495-2.965c5.883-.687,11.736-1.536,17.536-2.628a128.551,128.551,0,0,0,17.108-4.318,66.883,66.883,0,0,0,8.117-3.334c1.338-.606,2.565-1.383,3.838-2.106.619-.384,1.2-.818,1.806-1.226.3-.209.606-.409.9-.627l.835-.7a18.747,18.747,0,0,0,1.64-1.44l1.521-1.57,1.326-1.737a17.29,17.29,0,0,0,1.142-1.867A20.066,20.066,0,0,0,713-766a20.474,20.474,0,0,1-1.666,8.8,18.269,18.269,0,0,1-1.025,2.041l-1.235,1.932-1.452,1.775a19.982,19.982,0,0,1-1.588,1.652l-.818.808c-.286.254-.586.488-.879.733-.594.478-1.172.987-1.784,1.442-1.255.861-2.484,1.786-3.812,2.529a69.285,69.285,0,0,1-8.12,4.162,132.083,132.083,0,0,1-17.168,5.9c-5.823,1.611-11.7,2.973-17.6,4.169-11.8,2.393-23.671,4.266-35.525,5.994s-23.706,3.3-35.5,4.977-23.54,3.417-35.143,5.5a335.085,335.085,0,0,0-34.078,7.7,152.933,152.933,0,0,0-15.949,5.518,75.61,75.61,0,0,0-13.942,7.388c-.5.358-1.031.7-1.512,1.063l-1.394,1.121-.7.553-.626.588-1.249,1.16a24.45,24.45,0,0,0-3.8,4.889l-.379.614a6.378,6.378,0,0,0-.294.636q-.279.636-.585,1.251l-.411,1.287c-.069.213-.154.419-.217.633l-.121.666c-.079.442-.2.868-.274,1.311-.028.462-.066.918-.115,1.371-.017.23-.065.447-.065.684l.022.72q.017.717.005,1.428l-.018,1.127a12.011,12.011,0,0,1-12.2,11.817,12.01,12.01,0,0,1-11.817-12.2C449.969-672.494,449.983-672.766,450-673Z"/><path class="a" d="M450-673q-.012-.711.005-1.428l.022-.72c0-.237-.048-.454-.065-.684-.049-.453-.087-.909-.115-1.371-.076-.443-.195-.869-.274-1.311l-.121-.666c-.063-.214-.148-.42-.217-.633l-.411-1.287q-.306-.617-.585-1.251a6.378,6.378,0,0,0-.294-.636l-.379-.614a24.45,24.45,0,0,0-3.8-4.889l-1.249-1.16-.626-.588-.7-.553-1.394-1.121c-.481-.367-1.01-.705-1.512-1.063a75.61,75.61,0,0,0-13.942-7.388,152.933,152.933,0,0,0-15.949-5.518,335.085,335.085,0,0,0-34.078-7.7c-11.6-2.085-23.349-3.833-35.143-5.5s-23.644-3.245-35.5-4.977-23.724-3.6-35.525-5.994c-5.9-1.2-11.78-2.558-17.6-4.169a132.085,132.085,0,0,1-17.168-5.9,69.283,69.283,0,0,1-8.12-4.162c-1.328-.743-2.557-1.668-3.812-2.529-.612-.455-1.19-.964-1.784-1.442-.293-.245-.593-.479-.879-.733l-.818-.808a19.977,19.977,0,0,1-1.588-1.652l-1.452-1.775-1.235-1.932a18.267,18.267,0,0,1-1.025-2.041A20.474,20.474,0,0,1,211-766a20.067,20.067,0,0,0,2.34,8.473,17.29,17.29,0,0,0,1.142,1.867l1.326,1.737,1.521,1.57a18.742,18.742,0,0,0,1.64,1.44l.835.7c.291.218.6.418.9.627.6.408,1.187.842,1.806,1.226,1.273.723,2.5,1.5,3.838,2.106a66.878,66.878,0,0,0,8.117,3.334A128.588,128.588,0,0,0,251.57-738.6c5.8,1.092,11.653,1.941,17.536,2.628,11.766,1.374,23.613,2.24,35.5,2.965s23.8,1.3,35.755,1.988,23.944,1.445,35.988,2.581a351.082,351.082,0,0,1,36.332,5.077,171.277,171.277,0,0,1,18.346,4.68,95.83,95.83,0,0,1,18.361,7.879c.756.443,1.517.856,2.267,1.33l2.24,1.489,1.119.753,1.1.84,2.183,1.71a46.932,46.932,0,0,1,7.957,8.539,44.681,44.681,0,0,1,3.239,5.224c.447.938.866,1.895,1.285,2.853.2.48.422.958.61,1.444l.482,1.49c.309,1,.639,2,.9,3l.6,3.046c.088.509.2,1.023.262,1.528l.139,1.515L474-673a12.01,12.01,0,0,1-11.038,12.909,12.011,12.011,0,0,1-12.909-11.039c-.019-.237-.03-.473-.035-.708Z"/><path class="a" d="M450-673a103.354,103.354,0,0,1,4.885-26.915,70.255,70.255,0,0,1,5.919-12.968,59.772,59.772,0,0,1,8.743-11.434,67.745,67.745,0,0,1,23.021-15.062,140.551,140.551,0,0,1,24.55-7.134c8.107-1.71,16.1-3.042,23.9-4.716,7.783-1.684,15.422-3.682,22.411-6.986,6.943-3.29,13.193-8.162,17.182-14.921,4.061-6.706,5.862-14.784,6.386-22.864.459,8.072-.268,16.49-3.724,24.248-3.361,7.8-9.729,14.239-16.913,18.772-7.221,4.576-15.11,7.686-22.9,10.414-7.815,2.715-15.629,5.032-23.161,7.624a127.262,127.262,0,0,0-21.249,9.091,51.093,51.093,0,0,0-16,13.433,44.649,44.649,0,0,0-7.955,18.2A81.605,81.605,0,0,0,474-673a12.023,12.023,0,0,1-11.242,12.758A12.024,12.024,0,0,1,450-671.483a12.326,12.326,0,0,1-.007-1.425Z"/><path class="a" d="M450-673a81.605,81.605,0,0,0-1.1-21.219,44.649,44.649,0,0,0-7.955-18.2,51.093,51.093,0,0,0-16-13.433,127.262,127.262,0,0,0-21.249-9.091c-7.532-2.592-15.346-4.909-23.161-7.624-7.794-2.728-15.683-5.838-22.9-10.414-7.184-4.533-13.552-10.969-16.913-18.772C337.268-779.51,336.541-787.928,337-796c.524,8.08,2.325,16.158,6.386,22.864,3.989,6.759,10.239,11.631,17.182,14.921,6.989,3.3,14.628,5.3,22.411,6.986,7.8,1.674,15.8,3.006,23.9,4.716a140.551,140.551,0,0,1,24.55,7.134,67.745,67.745,0,0,1,23.021,15.062,59.772,59.772,0,0,1,8.743,11.434,70.255,70.255,0,0,1,5.919,12.968A103.354,103.354,0,0,1,474-673v.023a12.023,12.023,0,0,1-11.265,12.737A12.024,12.024,0,0,1,450-671.506,13.294,13.294,0,0,1,450-673Z"/><path class="a" d="M462-766l12,94a12.1,12.1,0,0,1-10.468,13.532A12.1,12.1,0,0,1,450-668.936,12.614,12.614,0,0,1,450-672Z"/><path class="a" d="M474-673a47.552,47.552,0,0,0,2.993,8c1.231,2.667,2.645,5.333,4.194,8s3.249,5.333,5.042,8c1.865,2.667,3.8,5.333,5.951,8s4.366,5.333,6.826,8c2.357,2.667,4.9,5.333,7.423,8,5.122,5.333,10.406,10.667,15.14,16a91.961,91.961,0,0,1,11.909,16,48.8,48.8,0,0,1,5.9,16,45.752,45.752,0,0,1,.666,8,68.29,68.29,0,0,1-.441,8,67.66,67.66,0,0,1-3.882,16,78.049,78.049,0,0,1-3.507,8c-.628,1.333-1.4,2.667-2.1,4-.773,1.333-1.509,2.667-2.342,4-1.6,2.667-3.4,5.333-5.218,8-1.845,2.667-3.813,5.333-5.753,8-7.888,10.667-16.058,21.333-22.241,32a138.5,138.5,0,0,0-8,16c-2.289,5.333-4.277,10.667-6.08,16a153.682,153.682,0,0,0-4.44,16A80.773,80.773,0,0,0,474-417a12,12,0,0,1-12.052,11.948A12.006,12.006,0,0,1,450-417a80.773,80.773,0,0,0-2.04-16,153.682,153.682,0,0,0-4.44-16c-1.8-5.333-3.791-10.667-6.08-16a138.5,138.5,0,0,0-8-16c-6.183-10.667-14.353-21.333-22.241-32-1.94-2.667-3.908-5.333-5.753-8-1.818-2.667-3.615-5.333-5.218-8-.833-1.333-1.569-2.667-2.342-4-.7-1.333-1.472-2.667-2.1-4a77.83,77.83,0,0,1-3.507-8,67.661,67.661,0,0,1-3.882-16,68.31,68.31,0,0,1-.441-8,45.757,45.757,0,0,1,.666-8,48.8,48.8,0,0,1,5.9-16,91.959,91.959,0,0,1,11.909-16c4.734-5.333,10.018-10.667,15.14-16,2.521-2.667,5.066-5.333,7.423-8,2.46-2.667,4.669-5.333,6.826-8s4.086-5.333,5.951-8c1.793-2.667,3.5-5.333,5.042-8s2.963-5.333,4.194-8A47.552,47.552,0,0,0,450-673a12.385,12.385,0,0,1,15.066-8.934A12.405,12.405,0,0,1,474-673Z"/><path class="a" d="M474-429a22.48,22.48,0,0,0,1.812,10.574,27.682,27.682,0,0,0,7.513,9.142,60.3,60.3,0,0,0,12.186,7.363,118.9,118.9,0,0,0,14.444,5.528,264.966,264.966,0,0,0,31.469,7.49c10.776,1.968,21.709,3.588,32.7,5.111s22.043,2.95,33.107,4.54,22.144,3.321,33.152,5.633c5.5,1.161,10.986,2.472,16.4,4.077a103.709,103.709,0,0,1,15.886,6l1.91.944,1.864,1.05c1.258.661,2.425,1.508,3.626,2.267a35.37,35.37,0,0,1,6.4,5.676,23.953,23.953,0,0,1,4.337,7.314A24.024,24.024,0,0,1,692-338a23.67,23.67,0,0,0-1.881-8.009,22.826,22.826,0,0,0-4.735-6.568l-1.5-1.364c-.524-.428-1.08-.819-1.616-1.229-.272-.2-.535-.411-.813-.6l-.862-.54c-.578-.355-1.139-.731-1.726-1.067-1.214-.618-2.369-1.315-3.632-1.838l-1.856-.836-1.906-.737a99.989,99.989,0,0,0-15.777-4.386c-5.377-1.08-10.823-1.874-16.293-2.523-10.943-1.288-21.98-2.012-33.052-2.6s-22.186-1.009-33.341-1.549-22.355-1.172-33.62-2.2a280.9,280.9,0,0,1-34.046-4.951,137.705,137.705,0,0,1-17.225-4.883A80.419,80.419,0,0,1,471-392.284a49.667,49.667,0,0,1-14.87-15.245l-1.347-2.507-.658-1.266-.55-1.316-1.063-2.658c-.3-.9-.55-1.812-.816-2.723a42.941,42.941,0,0,1-1.177-5.51,26.3,26.3,0,0,1-.306-2.746L450-429a12.034,12.034,0,0,1,11.082-12.915A12.034,12.034,0,0,1,474-430.832a11.969,11.969,0,0,1,.022,1.5Z"/><path class="a" d="M474-429l-.21,2.745a26.3,26.3,0,0,1-.306,2.746,42.941,42.941,0,0,1-1.177,5.51c-.266.911-.515,1.824-.816,2.723l-1.063,2.658-.55,1.316-.658,1.266-1.347,2.507A49.667,49.667,0,0,1,453-392.284a80.419,80.419,0,0,1-17.124,8.408,137.705,137.705,0,0,1-17.225,4.883,280.9,280.9,0,0,1-34.046,4.951c-11.265,1.026-22.465,1.664-33.62,2.2s-22.269.963-33.341,1.549-22.109,1.308-33.052,2.6c-5.47.649-10.916,1.443-16.293,2.523a99.99,99.99,0,0,0-15.777,4.386l-1.906.737-1.856.836c-1.263.523-2.418,1.22-3.632,1.838-.587.336-1.148.712-1.726,1.067l-.862.54c-.278.191-.541.4-.813.6-.536.41-1.092.8-1.616,1.229l-1.5,1.364a22.827,22.827,0,0,0-4.735,6.568A23.67,23.67,0,0,0,232-338a24.022,24.022,0,0,1,1.186-8.29,23.954,23.954,0,0,1,4.337-7.314,35.371,35.371,0,0,1,6.4-5.676c1.2-.759,2.368-1.606,3.626-2.267l1.864-1.05,1.91-.944a103.712,103.712,0,0,1,15.886-6c5.417-1.605,10.9-2.916,16.4-4.077,11.008-2.312,22.091-4.045,33.152-5.633s22.116-3.011,33.107-4.54,21.924-3.143,32.7-5.111a264.966,264.966,0,0,0,31.469-7.49,118.9,118.9,0,0,0,14.444-5.528,60.3,60.3,0,0,0,12.186-7.363,27.682,27.682,0,0,0,7.513-9.142A22.48,22.48,0,0,0,450-429l-.014-.263a12.033,12.033,0,0,1,11.362-12.669,12.033,12.033,0,0,1,12.669,11.362A13.231,13.231,0,0,1,474-429Z"/><path class="a" d="M474-429l-.251,3.979-.132,2c-.043.667-.009,1.306-.019,1.963l-.007,3.937.262,3.846a53.918,53.918,0,0,0,3.2,14.617,41.658,41.658,0,0,0,7.771,12.7,72.594,72.594,0,0,0,12.26,10.713c4.626,3.345,9.671,6.511,14.657,10.082a71.987,71.987,0,0,1,13.945,12.487,41.48,41.48,0,0,1,8.209,16.734A59.137,59.137,0,0,1,535-318a57.659,57.659,0,0,0-3.959-17.017,36.934,36.934,0,0,0-9.7-13.524,64.88,64.88,0,0,0-14.225-8.905c-5.156-2.513-10.633-4.774-16.165-7.488a86.214,86.214,0,0,1-16.389-10.087,58.339,58.339,0,0,1-13.536-15.441,72.993,72.993,0,0,1-7.817-18.967c-.4-1.627-.814-3.265-1.187-4.9l-.848-4.893c-.129-.816-.3-1.645-.392-2.455l-.265-2.432L450-429a12.062,12.062,0,0,1,10.727-13.262,12.061,12.061,0,0,1,13.262,10.727,12.176,12.176,0,0,1,.049,1.961Z"/><path class="a" d="M474-429l-.516,4.887-.265,2.432c-.091.81-.263,1.639-.392,2.455l-.848,4.893c-.373,1.639-.788,3.277-1.187,4.9a72.993,72.993,0,0,1-7.817,18.967,58.339,58.339,0,0,1-13.536,15.441,86.214,86.214,0,0,1-16.389,10.087c-5.532,2.714-11.009,4.975-16.165,7.488a64.879,64.879,0,0,0-14.225,8.905,36.934,36.934,0,0,0-9.7,13.524A57.658,57.658,0,0,0,389-318a59.137,59.137,0,0,1,1.107-17.946,41.48,41.48,0,0,1,8.209-16.734,71.985,71.985,0,0,1,13.945-12.487c4.986-3.571,10.031-6.737,14.657-10.082a72.594,72.594,0,0,0,12.26-10.713,41.658,41.658,0,0,0,7.771-12.7,53.918,53.918,0,0,0,3.2-14.617l.262-3.846-.007-3.937c-.01-.657.024-1.3-.019-1.963l-.132-2L450-429l-.032-.507a12.062,12.062,0,0,1,11.277-12.8,12.062,12.062,0,0,1,12.8,11.277A13.029,13.029,0,0,1,474-429Z"/><g class="b"><path class="c" d="M450-673l.237-3.04.139-1.515c.059-.505.174-1.019.262-1.528l.6-3.046c.261-1.007.591-2.008.9-3l.482-1.49c.188-.486.4-.964.61-1.444.419-.958.838-1.915,1.285-2.853a44.681,44.681,0,0,1,3.239-5.224,46.932,46.932,0,0,1,7.957-8.539l2.183-1.71,1.1-.84,1.119-.753,2.24-1.489c.75-.474,1.511-.887,2.267-1.33a95.83,95.83,0,0,1,18.361-7.879,171.277,171.277,0,0,1,18.346-4.68,351.045,351.045,0,0,1,36.332-5.077c12.044-1.136,24.035-1.9,35.988-2.581s23.873-1.259,35.755-1.988,23.729-1.591,35.495-2.965c5.883-.687,11.736-1.536,17.536-2.628a128.551,128.551,0,0,0,17.108-4.318,66.883,66.883,0,0,0,8.117-3.334c1.338-.606,2.565-1.383,3.838-2.106.619-.384,1.2-.818,1.806-1.226.3-.209.606-.409.9-.627l.835-.7a18.747,18.747,0,0,0,1.64-1.44l1.521-1.57,1.326-1.737a17.29,17.29,0,0,0,1.142-1.867A20.066,20.066,0,0,0,713-766a20.474,20.474,0,0,1-1.666,8.8,18.269,18.269,0,0,1-1.025,2.041l-1.235,1.932-1.452,1.775a19.982,19.982,0,0,1-1.588,1.652l-.818.808c-.286.254-.586.488-.879.733-.594.478-1.172.987-1.784,1.442-1.255.861-2.484,1.786-3.812,2.529a69.285,69.285,0,0,1-8.12,4.162,132.083,132.083,0,0,1-17.168,5.9c-5.823,1.611-11.7,2.973-17.6,4.169-11.8,2.393-23.671,4.266-35.525,5.994s-23.706,3.3-35.5,4.977-23.54,3.417-35.143,5.5a335.085,335.085,0,0,0-34.078,7.7,152.933,152.933,0,0,0-15.949,5.518,75.61,75.61,0,0,0-13.942,7.388c-.5.358-1.031.7-1.512,1.063l-1.394,1.121-.7.553-.626.588-1.249,1.16a24.45,24.45,0,0,0-3.8,4.889l-.379.614a6.378,6.378,0,0,0-.294.636q-.279.636-.585,1.251l-.411,1.287c-.069.213-.154.419-.217.633l-.121.666c-.079.442-.2.868-.274,1.311-.028.462-.066.918-.115,1.371-.017.23-.065.447-.065.684l.022.72q.017.717.005,1.428l-.018,1.127a12.011,12.011,0,0,1-12.2,11.817,12.01,12.01,0,0,1-11.817-12.2C449.969-672.494,449.983-672.766,450-673Z"/><path class="c" d="M450-673q-.012-.711.005-1.428l.022-.72c0-.237-.048-.454-.065-.684-.049-.453-.087-.909-.115-1.371-.076-.443-.195-.869-.274-1.311l-.121-.666c-.063-.214-.148-.42-.217-.633l-.411-1.287q-.306-.617-.585-1.251a6.378,6.378,0,0,0-.294-.636l-.379-.614a24.45,24.45,0,0,0-3.8-4.889l-1.249-1.16-.626-.588-.7-.553-1.394-1.121c-.481-.367-1.01-.705-1.512-1.063a75.61,75.61,0,0,0-13.942-7.388,152.933,152.933,0,0,0-15.949-5.518,335.085,335.085,0,0,0-34.078-7.7c-11.6-2.085-23.349-3.833-35.143-5.5s-23.644-3.245-35.5-4.977-23.724-3.6-35.525-5.994c-5.9-1.2-11.78-2.558-17.6-4.169a132.085,132.085,0,0,1-17.168-5.9,69.283,69.283,0,0,1-8.12-4.162c-1.328-.743-2.557-1.668-3.812-2.529-.612-.455-1.19-.964-1.784-1.442-.293-.245-.593-.479-.879-.733l-.818-.808a19.977,19.977,0,0,1-1.588-1.652l-1.452-1.775-1.235-1.932a18.267,18.267,0,0,1-1.025-2.041A20.474,20.474,0,0,1,211-766a20.067,20.067,0,0,0,2.34,8.473,17.29,17.29,0,0,0,1.142,1.867l1.326,1.737,1.521,1.57a18.742,18.742,0,0,0,1.64,1.44l.835.7c.291.218.6.418.9.627.6.408,1.187.842,1.806,1.226,1.273.723,2.5,1.5,3.838,2.106a66.878,66.878,0,0,0,8.117,3.334A128.588,128.588,0,0,0,251.57-738.6c5.8,1.092,11.653,1.941,17.536,2.628,11.766,1.374,23.613,2.24,35.5,2.965s23.8,1.3,35.755,1.988,23.944,1.445,35.988,2.581a351.082,351.082,0,0,1,36.332,5.077,171.277,171.277,0,0,1,18.346,4.68,95.83,95.83,0,0,1,18.361,7.879c.756.443,1.517.856,2.267,1.33l2.24,1.489,1.119.753,1.1.84,2.183,1.71a46.932,46.932,0,0,1,7.957,8.539,44.681,44.681,0,0,1,3.239,5.224c.447.938.866,1.895,1.285,2.853.2.48.422.958.61,1.444l.482,1.49c.309,1,.639,2,.9,3l.6,3.046c.088.509.2,1.023.262,1.528l.139,1.515L474-673a12.01,12.01,0,0,1-11.038,12.909,12.011,12.011,0,0,1-12.909-11.039c-.019-.237-.03-.473-.035-.708Z"/><path class="c" d="M450-673a103.354,103.354,0,0,1,4.885-26.915,70.255,70.255,0,0,1,5.919-12.968,59.772,59.772,0,0,1,8.743-11.434,67.745,67.745,0,0,1,23.021-15.062,140.551,140.551,0,0,1,24.55-7.134c8.107-1.71,16.1-3.042,23.9-4.716,7.783-1.684,15.422-3.682,22.411-6.986,6.943-3.29,13.193-8.162,17.182-14.921,4.061-6.706,5.862-14.784,6.386-22.864.459,8.072-.268,16.49-3.724,24.248-3.361,7.8-9.729,14.239-16.913,18.772-7.221,4.576-15.11,7.686-22.9,10.414-7.815,2.715-15.629,5.032-23.161,7.624a127.262,127.262,0,0,0-21.249,9.091,51.093,51.093,0,0,0-16,13.433,44.649,44.649,0,0,0-7.955,18.2A81.605,81.605,0,0,0,474-673a12.023,12.023,0,0,1-11.242,12.758A12.024,12.024,0,0,1,450-671.483a12.326,12.326,0,0,1-.007-1.425Z"/><path class="c" d="M450-673a81.605,81.605,0,0,0-1.1-21.219,44.649,44.649,0,0,0-7.955-18.2,51.093,51.093,0,0,0-16-13.433,127.262,127.262,0,0,0-21.249-9.091c-7.532-2.592-15.346-4.909-23.161-7.624-7.794-2.728-15.683-5.838-22.9-10.414-7.184-4.533-13.552-10.969-16.913-18.772C337.268-779.51,336.541-787.928,337-796c.524,8.08,2.325,16.158,6.386,22.864,3.989,6.759,10.239,11.631,17.182,14.921,6.989,3.3,14.628,5.3,22.411,6.986,7.8,1.674,15.8,3.006,23.9,4.716a140.551,140.551,0,0,1,24.55,7.134,67.745,67.745,0,0,1,23.021,15.062,59.772,59.772,0,0,1,8.743,11.434,70.255,70.255,0,0,1,5.919,12.968A103.354,103.354,0,0,1,474-673v.023a12.023,12.023,0,0,1-11.265,12.737A12.024,12.024,0,0,1,450-671.506,13.294,13.294,0,0,1,450-673Z"/><path class="c" d="M462-766l12,94a12.1,12.1,0,0,1-10.468,13.532A12.1,12.1,0,0,1,450-668.936,12.614,12.614,0,0,1,450-672Z"/><path class="c" d="M474-673a47.552,47.552,0,0,0,2.993,8c1.231,2.667,2.645,5.333,4.194,8s3.249,5.333,5.042,8c1.865,2.667,3.8,5.333,5.951,8s4.366,5.333,6.826,8c2.357,2.667,4.9,5.333,7.423,8,5.122,5.333,10.406,10.667,15.14,16a91.961,91.961,0,0,1,11.909,16,48.8,48.8,0,0,1,5.9,16,45.752,45.752,0,0,1,.666,8,68.29,68.29,0,0,1-.441,8,67.66,67.66,0,0,1-3.882,16,78.049,78.049,0,0,1-3.507,8c-.628,1.333-1.4,2.667-2.1,4-.773,1.333-1.509,2.667-2.342,4-1.6,2.667-3.4,5.333-5.218,8-1.845,2.667-3.813,5.333-5.753,8-7.888,10.667-16.058,21.333-22.241,32a138.5,138.5,0,0,0-8,16c-2.289,5.333-4.277,10.667-6.08,16a153.682,153.682,0,0,0-4.44,16A80.773,80.773,0,0,0,474-417a12,12,0,0,1-12.052,11.948A12.006,12.006,0,0,1,450-417a80.773,80.773,0,0,0-2.04-16,153.682,153.682,0,0,0-4.44-16c-1.8-5.333-3.791-10.667-6.08-16a138.5,138.5,0,0,0-8-16c-6.183-10.667-14.353-21.333-22.241-32-1.94-2.667-3.908-5.333-5.753-8-1.818-2.667-3.615-5.333-5.218-8-.833-1.333-1.569-2.667-2.342-4-.7-1.333-1.472-2.667-2.1-4a77.83,77.83,0,0,1-3.507-8,67.661,67.661,0,0,1-3.882-16,68.31,68.31,0,0,1-.441-8,45.757,45.757,0,0,1,.666-8,48.8,48.8,0,0,1,5.9-16,91.959,91.959,0,0,1,11.909-16c4.734-5.333,10.018-10.667,15.14-16,2.521-2.667,5.066-5.333,7.423-8,2.46-2.667,4.669-5.333,6.826-8s4.086-5.333,5.951-8c1.793-2.667,3.5-5.333,5.042-8s2.963-5.333,4.194-8A47.552,47.552,0,0,0,450-673a12.385,12.385,0,0,1,15.066-8.934A12.405,12.405,0,0,1,474-673Z"/><path class="c" d="M474-429a22.48,22.48,0,0,0,1.812,10.574,27.682,27.682,0,0,0,7.513,9.142,60.3,60.3,0,0,0,12.186,7.363,118.9,118.9,0,0,0,14.444,5.528,264.966,264.966,0,0,0,31.469,7.49c10.776,1.968,21.709,3.588,32.7,5.111s22.043,2.95,33.107,4.54,22.144,3.321,33.152,5.633c5.5,1.161,10.986,2.472,16.4,4.077a103.709,103.709,0,0,1,15.886,6l1.91.944,1.864,1.05c1.258.661,2.425,1.508,3.626,2.267a35.37,35.37,0,0,1,6.4,5.676,23.953,23.953,0,0,1,4.337,7.314A24.024,24.024,0,0,1,692-338a23.67,23.67,0,0,0-1.881-8.009,22.826,22.826,0,0,0-4.735-6.568l-1.5-1.364c-.524-.428-1.08-.819-1.616-1.229-.272-.2-.535-.411-.813-.6l-.862-.54c-.578-.355-1.139-.731-1.726-1.067-1.214-.618-2.369-1.315-3.632-1.838l-1.856-.836-1.906-.737a99.989,99.989,0,0,0-15.777-4.386c-5.377-1.08-10.823-1.874-16.293-2.523-10.943-1.288-21.98-2.012-33.052-2.6s-22.186-1.009-33.341-1.549-22.355-1.172-33.62-2.2a280.9,280.9,0,0,1-34.046-4.951,137.705,137.705,0,0,1-17.225-4.883A80.419,80.419,0,0,1,471-392.284a49.667,49.667,0,0,1-14.87-15.245l-1.347-2.507-.658-1.266-.55-1.316-1.063-2.658c-.3-.9-.55-1.812-.816-2.723a42.941,42.941,0,0,1-1.177-5.51,26.3,26.3,0,0,1-.306-2.746L450-429a12.034,12.034,0,0,1,11.082-12.915A12.034,12.034,0,0,1,474-430.832a11.969,11.969,0,0,1,.022,1.5Z"/><path class="c" d="M474-429l-.21,2.745a26.3,26.3,0,0,1-.306,2.746,42.941,42.941,0,0,1-1.177,5.51c-.266.911-.515,1.824-.816,2.723l-1.063,2.658-.55,1.316-.658,1.266-1.347,2.507A49.667,49.667,0,0,1,453-392.284a80.419,80.419,0,0,1-17.124,8.408,137.705,137.705,0,0,1-17.225,4.883,280.9,280.9,0,0,1-34.046,4.951c-11.265,1.026-22.465,1.664-33.62,2.2s-22.269.963-33.341,1.549-22.109,1.308-33.052,2.6c-5.47.649-10.916,1.443-16.293,2.523a99.99,99.99,0,0,0-15.777,4.386l-1.906.737-1.856.836c-1.263.523-2.418,1.22-3.632,1.838-.587.336-1.148.712-1.726,1.067l-.862.54c-.278.191-.541.4-.813.6-.536.41-1.092.8-1.616,1.229l-1.5,1.364a22.827,22.827,0,0,0-4.735,6.568A23.67,23.67,0,0,0,232-338a24.022,24.022,0,0,1,1.186-8.29,23.954,23.954,0,0,1,4.337-7.314,35.371,35.371,0,0,1,6.4-5.676c1.2-.759,2.368-1.606,3.626-2.267l1.864-1.05,1.91-.944a103.712,103.712,0,0,1,15.886-6c5.417-1.605,10.9-2.916,16.4-4.077,11.008-2.312,22.091-4.045,33.152-5.633s22.116-3.011,33.107-4.54,21.924-3.143,32.7-5.111a264.966,264.966,0,0,0,31.469-7.49,118.9,118.9,0,0,0,14.444-5.528,60.3,60.3,0,0,0,12.186-7.363,27.682,27.682,0,0,0,7.513-9.142A22.48,22.48,0,0,0,450-429l-.014-.263a12.033,12.033,0,0,1,11.362-12.669,12.033,12.033,0,0,1,12.669,11.362A13.231,13.231,0,0,1,474-429Z"/><path class="c" d="M474-429l-.251,3.979-.132,2c-.043.667-.009,1.306-.019,1.963l-.007,3.937.262,3.846a53.918,53.918,0,0,0,3.2,14.617,41.658,41.658,0,0,0,7.771,12.7,72.594,72.594,0,0,0,12.26,10.713c4.626,3.345,9.671,6.511,14.657,10.082a71.987,71.987,0,0,1,13.945,12.487,41.48,41.48,0,0,1,8.209,16.734A59.137,59.137,0,0,1,535-318a57.659,57.659,0,0,0-3.959-17.017,36.934,36.934,0,0,0-9.7-13.524,64.88,64.88,0,0,0-14.225-8.905c-5.156-2.513-10.633-4.774-16.165-7.488a86.214,86.214,0,0,1-16.389-10.087,58.339,58.339,0,0,1-13.536-15.441,72.993,72.993,0,0,1-7.817-18.967c-.4-1.627-.814-3.265-1.187-4.9l-.848-4.893c-.129-.816-.3-1.645-.392-2.455l-.265-2.432L450-429a12.062,12.062,0,0,1,10.727-13.262,12.061,12.061,0,0,1,13.262,10.727,12.176,12.176,0,0,1,.049,1.961Z"/><path class="c" d="M474-429l-.516,4.887-.265,2.432c-.091.81-.263,1.639-.392,2.455l-.848,4.893c-.373,1.639-.788,3.277-1.187,4.9a72.993,72.993,0,0,1-7.817,18.967,58.339,58.339,0,0,1-13.536,15.441,86.214,86.214,0,0,1-16.389,10.087c-5.532,2.714-11.009,4.975-16.165,7.488a64.879,64.879,0,0,0-14.225,8.905,36.934,36.934,0,0,0-9.7,13.524A57.658,57.658,0,0,0,389-318a59.137,59.137,0,0,1,1.107-17.946,41.48,41.48,0,0,1,8.209-16.734,71.985,71.985,0,0,1,13.945-12.487c4.986-3.571,10.031-6.737,14.657-10.082a72.594,72.594,0,0,0,12.26-10.713,41.658,41.658,0,0,0,7.771-12.7,53.918,53.918,0,0,0,3.2-14.617l.262-3.846-.007-3.937c-.01-.657.024-1.3-.019-1.963l-.132-2L450-429l-.032-.507a12.062,12.062,0,0,1,11.277-12.8,12.062,12.062,0,0,1,12.8,11.277A13.029,13.029,0,0,1,474-429Z"/></g><line class="d" y2="8" transform="translate(462 -799)"/><circle class="d" cx="2" cy="2" r="2" transform="translate(460 -791)"/><rect class="d" width="5" height="6" transform="translate(306 -858)"/><path class="e" d="M694-791H684a3,3,0,0,1-3-3v-47a3,3,0,0,1,3-3h58a3,3,0,0,1,3,3v47a3,3,0,0,1-3,3H732"/><circle class="a" cx="21" cy="21" r="21" transform="translate(692 -821)"/><rect class="f" width="70" height="90" rx="3" transform="translate(349 -300)"/><path class="a" d="M385-238l44.5-44.5a3.535,3.535,0,0,1,5,0h0a3.535,3.535,0,0,1,0,5L390-233l-8,3Z"/><rect class="f" width="86" height="76" rx="12" transform="translate(649 -317)"/><rect class="a" width="28" height="62" rx="3" transform="translate(721 -295)"/><rect class="f" width="106" height="72" rx="3" transform="translate(171 -324)"/><line class="e" x1="105.975" transform="translate(171 -258.863)"/><rect class="a" width="32" height="51" rx="3" transform="translate(166 -283)"/><path class="g" d="M235-831a7,7,0,0,1-7,7v-7l4.748-5.144A6.981,6.981,0,0,1,235-831Z"/><path class="h" d="M0,0H6A0,0,0,0,1,6,0V28a3,3,0,0,1-3,3H3a3,3,0,0,1-3-3V0A0,0,0,0,1,0,0Z" transform="translate(206 -813)"/><rect class="e" width="64" height="38" rx="2" transform="translate(302 -852)"/><circle class="h" cx="23" cy="23" r="23" transform="translate(311 -856)"/><line class="i" x1="63" transform="translate(681.5 -836)"/><circle class="j" cx="21" cy="21" r="21" transform="translate(692 -821)"/><circle class="k" cx="21" cy="21" r="21" transform="translate(692 -821)"/><path class="i" d="M697.082-786.306C700.933-789.18,706.636-791,713-791s12.068,1.82,15.919,4.7"/><line class="i" x2="42" transform="translate(692.5 -800)"/><ellipse class="i" cx="11" cy="21" rx="11" ry="21" transform="translate(702 -821)"/><line class="i" y1="42" transform="translate(713 -821)"/><path class="i" d="M697.082-814.694C700.933-811.82,706.636-810,713-810s12.067-1.82,15.918-4.7"/><rect class="e" width="38" height="8" rx="2" transform="translate(568 -841)"/><rect class="e" width="24" height="14" rx="2" transform="translate(575 -864)"/><path class="j" d="M587-811h0a12,12,0,0,1-12-12v-8a2,2,0,0,1,2-2h20a2,2,0,0,1,2,2v8A12,12,0,0,1,587-811Z"/><path class="k" d="M587-811h0a12,12,0,0,1-12-12v-8a2,2,0,0,1,2-2h20a2,2,0,0,1,2,2v8A12,12,0,0,1,587-811Z"/><circle class="l" cx="5" cy="5" r="5" transform="translate(582 -828)"/><path class="j" d="M599-854h9a5,5,0,0,0,5-5h0v-13a3,3,0,0,0-3-3h0a3,3,0,0,0-3,3v9a3,3,0,0,1-3,3h-5"/><path class="k" d="M599-854h9a5,5,0,0,0,5-5h0v-13a3,3,0,0,0-3-3h0a3,3,0,0,0-3,3v9a3,3,0,0,1-3,3h-5"/><path class="j" d="M575-860h-5a3,3,0,0,1-3-3v-9a3,3,0,0,0-3-3h0a3,3,0,0,0-3,3v13h0a5,5,0,0,0,5,5h9"/><path class="k" d="M575-860h-5a3,3,0,0,1-3-3v-9a3,3,0,0,0-3-3h0a3,3,0,0,0-3,3v13h0a5,5,0,0,0,5,5h9"/><line class="d" x2="28" transform="translate(550 -869)"/><line class="d" x2="28" transform="translate(596 -869)"/><circle class="d" cx="3" cy="3" r="3" transform="translate(584 -860)"/><rect class="e" width="10" height="9" transform="translate(582 -850)"/><circle class="c" cx="1" cy="1" r="1" transform="translate(601 -838)"/><rect class="h" width="14" height="28" rx="3" transform="translate(455 -846)"/><path class="j" d="M467-846H457l-4-11h18Z"/><path class="m" d="M467-846H457l-4-11h18Z"/><path class="h" d="M13,0h0A13,13,0,0,1,26,13v1a0,0,0,0,1,0,0H0a0,0,0,0,1,0,0V13A13,13,0,0,1,13,0Z" transform="translate(449 -813)"/><line class="h" y2="5" transform="translate(459 -818)"/><line class="h" y2="5" transform="translate(465 -818)"/><rect class="j" width="26" height="26" rx="2" transform="translate(423 -845)"/><rect class="k" width="26" height="26" rx="2" transform="translate(423 -845)"/><line class="m" x2="32" transform="translate(423 -832)"/><line class="m" y2="26" transform="translate(436 -845)"/><rect class="j" width="26" height="26" rx="2" transform="translate(475 -845)"/><rect class="k" width="26" height="26" rx="2" transform="translate(475 -845)"/><line class="m" x2="32" transform="translate(469 -832)"/><line class="m" y2="26" transform="translate(488 -845)"/><line class="h" x2="13" transform="translate(455 -827)"/><rect class="h" width="12" height="4" transform="translate(456 -861)"/><circle class="j" cx="16" cy="16" r="16" transform="translate(318 -849)"/><circle class="k" cx="16" cy="16" r="16" transform="translate(318 -849)"/><line class="m" y2="7" transform="translate(329 -863)"/><line class="e" y2="7" transform="translate(339 -863)"/><rect class="m" width="5" height="6" transform="translate(358 -858)"/><line class="m" x2="12" y2="0.031" transform="translate(302 -845.031)"/><line class="m" x2="12" y2="0.031" transform="translate(354 -845)"/><path class="m" d="M338.122-843.2A11,11,0,0,1,345-833"/><rect class="c" width="2" height="2" rx="1" transform="translate(333 -845)"/><path class="j" d="M180-779h-4v-22h4a2,2,0,0,1,2,2v18A2,2,0,0,1,180-779Z"/><path class="k" d="M180-779h-4v-22h4a2,2,0,0,1,2,2v18A2,2,0,0,1,180-779Z"/><path class="j" d="M186-784h-4v-12h4a2,2,0,0,1,2,2v8A2,2,0,0,1,186-784Z"/><path class="k" d="M186-784h-4v-12h4a2,2,0,0,1,2,2v8A2,2,0,0,1,186-784Z"/><rect class="h" width="18" height="7" transform="translate(188 -794)"/><path class="h" d="M0,0H12a0,0,0,0,1,0,0V6a2,2,0,0,1-2,2H2A2,2,0,0,1,0,6V0A0,0,0,0,1,0,0Z" transform="translate(203 -821)"/><rect class="j" width="37" height="10" transform="translate(191 -831)"/><rect class="k" width="37" height="10" transform="translate(191 -831)"/><path class="h" d="M210-826H182v-18h58l-12,13H216Z"/><path class="n" d="M462-673c0-76.358,251-32.3,251-93"/><path class="n" d="M462-673c0-76.358-251-32.3-251-93"/><path class="n" d="M462-673c0-100.989,125-42.726,125-123"/><path class="n" d="M462-673c0-100.989-125-42.726-125-123"/><line class="n" y2="120.141" transform="translate(462 -766)"/><path class="o" d="M462-648.91l6.125-3.726.139.209-3.967,9.988q-1.149,5.22-2.3,10.439-1.148-5.22-2.3-10.439l-3.967-9.988.105-.209Z"/><rect class="f" width="111" height="60" rx="3" transform="translate(477 -286)"/><line class="p" x2="111" transform="translate(477 -231)"/><path class="q" d="M490-219l7-7h6l-7,7Z"/><path class="k" d="M490-219l7-7h6l-7,7Z"/><path class="q" d="M575-219l-7-7h-6l7,7Z"/><path class="k" d="M575-219l-7-7h-6l7,7Z"/><path class="m" d="M562-302a26.384,26.384,0,0,1,13-4,26.384,26.384,0,0,1,13,4"/><path class="m" d="M567-296.769a16.233,16.233,0,0,1,8-2.462,16.233,16.233,0,0,1,8,2.462"/><path class="m" d="M571-291.385a8.121,8.121,0,0,1,4-1.23,8.121,8.121,0,0,1,4,1.23"/><rect class="j" width="14" height="10" transform="translate(489 -273)"/><rect class="k" width="14" height="10" transform="translate(489 -273)"/><rect class="j" width="14" height="10" transform="translate(513 -273)"/><rect class="r" width="14" height="10" transform="translate(513 -273)"/><rect class="j" width="14" height="10" transform="translate(537 -273)"/><rect class="k" width="14" height="10" transform="translate(537 -273)"/><rect class="j" width="14" height="10" transform="translate(561 -273)"/><rect class="r" width="14" height="10" transform="translate(561 -273)"/><rect class="j" width="14" height="10" transform="translate(489 -253)"/><rect class="r" width="14" height="10" transform="translate(489 -253)"/><rect class="j" width="14" height="10" transform="translate(513 -253)"/><rect class="k" width="14" height="10" transform="translate(513 -253)"/><rect class="j" width="14" height="10" transform="translate(537 -253)"/><rect class="r" width="14" height="10" transform="translate(537 -253)"/><rect class="j" width="14" height="10" transform="translate(561 -253)"/><rect class="k" width="14" height="10" transform="translate(561 -253)"/><rect class="j" width="36" height="22" rx="4" transform="translate(674 -290)"/><rect class="k" width="36" height="22" rx="4" transform="translate(674 -290)"/><path class="d" d="M680-284h11l7,10,6-10"/><line class="r" y1="7" transform="translate(685 -281)"/><rect class="j" width="6" height="6" rx="3" transform="translate(679 -312)"/><rect class="k" width="6" height="6" rx="3" transform="translate(679 -312)"/><rect class="j" width="6" height="6" rx="3" transform="translate(689 -312)"/><rect class="k" width="6" height="6" rx="3" transform="translate(689 -312)"/><rect class="j" width="6" height="6" rx="3" transform="translate(699 -312)"/><rect class="k" width="6" height="6" rx="3" transform="translate(699 -312)"/><path class="k" d="M721.474-313c4.97,0,9.526,4.029,9.526,9"/><rect class="j" width="28" height="62" rx="3" transform="translate(721 -295)"/><rect class="k" width="28" height="62" rx="3" transform="translate(721 -295)"/><circle class="p" cx="7" cy="7" r="7" transform="translate(728 -263)"/><circle class="p" cx="3" cy="3" r="3" transform="translate(732 -259)"/><line class="k" x2="4" transform="translate(725 -280)"/><line class="k" x2="4" transform="translate(733 -280)"/><line class="k" x2="4" transform="translate(741 -280)"/><line class="k" x2="4" transform="translate(725 -288)"/><line class="k" x2="4" transform="translate(741 -288)"/><line class="k" x2="4" transform="translate(725 -276)"/><line class="k" x2="4" transform="translate(733 -276)"/><line class="k" x2="4" transform="translate(741 -276)"/><line class="k" x2="4" transform="translate(725 -272)"/><line class="k" x2="4" transform="translate(733 -272)"/><line class="k" x2="4" transform="translate(733 -267)"/><line class="k" x2="4" transform="translate(741 -272)"/><line class="k" x2="4" transform="translate(725 -244)"/><line class="k" x2="4" transform="translate(733 -244)"/><line class="k" x2="4" transform="translate(741 -244)"/><line class="k" x2="70" transform="translate(349 -218)"/><line class="r" x2="6" transform="translate(381 -214)"/><rect class="f" width="42" height="7" rx="3.5" transform="translate(203 -239)"/><rect class="f" width="22" height="13" transform="translate(213 -252)"/><path class="k" d="M257.316-318H270a1,1,0,0,1,1,1v12"/><rect class="j" width="32" height="51" rx="3" transform="translate(166 -283)"/><rect class="k" width="32" height="51" rx="3" transform="translate(166 -283)"/><line class="k" x2="30" transform="translate(167 -240)"/><line class="k" x2="6" transform="translate(179 -236)"/><path class="j" d="M223.205-289.795l13.574,5.43L234.414-282l2,2L233-276.586l-2-2-2.365,2.365Z"/><path class="s" d="M225-288l10,4-2,2,2,2-2,2-2-2-2,2-4-10m-3.59-3.59,1.733,4.333,4,10,1.127,2.816,2.144-2.145.586-.586.586.586L233-275.172l1.414-1.414,2-2L237.828-280l-1.414-1.414-.586-.586.586-.586,2.145-2.145-2.816-1.126-10-4-4.333-1.733Z"/><path class="j" d="M385-238l44.5-44.5a3.535,3.535,0,0,1,5,0h0a3.535,3.535,0,0,1,0,5L390-233l-8,3Z"/><path class="k" d="M385-238l44.5-44.5a3.535,3.535,0,0,1,5,0h0a3.535,3.535,0,0,1,0,5L390-233l-8,3Z"/><rect class="j" width="8" height="8" rx="3" transform="translate(357 -293)"/><rect class="r" width="8" height="8" rx="3" transform="translate(357 -293)"/><rect class="j" width="8" height="8" rx="3" transform="translate(372 -293)"/><rect class="k" width="8" height="8" rx="3" transform="translate(372 -293)"/><rect class="j" width="8" height="8" rx="3" transform="translate(387 -293)"/><rect class="r" width="8" height="8" rx="3" transform="translate(387 -293)"/><rect class="j" width="8" height="8" rx="3" transform="translate(402 -293)"/><rect class="k" width="8" height="8" rx="3" transform="translate(402 -293)"/><rect class="j" width="8" height="8" rx="3" transform="translate(357 -277)"/><rect class="k" width="8" height="8" rx="3" transform="translate(357 -277)"/><rect class="j" width="8" height="8" rx="3" transform="translate(372 -277)"/><rect class="r" width="8" height="8" rx="3" transform="translate(372 -277)"/><rect class="j" width="8" height="8" rx="3" transform="translate(387 -277)"/><rect class="k" width="8" height="8" rx="3" transform="translate(387 -277)"/><path class="n" d="M462-429c0,71.6,193.813,36.185,225.611,77.852"/><path class="o" d="M685.687-353.688l4.291-5.742.207.142.048,10.746Q691.118-343.271,692-338q-3.013-4.413-6.028-8.827l-7.409-7.784.019-.233Z"/><path class="n" d="M462-429c0,71.6-193.813,36.185-225.611,77.852"/><path class="o" d="M238.313-353.688l7.073-1.169.051.246-7.409,7.784Q235.014-342.413,232-338l1.767-10.542.048-10.746.175-.155Z"/><path class="n" d="M462-429c0,71.463,61.276,53.11,71.548,97.212"/><path class="o" d="M532.814-334.768l5.593-4.486.164.189-2.643,10.417Q535.465-323.324,535-318q-1.813-5.028-3.627-10.055l-5.224-9.391.076-.221Z"/><path class="n" d="M462-429c0,71.463-61.276,53.11-71.548,97.212"/><path class="o" d="M391.186-334.768l6.555-2.9.11.225-5.224,9.391Q390.813-323.027,389-318q-.463-5.324-.928-10.648l-2.643-10.417.131-.194Z"/><circle class="t" cx="4" cy="4" r="4" transform="translate(583 -804)"/><circle class="t" cx="4" cy="4" r="4" transform="translate(333 -804)"/><circle class="t" cx="4" cy="4" r="4" transform="translate(207 -774)"/><circle class="t" cx="4" cy="4" r="4" transform="translate(458 -774)"/><circle class="t" cx="4" cy="4" r="4" transform="translate(709 -774)"/><circle class="a" cx="4" cy="4" r="4" transform="translate(458 -429)"/><circle class="n" cx="4" cy="4" r="4" transform="translate(458 -429)"/><path class="j" d="M745-836H681v-5a3,3,0,0,1,3-3h58a3,3,0,0,1,3,3Z"/><path class="k" d="M745-836H681v-5a3,3,0,0,1,3-3h58a3,3,0,0,1,3,3Z"/><circle class="s" cx="1" cy="1" r="1" transform="translate(684.5 -841)"/><circle class="s" cx="1" cy="1" r="1" transform="translate(688.5 -841)"/><circle class="s" cx="1" cy="1" r="1" transform="translate(692.5 -841)"/><rect class="l" width="28" height="12" rx="2" transform="translate(320 -876)"/><rect class="f" width="226" height="113" rx="8" transform="translate(349 -620)"/><text class="u" transform="translate(462 -555.404)"><tspan x="-74.832" y="0">NMPS</tspan></text><text class="v" transform="translate(462 -534.905)"><tspan x="-72.293" y="0">STREAMING FORMAT</tspan></text><text class="w" transform="translate(462 -444.637)"><tspan x="-59.328" y="0">HTTP/S SERVER</tspan></text><path class="o" d="M395.811-470.458c-3.435-.019-6.276-7.033-6.276-10.6,0-5.834,4.376-7.111,6.062-7.111a6.971,6.971,0,0,1,2.287.562,5.137,5.137,0,0,0,1.307.375,4.058,4.058,0,0,0,.936-.3,7.5,7.5,0,0,1,2.824-.683h.007a5.789,5.789,0,0,1,4.844,2.447l.353.531-.508.384a4.278,4.278,0,0,0-2.052,3.529,3.983,3.983,0,0,0,2.222,3.682c.318.191.648.389.648.821,0,.282-2.25,6.337-5.518,6.337a4.44,4.44,0,0,1-1.864-.452,3.769,3.769,0,0,0-1.658-.4,4.256,4.256,0,0,0-1.313.356,6.432,6.432,0,0,1-2.278.531Z"/><path class="o" d="M403.3-493.542c.085,3.069-2.11,5.2-4.3,5.065C398.635-490.927,401.188-493.542,403.3-493.542Z"/><path class="o" d="M534.31-474.007c-.681-.277-.973-.645-.945-1.194a1.83,1.83,0,0,0-.51-1.3,5.586,5.586,0,0,0,0-2.974,25.678,25.678,0,0,0-3.187-5.162,4.409,4.409,0,0,1-.628-2.643,8,8,0,0,0-.6-3.219,3.353,3.353,0,0,0-3.189-2.047,4.384,4.384,0,0,0-2.424.733c-1.392.954-1.208,3.035-1.087,4.412.017.188.033.366.042.518a6.794,6.794,0,0,1-.089,2.275,9.439,9.439,0,0,1-.7.969c-.337.44-.718.938-1.03,1.4a11,11,0,0,0-.966,2.24,10.642,10.642,0,0,1-.61,1.517,2.049,2.049,0,0,0-.2,1.552,1.591,1.591,0,0,0-.515.648c-.208.439-.628.675-1.5.842a1.154,1.154,0,0,0-.823.5,1.408,1.408,0,0,0,.008,1.13,1.74,1.74,0,0,1-.117,1.273c-.04.122-.086.259-.132.411a.734.734,0,0,0,.078.646c.33.5,1.293.678,2.285.8a8.844,8.844,0,0,1,1.867.532,8.8,8.8,0,0,0,1.826.523,2.085,2.085,0,0,0,.258.017,1.519,1.519,0,0,0,1.39-.81,15.456,15.456,0,0,1,2.506-.294,10.919,10.919,0,0,1,2.49.254,2,2,0,0,0,.75.812,1.832,1.832,0,0,0,.844.188h0a2.045,2.045,0,0,0,1.484-.608,13.294,13.294,0,0,1,2.69-1.707c.206-.111.4-.214.567-.308a1.26,1.26,0,0,0,.776-1.118A.945.945,0,0,0,534.31-474.007Zm-11.468-.1c-.064-.451-.648-.9-1.325-1.416a4.664,4.664,0,0,1-1.353-1.31,3.924,3.924,0,0,1,.415-3.074,7.809,7.809,0,0,0,.632-1.514,5.454,5.454,0,0,1,.66-1.5,3.8,3.8,0,0,0,.791-1.9,2.4,2.4,0,0,0,1.413.763.809.809,0,0,0,.227-.031,7.665,7.665,0,0,0,1.355-.677,5.744,5.744,0,0,1,1.15-.574,31.708,31.708,0,0,1,2.513,6.21,6.545,6.545,0,0,1-.093,2.368,1.823,1.823,0,0,0-.235-.017c-.55,0-.7.3-.733.476a19.406,19.406,0,0,0-.109,2.271,4.551,4.551,0,0,1-2.645,1.643,11.636,11.636,0,0,1-1.63.127,5.549,5.549,0,0,1-.8-.049l-.725-.823A.873.873,0,0,0,522.842-474.11Zm.92-13.577-.067.031a1.262,1.262,0,0,0-.015-.148.841.841,0,0,0-.718-.78.519.519,0,0,0-.077.006.6.6,0,0,0-.444.394c.075-.465.341-.809.656-.809.369,0,.681.5.681,1.08A1.6,1.6,0,0,1,523.762-487.687Zm2.872.349a1.133,1.133,0,0,0,.052-.343.863.863,0,0,0-.772-.947.872.872,0,0,0-.767.947.947.947,0,0,0,.005.106l-.066-.025a1.426,1.426,0,0,1-.073-.455,1.053,1.053,0,0,1,.911-1.151,1.053,1.053,0,0,1,.91,1.151A1.351,1.351,0,0,1,526.634-487.338Zm-.37,1.235c-.007.032-.023.046-.193.134-.086.045-.193.1-.327.181l-.089.054a8.36,8.36,0,0,1-1.431.753c-.155.021-.251-.039-.467-.185l-.156-.1a1.815,1.815,0,0,1-.667-.642c.126-.1.441-.341.6-.485a1.743,1.743,0,0,1,.819-.505l.024,0a8.394,8.394,0,0,1,1.008.357c.159.063.3.118.394.152A.939.939,0,0,1,526.264-486.1ZM529-472a11.135,11.135,0,0,0,.338-2.437c-.008-.14-.02-.293-.032-.441a3.972,3.972,0,0,1-.022-.808l.023-.009a1.368,1.368,0,0,0,.646,1.3,1.428,1.428,0,0,0,.575.111,2.351,2.351,0,0,0,1.457-.534,2.672,2.672,0,0,0,.37-.482.557.557,0,0,1,.025.227,1.63,1.63,0,0,0,.707,1.468l.071.036c.172.09.632.33.639.443a.1.1,0,0,1-.03.037,6.558,6.558,0,0,1-.911.509,8,8,0,0,0-1.835,1.12,2.506,2.506,0,0,1-1.4.869.389.389,0,0,1-.112-.015C529.144-470.713,528.84-471.242,529-472Zm-12.585-1.966a1.028,1.028,0,0,1-.035-.447c.023-.1.516-.2.727-.25a2.837,2.837,0,0,0,.8-.251,1.619,1.619,0,0,0,.546-.728,1.135,1.135,0,0,1,.3-.454.066.066,0,0,1,.036-.009c.215,0,.667.45.928.853.066.1.188.3.33.54a17.162,17.162,0,0,0,1.306,1.991c.273.29.715.849.606,1.328a1.455,1.455,0,0,1-.6.74.633.633,0,0,1-.134.012,8.622,8.622,0,0,1-2.343-.736l-.092-.038a7.468,7.468,0,0,0-1.449-.321,4.722,4.722,0,0,1-1.123-.251c-.08-.088.012-.376.094-.631a4.09,4.09,0,0,0,.152-.569A2.05,2.05,0,0,0,516.419-473.963Z"/><path class="o" d="M471.958-482.224v-6.292l9.1-1.141v7.433Z"/><path class="o" d="M483.5-482.224v-7.738l10.542-1.321v9.06Z"/><path class="o" d="M483.5-472.038v-7.738h10.542v9.06Z"/><path class="o" d="M471.958-473.484v-6.292h9.1v7.433Z"/><path class="o" d="M443.457-469.231a1.509,1.509,0,0,0,1.473-1.474v-3.44h.984a.93.93,0,0,0,.984-.984v-9.827H435.1v9.827a.93.93,0,0,0,.984.984h.984v3.44a1.509,1.509,0,0,0,1.473,1.474,1.509,1.509,0,0,0,1.473-1.474v-3.44h1.968v3.44A1.509,1.509,0,0,0,443.457-469.231Z"/><path class="o" d="M449.355-475.129a1.508,1.508,0,0,0,1.473-1.473v-6.882a1.51,1.51,0,0,0-1.473-1.472,1.511,1.511,0,0,0-1.474,1.472v6.882A1.509,1.509,0,0,0,449.355-475.129Z"/><path class="o" d="M432.645-475.129a1.509,1.509,0,0,0,1.474-1.473v-6.882a1.511,1.511,0,0,0-1.474-1.472,1.51,1.51,0,0,0-1.473,1.472v6.882A1.508,1.508,0,0,0,432.645-475.129Z"/><path class="o" d="M445.717-492.62a.47.47,0,0,0-.686,0l-1.319,1.315-.061.061a5.83,5.83,0,0,0-2.637-.59h-.028a5.83,5.83,0,0,0-2.637.59l-.061-.061-1.319-1.315a.47.47,0,0,0-.686,0,.471.471,0,0,0,0,.685l1.276,1.277a5.28,5.28,0,0,0-1.108.995,5.771,5.771,0,0,0-1.34,3.415l0,.041c0,.088-.006.177-.006.266h11.8c0-.089,0-.178-.006-.266l0-.041a5.771,5.771,0,0,0-1.34-3.415,5.336,5.336,0,0,0-1.108-.995l1.276-1.277A.471.471,0,0,0,445.717-492.62Zm-7.176,4.961a.736.736,0,0,1-.737-.736.737.737,0,0,1,.737-.737.737.737,0,0,1,.737.737A.736.736,0,0,1,438.541-487.659Zm4.918,0a.736.736,0,0,1-.737-.736.737.737,0,0,1,.737-.737.737.737,0,0,1,.737.737A.736.736,0,0,1,443.459-487.659Z"/></g></svg>