<svg xmlns="http://www.w3.org/2000/svg" width="620" height="620" viewBox="0 0 620 620"><defs><style>.a,.g,.h,.m,.n,.q,.r{fill:#fff;}.b,.j{opacity:0.25;}.c,.j{fill:#5a5dff;}.d{opacity:0;}.e,.k,.l,.o,.p{fill:none;}.e,.g{stroke:#1d1040;}.e,.g,.k,.l,.m,.n,.p,.q,.r{stroke-linecap:round;}.e,.g,.p,.q,.r{stroke-linejoin:round;}.e,.g,.h,.k,.l,.m,.n,.o,.p,.q,.r{stroke-width:2px;}.f,.t{fill:#1d1040;}.h,.k,.m,.o,.p,.r{stroke:#5a5dff;}.h,.k,.l,.m,.n,.o{stroke-miterlimit:10;}.i{fill:#bd00ff;}.l,.n,.q{stroke:#bd00ff;}.s{font-size:14px;font-family:OpenSans-SemiBold, Open Sans;font-weight:600;}.t{font-size:36px;font-family:OpenSans-Bold, Open Sans;font-weight:700;}</style></defs><g transform="translate(-131 652)"><path class="a" d="M353.769-184.69a80.851,80.851,0,0,1,3.449-21.027,72.6,72.6,0,0,1,9.283-19.361,77.67,77.67,0,0,1,14.012-15.57,101.245,101.245,0,0,1,16.621-11.4,158.966,158.966,0,0,1,35.943-13.989,279.974,279.974,0,0,1,36.86-6.995c24.642-3.1,49.266-3.8,73.769-3.561,12.254.126,24.483.529,36.692,1.047,12.212.5,24.4,1.212,36.6,1.548-12.2.664-24.415.95-36.606,1.452-12.193.482-24.369,1.079-36.507,1.95-24.26,1.751-48.444,4.454-71.962,9.4a266.5,266.5,0,0,0-34.412,9.49,142.634,142.634,0,0,0-31.056,15.057A82.536,82.536,0,0,0,393.718-226.3a57.311,57.311,0,0,0-9.433,12.391,53.116,53.116,0,0,0-6.516,29.219A12.016,12.016,0,0,1,366.4-172.063a12.016,12.016,0,0,1-12.626-11.372c-.018-.347-.021-.692-.01-1.033Z"/><path class="a" d="M353.769-184.69c.448-6.9.334-13.716-1.024-19.773s-3.85-11.227-7.995-15.171c-4.1-4-10.115-6.732-16.869-8.451a123.628,123.628,0,0,0-21.736-3.049c-7.567-.527-15.319-.753-23.17-1.321-7.834-.6-15.855-1.422-23.677-3.908a39.122,39.122,0,0,1-11.111-5.4,27.365,27.365,0,0,1-8.187-9.2,33.825,33.825,0,0,1-3.625-11.375A58.517,58.517,0,0,1,236-274a57.721,57.721,0,0,0,1.843,11.344,31.571,31.571,0,0,0,4.695,10.085,23.6,23.6,0,0,0,8.056,7,33.935,33.935,0,0,0,10.189,3.393c7.175,1.3,14.709,1.135,22.274.723,7.582-.433,15.258-1.205,23.123-1.68a136.761,136.761,0,0,1,24.378.29,65.531,65.531,0,0,1,12.84,2.791,46.17,46.17,0,0,1,12.584,6.354,44.213,44.213,0,0,1,10.281,10.409,54.7,54.7,0,0,1,6.549,12.637,74.937,74.937,0,0,1,3.458,13.067,114.02,114.02,0,0,1,1.5,12.9,12.032,12.032,0,0,1-11.105,12.9,12.033,12.033,0,0,1-12.894-11.1,12.336,12.336,0,0,1-.014-1.607Z"/><path class="a" d="M428-426a86.516,86.516,0,0,1,2.343-16.378,58.214,58.214,0,0,1,6.575-16.084,50.511,50.511,0,0,1,11.633-13.277,58.386,58.386,0,0,1,14.565-8.449c10.106-4.082,20.257-5.652,30.1-6.515a286.722,286.722,0,0,1,29.1-.658c9.555.174,19.011.562,28.395.68a200.878,200.878,0,0,0,27.86-1.182,74.141,74.141,0,0,0,13.391-2.91,37.2,37.2,0,0,0,11.937-6.247,27.4,27.4,0,0,0,8.134-10.8A39.553,39.553,0,0,0,615-521.5a40.314,40.314,0,0,1-1.552,14.2,29.672,29.672,0,0,1-7.531,12.51,40.885,40.885,0,0,1-12.3,8.209,79.191,79.191,0,0,1-13.933,4.62,207.525,207.525,0,0,1-28.6,4.277c-9.525.888-19,1.5-28.354,2.321a273.743,273.743,0,0,0-27.491,3.529c-8.858,1.7-17.442,4.135-24.568,7.989a39.422,39.422,0,0,0-9.268,6.777,30.173,30.173,0,0,0-6.073,8.711c-2.991,6.412-3.763,14.23-3.329,22.362v.015a12.018,12.018,0,0,1-11.361,12.641A12.019,12.019,0,0,1,428-424.7,12.433,12.433,0,0,1,428-426Z"/><path class="a" d="M428-426c.953-13.69-.532-27.141-8.291-35.505-3.834-4.253-9.4-7.438-15.914-9.545a112.139,112.139,0,0,0-21.159-4.227c-7.427-.9-15.072-1.5-22.8-2.454-7.714-.984-15.623-2.257-23.2-5.231a37.729,37.729,0,0,1-10.585-6.138,30.455,30.455,0,0,1-4.293-4.4,30.017,30.017,0,0,1-3.2-5.163,36.34,36.34,0,0,1-3.261-11.319A62.058,62.058,0,0,1,315-521.5a61.31,61.31,0,0,0,1.768,11.229,34.073,34.073,0,0,0,4.4,10.125,26.625,26.625,0,0,0,3.395,4.16,26.27,26.27,0,0,0,4.165,3.27,32.535,32.535,0,0,0,9.78,4.054c6.97,1.732,14.388,1.986,21.864,1.947,7.494-.055,15.108-.465,22.912-.545a125.313,125.313,0,0,1,24.151,1.657,60.91,60.91,0,0,1,12.551,3.684,47.442,47.442,0,0,1,11.933,7.185,46.4,46.4,0,0,1,9.43,10.716,58.691,58.691,0,0,1,5.973,12.5,78.142,78.142,0,0,1,3.233,12.833A119,119,0,0,1,452-426a12.034,12.034,0,0,1-11.107,12.893A12.033,12.033,0,0,1,428-424.215a12.116,12.116,0,0,1-.01-1.66Z"/><g class="b"><path class="c" d="M428-426a86.516,86.516,0,0,1,2.343-16.378,58.214,58.214,0,0,1,6.575-16.084,50.511,50.511,0,0,1,11.633-13.277,58.386,58.386,0,0,1,14.565-8.449c10.106-4.082,20.257-5.652,30.1-6.515a286.722,286.722,0,0,1,29.1-.658c9.555.174,19.011.562,28.395.68a200.878,200.878,0,0,0,27.86-1.182,74.141,74.141,0,0,0,13.391-2.91,37.2,37.2,0,0,0,11.937-6.247,27.4,27.4,0,0,0,8.134-10.8A39.553,39.553,0,0,0,615-521.5a40.314,40.314,0,0,1-1.552,14.2,29.672,29.672,0,0,1-7.531,12.51,40.885,40.885,0,0,1-12.3,8.209,79.191,79.191,0,0,1-13.933,4.62,207.525,207.525,0,0,1-28.6,4.277c-9.525.888-19,1.5-28.354,2.321a273.743,273.743,0,0,0-27.491,3.529c-8.858,1.7-17.442,4.135-24.568,7.989a39.422,39.422,0,0,0-9.268,6.777,30.173,30.173,0,0,0-6.073,8.711c-2.991,6.412-3.763,14.23-3.329,22.362v.015a12.018,12.018,0,0,1-11.361,12.641A12.019,12.019,0,0,1,428-424.7,12.433,12.433,0,0,1,428-426Z"/><path class="c" d="M428-426c.953-13.69-.532-27.141-8.291-35.505-3.834-4.253-9.4-7.438-15.914-9.545a112.139,112.139,0,0,0-21.159-4.227c-7.427-.9-15.072-1.5-22.8-2.454-7.714-.984-15.623-2.257-23.2-5.231a37.729,37.729,0,0,1-10.585-6.138,30.455,30.455,0,0,1-4.293-4.4,30.017,30.017,0,0,1-3.2-5.163,36.34,36.34,0,0,1-3.261-11.319A62.058,62.058,0,0,1,315-521.5a61.31,61.31,0,0,0,1.768,11.229,34.073,34.073,0,0,0,4.4,10.125,26.625,26.625,0,0,0,3.395,4.16,26.27,26.27,0,0,0,4.165,3.27,32.535,32.535,0,0,0,9.78,4.054c6.97,1.732,14.388,1.986,21.864,1.947,7.494-.055,15.108-.465,22.912-.545a125.313,125.313,0,0,1,24.151,1.657,60.91,60.91,0,0,1,12.551,3.684,47.442,47.442,0,0,1,11.933,7.185,46.4,46.4,0,0,1,9.43,10.716,58.691,58.691,0,0,1,5.973,12.5,78.142,78.142,0,0,1,3.233,12.833A119,119,0,0,1,452-426a12.034,12.034,0,0,1-11.107,12.893A12.033,12.033,0,0,1,428-424.215a12.116,12.116,0,0,1-.01-1.66Z"/></g><path class="a" d="M452-426.5a40.092,40.092,0,0,0,1.493,13.807,33.124,33.124,0,0,0,6.442,11.778A46.573,46.573,0,0,0,471.3-391.44a87.692,87.692,0,0,0,14.6,7.068,195.77,195.77,0,0,0,33.26,8.926c11.522,2.2,23.291,3.831,35.126,5.342s23.764,2.856,35.706,4.442,23.91,3.363,35.765,6.039A162.786,162.786,0,0,1,643.34-354.7a78.555,78.555,0,0,1,16.629,7.784l1.926,1.274c.64.425,1.233.93,1.85,1.391a42.019,42.019,0,0,1,3.507,3.013c.573.514,1.062,1.123,1.594,1.679a16.974,16.974,0,0,1,1.5,1.756l1.389,1.846c.42.644.8,1.316,1.2,1.971.2.33.4.654.585.989l.483,1.045c.31.7.665,1.38.934,2.093a31.354,31.354,0,0,1,1.282,4.377A36.224,36.224,0,0,1,677-316.5a35.762,35.762,0,0,0-1.5-8.786,30.334,30.334,0,0,0-1.589-4.121c-.315-.662-.712-1.285-1.062-1.927l-.539-.954c-.2-.3-.426-.6-.637-.893-.433-.59-.842-1.192-1.288-1.766l-1.456-1.63a15.675,15.675,0,0,0-1.55-1.532c-.546-.481-1.042-1.011-1.625-1.449a39.171,39.171,0,0,0-3.532-2.554c-.618-.385-1.2-.81-1.844-1.16l-1.918-1.049a74.9,74.9,0,0,0-16.426-6.07,157.469,157.469,0,0,0-17.358-3.33c-11.713-1.635-23.587-2.389-35.495-2.978s-23.883-.929-35.907-1.448-24.113-1.175-36.291-2.458A211.8,211.8,0,0,1,480.2-367.3a106.442,106.442,0,0,1-18.361-7.09,66.868,66.868,0,0,1-17.17-12.107,55.051,55.051,0,0,1-12.334-18.544A63.083,63.083,0,0,1,428-426.5l-.006-.176a12.014,12.014,0,0,1,11.582-12.432,12.015,12.015,0,0,1,12.432,11.582C452.019-427.189,452.016-426.831,452-426.5Z"/><g class="b"><path class="c" d="M452-426.5a40.092,40.092,0,0,0,1.493,13.807,33.124,33.124,0,0,0,6.442,11.778A46.573,46.573,0,0,0,471.3-391.44a87.692,87.692,0,0,0,14.6,7.068,195.77,195.77,0,0,0,33.26,8.926c11.522,2.2,23.291,3.831,35.126,5.342s23.764,2.856,35.706,4.442,23.91,3.363,35.765,6.039A162.786,162.786,0,0,1,643.34-354.7a78.555,78.555,0,0,1,16.629,7.784l1.926,1.274c.64.425,1.233.93,1.85,1.391a42.019,42.019,0,0,1,3.507,3.013c.573.514,1.062,1.123,1.594,1.679a16.974,16.974,0,0,1,1.5,1.756l1.389,1.846c.42.644.8,1.316,1.2,1.971.2.33.4.654.585.989l.483,1.045c.31.7.665,1.38.934,2.093a31.354,31.354,0,0,1,1.282,4.377A36.224,36.224,0,0,1,677-316.5a35.762,35.762,0,0,0-1.5-8.786,30.334,30.334,0,0,0-1.589-4.121c-.315-.662-.712-1.285-1.062-1.927l-.539-.954c-.2-.3-.426-.6-.637-.893-.433-.59-.842-1.192-1.288-1.766l-1.456-1.63a15.675,15.675,0,0,0-1.55-1.532c-.546-.481-1.042-1.011-1.625-1.449a39.171,39.171,0,0,0-3.532-2.554c-.618-.385-1.2-.81-1.844-1.16l-1.918-1.049a74.9,74.9,0,0,0-16.426-6.07,157.469,157.469,0,0,0-17.358-3.33c-11.713-1.635-23.587-2.389-35.495-2.978s-23.883-.929-35.907-1.448-24.113-1.175-36.291-2.458A211.8,211.8,0,0,1,480.2-367.3a106.442,106.442,0,0,1-18.361-7.09,66.868,66.868,0,0,1-17.17-12.107,55.051,55.051,0,0,1-12.334-18.544A63.083,63.083,0,0,1,428-426.5l-.006-.176a12.014,12.014,0,0,1,11.582-12.432,12.015,12.015,0,0,1,12.432,11.582C452.019-427.189,452.016-426.831,452-426.5Z"/></g><g class="b"><path class="c" d="M353.769-184.69a80.851,80.851,0,0,1,3.449-21.027,72.6,72.6,0,0,1,9.283-19.361,77.67,77.67,0,0,1,14.012-15.57,101.245,101.245,0,0,1,16.621-11.4,158.966,158.966,0,0,1,35.943-13.989,279.974,279.974,0,0,1,36.86-6.995c24.642-3.1,49.266-3.8,73.769-3.561,12.254.126,24.483.529,36.692,1.047,12.212.5,24.4,1.212,36.6,1.548-12.2.664-24.415.95-36.606,1.452-12.193.482-24.369,1.079-36.507,1.95-24.26,1.751-48.444,4.454-71.962,9.4a266.5,266.5,0,0,0-34.412,9.49,142.634,142.634,0,0,0-31.056,15.057A82.536,82.536,0,0,0,393.718-226.3a57.311,57.311,0,0,0-9.433,12.391,53.116,53.116,0,0,0-6.516,29.219A12.016,12.016,0,0,1,366.4-172.063a12.016,12.016,0,0,1-12.626-11.372c-.018-.347-.021-.692-.01-1.033Z"/><path class="c" d="M353.769-184.69c.448-6.9.334-13.716-1.024-19.773s-3.85-11.227-7.995-15.171c-4.1-4-10.115-6.732-16.869-8.451a123.628,123.628,0,0,0-21.736-3.049c-7.567-.527-15.319-.753-23.17-1.321-7.834-.6-15.855-1.422-23.677-3.908a39.122,39.122,0,0,1-11.111-5.4,27.365,27.365,0,0,1-8.187-9.2,33.825,33.825,0,0,1-3.625-11.375A58.517,58.517,0,0,1,236-274a57.721,57.721,0,0,0,1.843,11.344,31.571,31.571,0,0,0,4.695,10.085,23.6,23.6,0,0,0,8.056,7,33.935,33.935,0,0,0,10.189,3.393c7.175,1.3,14.709,1.135,22.274.723,7.582-.433,15.258-1.205,23.123-1.68a136.761,136.761,0,0,1,24.378.29,65.531,65.531,0,0,1,12.84,2.791,46.17,46.17,0,0,1,12.584,6.354,44.213,44.213,0,0,1,10.281,10.409,54.7,54.7,0,0,1,6.549,12.637,74.937,74.937,0,0,1,3.458,13.067,114.02,114.02,0,0,1,1.5,12.9,12.032,12.032,0,0,1-11.105,12.9,12.033,12.033,0,0,1-12.894-11.1,12.336,12.336,0,0,1-.014-1.607Z"/></g><rect class="d" width="620" height="620" transform="translate(131 -652)"/><path class="a" d="M369.592-189c.176,5.25.022,10.5-.2,15.75s-.632,10.5-1.044,15.75c-.849,10.5-1.875,21-3.351,31.5-1.476-10.5-2.5-21-3.351-31.5-.412-5.25-.828-10.5-1.044-15.75s-.374-10.5-.2-15.75a4.6,4.6,0,0,1,4.747-4.439A4.609,4.609,0,0,1,369.592-189Z"/><g class="b"><path class="c" d="M369.592-189c.176,5.25.022,10.5-.2,15.75s-.632,10.5-1.044,15.75c-.849,10.5-1.875,21-3.351,31.5-1.476-10.5-2.5-21-3.351-31.5-.412-5.25-.828-10.5-1.044-15.75s-.374-10.5-.2-15.75a4.6,4.6,0,0,1,4.747-4.439A4.609,4.609,0,0,1,369.592-189Z"/></g><path class="a" d="M443-93a114.819,114.819,0,0,1,14.125-2.829c4.708-.682,9.417-1.155,14.125-1.485,9.417-.71,18.833-.636,28.25-.478,9.417.181,18.833.606,28.25,1.334,4.708.374,9.417.8,14.125,1.366S551.292-93.889,556-93c-4.708.89-9.417,1.536-14.125,2.092s-9.417.992-14.125,1.367c-9.417.727-18.833,1.152-28.25,1.333-9.417.159-18.833.233-28.25-.478-4.708-.33-9.417-.8-14.125-1.485A114.633,114.633,0,0,1,443-93Z"/><g class="b"><path class="c" d="M443-93a114.819,114.819,0,0,1,14.125-2.829c4.708-.682,9.417-1.155,14.125-1.485,9.417-.71,18.833-.636,28.25-.478,9.417.181,18.833.606,28.25,1.334,4.708.374,9.417.8,14.125,1.366S551.292-93.889,556-93c-4.708.89-9.417,1.536-14.125,2.092s-9.417.992-14.125,1.367c-9.417.727-18.833,1.152-28.25,1.333-9.417.159-18.833.233-28.25-.478-4.708-.33-9.417-.8-14.125-1.485A114.633,114.633,0,0,1,443-93Z"/></g><path class="e" d="M440-426c0-100.989,175-14.726,175-95"/><path class="e" d="M440-426c0-100.989-125-14.726-125-95"/><path class="e" d="M440-422c0,93.276,202.18,36.2,233.064,90.181"/><path class="f" d="M671.211-335.034l5.619-6.29.228.188-1.046,12.6q.493,6.269.988,12.536-3.079-5.482-6.159-10.964l-7.884-9.883.046-.271Z"/><line class="e" y2="28.141" transform="translate(365 -167)"/><path class="f" d="M365-141.91l6.125-3.726.139.209-3.967,9.988q-1.149,5.22-2.3,10.439-1.148-5.22-2.3-10.439l-3.967-9.988.105-.209Z"/><line class="e" x2="99.141" transform="translate(443 -93)"/><path class="f" d="M539.09-93l-3.726-6.125.209-.139,9.988,3.967L556-93l-10.439,2.3-9.988,3.967-.209-.105Z"/><circle class="g" cx="4" cy="4" r="4" transform="translate(311 -529)"/><circle class="g" cx="4" cy="4" r="4" transform="translate(434 -97)"/><circle class="g" cx="4" cy="4" r="4" transform="translate(611 -529)"/><rect class="h" width="78" height="14" rx="2.999" transform="translate(576 -644)"/><rect class="h" width="78" height="14" rx="3.003" transform="translate(576 -626)"/><rect class="h" width="78" height="14" rx="2.999" transform="translate(576 -608)"/><rect class="h" width="78" height="14" rx="2.998" transform="translate(576 -590)"/><circle class="i" cx="2" cy="2" r="2" transform="translate(581 -639)"/><circle class="i" cx="2" cy="2" r="2" transform="translate(587 -639)"/><circle class="i" cx="2" cy="2" r="2" transform="translate(581 -621)"/><circle class="i" cx="2" cy="2" r="2" transform="translate(587 -621)"/><circle class="i" cx="2" cy="2" r="2" transform="translate(581 -603)"/><circle class="i" cx="2" cy="2" r="2" transform="translate(587 -603)"/><circle class="i" cx="2" cy="2" r="2" transform="translate(581 -585)"/><circle class="i" cx="2" cy="2" r="2" transform="translate(587 -585)"/><rect class="a" width="36" height="30" rx="3" transform="translate(608 -616)"/><path class="a" d="M626-636a13.936,13.936,0,0,0-14,13.871V-616h5.209v-6.129a8.751,8.751,0,0,1,8.791-8.71,8.751,8.751,0,0,1,8.791,8.71V-616H640v-6.129A13.936,13.936,0,0,0,626-636Z"/><rect class="j" width="36" height="30" rx="3" transform="translate(608 -616)"/><rect class="k" width="36" height="30" rx="3" transform="translate(608 -616)"/><path class="j" d="M626-636a13.936,13.936,0,0,0-14,13.871V-616h5.209v-6.129a8.751,8.751,0,0,1,8.791-8.71,8.751,8.751,0,0,1,8.791,8.71V-616H640v-6.129A13.936,13.936,0,0,0,626-636Z"/><path class="k" d="M626-636a13.936,13.936,0,0,0-14,13.871V-616h5.209v-6.129a8.751,8.751,0,0,1,8.791-8.71,8.751,8.751,0,0,1,8.791,8.71V-616H640v-6.129A13.936,13.936,0,0,0,626-636Z"/><path class="h" d="M631-603.764A5.122,5.122,0,0,0,626-609a5.122,5.122,0,0,0-5,5.236,5.277,5.277,0,0,0,2.5,4.53v5.616A2.561,2.561,0,0,0,626-591a2.561,2.561,0,0,0,2.5-2.618v-5.616A5.277,5.277,0,0,0,631-603.764Z"/><path class="l" d="M634-612h5.562a.45.45,0,0,1,.438.462V-606"/><path class="h" d="M338.2-622.5a14.369,14.369,0,0,0-2.931.3,12.413,12.413,0,0,0-6.379-8.656,11.763,11.763,0,0,0-10.546-.2A16,16,0,0,0,297.679-641a16.764,16.764,0,0,0-9.657,21.295A13.679,13.679,0,0,0,275-605.647,13.648,13.648,0,0,0,288.426-592H338.2A15.029,15.029,0,0,0,353-607.248,15.029,15.029,0,0,0,338.2-622.5Z"/><rect class="a" width="36" height="30" rx="3" transform="translate(296 -600)"/><path class="a" d="M314-620a13.936,13.936,0,0,0-14,13.871V-600h5.209v-6.129a8.751,8.751,0,0,1,8.791-8.71,8.751,8.751,0,0,1,8.791,8.71V-600H328v-6.129A13.936,13.936,0,0,0,314-620Z"/><rect class="j" width="36" height="30" rx="3" transform="translate(296 -600)"/><rect class="k" width="36" height="30" rx="3" transform="translate(296 -600)"/><path class="j" d="M314-620a13.936,13.936,0,0,0-14,13.871V-600h5.209v-6.129a8.751,8.751,0,0,1,8.791-8.71,8.751,8.751,0,0,1,8.791,8.71V-600H328v-6.129A13.936,13.936,0,0,0,314-620Z"/><path class="k" d="M314-620a13.936,13.936,0,0,0-14,13.871V-600h5.209v-6.129a8.751,8.751,0,0,1,8.791-8.71,8.751,8.751,0,0,1,8.791,8.71V-600H328v-6.129A13.936,13.936,0,0,0,314-620Z"/><path class="h" d="M319-587.764A5.122,5.122,0,0,0,314-593a5.122,5.122,0,0,0-5,5.236,5.277,5.277,0,0,0,2.5,4.53v5.616A2.561,2.561,0,0,0,314-575a2.561,2.561,0,0,0,2.5-2.618v-5.616A5.277,5.277,0,0,0,319-587.764Z"/><path class="l" d="M322-596h5.562a.45.45,0,0,1,.438.462V-590"/><rect class="m" width="78" height="54" rx="2.996" transform="translate(638 -304)"/><path class="j" d="M716-296H638v-5a3,3,0,0,1,3-3h72a3,3,0,0,1,3,3Z"/><path class="k" d="M716-296H638v-5a3,3,0,0,1,3-3h72a3,3,0,0,1,3,3Z"/><circle class="i" cx="1" cy="1" r="1" transform="translate(641 -301)"/><circle class="i" cx="1" cy="1" r="1" transform="translate(645 -301)"/><circle class="i" cx="1" cy="1" r="1" transform="translate(649 -301)"/><g class="b"><path class="c" d="M692.359-275.764l-3.857-1.265a12.023,12.023,0,0,0-.521-1.254l1.79-3.578a.939.939,0,0,0-.176-1.083l-2.651-2.651a.938.938,0,0,0-1.083-.176l-3.578,1.79a12.027,12.027,0,0,0-1.254-.521l-1.265-3.857a.936.936,0,0,0-.889-.641h-3.75a.936.936,0,0,0-.889.641l-1.265,3.857a12.027,12.027,0,0,0-1.254.521l-3.578-1.79a.937.937,0,0,0-1.083.176l-2.651,2.651a.939.939,0,0,0-.176,1.083l1.79,3.578a12.023,12.023,0,0,0-.521,1.254l-3.857,1.265a.936.936,0,0,0-.641.889v3.75a.936.936,0,0,0,.641.889l3.857,1.265a12.023,12.023,0,0,0,.521,1.254l-1.79,3.578a.939.939,0,0,0,.176,1.083l2.651,2.651a.938.938,0,0,0,1.083.176l3.578-1.79a12.027,12.027,0,0,0,1.254.521l1.265,3.857a.936.936,0,0,0,.889.641h3.75a.936.936,0,0,0,.889-.641l1.265-3.857a12.027,12.027,0,0,0,1.254-.521l3.578,1.79a.942.942,0,0,0,1.083-.176l2.651-2.651a.939.939,0,0,0,.176-1.083l-1.79-3.578a12.023,12.023,0,0,0,.521-1.254l3.857-1.265a.936.936,0,0,0,.641-.889v-3.75A.936.936,0,0,0,692.359-275.764ZM677-266.437A6.572,6.572,0,0,1,670.437-273,6.571,6.571,0,0,1,677-279.562,6.57,6.57,0,0,1,683.562-273,6.571,6.571,0,0,1,677-266.437Z"/></g><path class="k" d="M692.359-275.764l-3.857-1.265a12.023,12.023,0,0,0-.521-1.254l1.79-3.578a.939.939,0,0,0-.176-1.083l-2.651-2.651a.938.938,0,0,0-1.083-.176l-3.578,1.79a12.027,12.027,0,0,0-1.254-.521l-1.265-3.857a.936.936,0,0,0-.889-.641h-3.75a.936.936,0,0,0-.889.641l-1.265,3.857a12.027,12.027,0,0,0-1.254.521l-3.578-1.79a.937.937,0,0,0-1.083.176l-2.651,2.651a.939.939,0,0,0-.176,1.083l1.79,3.578a12.023,12.023,0,0,0-.521,1.254l-3.857,1.265a.936.936,0,0,0-.641.889v3.75a.936.936,0,0,0,.641.889l3.857,1.265a12.023,12.023,0,0,0,.521,1.254l-1.79,3.578a.939.939,0,0,0,.176,1.083l2.651,2.651a.938.938,0,0,0,1.083.176l3.578-1.79a12.027,12.027,0,0,0,1.254.521l1.265,3.857a.936.936,0,0,0,.889.641h3.75a.936.936,0,0,0,.889-.641l1.265-3.857a12.027,12.027,0,0,0,1.254-.521l3.578,1.79a.942.942,0,0,0,1.083-.176l2.651-2.651a.939.939,0,0,0,.176-1.083l-1.79-3.578a12.023,12.023,0,0,0,.521-1.254l3.857-1.265a.936.936,0,0,0,.641-.889v-3.75A.936.936,0,0,0,692.359-275.764ZM677-266.437A6.572,6.572,0,0,1,670.437-273,6.571,6.571,0,0,1,677-279.562,6.57,6.57,0,0,1,683.562-273,6.571,6.571,0,0,1,677-266.437Z"/><circle class="h" cx="3" cy="3" r="3" transform="translate(244 -408)"/><circle class="h" cx="3" cy="3" r="3" transform="translate(233 -408)"/><circle class="h" cx="3" cy="3" r="3" transform="translate(222 -408)"/><circle class="h" cx="3" cy="3" r="3" transform="translate(244 -340)"/><circle class="h" cx="3" cy="3" r="3" transform="translate(233 -340)"/><circle class="h" cx="3" cy="3" r="3" transform="translate(222 -340)"/><circle class="h" cx="3" cy="3" r="3" transform="translate(198 -385)"/><circle class="h" cx="3" cy="3" r="3" transform="translate(198 -374)"/><circle class="h" cx="3" cy="3" r="3" transform="translate(198 -363)"/><circle class="h" cx="3" cy="3" r="3" transform="translate(267 -385)"/><circle class="h" cx="3" cy="3" r="3" transform="translate(267 -374)"/><circle class="h" cx="3" cy="3" r="3" transform="translate(267 -363)"/><rect class="h" width="48" height="48" rx="3" transform="translate(212 -395)"/><rect class="j" width="28" height="28" rx="2" transform="translate(222 -385)"/><rect class="k" width="28" height="28" rx="2" transform="translate(222 -385)"/><path class="n" d="M241.342-378.368a4.854,4.854,0,0,0-2.315-.627A5.246,5.246,0,0,0,234-372l-6,6v3h2.586a1,1,0,0,0,.707-.293L232-364v-1a1,1,0,0,1,1-1h0a1,1,0,0,0,1-1h0a1,1,0,0,1,1-1h1l1-1a5.588,5.588,0,0,0,5.492-1.2A5.17,5.17,0,0,0,241.342-378.368Z"/><circle class="i" cx="2" cy="2" r="2" transform="translate(237 -376)"/><line class="o" y1="7" transform="translate(236 -402)"/><line class="o" y1="7" transform="translate(247 -402)"/><line class="o" y1="7" transform="translate(225 -402)"/><line class="o" y1="7" transform="translate(236 -347)"/><line class="o" y1="7" transform="translate(247 -347)"/><line class="o" y1="7" transform="translate(225 -347)"/><line class="o" x1="8" transform="translate(204 -371)"/><line class="o" x1="8" transform="translate(204 -382)"/><line class="o" x1="8" transform="translate(204 -360)"/><line class="o" x1="7" transform="translate(260 -371)"/><line class="o" x1="7" transform="translate(260 -382)"/><line class="o" x1="7" transform="translate(260 -360)"/><path class="h" d="M3,0H92a0,0,0,0,1,0,0V36a0,0,0,0,1,0,0H3a3,3,0,0,1-3-3V3A3,3,0,0,1,3,0Z" transform="translate(415 -75) rotate(180)"/><path class="p" d="M323-67v-54h-8"/><rect class="j" width="4" height="10" transform="translate(319 -89)"/><rect class="k" width="4" height="10" transform="translate(319 -89)"/><rect class="j" width="45" height="4" transform="translate(332 -95)"/><rect class="l" width="45" height="4" transform="translate(332 -95)"/><rect class="j" width="4" height="10" transform="translate(319 -107)"/><rect class="k" width="4" height="10" transform="translate(319 -107)"/><circle class="j" cx="14" cy="14" r="14" transform="translate(383 -107)"/><circle class="k" cx="14" cy="14" r="14" transform="translate(383 -107)"/><circle class="n" cx="7" cy="7" r="7" transform="translate(390 -100)"/><rect class="j" width="43" height="4" transform="translate(343 -75)"/><rect class="k" width="43" height="4" transform="translate(343 -75)"/><rect class="j" width="6" height="4" transform="translate(333 -75)"/><rect class="k" width="6" height="4" transform="translate(333 -75)"/><path class="a" d="M466-433a26,26,0,0,0-26-26,26,26,0,0,0-26,26c0,14.359,11.641,16,26,16S466-418.641,466-433Z"/><circle class="a" cx="26" cy="26" r="26" transform="translate(414 -459)"/><rect class="a" width="28" height="22" rx="3" transform="translate(426 -437)"/><path class="a" d="M440-453a11.049,11.049,0,0,0-11,11.1v4.9h4.093v-4.9A6.938,6.938,0,0,1,440-448.871a6.938,6.938,0,0,1,6.907,6.968v4.9H451v-4.9A11.049,11.049,0,0,0,440-453Z"/><rect class="j" width="28" height="22" rx="3" transform="translate(426 -437)"/><rect class="k" width="28" height="22" rx="3" transform="translate(426 -437)"/><path class="j" d="M440-453a11.049,11.049,0,0,0-11,11.1v4.9h4.093v-4.9A6.938,6.938,0,0,1,440-448.871a6.938,6.938,0,0,1,6.907,6.968v4.9H451v-4.9A11.049,11.049,0,0,0,440-453Z"/><path class="k" d="M440-453a11.049,11.049,0,0,0-11,11.1v4.9h4.093v-4.9A6.938,6.938,0,0,1,440-448.871a6.938,6.938,0,0,1,6.907,6.968v4.9H451v-4.9A11.049,11.049,0,0,0,440-453Z"/><path class="e" d="M365-185c0-100.989,201-89,253-89"/><path class="e" d="M365-185c0-100.989-129-7.726-129-88"/><circle class="g" cx="4" cy="4" r="4" transform="translate(232 -282)"/><circle class="g" cx="4" cy="4" r="4" transform="translate(618 -278)"/><circle class="a" cx="26" cy="26" r="26" transform="translate(339 -218)"/><rect class="a" width="28" height="22" rx="3" transform="translate(351 -196)"/><path class="a" d="M365-212a11.049,11.049,0,0,0-11,11.1v4.9h4.093v-4.9A6.938,6.938,0,0,1,365-207.871a6.938,6.938,0,0,1,6.907,6.968v4.9H376v-4.9A11.049,11.049,0,0,0,365-212Z"/><rect class="j" width="28" height="22" rx="3" transform="translate(351 -196)"/><rect class="k" width="28" height="22" rx="3" transform="translate(351 -196)"/><path class="j" d="M365-212a11.049,11.049,0,0,0-11,11.1v4.9h4.093v-4.9A6.938,6.938,0,0,1,365-207.871a6.938,6.938,0,0,1,6.907,6.968v4.9H376v-4.9A11.049,11.049,0,0,0,365-212Z"/><path class="k" d="M365-212a11.049,11.049,0,0,0-11,11.1v4.9h4.093v-4.9A6.938,6.938,0,0,1,365-207.871a6.938,6.938,0,0,1,6.907,6.968v4.9H376v-4.9A11.049,11.049,0,0,0,365-212Z"/><rect class="m" width="78" height="54" rx="3.003" transform="translate(575 -125)"/><path class="j" d="M652.915-117h-77.83a.085.085,0,0,1-.085-.085V-122a3,3,0,0,1,3-3h72a3,3,0,0,1,3,3v4.916A.085.085,0,0,1,652.915-117Z"/><path class="k" d="M652.915-117h-77.83a.085.085,0,0,1-.085-.085V-122a3,3,0,0,1,3-3h72a3,3,0,0,1,3,3v4.916A.085.085,0,0,1,652.915-117Z"/><path class="j" d="M575.02-79h77.96a.02.02,0,0,1,.02.02V-74a3,3,0,0,1-3,3H577.995A3,3,0,0,1,575-74V-78.98A.02.02,0,0,1,575.02-79Z"/><path class="k" d="M575.02-79h77.96a.02.02,0,0,1,.02.02V-74a3,3,0,0,1-3,3H577.995A3,3,0,0,1,575-74V-78.98A.02.02,0,0,1,575.02-79Z"/><path class="c" d="M609.175-105.8l11.108,6.539a1.466,1.466,0,0,1,0,2.52L609.175-90.2A1.446,1.446,0,0,1,607-91.461v-13.078A1.446,1.446,0,0,1,609.175-105.8Z"/><path class="q" d="M594-75h0Z"/><path class="r" d="M646-75h0Z"/><rect class="a" width="36" height="30" rx="3" transform="translate(624 -88)"/><path class="a" d="M642-108a13.936,13.936,0,0,0-14,13.871V-88h5.209v-6.129a8.751,8.751,0,0,1,8.791-8.71,8.751,8.751,0,0,1,8.791,8.71V-88H656v-6.129A13.936,13.936,0,0,0,642-108Z"/><rect class="j" width="36" height="30" rx="3" transform="translate(624 -88)"/><rect class="k" width="36" height="30" rx="3" transform="translate(624 -88)"/><path class="j" d="M642-108a13.936,13.936,0,0,0-14,13.871V-88h5.209v-6.129a8.751,8.751,0,0,1,8.791-8.71,8.751,8.751,0,0,1,8.791,8.71V-88H656v-6.129A13.936,13.936,0,0,0,642-108Z"/><path class="k" d="M642-108a13.936,13.936,0,0,0-14,13.871V-88h5.209v-6.129a8.751,8.751,0,0,1,8.791-8.71,8.751,8.751,0,0,1,8.791,8.71V-88H656v-6.129A13.936,13.936,0,0,0,642-108Z"/><path class="h" d="M648-75.764A5.122,5.122,0,0,0,643-81a5.122,5.122,0,0,0-5,5.236,5.277,5.277,0,0,0,2.5,4.53v5.616A2.561,2.561,0,0,0,643-63a2.561,2.561,0,0,0,2.5-2.618v-5.616A5.277,5.277,0,0,0,648-75.764Z"/><path class="l" d="M650-85h5.562a.451.451,0,0,1,.438.462V-79"/><path class="f" d="M152.354-395.915c-3.435-.02-6.276-7.033-6.276-10.6,0-5.835,4.375-7.112,6.062-7.112a6.954,6.954,0,0,1,2.287.563,5.111,5.111,0,0,0,1.306.374,4.077,4.077,0,0,0,.937-.3,7.513,7.513,0,0,1,2.824-.683h.006a5.788,5.788,0,0,1,4.844,2.447l.354.531-.509.384a4.28,4.28,0,0,0-2.051,3.529,3.983,3.983,0,0,0,2.221,3.682c.319.192.648.389.648.821,0,.282-2.25,6.338-5.518,6.338a4.435,4.435,0,0,1-1.863-.453,3.791,3.791,0,0,0-1.659-.4,4.264,4.264,0,0,0-1.313.355,6.433,6.433,0,0,1-2.278.532Z"/><path class="f" d="M159.84-419c.085,3.069-2.109,5.2-4.3,5.065C155.178-416.384,157.73-419,159.84-419Z"/><path class="f" d="M163.853-288.465c-.682-.277-.973-.645-.945-1.194a1.821,1.821,0,0,0-.511-1.3,5.577,5.577,0,0,0,0-2.974,25.642,25.642,0,0,0-3.186-5.163,4.4,4.4,0,0,1-.629-2.643,7.979,7.979,0,0,0-.6-3.218A3.352,3.352,0,0,0,154.8-307a4.385,4.385,0,0,0-2.425.733c-1.392.954-1.208,3.035-1.086,4.412.016.188.032.367.041.519a6.767,6.767,0,0,1-.089,2.275,9.3,9.3,0,0,1-.695.968c-.336.44-.717.939-1.03,1.4a10.946,10.946,0,0,0-.965,2.24,10.713,10.713,0,0,1-.61,1.518,2.055,2.055,0,0,0-.2,1.552,1.6,1.6,0,0,0-.515.647c-.207.439-.627.675-1.5.842a1.162,1.162,0,0,0-.824.5,1.4,1.4,0,0,0,.009,1.129,1.747,1.747,0,0,1-.117,1.274c-.041.121-.086.259-.133.41a.74.74,0,0,0,.078.647c.331.5,1.294.678,2.285.794a8.9,8.9,0,0,1,1.867.532,8.808,8.808,0,0,0,1.826.524,2.1,2.1,0,0,0,.259.016,1.521,1.521,0,0,0,1.39-.81,15.559,15.559,0,0,1,2.505-.294,11.021,11.021,0,0,1,2.49.254,1.993,1.993,0,0,0,.751.812,1.828,1.828,0,0,0,.843.189h0a2.042,2.042,0,0,0,1.483-.609,13.291,13.291,0,0,1,2.691-1.706c.206-.111.4-.215.567-.308a1.258,1.258,0,0,0,.775-1.118A.947.947,0,0,0,163.853-288.465Zm-11.468-.1c-.065-.451-.649-.9-1.326-1.417a4.665,4.665,0,0,1-1.353-1.31,3.925,3.925,0,0,1,.415-3.073,7.7,7.7,0,0,0,.632-1.515,5.429,5.429,0,0,1,.66-1.5,3.809,3.809,0,0,0,.791-1.906,2.4,2.4,0,0,0,1.414.763.857.857,0,0,0,.227-.03,7.677,7.677,0,0,0,1.354-.678,5.883,5.883,0,0,1,1.151-.574,31.832,31.832,0,0,1,2.513,6.21,6.535,6.535,0,0,1-.094,2.368,1.814,1.814,0,0,0-.235-.016c-.549,0-.695.3-.732.475a18.987,18.987,0,0,0-.109,2.271,4.545,4.545,0,0,1-2.645,1.643,11.509,11.509,0,0,1-1.631.128,5.49,5.49,0,0,1-.8-.05l-.724-.823A.874.874,0,0,0,152.385-288.567Zm.919-13.578c-.022.01-.045.02-.066.031,0-.048-.008-.1-.016-.147a.841.841,0,0,0-.718-.781.53.53,0,0,0-.077.006.6.6,0,0,0-.444.4c.076-.465.341-.81.656-.81.37,0,.682.495.682,1.081A1.592,1.592,0,0,1,153.3-302.145Zm2.873.349a1.167,1.167,0,0,0,.052-.343.863.863,0,0,0-.772-.947.872.872,0,0,0-.768.947c0,.036,0,.071.005.107l-.065-.025a1.431,1.431,0,0,1-.074-.455,1.055,1.055,0,0,1,.911-1.152,1.055,1.055,0,0,1,.911,1.152A1.354,1.354,0,0,1,156.177-301.8Zm-.371,1.236c-.007.032-.022.046-.193.134-.086.044-.193.1-.327.181l-.089.053a8.335,8.335,0,0,1-1.43.754c-.155.02-.251-.039-.467-.185-.049-.033-.1-.068-.156-.1a1.83,1.83,0,0,1-.668-.642c.127-.1.441-.342.6-.486a1.743,1.743,0,0,1,.819-.505l.025,0a8.191,8.191,0,0,1,1.007.358c.16.063.3.117.394.152A.939.939,0,0,1,155.806-300.56Zm2.74,14.106a11.146,11.146,0,0,0,.338-2.437c-.007-.141-.02-.293-.032-.441a4.059,4.059,0,0,1-.022-.809l.023-.008a1.371,1.371,0,0,0,.647,1.3,1.44,1.44,0,0,0,.574.11,2.36,2.36,0,0,0,1.458-.533,2.621,2.621,0,0,0,.369-.483.578.578,0,0,1,.026.228,1.625,1.625,0,0,0,.706,1.467l.071.037c.173.09.632.329.639.443a.107.107,0,0,1-.029.037,6.758,6.758,0,0,1-.911.508,7.955,7.955,0,0,0-1.835,1.12,2.508,2.508,0,0,1-1.4.87.35.35,0,0,1-.111-.016C158.687-285.171,158.383-285.7,158.546-286.454Zm-12.584-1.966a1.03,1.03,0,0,1-.036-.447c.024-.1.517-.206.727-.251a2.869,2.869,0,0,0,.8-.25A1.621,1.621,0,0,0,148-290.1a1.123,1.123,0,0,1,.305-.455.061.061,0,0,1,.035-.008c.216,0,.668.45.928.852.066.1.189.3.33.541a17.347,17.347,0,0,0,1.307,1.99c.273.291.714.849.606,1.328a1.459,1.459,0,0,1-.6.741.64.64,0,0,1-.134.012,8.618,8.618,0,0,1-2.344-.736l-.091-.039a7.5,7.5,0,0,0-1.45-.32,4.787,4.787,0,0,1-1.123-.251c-.079-.089.013-.377.094-.631a4.146,4.146,0,0,0,.153-.57A2.063,2.063,0,0,0,145.962-288.42Z"/><path class="f" d="M144.5-334.015v-6.291l9.1-1.142v7.433Z"/><path class="f" d="M156.042-334.015v-7.738l10.542-1.321v9.06Z"/><path class="f" d="M156.042-323.829v-7.738h10.542v9.06Z"/><path class="f" d="M144.5-325.275v-6.292h9.1v7.433Z"/><path class="f" d="M158-358.356a1.509,1.509,0,0,0,1.474-1.473v-3.441h.983a.929.929,0,0,0,.984-.983v-9.828H149.645v9.828a.929.929,0,0,0,.983.983h.984v3.441a1.509,1.509,0,0,0,1.474,1.473,1.509,1.509,0,0,0,1.473-1.473v-3.441h1.967v3.441A1.508,1.508,0,0,0,158-358.356Z"/><path class="f" d="M163.9-364.253a1.509,1.509,0,0,0,1.473-1.474v-6.881a1.511,1.511,0,0,0-1.473-1.473,1.511,1.511,0,0,0-1.473,1.473v6.881A1.509,1.509,0,0,0,163.9-364.253Z"/><path class="f" d="M147.188-364.253a1.509,1.509,0,0,0,1.473-1.474v-6.881a1.511,1.511,0,0,0-1.473-1.473,1.511,1.511,0,0,0-1.473,1.473v6.881A1.509,1.509,0,0,0,147.188-364.253Z"/><path class="f" d="M160.26-381.744a.472.472,0,0,0-.687,0l-1.319,1.315-.061.06a5.835,5.835,0,0,0-2.636-.589h-.029a5.835,5.835,0,0,0-2.636.589l-.061-.06-1.32-1.315a.47.47,0,0,0-.686,0,.471.471,0,0,0,0,.685l1.277,1.277a5.26,5.26,0,0,0-1.109,1,5.775,5.775,0,0,0-1.34,3.415l0,.041c0,.088-.006.177-.006.266H161.44c0-.089,0-.178-.006-.266l0-.041a5.774,5.774,0,0,0-1.339-3.415,5.31,5.31,0,0,0-1.109-1l1.277-1.277A.472.472,0,0,0,160.26-381.744Zm-7.176,4.961a.737.737,0,0,1-.737-.737.737.737,0,0,1,.737-.737.737.737,0,0,1,.737.737A.737.737,0,0,1,153.084-376.783Zm4.917,0a.737.737,0,0,1-.737-.737.737.737,0,0,1,.737-.737.737.737,0,0,1,.737.737A.737.737,0,0,1,158-376.783Z"/><text class="s" transform="translate(617.694 -554.741)"><tspan x="-47.469" y="0">NDRM Service</tspan><tspan x="-25.105" y="16">Servers</tspan></text><text class="s" transform="translate(313.694 -545.741)"><tspan x="-55.682" y="0">Protected Media</tspan></text><text class="s" transform="translate(235.694 -312.741)"><tspan x="-47.076" y="0">Protected Key</tspan><tspan x="-42.157" y="16">at Hardware</tspan></text><text class="s" transform="translate(675.694 -227.741)"><tspan x="-48.166" y="0">Protected App</tspan><tspan x="-69.18" y="16">from other pipelines</tspan><tspan x="-49.998" y="32">with Nettr SDK</tspan></text><text class="s" transform="translate(617.5 -38.741)"><tspan x="-36.928" y="0">One Player</tspan></text><text class="s" transform="translate(365 -38.741)"><tspan x="-14.584" y="0">GPU</tspan></text><text class="t" transform="translate(454.094 -307.002)"><tspan x="-131.423" y="0">DRM SECURITY</tspan></text></g></svg>