<svg xmlns="http://www.w3.org/2000/svg" width="578" height="594" viewBox="0 0 578 594"><defs><style>.a,.g,.o,.q{fill:#fff;}.b,.e,.h,.j,.k,.m,.n,.s{fill:none;}.c,.l{opacity:0.25;}.d,.i,.l,.u{fill:#5a5dff;}.e,.q{stroke:#1d1040;}.e,.j,.k,.m,.n,.o,.q{stroke-linecap:round;}.e,.k,.n,.q,.s{stroke-linejoin:round;}.e,.g,.h,.j,.k,.m,.n,.o,.q,.s,.u{stroke-width:2px;}.f{fill:#1d1040;}.g,.h,.j,.k,.o,.s,.u{stroke:#5a5dff;}.g,.h,.j,.m,.o,.u{stroke-miterlimit:10;}.i{opacity:0.15;}.m,.n{stroke:#bd00ff;}.p,.t{fill:#bd00ff;}.r,.t{font-size:16px;font-family:OpenSans-Bold, Open Sans;font-weight:700;}</style></defs><g transform="translate(-172 787)"><path class="a" d="M450-584l.237-3.04.139-1.515c.059-.505.174-1.019.262-1.528l.6-3.046c.261-1.007.591-2.008.9-3l.482-1.49c.188-.486.4-.964.61-1.444.419-.958.838-1.915,1.285-2.853a44.681,44.681,0,0,1,3.239-5.224,46.932,46.932,0,0,1,7.957-8.539l2.183-1.71,1.1-.84,1.119-.753,2.24-1.489c.75-.474,1.511-.887,2.267-1.33a95.83,95.83,0,0,1,18.361-7.879,171.277,171.277,0,0,1,18.346-4.68,351.045,351.045,0,0,1,36.332-5.077c12.044-1.136,24.035-1.9,35.988-2.581s23.873-1.259,35.755-1.988,23.729-1.591,35.495-2.965c5.883-.687,11.736-1.536,17.536-2.628a128.551,128.551,0,0,0,17.108-4.318,66.883,66.883,0,0,0,8.117-3.334c1.338-.606,2.565-1.383,3.838-2.106.619-.384,1.2-.818,1.806-1.226.3-.209.606-.409.9-.627l.835-.7a18.747,18.747,0,0,0,1.64-1.44l1.521-1.57,1.326-1.737a17.29,17.29,0,0,0,1.142-1.867A20.066,20.066,0,0,0,713-677a20.474,20.474,0,0,1-1.666,8.8,18.269,18.269,0,0,1-1.025,2.041l-1.235,1.932-1.452,1.775a19.982,19.982,0,0,1-1.588,1.652l-.818.808c-.286.254-.586.488-.879.733-.594.478-1.172.987-1.784,1.442-1.255.861-2.484,1.786-3.812,2.529a69.285,69.285,0,0,1-8.12,4.162,132.083,132.083,0,0,1-17.168,5.9c-5.823,1.611-11.7,2.973-17.6,4.169-11.8,2.393-23.671,4.266-35.525,5.994s-23.706,3.3-35.5,4.977-23.54,3.417-35.143,5.5a335.085,335.085,0,0,0-34.078,7.7,152.933,152.933,0,0,0-15.949,5.518,75.61,75.61,0,0,0-13.942,7.388c-.5.358-1.031.7-1.512,1.063l-1.394,1.121-.7.553-.626.588-1.249,1.16a24.45,24.45,0,0,0-3.8,4.889l-.379.614a6.378,6.378,0,0,0-.294.636q-.279.636-.585,1.251l-.411,1.287c-.069.213-.154.419-.217.633l-.121.666c-.079.442-.2.868-.274,1.311-.028.462-.066.918-.115,1.371-.017.23-.065.447-.065.684l.022.72q.017.717.005,1.428l-.018,1.127a12.011,12.011,0,0,1-12.2,11.817,12.01,12.01,0,0,1-11.817-12.2C449.969-583.494,449.983-583.766,450-584Z"/><path class="a" d="M450-584q-.012-.711.005-1.428l.022-.72c0-.237-.048-.454-.065-.684-.049-.453-.087-.909-.115-1.371-.076-.443-.195-.869-.274-1.311l-.121-.666c-.063-.214-.148-.42-.217-.633l-.411-1.287q-.306-.617-.585-1.251a6.378,6.378,0,0,0-.294-.636l-.379-.614a24.45,24.45,0,0,0-3.8-4.889l-1.249-1.16-.626-.588-.7-.553-1.394-1.121c-.481-.367-1.01-.705-1.512-1.063a75.61,75.61,0,0,0-13.942-7.388,152.933,152.933,0,0,0-15.949-5.518,335.085,335.085,0,0,0-34.078-7.7c-11.6-2.085-23.349-3.833-35.143-5.5s-23.644-3.245-35.5-4.977-23.724-3.6-35.525-5.994c-5.9-1.2-11.78-2.558-17.6-4.169a132.085,132.085,0,0,1-17.168-5.9,69.283,69.283,0,0,1-8.12-4.162c-1.328-.743-2.557-1.668-3.812-2.529-.612-.455-1.19-.964-1.784-1.442-.293-.245-.593-.479-.879-.733l-.818-.808a19.977,19.977,0,0,1-1.588-1.652l-1.452-1.775-1.235-1.932a18.267,18.267,0,0,1-1.025-2.041A20.474,20.474,0,0,1,211-677a20.067,20.067,0,0,0,2.34,8.473,17.29,17.29,0,0,0,1.142,1.867l1.326,1.737,1.521,1.57a18.742,18.742,0,0,0,1.64,1.44l.835.7c.291.218.6.418.9.627.6.408,1.187.842,1.806,1.226,1.273.723,2.5,1.5,3.838,2.106a66.878,66.878,0,0,0,8.117,3.334A128.588,128.588,0,0,0,251.57-649.6c5.8,1.092,11.653,1.941,17.536,2.628,11.766,1.374,23.613,2.24,35.5,2.965s23.8,1.3,35.755,1.988,23.944,1.445,35.988,2.581a351.082,351.082,0,0,1,36.332,5.077,171.277,171.277,0,0,1,18.346,4.68,95.83,95.83,0,0,1,18.361,7.879c.756.443,1.517.856,2.267,1.33l2.24,1.489,1.119.753,1.1.84,2.183,1.71a46.932,46.932,0,0,1,7.957,8.539,44.681,44.681,0,0,1,3.239,5.224c.447.938.866,1.895,1.285,2.853.2.48.422.958.61,1.444l.482,1.49c.309,1,.639,2,.9,3l.6,3.046c.088.509.2,1.023.262,1.528l.139,1.515L474-584a12.01,12.01,0,0,1-11.038,12.909,12.011,12.011,0,0,1-12.909-11.039c-.019-.237-.03-.473-.035-.708Z"/><path class="a" d="M450-584a103.354,103.354,0,0,1,4.885-26.915,70.255,70.255,0,0,1,5.919-12.968,59.772,59.772,0,0,1,8.743-11.434,67.745,67.745,0,0,1,23.021-15.062,140.551,140.551,0,0,1,24.55-7.134c8.107-1.71,16.1-3.042,23.9-4.716,7.783-1.684,15.422-3.682,22.411-6.986,6.943-3.29,13.193-8.162,17.182-14.921,4.061-6.706,5.862-14.784,6.386-22.864.459,8.072-.268,16.49-3.724,24.248-3.361,7.8-9.729,14.239-16.913,18.772-7.221,4.576-15.11,7.686-22.9,10.414-7.815,2.715-15.629,5.032-23.161,7.624a127.262,127.262,0,0,0-21.249,9.091,51.093,51.093,0,0,0-16,13.433,44.649,44.649,0,0,0-7.955,18.2A81.605,81.605,0,0,0,474-584a12.023,12.023,0,0,1-11.242,12.758A12.024,12.024,0,0,1,450-582.483a12.326,12.326,0,0,1-.007-1.425Z"/><path class="a" d="M450-584a81.605,81.605,0,0,0-1.1-21.219,44.649,44.649,0,0,0-7.955-18.2,51.093,51.093,0,0,0-16-13.433,127.262,127.262,0,0,0-21.249-9.091c-7.532-2.592-15.346-4.909-23.161-7.624-7.794-2.728-15.683-5.838-22.9-10.414-7.184-4.533-13.552-10.969-16.913-18.772C337.268-690.51,336.541-698.928,337-707c.524,8.08,2.325,16.158,6.386,22.864,3.989,6.759,10.239,11.631,17.182,14.921,6.989,3.3,14.628,5.3,22.411,6.986,7.8,1.674,15.8,3.006,23.9,4.716a140.551,140.551,0,0,1,24.55,7.134,67.745,67.745,0,0,1,23.021,15.062,59.772,59.772,0,0,1,8.743,11.434,70.255,70.255,0,0,1,5.919,12.968A103.354,103.354,0,0,1,474-584v.023a12.023,12.023,0,0,1-11.265,12.737A12.024,12.024,0,0,1,450-582.506,13.294,13.294,0,0,1,450-584Z"/><path class="a" d="M462-677l12,94a12.1,12.1,0,0,1-10.468,13.532A12.1,12.1,0,0,1,450-579.936,12.614,12.614,0,0,1,450-583Z"/><path class="a" d="M474-584a35.16,35.16,0,0,0,3.879,7.5c.415.625.8,1.25,1.239,1.875l1.359,1.875c.862,1.25,1.938,2.5,2.918,3.75a124.16,124.16,0,0,0,14.926,15c1.5,1.25,2.89,2.5,4.48,3.75l4.682,3.75,9.333,7.5A103.459,103.459,0,0,1,532.6-524c3.953,5,6.283,10,7.088,15a32.219,32.219,0,0,1,.263,7.5,40.391,40.391,0,0,1-1.26,7.5c-.347,1.25-.736,2.5-1.2,3.75-.246.625-.466,1.25-.758,1.875l-.419.938-.21.468-.1.235-.052.117a.727.727,0,0,1-.214.117,43.26,43.26,0,0,1-4.883,1.875c-.472.156-.953.313-1.482.469s-1,.312-1.589.469l-3.4.937-3.686.938-3.917.937L508.968-479l-3.873.938-1.937.468-1.8.469-1.791.469-.893.234-.819.235-3.28.937q-3.081.938-5.639,1.875c-1.662.625-3.133,1.25-4.564,1.875a46.3,46.3,0,0,0-7.047,3.75,13.345,13.345,0,0,0-2.3,1.875A2.983,2.983,0,0,0,474-464a12,12,0,0,1-11.689,12.311A12,12,0,0,1,450-463.378c-.005-.2,0-.43,0-.622a2.983,2.983,0,0,0-1.026-1.875,13.345,13.345,0,0,0-2.3-1.875,46.3,46.3,0,0,0-7.047-3.75c-1.431-.625-2.9-1.25-4.564-1.875q-2.553-.937-5.639-1.875l-3.28-.937-.819-.235-.893-.234-1.791-.469-1.8-.469-1.937-.468L415.032-479l-7.814-1.875-3.917-.937-3.686-.938-3.395-.937c-.585-.157-1.066-.313-1.589-.469s-1.01-.313-1.482-.469a43.265,43.265,0,0,1-4.883-1.875.726.726,0,0,1-.214-.117l-.052-.117-.105-.235-.21-.468-.419-.938c-.292-.625-.512-1.25-.758-1.875-.468-1.25-.857-2.5-1.2-3.75a40.4,40.4,0,0,1-1.26-7.5,32.219,32.219,0,0,1,.263-7.5c.8-5,3.135-10,7.088-15a103.461,103.461,0,0,1,15.789-15l9.333-7.5,4.682-3.75c1.59-1.25,2.98-2.5,4.48-3.75a124.16,124.16,0,0,0,14.926-15c.98-1.25,2.056-2.5,2.918-3.75l1.359-1.875c.443-.625.824-1.25,1.239-1.875A35.16,35.16,0,0,0,450-584a12.663,12.663,0,0,1,16.044-7.956A12.77,12.77,0,0,1,474-584Z"/><path class="b" d="M462-400"/><path class="b" d="M462-400"/><path class="b" d="M462-400"/><path class="b" d="M462-400"/><g class="c"><path class="d" d="M450-584l.237-3.04.139-1.515c.059-.505.174-1.019.262-1.528l.6-3.046c.261-1.007.591-2.008.9-3l.482-1.49c.188-.486.4-.964.61-1.444.419-.958.838-1.915,1.285-2.853a44.681,44.681,0,0,1,3.239-5.224,46.932,46.932,0,0,1,7.957-8.539l2.183-1.71,1.1-.84,1.119-.753,2.24-1.489c.75-.474,1.511-.887,2.267-1.33a95.83,95.83,0,0,1,18.361-7.879,171.277,171.277,0,0,1,18.346-4.68,351.045,351.045,0,0,1,36.332-5.077c12.044-1.136,24.035-1.9,35.988-2.581s23.873-1.259,35.755-1.988,23.729-1.591,35.495-2.965c5.883-.687,11.736-1.536,17.536-2.628a128.551,128.551,0,0,0,17.108-4.318,66.883,66.883,0,0,0,8.117-3.334c1.338-.606,2.565-1.383,3.838-2.106.619-.384,1.2-.818,1.806-1.226.3-.209.606-.409.9-.627l.835-.7a18.747,18.747,0,0,0,1.64-1.44l1.521-1.57,1.326-1.737a17.29,17.29,0,0,0,1.142-1.867A20.066,20.066,0,0,0,713-677a20.474,20.474,0,0,1-1.666,8.8,18.269,18.269,0,0,1-1.025,2.041l-1.235,1.932-1.452,1.775a19.982,19.982,0,0,1-1.588,1.652l-.818.808c-.286.254-.586.488-.879.733-.594.478-1.172.987-1.784,1.442-1.255.861-2.484,1.786-3.812,2.529a69.285,69.285,0,0,1-8.12,4.162,132.083,132.083,0,0,1-17.168,5.9c-5.823,1.611-11.7,2.973-17.6,4.169-11.8,2.393-23.671,4.266-35.525,5.994s-23.706,3.3-35.5,4.977-23.54,3.417-35.143,5.5a335.085,335.085,0,0,0-34.078,7.7,152.933,152.933,0,0,0-15.949,5.518,75.61,75.61,0,0,0-13.942,7.388c-.5.358-1.031.7-1.512,1.063l-1.394,1.121-.7.553-.626.588-1.249,1.16a24.45,24.45,0,0,0-3.8,4.889l-.379.614a6.378,6.378,0,0,0-.294.636q-.279.636-.585,1.251l-.411,1.287c-.069.213-.154.419-.217.633l-.121.666c-.079.442-.2.868-.274,1.311-.028.462-.066.918-.115,1.371-.017.23-.065.447-.065.684l.022.72q.017.717.005,1.428l-.018,1.127a12.011,12.011,0,0,1-12.2,11.817,12.01,12.01,0,0,1-11.817-12.2C449.969-583.494,449.983-583.766,450-584Z"/><path class="d" d="M450-584q-.012-.711.005-1.428l.022-.72c0-.237-.048-.454-.065-.684-.049-.453-.087-.909-.115-1.371-.076-.443-.195-.869-.274-1.311l-.121-.666c-.063-.214-.148-.42-.217-.633l-.411-1.287q-.306-.617-.585-1.251a6.378,6.378,0,0,0-.294-.636l-.379-.614a24.45,24.45,0,0,0-3.8-4.889l-1.249-1.16-.626-.588-.7-.553-1.394-1.121c-.481-.367-1.01-.705-1.512-1.063a75.61,75.61,0,0,0-13.942-7.388,152.933,152.933,0,0,0-15.949-5.518,335.085,335.085,0,0,0-34.078-7.7c-11.6-2.085-23.349-3.833-35.143-5.5s-23.644-3.245-35.5-4.977-23.724-3.6-35.525-5.994c-5.9-1.2-11.78-2.558-17.6-4.169a132.085,132.085,0,0,1-17.168-5.9,69.283,69.283,0,0,1-8.12-4.162c-1.328-.743-2.557-1.668-3.812-2.529-.612-.455-1.19-.964-1.784-1.442-.293-.245-.593-.479-.879-.733l-.818-.808a19.977,19.977,0,0,1-1.588-1.652l-1.452-1.775-1.235-1.932a18.267,18.267,0,0,1-1.025-2.041A20.474,20.474,0,0,1,211-677a20.067,20.067,0,0,0,2.34,8.473,17.29,17.29,0,0,0,1.142,1.867l1.326,1.737,1.521,1.57a18.742,18.742,0,0,0,1.64,1.44l.835.7c.291.218.6.418.9.627.6.408,1.187.842,1.806,1.226,1.273.723,2.5,1.5,3.838,2.106a66.878,66.878,0,0,0,8.117,3.334A128.588,128.588,0,0,0,251.57-649.6c5.8,1.092,11.653,1.941,17.536,2.628,11.766,1.374,23.613,2.24,35.5,2.965s23.8,1.3,35.755,1.988,23.944,1.445,35.988,2.581a351.082,351.082,0,0,1,36.332,5.077,171.277,171.277,0,0,1,18.346,4.68,95.83,95.83,0,0,1,18.361,7.879c.756.443,1.517.856,2.267,1.33l2.24,1.489,1.119.753,1.1.84,2.183,1.71a46.932,46.932,0,0,1,7.957,8.539,44.681,44.681,0,0,1,3.239,5.224c.447.938.866,1.895,1.285,2.853.2.48.422.958.61,1.444l.482,1.49c.309,1,.639,2,.9,3l.6,3.046c.088.509.2,1.023.262,1.528l.139,1.515L474-584a12.01,12.01,0,0,1-11.038,12.909,12.011,12.011,0,0,1-12.909-11.039c-.019-.237-.03-.473-.035-.708Z"/><path class="d" d="M450-584a103.354,103.354,0,0,1,4.885-26.915,70.255,70.255,0,0,1,5.919-12.968,59.772,59.772,0,0,1,8.743-11.434,67.745,67.745,0,0,1,23.021-15.062,140.551,140.551,0,0,1,24.55-7.134c8.107-1.71,16.1-3.042,23.9-4.716,7.783-1.684,15.422-3.682,22.411-6.986,6.943-3.29,13.193-8.162,17.182-14.921,4.061-6.706,5.862-14.784,6.386-22.864.459,8.072-.268,16.49-3.724,24.248-3.361,7.8-9.729,14.239-16.913,18.772-7.221,4.576-15.11,7.686-22.9,10.414-7.815,2.715-15.629,5.032-23.161,7.624a127.262,127.262,0,0,0-21.249,9.091,51.093,51.093,0,0,0-16,13.433,44.649,44.649,0,0,0-7.955,18.2A81.605,81.605,0,0,0,474-584a12.023,12.023,0,0,1-11.242,12.758A12.024,12.024,0,0,1,450-582.483a12.326,12.326,0,0,1-.007-1.425Z"/><path class="d" d="M450-584a81.605,81.605,0,0,0-1.1-21.219,44.649,44.649,0,0,0-7.955-18.2,51.093,51.093,0,0,0-16-13.433,127.262,127.262,0,0,0-21.249-9.091c-7.532-2.592-15.346-4.909-23.161-7.624-7.794-2.728-15.683-5.838-22.9-10.414-7.184-4.533-13.552-10.969-16.913-18.772C337.268-690.51,336.541-698.928,337-707c.524,8.08,2.325,16.158,6.386,22.864,3.989,6.759,10.239,11.631,17.182,14.921,6.989,3.3,14.628,5.3,22.411,6.986,7.8,1.674,15.8,3.006,23.9,4.716a140.551,140.551,0,0,1,24.55,7.134,67.745,67.745,0,0,1,23.021,15.062,59.772,59.772,0,0,1,8.743,11.434,70.255,70.255,0,0,1,5.919,12.968A103.354,103.354,0,0,1,474-584v.023a12.023,12.023,0,0,1-11.265,12.737A12.024,12.024,0,0,1,450-582.506,13.294,13.294,0,0,1,450-584Z"/><path class="d" d="M462-677l12,94a12.1,12.1,0,0,1-10.468,13.532A12.1,12.1,0,0,1,450-579.936,12.614,12.614,0,0,1,450-583Z"/><path class="d" d="M474-584a36.426,36.426,0,0,0,4.368,8.25c.428.688.924,1.375,1.429,2.063l1.5,2.062c1.12,1.375,2.157,2.75,3.346,4.125A132.551,132.551,0,0,0,501.865-551l10.293,8.25,5.124,4.125,2.562,2.063,2.385,2.062c6.333,5.5,11.469,11,14.351,16.5a29.08,29.08,0,0,1,2.985,8.25,31.752,31.752,0,0,1,.391,8.25,39.483,39.483,0,0,1-1.474,8.25,41.025,41.025,0,0,1-1.428,4.125c-.276.688-.606,1.375-.907,2.063a1.91,1.91,0,0,1-.274.515l-.748.516c-.477.344-1.066.687-1.633,1.031s-1.238.688-1.857,1.031c-.7.344-1.338.688-2.1,1.032l-1.11.515-1.2.516-2.428,1.031-2.627,1.031c-.882.344-1.75.688-2.715,1.032l-5.643,2.062-11.131,4.125c-3.492,1.375-6.76,2.75-9.629,4.125a60.212,60.212,0,0,0-7.328,4.125c-1.1.688-2.033,1.375-3.026,2.063-.9.687-1.859,1.375-2.649,2.062a27.53,27.53,0,0,0-4.145,4.125A7.52,7.52,0,0,0,474-452a12,12,0,0,1-12.126,11.874A12.013,12.013,0,0,1,450-452a7.52,7.52,0,0,0-1.9-4.125,27.53,27.53,0,0,0-4.145-4.125c-.79-.687-1.744-1.375-2.649-2.062-.993-.688-1.927-1.375-3.026-2.063a60.212,60.212,0,0,0-7.328-4.125c-2.869-1.375-6.137-2.75-9.629-4.125l-11.131-4.125-5.643-2.062c-.965-.344-1.833-.688-2.715-1.032l-2.627-1.031-2.428-1.031-1.2-.516-1.11-.515c-.758-.344-1.393-.688-2.1-1.032-.619-.343-1.294-.687-1.857-1.031s-1.156-.687-1.633-1.031l-.748-.516a1.912,1.912,0,0,1-.274-.515c-.3-.688-.631-1.375-.907-2.063a41,41,0,0,1-1.428-4.125,39.483,39.483,0,0,1-1.474-8.25,31.751,31.751,0,0,1,.391-8.25A29.079,29.079,0,0,1,387.42-518c2.882-5.5,8.018-11,14.351-16.5l2.385-2.062,2.562-2.063,5.124-4.125L422.135-551a132.551,132.551,0,0,0,17.225-16.5c1.189-1.375,2.226-2.75,3.346-4.125l1.5-2.062c.505-.688,1-1.375,1.429-2.063A36.426,36.426,0,0,0,450-584a12.676,12.676,0,0,1,16.083-7.917A12.779,12.779,0,0,1,474-584Z"/><path class="b" d="M462-400"/><path class="b" d="M462-400"/><path class="b" d="M462-400"/></g><path class="a" d="M473-390l-.237,3.04-.139,1.515c-.059.505-.174,1.019-.262,1.528l-.6,3.046c-.261,1.007-.591,2.008-.9,3l-.482,1.49c-.188.486-.4.964-.61,1.444-.419.958-.838,1.915-1.285,2.853a44.683,44.683,0,0,1-3.239,5.224,46.936,46.936,0,0,1-7.957,8.539l-2.183,1.71-1.1.84-1.119.753-2.24,1.489c-.75.474-1.511.887-2.267,1.33a95.826,95.826,0,0,1-18.361,7.879,171.27,171.27,0,0,1-18.346,4.68,351.082,351.082,0,0,1-36.332,5.077c-12.044,1.136-24.035,1.9-35.988,2.581s-23.873,1.259-35.755,1.988-23.729,1.591-35.5,2.965c-5.883.687-11.736,1.536-17.536,2.628a128.593,128.593,0,0,0-17.108,4.318,66.883,66.883,0,0,0-8.117,3.334c-1.338.606-2.565,1.383-3.838,2.106-.619.384-1.2.818-1.806,1.226-.3.209-.606.409-.9.627l-.835.7a18.747,18.747,0,0,0-1.64,1.44l-1.521,1.57-1.326,1.737a17.281,17.281,0,0,0-1.142,1.867A20.066,20.066,0,0,0,210-297a20.475,20.475,0,0,1,1.666-8.8,18.272,18.272,0,0,1,1.025-2.041l1.235-1.932,1.452-1.775a19.972,19.972,0,0,1,1.588-1.652l.818-.808c.286-.254.586-.488.879-.733.594-.478,1.172-.987,1.784-1.442,1.255-.861,2.484-1.786,3.812-2.529a69.27,69.27,0,0,1,8.12-4.162,132.085,132.085,0,0,1,17.168-5.9c5.823-1.611,11.7-2.973,17.6-4.169,11.8-2.393,23.671-4.266,35.525-5.994s23.706-3.305,35.5-4.977,23.54-3.417,35.143-5.5a335.11,335.11,0,0,0,34.078-7.7,152.961,152.961,0,0,0,15.949-5.518,75.614,75.614,0,0,0,13.942-7.388c.5-.358,1.031-.7,1.512-1.063l1.394-1.121.7-.553.626-.588,1.249-1.16a24.45,24.45,0,0,0,3.8-4.889l.379-.614a6.382,6.382,0,0,0,.294-.636q.279-.636.585-1.251l.411-1.287c.069-.213.154-.419.217-.633l.121-.666c.079-.442.2-.868.274-1.311.028-.462.066-.918.115-1.371.017-.23.065-.447.065-.684l-.022-.72q-.017-.717-.005-1.428l.018-1.127a12.011,12.011,0,0,1,12.2-11.817,12.01,12.01,0,0,1,11.817,12.2C473.031-390.506,473.017-390.234,473-390Z"/><path class="a" d="M473-390q.012.711-.005,1.428l-.022.72c0,.237.048.454.065.684.049.453.087.909.115,1.371.076.443.195.869.274,1.311l.121.666c.063.214.148.42.217.633l.411,1.287q.306.616.585,1.251a6.382,6.382,0,0,0,.294.636l.379.614a24.45,24.45,0,0,0,3.8,4.889l1.249,1.16.626.588.7.553,1.394,1.121c.481.367,1.01.705,1.512,1.063a75.614,75.614,0,0,0,13.942,7.388,152.961,152.961,0,0,0,15.949,5.518,335.11,335.11,0,0,0,34.078,7.7c11.6,2.085,23.349,3.833,35.143,5.5s23.644,3.245,35.5,4.977,23.724,3.6,35.525,5.994c5.9,1.2,11.78,2.558,17.6,4.169a132.083,132.083,0,0,1,17.168,5.9,69.272,69.272,0,0,1,8.12,4.162c1.328.743,2.557,1.668,3.812,2.529.612.455,1.19.964,1.784,1.442.293.245.593.479.879.733l.818.808a19.977,19.977,0,0,1,1.588,1.652l1.452,1.775,1.235,1.932a18.274,18.274,0,0,1,1.025,2.041A20.474,20.474,0,0,1,712-297a20.066,20.066,0,0,0-2.34-8.473,17.281,17.281,0,0,0-1.142-1.867l-1.326-1.737-1.521-1.57a18.752,18.752,0,0,0-1.64-1.44l-.835-.7c-.291-.218-.6-.418-.9-.627-.605-.408-1.187-.842-1.806-1.226-1.273-.723-2.5-1.5-3.838-2.106a66.888,66.888,0,0,0-8.117-3.334A128.555,128.555,0,0,0,671.43-324.4c-5.8-1.092-11.653-1.941-17.536-2.628-11.766-1.374-23.613-2.24-35.495-2.965s-23.8-1.3-35.755-1.988-23.944-1.445-35.988-2.581a351.045,351.045,0,0,1-36.332-5.077,171.27,171.27,0,0,1-18.346-4.68,95.826,95.826,0,0,1-18.361-7.879c-.756-.443-1.517-.856-2.267-1.33l-2.24-1.489-1.119-.753-1.1-.84-2.183-1.71a46.936,46.936,0,0,1-7.957-8.539,44.683,44.683,0,0,1-3.239-5.224c-.447-.938-.866-1.9-1.285-2.853-.2-.48-.422-.958-.61-1.444l-.482-1.49c-.309-1-.639-2-.9-3l-.6-3.046c-.088-.509-.2-1.023-.262-1.528l-.139-1.515L449-390a12.01,12.01,0,0,1,11.038-12.909,12.011,12.011,0,0,1,12.909,11.039c.019.237.03.473.035.708Z"/><path class="a" d="M473-390a103.354,103.354,0,0,1-4.885,26.915,70.255,70.255,0,0,1-5.919,12.968,59.771,59.771,0,0,1-8.743,11.434,67.744,67.744,0,0,1-23.021,15.062,140.551,140.551,0,0,1-24.55,7.134c-8.107,1.71-16.1,3.042-23.9,4.716-7.783,1.684-15.422,3.682-22.411,6.986-6.943,3.29-13.193,8.162-17.182,14.921C338.325-283.159,336.524-275.08,336-267c-.459-8.072.268-16.49,3.724-24.248,3.361-7.8,9.729-14.239,16.913-18.772,7.221-4.576,15.11-7.686,22.9-10.414,7.815-2.715,15.629-5.032,23.161-7.624a127.257,127.257,0,0,0,21.249-9.091,51.083,51.083,0,0,0,16-13.434,44.639,44.639,0,0,0,7.955-18.2A81.605,81.605,0,0,0,449-390a12.023,12.023,0,0,1,11.242-12.758A12.024,12.024,0,0,1,473-391.517a12.325,12.325,0,0,1,.007,1.425Z"/><path class="a" d="M473-390a81.605,81.605,0,0,0,1.1,21.219,44.639,44.639,0,0,0,7.955,18.2,51.083,51.083,0,0,0,16,13.434,127.258,127.258,0,0,0,21.249,9.091c7.532,2.592,15.346,4.909,23.161,7.624,7.794,2.728,15.683,5.838,22.9,10.414,7.184,4.533,13.552,10.969,16.913,18.772,3.456,7.758,4.183,16.176,3.724,24.248-.524-8.08-2.325-16.159-6.386-22.864-3.989-6.759-10.239-11.631-17.182-14.921-6.989-3.3-14.628-5.3-22.411-6.986-7.8-1.674-15.8-3.006-23.9-4.716a140.551,140.551,0,0,1-24.55-7.134,67.744,67.744,0,0,1-23.021-15.062,59.771,59.771,0,0,1-8.743-11.434,70.255,70.255,0,0,1-5.919-12.968A103.354,103.354,0,0,1,449-390v-.023a12.023,12.023,0,0,1,11.265-12.737A12.024,12.024,0,0,1,473-391.494,13.294,13.294,0,0,1,473-390Z"/><path class="a" d="M461-297l-12-94a12.1,12.1,0,0,1,10.468-13.532A12.1,12.1,0,0,1,473-394.064,12.613,12.613,0,0,1,473-391Z"/><path class="a" d="M449-390a35.16,35.16,0,0,0-3.879-7.5c-.415-.625-.8-1.25-1.239-1.875l-1.359-1.875c-.862-1.25-1.938-2.5-2.918-3.75a124.16,124.16,0,0,0-14.926-15c-1.5-1.25-2.89-2.5-4.48-3.75l-4.682-3.75-9.333-7.5a103.461,103.461,0,0,1-15.789-15c-3.953-5-6.283-10-7.088-15a32.219,32.219,0,0,1-.263-7.5,40.4,40.4,0,0,1,1.26-7.5c.347-1.25.736-2.5,1.2-3.75.246-.625.466-1.25.758-1.875l.419-.937.21-.469.105-.235.052-.117a.726.726,0,0,1,.214-.117,43.265,43.265,0,0,1,4.883-1.875c.472-.156.953-.312,1.482-.469s1-.312,1.589-.468l3.395-.938,3.686-.937,3.917-.938L414.032-495l3.873-.937,1.937-.469,1.8-.469,1.791-.469.893-.234.819-.234,3.28-.938q3.081-.937,5.639-1.875c1.662-.625,3.133-1.25,4.564-1.875a46.3,46.3,0,0,0,7.047-3.75,13.345,13.345,0,0,0,2.3-1.875A2.983,2.983,0,0,0,449-510a12,12,0,0,1,11.689-12.311A12,12,0,0,1,473-510.622c.005.2,0,.43,0,.622a2.983,2.983,0,0,0,1.026,1.875,13.345,13.345,0,0,0,2.3,1.875,46.3,46.3,0,0,0,7.047,3.75c1.431.625,2.9,1.25,4.564,1.875q2.553.938,5.639,1.875l3.28.938.819.234.893.234,1.791.469,1.8.469,1.937.469,3.873.937,7.814,1.875,3.917.938,3.686.937,3.4.938c.585.156,1.066.312,1.589.468s1.01.313,1.482.469a43.26,43.26,0,0,1,4.883,1.875.727.727,0,0,1,.214.117l.052.117.1.235.21.469.419.937c.292.625.512,1.25.758,1.875.468,1.25.857,2.5,1.2,3.75a40.391,40.391,0,0,1,1.26,7.5,32.219,32.219,0,0,1-.263,7.5c-.8,5-3.135,10-7.088,15a103.459,103.459,0,0,1-15.789,15l-9.333,7.5-4.682,3.75c-1.59,1.25-2.98,2.5-4.48,3.75a124.16,124.16,0,0,0-14.926,15c-.98,1.25-2.056,2.5-2.918,3.75l-1.359,1.875c-.443.625-.824,1.25-1.239,1.875A35.16,35.16,0,0,0,473-390a12.663,12.663,0,0,1-16.044,7.956A12.77,12.77,0,0,1,449-390Z"/><path class="b" d="M461-604"/><path class="b" d="M461-604"/><path class="b" d="M461-604"/><path class="b" d="M461-604"/><g class="c"><path class="d" d="M473-390l-.237,3.04-.139,1.515c-.059.505-.174,1.019-.262,1.528l-.6,3.046c-.261,1.007-.591,2.008-.9,3l-.482,1.49c-.188.486-.4.964-.61,1.444-.419.958-.838,1.915-1.285,2.853a44.683,44.683,0,0,1-3.239,5.224,46.936,46.936,0,0,1-7.957,8.539l-2.183,1.71-1.1.84-1.119.753-2.24,1.489c-.75.474-1.511.887-2.267,1.33a95.826,95.826,0,0,1-18.361,7.879,171.27,171.27,0,0,1-18.346,4.68,351.082,351.082,0,0,1-36.332,5.077c-12.044,1.136-24.035,1.9-35.988,2.581s-23.873,1.259-35.755,1.988-23.729,1.591-35.5,2.965c-5.883.687-11.736,1.536-17.536,2.628a128.593,128.593,0,0,0-17.108,4.318,66.883,66.883,0,0,0-8.117,3.334c-1.338.606-2.565,1.383-3.838,2.106-.619.384-1.2.818-1.806,1.226-.3.209-.606.409-.9.627l-.835.7a18.747,18.747,0,0,0-1.64,1.44l-1.521,1.57-1.326,1.737a17.281,17.281,0,0,0-1.142,1.867A20.066,20.066,0,0,0,210-297a20.475,20.475,0,0,1,1.666-8.8,18.272,18.272,0,0,1,1.025-2.041l1.235-1.932,1.452-1.775a19.972,19.972,0,0,1,1.588-1.652l.818-.808c.286-.254.586-.488.879-.733.594-.478,1.172-.987,1.784-1.442,1.255-.861,2.484-1.786,3.812-2.529a69.27,69.27,0,0,1,8.12-4.162,132.085,132.085,0,0,1,17.168-5.9c5.823-1.611,11.7-2.973,17.6-4.169,11.8-2.393,23.671-4.266,35.525-5.994s23.706-3.305,35.5-4.977,23.54-3.417,35.143-5.5a335.11,335.11,0,0,0,34.078-7.7,152.961,152.961,0,0,0,15.949-5.518,75.614,75.614,0,0,0,13.942-7.388c.5-.358,1.031-.7,1.512-1.063l1.394-1.121.7-.553.626-.588,1.249-1.16a24.45,24.45,0,0,0,3.8-4.889l.379-.614a6.382,6.382,0,0,0,.294-.636q.279-.636.585-1.251l.411-1.287c.069-.213.154-.419.217-.633l.121-.665c.079-.444.2-.869.274-1.312.028-.462.066-.918.115-1.371.017-.23.065-.447.065-.684l-.022-.72q-.017-.717-.005-1.428l.018-1.127a12.011,12.011,0,0,1,12.2-11.817,12.01,12.01,0,0,1,11.817,12.2C473.031-390.506,473.017-390.234,473-390Z"/><path class="d" d="M473-390q.012.711-.005,1.428l-.022.72c0,.237.048.454.065.684.049.453.087.909.115,1.371.076.443.195.868.274,1.312l.121.665c.063.214.148.42.217.633l.411,1.287q.306.616.585,1.251a6.382,6.382,0,0,0,.294.636l.379.614a24.45,24.45,0,0,0,3.8,4.889l1.249,1.16.626.588.7.553,1.394,1.121c.481.367,1.01.705,1.512,1.063a75.614,75.614,0,0,0,13.942,7.388,152.961,152.961,0,0,0,15.949,5.518,335.11,335.11,0,0,0,34.078,7.7c11.6,2.085,23.349,3.833,35.143,5.5s23.644,3.245,35.5,4.977,23.724,3.6,35.525,5.994c5.9,1.2,11.78,2.558,17.6,4.169a132.083,132.083,0,0,1,17.168,5.9,69.272,69.272,0,0,1,8.12,4.162c1.328.743,2.557,1.668,3.812,2.529.612.455,1.19.964,1.784,1.442.293.245.593.479.879.733l.818.808a19.977,19.977,0,0,1,1.588,1.652l1.452,1.775,1.235,1.932a18.274,18.274,0,0,1,1.025,2.041A20.474,20.474,0,0,1,712-297a20.066,20.066,0,0,0-2.34-8.473,17.281,17.281,0,0,0-1.142-1.867l-1.326-1.737-1.521-1.57a18.752,18.752,0,0,0-1.64-1.44l-.835-.7c-.291-.218-.6-.418-.9-.627-.605-.408-1.187-.842-1.806-1.226-1.273-.723-2.5-1.5-3.838-2.106a66.888,66.888,0,0,0-8.117-3.334A128.555,128.555,0,0,0,671.43-324.4c-5.8-1.092-11.653-1.941-17.536-2.628-11.766-1.374-23.613-2.24-35.495-2.965s-23.8-1.3-35.755-1.988-23.944-1.445-35.988-2.581a351.045,351.045,0,0,1-36.332-5.077,171.27,171.27,0,0,1-18.346-4.68,95.826,95.826,0,0,1-18.361-7.879c-.756-.443-1.517-.856-2.267-1.33l-2.24-1.489-1.119-.753-1.1-.84-2.183-1.71a46.936,46.936,0,0,1-7.957-8.539,44.683,44.683,0,0,1-3.239-5.224c-.447-.938-.866-1.9-1.285-2.853-.2-.48-.422-.958-.61-1.444l-.482-1.49c-.309-1-.639-2-.9-3l-.6-3.046c-.088-.509-.2-1.023-.262-1.528l-.139-1.515L449-390a12.01,12.01,0,0,1,11.038-12.909,12.011,12.011,0,0,1,12.909,11.039c.019.237.03.473.035.708Z"/><path class="d" d="M473-390a103.354,103.354,0,0,1-4.885,26.915,70.255,70.255,0,0,1-5.919,12.968,59.771,59.771,0,0,1-8.743,11.434,67.744,67.744,0,0,1-23.021,15.062,140.551,140.551,0,0,1-24.55,7.134c-8.107,1.71-16.1,3.042-23.9,4.716-7.783,1.684-15.422,3.682-22.411,6.986-6.943,3.29-13.193,8.162-17.182,14.921C338.325-283.159,336.524-275.08,336-267c-.459-8.072.268-16.49,3.724-24.248,3.361-7.8,9.729-14.239,16.913-18.772,7.221-4.576,15.11-7.686,22.9-10.414,7.815-2.715,15.629-5.032,23.161-7.624a127.257,127.257,0,0,0,21.249-9.091,51.083,51.083,0,0,0,16-13.434,44.639,44.639,0,0,0,7.955-18.2A81.605,81.605,0,0,0,449-390a12.024,12.024,0,0,1,11.242-12.758A12.024,12.024,0,0,1,473-391.517a12.325,12.325,0,0,1,.007,1.425Z"/><path class="d" d="M473-390a81.605,81.605,0,0,0,1.1,21.219,44.639,44.639,0,0,0,7.955,18.2,51.083,51.083,0,0,0,16,13.434,127.258,127.258,0,0,0,21.249,9.091c7.532,2.592,15.346,4.909,23.161,7.624,7.794,2.728,15.683,5.838,22.9,10.414,7.184,4.533,13.552,10.969,16.913,18.772,3.456,7.758,4.183,16.176,3.724,24.248-.524-8.08-2.325-16.159-6.386-22.864-3.989-6.759-10.239-11.631-17.182-14.921-6.989-3.3-14.628-5.3-22.411-6.986-7.8-1.674-15.8-3.006-23.9-4.716a140.551,140.551,0,0,1-24.55-7.134,67.744,67.744,0,0,1-23.021-15.062,59.771,59.771,0,0,1-8.743-11.434,70.255,70.255,0,0,1-5.919-12.968A103.354,103.354,0,0,1,449-390v-.023a12.023,12.023,0,0,1,11.265-12.737A12.024,12.024,0,0,1,473-391.494,13.294,13.294,0,0,1,473-390Z"/><path class="d" d="M461-297l-12-94a12.1,12.1,0,0,1,10.468-13.532A12.1,12.1,0,0,1,473-394.064,12.613,12.613,0,0,1,473-391Z"/><path class="d" d="M449-390a36.426,36.426,0,0,0-4.368-8.25c-.428-.687-.924-1.375-1.429-2.062l-1.5-2.063c-1.12-1.375-2.157-2.75-3.346-4.125A132.551,132.551,0,0,0,421.135-423l-10.293-8.25-5.124-4.125-2.562-2.062-2.385-2.063c-6.333-5.5-11.469-11-14.351-16.5a29.079,29.079,0,0,1-2.985-8.25,31.751,31.751,0,0,1-.391-8.25,39.483,39.483,0,0,1,1.474-8.25,41,41,0,0,1,1.428-4.125c.276-.687.606-1.375.907-2.062a1.9,1.9,0,0,1,.274-.516l.748-.516c.477-.343,1.066-.687,1.633-1.031s1.238-.687,1.857-1.031c.7-.344,1.338-.688,2.1-1.031l1.11-.516,1.2-.516,2.428-1.031,2.627-1.031c.882-.344,1.75-.688,2.715-1.031l5.643-2.063,11.131-4.125c3.492-1.375,6.76-2.75,9.629-4.125a60.212,60.212,0,0,0,7.328-4.125c1.1-.687,2.033-1.375,3.026-2.062.9-.688,1.859-1.375,2.649-2.063a27.53,27.53,0,0,0,4.145-4.125A7.52,7.52,0,0,0,449-522a12,12,0,0,1,12.126-11.874A12.013,12.013,0,0,1,473-522a7.52,7.52,0,0,0,1.9,4.125,27.53,27.53,0,0,0,4.145,4.125c.79.688,1.744,1.375,2.649,2.063.993.687,1.927,1.375,3.026,2.062a60.212,60.212,0,0,0,7.328,4.125c2.869,1.375,6.137,2.75,9.629,4.125l11.131,4.125,5.643,2.063c.965.343,1.833.687,2.715,1.031l2.627,1.031,2.428,1.031,1.2.516,1.11.516c.758.343,1.393.687,2.1,1.031.619.344,1.294.687,1.857,1.031s1.156.688,1.633,1.031l.748.516a1.9,1.9,0,0,1,.274.516c.3.687.631,1.375.907,2.062a41.025,41.025,0,0,1,1.428,4.125,39.483,39.483,0,0,1,1.474,8.25,31.752,31.752,0,0,1-.391,8.25A29.08,29.08,0,0,1,535.58-456c-2.882,5.5-8.018,11-14.351,16.5l-2.385,2.063-2.562,2.062-5.124,4.125L500.865-423a132.551,132.551,0,0,0-17.225,16.5c-1.189,1.375-2.226,2.75-3.346,4.125l-1.5,2.063c-.505.687-1,1.375-1.429,2.062A36.426,36.426,0,0,0,473-390a12.676,12.676,0,0,1-16.083,7.917A12.779,12.779,0,0,1,449-390Z"/><path class="b" d="M461-604"/><path class="b" d="M461-604"/><path class="b" d="M461-604"/></g><path class="e" d="M462-584c0-70.822,215.925-38.06,247.233-81.365"/><path class="f" d="M707.583-663.1l-6.23,1.1-.047-.216,6.461-6.94Q710.383-673.077,713-677q-.729,4.659-1.456,9.318l.062,9.482-.153.139Z"/><path class="e" d="M462-584c0-70.822-215.925-38.06-247.233-81.365"/><path class="f" d="M216.417-663.1l-3.842,5.025-.181-.128.062-9.482Q211.727-672.341,211-677l5.233,7.847,6.461,6.94-.019.205Z"/><path class="e" d="M462-584c0-95.361,111.456-48.726,123.879-110.818"/><path class="f" d="M585.332-692.173l-5.738,2.663-.1-.2,4.463-8.366L587-707l.984,9.38,2.493,9.148-.112.173Z"/><path class="e" d="M462-584c0-95.361-111.456-48.726-123.879-110.818"/><path class="f" d="M338.668-692.173l-5,3.871-.142-.17,2.493-9.148q.492-4.691.984-9.38,1.521,4.464,3.044,8.927l4.463,8.366-.071.193Z"/><line class="e" y2="91.772" transform="translate(462 -664.771)"/><path class="f" d="M462-662.079l5.4,3.287.123-.185-3.5-8.812Q463.013-672.394,462-677q-1.012,4.605-2.027,9.211l-3.5,8.812.092.185Z"/><rect class="g" width="78" height="42" rx="3" transform="translate(297 -770)"/><line class="h" x2="78" transform="translate(297 -732)"/><path class="i" d="M305-722l5.385-6H315l-5.385,6Z"/><path class="j" d="M305-722l5.385-6H315l-5.385,6Z"/><path class="i" d="M366-722l-5.385-6H356l5.385,6Z"/><path class="j" d="M366-722l-5.385-6H356l5.385,6Z"/><path class="k" d="M356-781a17.364,17.364,0,0,1,9-3,17.364,17.364,0,0,1,9,3"/><path class="k" d="M359-778a11.574,11.574,0,0,1,6-2,11.574,11.574,0,0,1,6,2"/><path class="k" d="M362-775a5.789,5.789,0,0,1,3-1,5.789,5.789,0,0,1,3,1"/><rect class="l" width="10" height="6" transform="translate(307 -759)"/><rect class="j" width="10" height="6" transform="translate(307 -759)"/><rect class="l" width="10" height="6" transform="translate(323 -759)"/><rect class="m" width="10" height="6" transform="translate(323 -759)"/><rect class="l" width="10" height="6" transform="translate(339 -759)"/><rect class="j" width="10" height="6" transform="translate(339 -759)"/><rect class="l" width="10" height="6" transform="translate(355 -759)"/><rect class="m" width="10" height="6" transform="translate(355 -759)"/><rect class="l" width="10" height="6" transform="translate(307 -747)"/><rect class="m" width="10" height="6" transform="translate(307 -747)"/><rect class="l" width="10" height="6" transform="translate(323 -747)"/><rect class="j" width="10" height="6" transform="translate(323 -747)"/><rect class="l" width="10" height="6" transform="translate(339 -747)"/><rect class="m" width="10" height="6" transform="translate(339 -747)"/><rect class="l" width="10" height="6" transform="translate(355 -747)"/><rect class="j" width="10" height="6" transform="translate(355 -747)"/><rect class="g" width="60" height="54" rx="3" transform="translate(678 -747)"/><rect class="a" width="22" height="44" rx="3" transform="translate(727 -732)"/><rect class="l" width="24" height="16" rx="4" transform="translate(696 -728)"/><rect class="j" width="24" height="16" rx="4" transform="translate(696 -728)"/><path class="n" d="M700-723h7l5,6,4-6"/><line class="m" y1="3" transform="translate(703 -720)"/><rect class="l" width="4" height="4" rx="2" transform="translate(699 -743)"/><rect class="j" width="4" height="4" rx="2" transform="translate(699 -743)"/><rect class="l" width="4" height="4" rx="2" transform="translate(706 -743)"/><rect class="j" width="4" height="4" rx="2" transform="translate(706 -743)"/><rect class="l" width="4" height="4" rx="2" transform="translate(713 -743)"/><rect class="j" width="4" height="4" rx="2" transform="translate(713 -743)"/><rect class="l" width="22" height="44" rx="3" transform="translate(727 -732)"/><rect class="j" width="22" height="44" rx="3" transform="translate(727 -732)"/><circle class="h" cx="5" cy="5" r="5" transform="translate(733 -709)"/><circle class="h" cx="1" cy="1" r="1" transform="translate(737 -705)"/><line class="j" x2="2" transform="translate(731 -721)"/><line class="j" x2="2" transform="translate(737 -721)"/><line class="j" x2="2" transform="translate(743 -721)"/><line class="j" x2="2" transform="translate(731 -717)"/><line class="j" x2="2" transform="translate(737 -717)"/><line class="j" x2="2" transform="translate(737 -713)"/><line class="j" x2="2" transform="translate(743 -717)"/><line class="j" x2="2" transform="translate(731 -695)"/><line class="j" x2="2" transform="translate(737 -695)"/><line class="j" x2="2" transform="translate(743 -695)"/><line class="j" x2="2" transform="translate(731 -725)"/><line class="j" x2="2" transform="translate(737 -725)"/><line class="j" x2="2" transform="translate(743 -725)"/><rect class="g" width="66" height="44" rx="3" transform="translate(176 -744)"/><line class="o" x1="66" transform="translate(176 -704)"/><rect class="a" width="20" height="32" rx="3" transform="translate(173 -719)"/><rect class="g" width="26" height="4" rx="2" transform="translate(197 -692)"/><rect class="g" width="14" height="8" transform="translate(203 -700)"/><path class="j" d="M230-740.5h7.415a.6.6,0,0,1,.585.615v7.385"/><rect class="l" width="20" height="32" rx="3" transform="translate(173 -719)"/><rect class="j" width="20" height="32" rx="3" transform="translate(173 -719)"/><line class="j" x2="7" transform="translate(180 -718)"/><path class="l" d="M208.205-723.795l9.574,3.83-1.565,1.565,1.2,1.2-2.615,2.615-1.2-1.2-1.565,1.565Z"/><path class="p" d="M210-722l6,2.4-1.2,1.2,1.2,1.2-1.2,1.2-1.2-1.2-1.2,1.2-2.4-6m-3.59-3.59,1.733,4.333,2.4,6,1.126,2.816,1.931-1.931,1.2,1.2,1.414-1.414,1.2-1.2,1.414-1.414-1.2-1.2,1.931-1.931-2.816-1.126-6-2.4-4.333-1.733Z"/><circle class="p" cx="2" cy="2" r="2" transform="translate(181 -694)"/><rect class="g" width="54" height="68" rx="3" transform="translate(554 -786)"/><path class="a" d="M582.242-738.977l33.248-33.249a2.641,2.641,0,0,1,3.736,0h0a2.641,2.641,0,0,1,0,3.736l-33.249,33.248L580-733Z"/><line class="j" x2="53" transform="translate(554.5 -726)"/><line class="m" x2="4" transform="translate(578 -722)"/><path class="l" d="M582.242-738.977l33.248-33.249a2.641,2.641,0,0,1,3.736,0h0a2.641,2.641,0,0,1,0,3.736l-33.249,33.248L580-733Z"/><path class="j" d="M582.242-738.977l33.248-33.249a2.641,2.641,0,0,1,3.736,0h0a2.641,2.641,0,0,1,0,3.736l-33.249,33.248L580-733Z"/><rect class="l" width="6" height="6" rx="3" transform="translate(560 -780)"/><rect class="m" width="6" height="6" rx="3" transform="translate(560 -780)"/><rect class="l" width="6" height="6" rx="3" transform="translate(572 -780)"/><rect class="j" width="6" height="6" rx="3" transform="translate(572 -780)"/><rect class="l" width="6" height="6" rx="3" transform="translate(584 -780)"/><rect class="m" width="6" height="6" rx="3" transform="translate(584 -780)"/><rect class="l" width="6" height="6" rx="3" transform="translate(596 -780)"/><rect class="j" width="6" height="6" rx="3" transform="translate(596 -780)"/><rect class="l" width="6" height="6" rx="3" transform="translate(560 -768)"/><rect class="j" width="6" height="6" rx="3" transform="translate(560 -768)"/><rect class="l" width="6" height="6" rx="3" transform="translate(572 -768)"/><rect class="m" width="6" height="6" rx="3" transform="translate(572 -768)"/><rect class="l" width="6" height="6" rx="3" transform="translate(584 -768)"/><rect class="j" width="6" height="6" rx="3" transform="translate(584 -768)"/><circle class="q" cx="4" cy="4" r="4" transform="translate(458 -573)"/><path class="e" d="M461-390c0,70.822-215.925,38.06-247.233,81.365"/><path class="f" d="M215.417-310.9l6.23-1.1.047.216-6.461,6.94Q212.617-300.923,210-297q.729-4.659,1.456-9.318l-.062-9.482.153-.139Z"/><path class="e" d="M461-390c0,70.822,215.925,38.06,247.233,81.365"/><path class="f" d="M706.583-310.9l3.842-5.025.181.128-.062,9.482q.729,4.659,1.456,9.318l-5.233-7.847-6.461-6.94.019-.205Z"/><path class="e" d="M461-390c0,95.361-111.456,48.726-123.879,110.818"/><path class="f" d="M337.668-281.827l5.738-2.663.1.2-4.463,8.366L336-267l-.984-9.38-2.493-9.148.112-.173Z"/><path class="e" d="M461-390c0,95.361,111.456,48.726,123.879,110.818"/><path class="f" d="M584.332-281.827l5-3.871.142.17-2.493,9.148q-.492,4.691-.984,9.38-1.521-4.464-3.044-8.927l-4.463-8.366.071-.193Z"/><line class="e" y1="91.771" transform="translate(461 -401)"/><path class="f" d="M461-311.921l-5.4-3.287-.123.185,3.5,8.812Q459.987-301.606,461-297q1.012-4.605,2.027-9.211l3.5-8.812-.092-.185Z"/><circle class="q" cx="4" cy="4" r="4" transform="translate(457 -409)"/><text class="r" transform="translate(462 -414.637)"><tspan x="-43.25" y="0">NETTR SDK</tspan></text><path class="g" d="M327.577-194C318.505-194.051,311-212.21,311-221.458c0-15.107,11.558-18.414,16.012-18.414a18.721,18.721,0,0,1,6.041,1.457,13.727,13.727,0,0,0,3.45.97,10.878,10.878,0,0,0,2.475-.787A20.165,20.165,0,0,1,346.437-240h.018c2.185,0,8.811.47,12.794,6.336l.933,1.374-1.343.994c-1.918,1.419-5.419,4.008-5.419,9.137,0,6.074,3.965,8.41,5.869,9.533.841.5,1.711,1.008,1.711,2.126,0,.73-5.944,16.409-14.575,16.409a11.91,11.91,0,0,1-4.922-1.171,10.137,10.137,0,0,0-4.381-1.034,11.437,11.437,0,0,0-3.469.92A17.282,17.282,0,0,1,327.636-194Z"/><path class="g" d="M345.994-254c.2,7.263-4.862,12.3-9.915,11.986C335.247-247.81,341.131-254,345.994-254Z"/><path class="d" d="M233.449-235.825c-1.717-.721-2.452-1.677-2.381-3.1a4.813,4.813,0,0,0-1.286-3.367,14.957,14.957,0,0,0,0-7.729c-1.115-3.331-4.516-8.418-8.026-13.418-1.436-2.053-1.5-4.285-1.583-6.87a21.345,21.345,0,0,0-1.5-8.365,8.436,8.436,0,0,0-8.03-5.322,10.8,10.8,0,0,0-6.106,1.9c-3.507,2.481-3.043,7.889-2.736,11.467.042.49.081.953.1,1.348.2,3.505.019,5.352-.224,5.914a24.337,24.337,0,0,1-1.751,2.517c-.847,1.143-1.807,2.439-2.594,3.647a28.935,28.935,0,0,0-2.431,5.822,28.343,28.343,0,0,1-1.536,3.944,5.483,5.483,0,0,0-.508,4.033,4.124,4.124,0,0,0-1.3,1.684c-.522,1.141-1.581,1.754-3.782,2.188a2.91,2.91,0,0,0-2.074,1.3,3.756,3.756,0,0,0,.022,2.936,4.674,4.674,0,0,1-.294,3.311c-.1.315-.218.672-.334,1.066a1.961,1.961,0,0,0,.2,1.681c.831,1.3,3.257,1.762,5.754,2.064a21.7,21.7,0,0,1,4.7,1.384,21.689,21.689,0,0,0,4.6,1.36,5.189,5.189,0,0,0,.65.043,3.823,3.823,0,0,0,3.5-2.106,38.026,38.026,0,0,1,6.31-.764,26.7,26.7,0,0,1,6.272.661,5.13,5.13,0,0,0,1.889,2.109A4.5,4.5,0,0,0,221.1-224h0a5.056,5.056,0,0,0,3.736-1.581c1.273-1.383,4.454-3.148,6.777-4.437.518-.287,1-.556,1.428-.8A3.278,3.278,0,0,0,235-233.723,2.451,2.451,0,0,0,233.449-235.825Z"/><path class="a" d="M204.566-236.091c-.163-1.173-1.634-2.335-3.339-3.682-1.393-1.1-2.973-2.349-3.408-3.4-.9-2.181-.19-6.014,1.046-7.988a20.576,20.576,0,0,0,1.592-3.936,14.328,14.328,0,0,1,1.662-3.892,10.073,10.073,0,0,0,1.993-4.954c.893.874,2.279,1.983,3.56,1.983a2.045,2.045,0,0,0,.571-.079,19.012,19.012,0,0,0,3.411-1.76,14.415,14.415,0,0,1,2.9-1.492c.855,1.258,5.822,12.522,6.329,16.14a17.521,17.521,0,0,1-.235,6.155,4.337,4.337,0,0,0-.592-.043c-1.383,0-1.749.774-1.845,1.236a51.4,51.4,0,0,0-.274,5.9c-.5.651-3.03,3.719-6.661,4.27a28.212,28.212,0,0,1-4.106.332,13.521,13.521,0,0,1-2.025-.128l-1.826-2.14A2.284,2.284,0,0,0,204.566-236.091Z"/><path class="a" d="M206.882-271.38c-.057.025-.113.052-.168.08a3.649,3.649,0,0,0-.039-.384c-.2-1.175-.959-2.028-1.808-2.028a1.24,1.24,0,0,0-.2.016,1.525,1.525,0,0,0-1.117,1.025c.19-1.209.858-2.1,1.651-2.1.931,0,1.717,1.285,1.717,2.807A4.263,4.263,0,0,1,206.882-271.38Z"/><path class="a" d="M214.116-270.474a3.054,3.054,0,0,0,.131-.892,2.224,2.224,0,0,0-1.945-2.46,2.248,2.248,0,0,0-1.933,2.46c0,.093,0,.185.013.278l-.165-.065a3.835,3.835,0,0,1-.185-1.183c0-1.65,1.029-2.992,2.294-2.992s2.294,1.342,2.294,2.992A3.6,3.6,0,0,1,214.116-270.474Z"/><path class="a" d="M213.183-267.263c-.018.084-.057.121-.486.349-.216.116-.486.259-.823.47l-.226.14a20.792,20.792,0,0,1-3.6,1.958c-.391.053-.633-.1-1.177-.481-.123-.085-.253-.176-.392-.268a4.662,4.662,0,0,1-1.682-1.669c.319-.253,1.111-.887,1.517-1.262a4.363,4.363,0,0,1,2.062-1.311.308.308,0,0,1,.061.005,20.133,20.133,0,0,1,2.539.928c.4.164.747.306.991.4A2.375,2.375,0,0,1,213.183-267.263Z"/><path class="a" d="M220.083-230.6a29.8,29.8,0,0,0,.851-6.333c-.018-.365-.05-.762-.08-1.146a10.84,10.84,0,0,1-.055-2.1.438.438,0,0,1,.058-.022c0,.919.2,2.75,1.628,3.389a3.516,3.516,0,0,0,1.447.287,5.827,5.827,0,0,0,3.671-1.387,6.839,6.839,0,0,0,.931-1.253,1.553,1.553,0,0,1,.063.591,4.272,4.272,0,0,0,1.78,3.813l.178.1c.435.234,1.592.856,1.61,1.152a.272.272,0,0,1-.074.1A16.625,16.625,0,0,1,229.8-232.1a19.956,19.956,0,0,0-4.621,2.912c-1.254,1.351-2.672,2.26-3.528,2.26a.906.906,0,0,1-.28-.041C220.437-227.264,219.672-228.639,220.083-230.6Z"/><path class="a" d="M188.39-235.709a2.721,2.721,0,0,1-.089-1.162c.058-.257,1.3-.534,1.829-.652a7,7,0,0,0,2.021-.65,4.2,4.2,0,0,0,1.376-1.892,2.943,2.943,0,0,1,.769-1.182.157.157,0,0,1,.089-.021c.542,0,1.681,1.169,2.337,2.215.166.264.475.793.831,1.4a45.22,45.22,0,0,0,3.29,5.174c.688.754,1.8,2.206,1.527,3.45a3.76,3.76,0,0,1-1.519,1.925,1.538,1.538,0,0,1-.338.032c-1.46,0-4.35-1.245-5.9-1.914l-.23-.1a18.362,18.362,0,0,0-3.651-.834,11.725,11.725,0,0,1-2.828-.651c-.2-.231.032-.98.237-1.64a10.875,10.875,0,0,0,.384-1.48A5.52,5.52,0,0,0,188.39-235.709Z"/><path class="a" d="M431.8-258.8v-17.219l24.4-3.074V-258.8Z"/><path class="h" d="M431.8-258.8v-17.219l24.4-3.074V-258.8Z"/><path class="a" d="M461.8-258.8v-20.779l28.4-3.516V-258.8Z"/><path class="h" d="M461.8-258.8v-20.779l28.4-3.516V-258.8Z"/><path class="a" d="M461.8-232.421V-253.2h28.4v24.295Z"/><path class="h" d="M461.8-232.421V-253.2h28.4v24.295Z"/><path class="a" d="M431.8-235.981V-253.2h24.4v20.293Z"/><path class="h" d="M431.8-235.981V-253.2h24.4v20.293Z"/><path class="g" d="M592.25-195A3.839,3.839,0,0,0,596-198.748V-207.5h2.5A2.364,2.364,0,0,0,601-210v-25H571v25a2.364,2.364,0,0,0,2.5,2.5H576v8.752A3.839,3.839,0,0,0,579.75-195a3.839,3.839,0,0,0,3.748-3.748V-207.5h5v8.752A3.839,3.839,0,0,0,592.25-195Z"/><path class="g" d="M608-209.5c1.6,0,3-1.746,3-3.748v-17.506c0-1.991-1.4-3.746-3-3.746s-3,1.755-3,3.746v17.506C605-211.246,606.4-209.5,608-209.5Z"/><path class="g" d="M564-209.5c1.6,0,3-1.746,3-3.748v-17.506c0-1.991-1.4-3.746-3-3.746s-3,1.755-3,3.746v17.506C561-211.246,562.4-209.5,564-209.5Z"/><path class="g" d="M600.987-239.692c0-.035-.005-.07-.007-.1a15.178,15.178,0,0,0-3.408-8.872,13.831,13.831,0,0,0-1.7-1.706l3.309-3.261a1.95,1.95,0,0,0,0-2.787,2.022,2.022,0,0,0-2.828,0l-3.7,3.642c-.11-.078-.185-.13-.2-.137a14.679,14.679,0,0,0-6.422-1.39h-.074a14.694,14.694,0,0,0-6.347,1.355c-.02.009-.12.078-.265.18l-3.705-3.65a2.022,2.022,0,0,0-2.828,0,1.95,1.95,0,0,0,0,2.787l3.3,3.254a13.9,13.9,0,0,0-1.692,1.713,15.178,15.178,0,0,0-3.408,8.872c0,.035-.005.07-.007.1-.01.23-.015.46-.015.692h30C601-239.232,601-239.462,600.987-239.692Z"/><circle class="d" cx="2" cy="2" r="2" transform="translate(580 -248)"/><circle class="d" cx="2" cy="2" r="2" transform="translate(589 -248)"/><line class="s" x1="164.321" transform="translate(380.066 -543.943)"/><path class="o" d="M386.978-437A8.025,8.025,0,0,1,379-445.071v-97.858A8.025,8.025,0,0,1,386.978-551H537.022A8.025,8.025,0,0,1,545-542.929v97.858A8.025,8.025,0,0,1,537.022-437Z"/><path class="l" d="M545-536H379v-7a8,8,0,0,1,8-8H537a8,8,0,0,1,8,8Z"/><path class="j" d="M545-536H379v-7a8,8,0,0,1,8-8H537a8,8,0,0,1,8,8Z"/><circle class="p" cx="2" cy="2" r="2" transform="translate(385 -545)"/><circle class="p" cx="2" cy="2" r="2" transform="translate(393 -545)"/><circle class="p" cx="2" cy="2" r="2" transform="translate(401 -545)"/><text class="t" transform="translate(462 -512.057)"><tspan x="-51.324" y="0">ONE PLAYER </tspan></text><path class="p" d="M454.66-500.6l23.8,13.077a2.836,2.836,0,0,1,0,5.042L454.66-469.4a3.1,3.1,0,0,1-4.66-2.521v-26.154A3.1,3.1,0,0,1,454.66-500.6Z"/><path class="g" d="M0,0H80a0,0,0,0,1,0,0V0a6,6,0,0,1-6,6H6A6,6,0,0,1,0,0V0A0,0,0,0,1,0,0Z" transform="translate(422 -702)"/><path class="g" d="M3,0H61a3,3,0,0,1,3,3V42a0,0,0,0,1,0,0H0a0,0,0,0,1,0,0V3A3,3,0,0,1,3,0Z" transform="translate(430 -744)"/><path class="u" d="M0,0H18a0,0,0,0,1,0,0V0a2,2,0,0,1-2,2H2A2,2,0,0,1,0,0V0A0,0,0,0,1,0,0Z" transform="translate(453 -702)"/><path class="j" d="M481-739h7.415a.6.6,0,0,1,.585.615V-731"/><rect class="l" width="32" height="10" transform="translate(445 -733)"/><rect class="j" width="32" height="10" transform="translate(445 -733)"/><rect class="l" width="16" height="6" transform="translate(444 -717)"/><rect class="m" width="16" height="6" transform="translate(444 -717)"/><path class="g" d="M730.161-230h-5.645L710-250.93,695.484-230h-5.645l17.339-25-17.339-25h5.645L710-259.07,724.516-280h5.645l-17.339,25Z"/></g></svg>