<svg xmlns="http://www.w3.org/2000/svg" width="506.225" height="587.852" viewBox="0 0 506.225 587.852"><defs><style>.a,.h,.i,.n{fill:#fff;}.b,.f,.o{fill:none;}.c{opacity:0.25;}.d,.j,.k,.m{fill:#5a5dff;}.e{fill:#d5d6ff;}.f,.h{stroke:#1d1040;}.f,.h,.i,.o{stroke-linecap:round;}.f,.h,.i{stroke-linejoin:round;}.f,.h,.i,.n,.o{stroke-width:2px;}.g{fill:#1d1040;}.i,.n,.o{stroke:#5a5dff;}.j{font-size:51px;}.j,.k,.l{font-family:OpenSans-Bold, Open Sans;}.j,.k,.l,.m{font-weight:700;}.k{font-size:21.7px;}.l{font-size:16px;}.m{font-size:24px;font-family:Oswald-Bold, Oswald;}.n,.o{stroke-miterlimit:10;}</style></defs><g transform="translate(-1342 446)"><path class="a" d="M1583-237c.145-1.754.221-3.475.486-5.235l.475-2.65c.089-.441.151-.878.267-1.319l.37-1.325.774-2.631c.322-.866.678-1.726,1.028-2.581a40.5,40.5,0,0,1,2.495-4.961,44.451,44.451,0,0,1,14.87-14.61,71.856,71.856,0,0,1,16.953-7.246,124.932,124.932,0,0,1,16.757-3.585,259.049,259.049,0,0,1,32.683-2.4c10.76-.2,21.423-.024,32.033.243s21.172.637,31.7.849,21.035.292,31.487-.177c5.224-.241,10.435-.622,15.595-1.293a89.6,89.6,0,0,0,15.2-3.161l1.843-.591,1.8-.69c1.222-.428,2.351-1.024,3.526-1.556a29.073,29.073,0,0,0,6.332-4.3,20.615,20.615,0,0,0,4.553-6.164A23.024,23.024,0,0,0,1816-310a23.407,23.407,0,0,1-1.069,7.892,21.735,21.735,0,0,1-4.181,6.937,30.88,30.88,0,0,1-6.288,5.2c-1.174.676-2.327,1.424-3.556,1.993l-1.826.9-1.867.8a93.176,93.176,0,0,1-15.443,4.775c-5.242,1.193-10.53,2.087-15.825,2.837-10.592,1.486-21.217,2.414-31.808,3.2s-21.165,1.416-31.682,2.151-20.982,1.553-31.311,2.728a242.686,242.686,0,0,0-30.225,5.1,105.911,105.911,0,0,0-13.9,4.371,51.627,51.627,0,0,0-11.62,6.274,22.361,22.361,0,0,0-6.844,8.07A20.778,20.778,0,0,0,1607-237l.016.272a12.039,12.039,0,0,1-11.3,12.738,12.04,12.04,0,0,1-12.738-11.3A13.022,13.022,0,0,1,1583-237Z"/><path class="a" d="M1583-237a20.778,20.778,0,0,0-1.556-9.76,22.361,22.361,0,0,0-6.844-8.07,51.627,51.627,0,0,0-11.62-6.274,105.911,105.911,0,0,0-13.9-4.371,242.686,242.686,0,0,0-30.225-5.1c-10.329-1.175-20.795-2-31.311-2.728s-21.087-1.362-31.682-2.151-21.216-1.714-31.808-3.2c-5.3-.75-10.583-1.644-15.825-2.837a93.148,93.148,0,0,1-15.443-4.775l-1.867-.8-1.826-.9c-1.229-.569-2.382-1.317-3.556-1.993a30.88,30.88,0,0,1-6.288-5.2,21.735,21.735,0,0,1-4.181-6.937A23.407,23.407,0,0,1,1374-310a23.024,23.024,0,0,0,1.766,7.614,20.632,20.632,0,0,0,4.553,6.164,29.056,29.056,0,0,0,6.333,4.3c1.174.532,2.3,1.128,3.525,1.556l1.8.69,1.844.591a89.548,89.548,0,0,0,15.2,3.161c5.16.671,10.371,1.052,15.595,1.293,10.452.469,20.957.393,31.487.177s21.092-.585,31.7-.849,21.273-.443,32.033-.243a259.049,259.049,0,0,1,32.683,2.4,124.932,124.932,0,0,1,16.757,3.585,71.856,71.856,0,0,1,16.953,7.246,44.451,44.451,0,0,1,14.87,14.61,40.5,40.5,0,0,1,2.495,4.961c.35.855.706,1.715,1.028,2.581l.774,2.631.37,1.325c.116.441.178.878.267,1.319l.475,2.65c.265,1.76.341,3.481.486,5.235a12.038,12.038,0,0,1-11.007,12.99A12.039,12.039,0,0,1,1583-235.016a12.211,12.211,0,0,1-.025-1.644Z"/><path class="a" d="M1583-237a147.013,147.013,0,0,1,2.872-20.577c.345-1.721.832-3.466,1.269-5.191.523-1.739.987-3.463,1.628-5.2a61.964,61.964,0,0,1,4.527-10.26,47.441,47.441,0,0,1,6.872-9.482,39.027,39.027,0,0,1,9.328-7.323,44.7,44.7,0,0,1,10.487-4.249,71.038,71.038,0,0,1,10.338-1.889c6.717-.751,13.1-.827,19.166-1.452,6.047-.609,11.821-1.795,16.577-4.875,4.761-3.037,8.245-8.152,10.314-13.977A72.653,72.653,0,0,0,1680-340a74.03,74.03,0,0,1-.731,19.325,36.412,36.412,0,0,1-3.173,9.548,28.369,28.369,0,0,1-6.335,8.355,33.828,33.828,0,0,1-8.929,5.681,61.968,61.968,0,0,1-9.693,3.316c-6.466,1.7-12.789,2.785-18.593,4.4-5.788,1.59-11,3.741-14.826,6.89a26.155,26.155,0,0,0-8.162,11.979,43.9,43.9,0,0,0-1.977,7.676c-.269,1.318-.4,2.728-.594,4.09-.118,1.41-.288,2.784-.339,4.224A125.439,125.439,0,0,0,1607-237a12.042,12.042,0,0,1-10.992,13.007A12.042,12.042,0,0,1,1583-234.986a12.038,12.038,0,0,1-.016-1.83Z"/><path class="a" d="M1583-237a125.439,125.439,0,0,0,.352-17.519c-.051-1.44-.221-2.814-.339-4.224-.19-1.362-.325-2.772-.594-4.09a43.9,43.9,0,0,0-1.977-7.676,26.155,26.155,0,0,0-8.162-11.979c-3.824-3.149-9.038-5.3-14.826-6.89-5.8-1.612-12.127-2.693-18.593-4.4a61.968,61.968,0,0,1-9.693-3.316,33.828,33.828,0,0,1-8.929-5.681,28.369,28.369,0,0,1-6.335-8.355,36.412,36.412,0,0,1-3.173-9.548A74.03,74.03,0,0,1,1510-340a72.653,72.653,0,0,0,3.622,18.526c2.069,5.825,5.553,10.94,10.314,13.977,4.756,3.08,10.53,4.266,16.577,4.875,6.061.625,12.449.7,19.166,1.452a71.038,71.038,0,0,1,10.338,1.889,44.7,44.7,0,0,1,10.487,4.249,39.027,39.027,0,0,1,9.328,7.323,47.441,47.441,0,0,1,6.872,9.482,61.964,61.964,0,0,1,4.527,10.26c.641,1.736,1.105,3.46,1.628,5.2.437,1.725.924,3.47,1.269,5.191A147.013,147.013,0,0,1,1607-237l.009.116a12.043,12.043,0,0,1-11.118,12.9,12.042,12.042,0,0,1-12.9-11.118A13.051,13.051,0,0,1,1583-237Z"/><path class="b" d="M1595-60"/><path class="b" d="M1595-60"/><path class="a" d="M1607-60a71.48,71.48,0,0,0-.25,8.14,48.064,48.064,0,0,0,.871,7.663,29.135,29.135,0,0,0,6.095,13,38.657,38.657,0,0,0,12.71,9.509,108.445,108.445,0,0,0,16.962,6.4c6.011,1.822,12.252,3.446,18.526,5.359a94.444,94.444,0,0,1,18.581,7.447,40.153,40.153,0,0,1,8.3,6.035,30.071,30.071,0,0,1,6.095,8.211C1697.9,17.9,1698.473,24.633,1698,31c-.507-6.381-2.168-12.726-5.694-17.707s-8.7-8.284-14.365-10.342a87.546,87.546,0,0,0-17.993-4.1c-6.229-.88-12.6-1.512-19.109-2.415A121.776,121.776,0,0,1,1620.9-7.742a55.385,55.385,0,0,1-19.756-10.57,46.366,46.366,0,0,1-8.016-8.968,51.724,51.724,0,0,1-5.537-10.6,69,69,0,0,1-3.158-11.1A93.591,93.591,0,0,1,1583-60a12.041,12.041,0,0,1,11.019-12.981A12.041,12.041,0,0,1,1607-61.961a12.183,12.183,0,0,1,.013,1.8Z"/><path class="a" d="M1607-60a93.591,93.591,0,0,1-1.436,11.025,69,69,0,0,1-3.158,11.1,51.724,51.724,0,0,1-5.537,10.6,46.366,46.366,0,0,1-8.016,8.968A55.385,55.385,0,0,1,1569.1-7.742a121.776,121.776,0,0,1-19.936,4.183c-6.506.9-12.88,1.535-19.109,2.415a87.546,87.546,0,0,0-17.993,4.1c-5.662,2.058-10.83,5.36-14.365,10.342S1492.507,24.619,1492,31c-.473-6.367.1-13.1,3.112-19.233a30.071,30.071,0,0,1,6.095-8.211,40.153,40.153,0,0,1,8.3-6.035,94.444,94.444,0,0,1,18.581-7.447c6.274-1.913,12.515-3.537,18.526-5.359a108.445,108.445,0,0,0,16.962-6.4,38.657,38.657,0,0,0,12.71-9.509,29.135,29.135,0,0,0,6.095-13,48.064,48.064,0,0,0,.871-7.663A71.48,71.48,0,0,0,1583-60l-.007-.092a12.04,12.04,0,0,1,11.119-12.9,12.039,12.039,0,0,1,12.895,11.119A13.091,13.091,0,0,1,1607-60Z"/><g class="c"><path class="d" d="M1583-237c.145-1.754.221-3.475.486-5.235l.475-2.65c.089-.441.151-.878.267-1.319l.37-1.325.774-2.631c.322-.866.678-1.726,1.028-2.581a40.5,40.5,0,0,1,2.495-4.961,44.451,44.451,0,0,1,14.87-14.61,71.856,71.856,0,0,1,16.953-7.246,124.932,124.932,0,0,1,16.757-3.585,259.049,259.049,0,0,1,32.683-2.4c10.76-.2,21.423-.024,32.033.243s21.172.637,31.7.849,21.035.292,31.487-.177c5.224-.241,10.435-.622,15.595-1.293a89.6,89.6,0,0,0,15.2-3.161l1.843-.591,1.8-.69c1.222-.428,2.351-1.024,3.526-1.556a29.073,29.073,0,0,0,6.332-4.3,20.615,20.615,0,0,0,4.553-6.164A23.024,23.024,0,0,0,1816-310a23.407,23.407,0,0,1-1.069,7.892,21.735,21.735,0,0,1-4.181,6.937,30.88,30.88,0,0,1-6.288,5.2c-1.174.676-2.327,1.424-3.556,1.993l-1.826.9-1.867.8a93.176,93.176,0,0,1-15.443,4.775c-5.242,1.193-10.53,2.087-15.825,2.837-10.592,1.486-21.217,2.414-31.808,3.2s-21.165,1.416-31.682,2.151-20.982,1.553-31.311,2.728a242.686,242.686,0,0,0-30.225,5.1,105.911,105.911,0,0,0-13.9,4.371,51.627,51.627,0,0,0-11.62,6.274,22.361,22.361,0,0,0-6.844,8.07A20.778,20.778,0,0,0,1607-237l.016.272a12.039,12.039,0,0,1-11.3,12.738,12.04,12.04,0,0,1-12.738-11.3A13.022,13.022,0,0,1,1583-237Z"/><path class="d" d="M1583-237a20.778,20.778,0,0,0-1.556-9.76,22.361,22.361,0,0,0-6.844-8.07,51.627,51.627,0,0,0-11.62-6.274,105.911,105.911,0,0,0-13.9-4.371,242.686,242.686,0,0,0-30.225-5.1c-10.329-1.175-20.795-2-31.311-2.728s-21.087-1.362-31.682-2.151-21.216-1.714-31.808-3.2c-5.3-.75-10.583-1.644-15.825-2.837a93.148,93.148,0,0,1-15.443-4.775l-1.867-.8-1.826-.9c-1.229-.569-2.382-1.317-3.556-1.993a30.88,30.88,0,0,1-6.288-5.2,21.735,21.735,0,0,1-4.181-6.937A23.407,23.407,0,0,1,1374-310a23.024,23.024,0,0,0,1.766,7.614,20.632,20.632,0,0,0,4.553,6.164,29.056,29.056,0,0,0,6.333,4.3c1.174.532,2.3,1.128,3.525,1.556l1.8.69,1.844.591a89.548,89.548,0,0,0,15.2,3.161c5.16.671,10.371,1.052,15.595,1.293,10.452.469,20.957.393,31.487.177s21.092-.585,31.7-.849,21.273-.443,32.033-.243a259.049,259.049,0,0,1,32.683,2.4,124.932,124.932,0,0,1,16.757,3.585,71.856,71.856,0,0,1,16.953,7.246,44.451,44.451,0,0,1,14.87,14.61,40.5,40.5,0,0,1,2.495,4.961c.35.855.706,1.715,1.028,2.581l.774,2.631.37,1.325c.116.441.178.878.267,1.319l.475,2.65c.265,1.76.341,3.481.486,5.235a12.038,12.038,0,0,1-11.007,12.99A12.039,12.039,0,0,1,1583-235.016a12.211,12.211,0,0,1-.025-1.644Z"/><path class="d" d="M1583-237a147.013,147.013,0,0,1,2.872-20.577c.345-1.721.832-3.466,1.269-5.191.523-1.739.987-3.463,1.628-5.2a61.964,61.964,0,0,1,4.527-10.26,47.441,47.441,0,0,1,6.872-9.482,39.027,39.027,0,0,1,9.328-7.323,44.7,44.7,0,0,1,10.487-4.249,71.038,71.038,0,0,1,10.338-1.889c6.717-.751,13.1-.827,19.166-1.452,6.047-.609,11.821-1.795,16.577-4.875,4.761-3.037,8.245-8.152,10.314-13.977A72.653,72.653,0,0,0,1680-340a74.03,74.03,0,0,1-.731,19.325,36.412,36.412,0,0,1-3.173,9.548,28.369,28.369,0,0,1-6.335,8.355,33.828,33.828,0,0,1-8.929,5.681,61.968,61.968,0,0,1-9.693,3.316c-6.466,1.7-12.789,2.785-18.593,4.4-5.788,1.59-11,3.741-14.826,6.89a26.155,26.155,0,0,0-8.162,11.979,43.9,43.9,0,0,0-1.977,7.676c-.269,1.318-.4,2.728-.594,4.09-.118,1.41-.288,2.784-.339,4.224A125.439,125.439,0,0,0,1607-237a12.042,12.042,0,0,1-10.992,13.007A12.042,12.042,0,0,1,1583-234.986a12.038,12.038,0,0,1-.016-1.83Z"/><path class="d" d="M1583-237a125.439,125.439,0,0,0,.352-17.519c-.051-1.44-.221-2.814-.339-4.224-.19-1.362-.325-2.772-.594-4.09a43.9,43.9,0,0,0-1.977-7.676,26.155,26.155,0,0,0-8.162-11.979c-3.824-3.149-9.038-5.3-14.826-6.89-5.8-1.612-12.127-2.693-18.593-4.4a61.968,61.968,0,0,1-9.693-3.316,33.828,33.828,0,0,1-8.929-5.681,28.369,28.369,0,0,1-6.335-8.355,36.412,36.412,0,0,1-3.173-9.548A74.03,74.03,0,0,1,1510-340a72.653,72.653,0,0,0,3.622,18.526c2.069,5.825,5.553,10.94,10.314,13.977,4.756,3.08,10.53,4.266,16.577,4.875,6.061.625,12.449.7,19.166,1.452a71.038,71.038,0,0,1,10.338,1.889,44.7,44.7,0,0,1,10.487,4.249,39.027,39.027,0,0,1,9.328,7.323,47.441,47.441,0,0,1,6.872,9.482,61.964,61.964,0,0,1,4.527,10.26c.641,1.736,1.105,3.46,1.628,5.2.437,1.725.924,3.47,1.269,5.191A147.013,147.013,0,0,1,1607-237l.009.116a12.043,12.043,0,0,1-11.118,12.9,12.042,12.042,0,0,1-12.9-11.118A13.051,13.051,0,0,1,1583-237Z"/><path class="b" d="M1595-60"/><path class="b" d="M1595-60"/><path class="d" d="M1607-60a71.48,71.48,0,0,0-.25,8.14,48.064,48.064,0,0,0,.871,7.663,29.135,29.135,0,0,0,6.095,13,38.657,38.657,0,0,0,12.71,9.509,108.445,108.445,0,0,0,16.962,6.4c6.011,1.822,12.252,3.446,18.526,5.359a94.444,94.444,0,0,1,18.581,7.447,40.153,40.153,0,0,1,8.3,6.035,30.071,30.071,0,0,1,6.095,8.211C1697.9,17.9,1698.473,24.633,1698,31c-.507-6.381-2.168-12.726-5.694-17.707s-8.7-8.284-14.365-10.342a87.546,87.546,0,0,0-17.993-4.1c-6.229-.88-12.6-1.512-19.109-2.415A121.776,121.776,0,0,1,1620.9-7.742a55.385,55.385,0,0,1-19.756-10.57,46.366,46.366,0,0,1-8.016-8.968,51.724,51.724,0,0,1-5.537-10.6,69,69,0,0,1-3.158-11.1A93.591,93.591,0,0,1,1583-60a12.041,12.041,0,0,1,11.019-12.981A12.041,12.041,0,0,1,1607-61.961a12.183,12.183,0,0,1,.013,1.8Z"/><path class="d" d="M1607-60a93.591,93.591,0,0,1-1.436,11.025,69,69,0,0,1-3.158,11.1,51.724,51.724,0,0,1-5.537,10.6,46.366,46.366,0,0,1-8.016,8.968A55.385,55.385,0,0,1,1569.1-7.742a121.776,121.776,0,0,1-19.936,4.183c-6.506.9-12.88,1.535-19.109,2.415a87.546,87.546,0,0,0-17.993,4.1c-5.662,2.058-10.83,5.36-14.365,10.342S1492.507,24.619,1492,31c-.473-6.367.1-13.1,3.112-19.233a30.071,30.071,0,0,1,6.095-8.211,40.153,40.153,0,0,1,8.3-6.035,94.444,94.444,0,0,1,18.581-7.447c6.274-1.913,12.515-3.537,18.526-5.359a108.445,108.445,0,0,0,16.962-6.4,38.657,38.657,0,0,0,12.71-9.509,29.135,29.135,0,0,0,6.095-13,48.064,48.064,0,0,0,.871-7.663A71.48,71.48,0,0,0,1583-60l-.007-.092a12.04,12.04,0,0,1,11.119-12.9,12.039,12.039,0,0,1,12.895,11.119A13.091,13.091,0,0,1,1607-60Z"/></g><path class="e" d="M1570.061-53.544A6.045,6.045,0,0,0,1576.1-47.5h37.788a6.043,6.043,0,0,0,6.043-6.044V-65.261a94.672,94.672,0,0,0,22.682-9.4l8.272,8.272a6.045,6.045,0,0,0,4.275,1.771,6.041,6.041,0,0,0,4.273-1.773l26.709-26.73a6.046,6.046,0,0,0,0-8.547l-8.263-8.263a94.632,94.632,0,0,0,9.4-22.684h11.672A6.044,6.044,0,0,0,1705-138.66v-37.791a6.043,6.043,0,0,0-6.043-6.044h-11.674a94.657,94.657,0,0,0-9.4-22.682l8.218-8.217a6.054,6.054,0,0,0,1.771-4.277,6.061,6.061,0,0,0-1.773-4.275l-26.73-26.711a6.043,6.043,0,0,0-8.546,0l-8.206,8.209a94.632,94.632,0,0,0-22.682-9.4v-11.609a6.043,6.043,0,0,0-6.043-6.044H1576.1a6.045,6.045,0,0,0-6.044,6.044v11.611a94.573,94.573,0,0,0-22.679,9.4l-8.208-8.209a6.044,6.044,0,0,0-8.546,0L1503.9-221.944a6.041,6.041,0,0,0-1.773,4.273,6.054,6.054,0,0,0,1.771,4.277l8.218,8.217a94.634,94.634,0,0,0-9.4,22.682h-11.65a6.042,6.042,0,0,0-6.043,6.042L1485-138.662a6.038,6.038,0,0,0,1.768,4.275,6.041,6.041,0,0,0,4.275,1.771h11.672a94.632,94.632,0,0,0,9.4,22.684l-8.263,8.263a6.044,6.044,0,0,0,0,8.547l26.709,26.73a6.046,6.046,0,0,0,4.273,1.773h0a6.044,6.044,0,0,0,4.273-1.771l8.27-8.272a94.748,94.748,0,0,0,22.681,9.4Z"/><path class="f" d="M1595-237c0-76.358,221-12.3,221-73"/><path class="f" d="M1595-237c0-76.358-221-12.3-221-73"/><path class="f" d="M1595-237c0-100.989,85-22.726,85-103"/><path class="f" d="M1595-237c0-100.989-85-22.726-85-103"/><path class="b" d="M1595-60"/><path class="b" d="M1595-60"/><path class="f" d="M1595-60c0,71.285,86.028,36.5,100.841,77.3"/><path class="g" d="M1694.765,14.4l5.3-4.828.176.178-1.983,10.562Q1698.13,25.657,1698,31q-2.125-4.9-4.252-9.807l-5.8-9.044.062-.225Z"/><path class="f" d="M1595-60c0,71.285-86.028,36.5-100.841,77.3"/><path class="g" d="M1495.235,14.4l6.725-2.485.1.232-5.8,9.044Q1494.126,26.1,1492,31q-.127-5.343-.257-10.686L1489.76,9.752l.143-.185Z"/><circle class="h" cx="4" cy="4" r="4" transform="translate(1676 -348)"/><circle class="h" cx="4" cy="4" r="4" transform="translate(1506 -348)"/><circle class="h" cx="4" cy="4" r="4" transform="translate(1370 -318)"/><circle class="h" cx="4" cy="4" r="4" transform="translate(1812 -318)"/><circle class="i" cx="4.233" cy="4.233" r="4.233" transform="translate(1681.786 -254)"/><circle class="i" cx="4.233" cy="4.233" r="4.233" transform="translate(1505.398 -65.466)"/><circle class="a" cx="4" cy="4" r="4" transform="translate(1591 -60)"/><circle class="f" cx="4" cy="4" r="4" transform="translate(1591 -60)"/><text class="j" transform="translate(1595 -139.404)"><tspan x="-74.832" y="0">NMPS</tspan></text><text class="k" transform="translate(1595.001 -190.733)"><tspan x="-57.001" y="0">PACKAGER</tspan></text><text class="l" transform="translate(1595 21.363)"><tspan x="-75.645" y="0">LIVE / ON-DEMAND</tspan></text><g class="c"><text class="m" transform="translate(1658.512 84.852) rotate(-90)"><tspan x="-47.484" y="0">MANIFEST</tspan></text></g><path class="g" d="M1535.811-101.708c-3.435-.019-6.276-7.033-6.276-10.605,0-5.834,4.376-7.111,6.062-7.111a6.971,6.971,0,0,1,2.287.562,5.136,5.136,0,0,0,1.307.375,4.056,4.056,0,0,0,.936-.3,7.5,7.5,0,0,1,2.824-.683h.007a5.789,5.789,0,0,1,4.844,2.447l.353.531-.508.384a4.278,4.278,0,0,0-2.052,3.529,3.983,3.983,0,0,0,2.222,3.682c.318.191.648.389.648.821,0,.282-2.25,6.337-5.518,6.337a4.441,4.441,0,0,1-1.864-.452,3.768,3.768,0,0,0-1.658-.4,4.255,4.255,0,0,0-1.313.356,6.434,6.434,0,0,1-2.278.531Z"/><path class="g" d="M1543.3-124.792c.085,3.069-2.11,5.2-4.3,5.065C1538.635-122.177,1541.188-124.792,1543.3-124.792Z"/><path class="g" d="M1662.31-106.257c-.681-.277-.973-.645-.945-1.194a1.83,1.83,0,0,0-.51-1.3,5.587,5.587,0,0,0,0-2.974,25.677,25.677,0,0,0-3.187-5.162,4.41,4.41,0,0,1-.628-2.643,8,8,0,0,0-.6-3.219,3.353,3.353,0,0,0-3.189-2.047,4.384,4.384,0,0,0-2.424.733c-1.392.954-1.208,3.035-1.087,4.412.017.188.033.366.042.518a6.8,6.8,0,0,1-.089,2.275,9.422,9.422,0,0,1-.7.969c-.337.44-.718.938-1.03,1.4a11,11,0,0,0-.966,2.24,10.642,10.642,0,0,1-.61,1.517,2.049,2.049,0,0,0-.2,1.552,1.59,1.59,0,0,0-.515.648c-.208.439-.628.675-1.5.842a1.153,1.153,0,0,0-.823.5,1.408,1.408,0,0,0,.008,1.13,1.74,1.74,0,0,1-.117,1.273c-.04.122-.086.259-.132.411a.734.734,0,0,0,.078.646c.33.5,1.293.678,2.285.795a8.844,8.844,0,0,1,1.867.532,8.8,8.8,0,0,0,1.826.523,2.081,2.081,0,0,0,.258.017,1.519,1.519,0,0,0,1.39-.81,15.456,15.456,0,0,1,2.506-.294,10.916,10.916,0,0,1,2.49.254,2,2,0,0,0,.75.812,1.832,1.832,0,0,0,.844.188h0a2.044,2.044,0,0,0,1.484-.608,13.3,13.3,0,0,1,2.69-1.707c.206-.111.4-.214.567-.308a1.26,1.26,0,0,0,.776-1.118A.945.945,0,0,0,1662.31-106.257Zm-11.468-.1c-.064-.451-.648-.9-1.325-1.416a4.667,4.667,0,0,1-1.353-1.31,3.925,3.925,0,0,1,.415-3.074,7.805,7.805,0,0,0,.632-1.514,5.448,5.448,0,0,1,.66-1.5,3.8,3.8,0,0,0,.791-1.905,2.4,2.4,0,0,0,1.413.763.808.808,0,0,0,.227-.031,7.664,7.664,0,0,0,1.355-.677,5.743,5.743,0,0,1,1.15-.574,31.7,31.7,0,0,1,2.513,6.21,6.544,6.544,0,0,1-.093,2.368,1.825,1.825,0,0,0-.235-.017c-.55,0-.695.3-.733.476a19.394,19.394,0,0,0-.109,2.271,4.551,4.551,0,0,1-2.645,1.643,11.634,11.634,0,0,1-1.63.127,5.545,5.545,0,0,1-.8-.049l-.725-.823A.873.873,0,0,0,1650.842-106.36Zm.92-13.577-.067.031a1.262,1.262,0,0,0-.015-.148.841.841,0,0,0-.718-.78.519.519,0,0,0-.077.006.6.6,0,0,0-.444.394c.075-.465.341-.809.656-.809.369,0,.681.495.681,1.08A1.6,1.6,0,0,1,1651.762-119.937Zm2.872.349a1.136,1.136,0,0,0,.052-.343.864.864,0,0,0-.772-.947.872.872,0,0,0-.767.947.934.934,0,0,0,.005.106l-.066-.025a1.424,1.424,0,0,1-.073-.455,1.053,1.053,0,0,1,.911-1.151,1.053,1.053,0,0,1,.91,1.151A1.352,1.352,0,0,1,1654.634-119.588Zm-.37,1.235c-.007.032-.023.046-.193.134-.086.045-.193.1-.327.181l-.089.054a8.358,8.358,0,0,1-1.431.753c-.155.021-.251-.039-.467-.185l-.156-.1a1.817,1.817,0,0,1-.667-.642c.126-.1.441-.341.6-.485a1.743,1.743,0,0,1,.819-.5l.024,0a8.4,8.4,0,0,1,1.008.357c.159.063.3.118.394.152A.939.939,0,0,1,1654.264-118.353Zm2.74,14.106a11.139,11.139,0,0,0,.338-2.437c-.008-.14-.02-.293-.032-.441a3.978,3.978,0,0,1-.022-.808l.023-.009a1.368,1.368,0,0,0,.646,1.3,1.427,1.427,0,0,0,.575.111,2.351,2.351,0,0,0,1.457-.534,2.669,2.669,0,0,0,.37-.482.557.557,0,0,1,.025.227,1.629,1.629,0,0,0,.707,1.468l.071.036c.172.09.632.33.639.443a.1.1,0,0,1-.03.037,6.563,6.563,0,0,1-.911.509,8,8,0,0,0-1.835,1.12,2.507,2.507,0,0,1-1.4.869.39.39,0,0,1-.112-.015C1657.144-102.963,1656.84-103.492,1657-104.247Zm-12.585-1.966a1.028,1.028,0,0,1-.035-.447c.023-.1.516-.2.727-.25a2.836,2.836,0,0,0,.8-.251,1.619,1.619,0,0,0,.546-.728,1.136,1.136,0,0,1,.305-.454.066.066,0,0,1,.036-.009c.215,0,.667.45.928.853.066.1.188.305.33.54a17.162,17.162,0,0,0,1.306,1.991c.273.29.715.849.606,1.328a1.454,1.454,0,0,1-.6.74.631.631,0,0,1-.134.012,8.622,8.622,0,0,1-2.343-.736l-.092-.038a7.469,7.469,0,0,0-1.449-.321,4.724,4.724,0,0,1-1.123-.251c-.08-.088.012-.376.094-.631a4.09,4.09,0,0,0,.152-.569A2.049,2.049,0,0,0,1644.419-106.213Z"/><path class="g" d="M1603.958-114.474v-6.292l9.1-1.141v7.433Z"/><path class="g" d="M1615.5-114.474v-7.738l10.542-1.321v9.06Z"/><path class="g" d="M1615.5-104.288v-7.738h10.542v9.06Z"/><path class="g" d="M1603.958-105.734v-6.292h9.1v7.433Z"/><path class="g" d="M1579.457-101.481a1.509,1.509,0,0,0,1.473-1.474v-3.44h.984a.93.93,0,0,0,.984-.984v-9.827h-11.8v9.827a.93.93,0,0,0,.984.984h.984v3.44a1.509,1.509,0,0,0,1.473,1.474,1.509,1.509,0,0,0,1.473-1.474v-3.44h1.968v3.44A1.509,1.509,0,0,0,1579.457-101.481Z"/><path class="g" d="M1585.355-107.379a1.508,1.508,0,0,0,1.473-1.473v-6.882a1.51,1.51,0,0,0-1.473-1.472,1.511,1.511,0,0,0-1.474,1.472v6.882A1.509,1.509,0,0,0,1585.355-107.379Z"/><path class="g" d="M1568.645-107.379a1.509,1.509,0,0,0,1.474-1.473v-6.882a1.511,1.511,0,0,0-1.474-1.472,1.51,1.51,0,0,0-1.473,1.472v6.882A1.508,1.508,0,0,0,1568.645-107.379Z"/><path class="g" d="M1581.717-124.87a.47.47,0,0,0-.686,0l-1.319,1.315-.061.061a5.829,5.829,0,0,0-2.637-.59h-.028a5.829,5.829,0,0,0-2.637.59l-.061-.061-1.319-1.315a.47.47,0,0,0-.686,0,.471.471,0,0,0,0,.685l1.276,1.277a5.278,5.278,0,0,0-1.108.995,5.771,5.771,0,0,0-1.34,3.415l0,.041c0,.088-.006.177-.006.266h11.8c0-.089,0-.178-.006-.266l0-.041a5.771,5.771,0,0,0-1.34-3.415,5.334,5.334,0,0,0-1.108-.995l1.276-1.277A.471.471,0,0,0,1581.717-124.87Zm-7.176,4.961a.736.736,0,0,1-.737-.736.737.737,0,0,1,.737-.737.737.737,0,0,1,.737.737A.736.736,0,0,1,1574.541-119.909Zm4.918,0a.736.736,0,0,1-.737-.736.737.737,0,0,1,.737-.737.737.737,0,0,1,.737.737A.736.736,0,0,1,1579.459-119.909Z"/><path class="g" d="M1595-235.91l6.125-3.726.139.209-3.967,9.988q-1.149,5.22-2.3,10.439-1.148-5.22-2.3-10.439l-3.967-9.988.1-.209Z"/><path class="n" d="M1403-357v14a8,8,0,0,1-8,8h-44a8,8,0,0,1-8-8v-68a8,8,0,0,1,8-8h32.686a8,8,0,0,1,5.657,2.343l11.314,11.314a8,8,0,0,1,2.343,5.657V-395"/><text class="l" transform="translate(1406.225 -369.789)"><tspan x="-44.203" y="0">H.264</tspan></text><path class="n" d="M1523,105v14a8,8,0,0,1-8,8h-44a8,8,0,0,1-8-8V51a8,8,0,0,1,8-8h32.686a8,8,0,0,1,5.657,2.343l11.314,11.314A8,8,0,0,1,1523,62.314V67"/><text class="l" transform="translate(1526.225 92.211)"><tspan x="-36.875" y="0">NMF</tspan></text><path class="n" d="M1844-357v14a8,8,0,0,1-8,8h-44a8,8,0,0,1-8-8v-68a8,8,0,0,1,8-8h32.686a8,8,0,0,1,5.657,2.343l11.314,11.314a8,8,0,0,1,2.343,5.657V-395"/><text class="l" transform="translate(1848.225 -369.789)"><tspan x="-29.922" y="0">DTS</tspan></text><path class="n" d="M1712-383v14a8,8,0,0,1-8,8h-44a8,8,0,0,1-8-8v-68a8,8,0,0,1,8-8h32.686a8,8,0,0,1,5.657,2.343l11.314,11.314a8,8,0,0,1,2.343,5.657V-421"/><text class="l" transform="translate(1725.225 -395.789)"><tspan x="-61.68" y="0">PRORES</tspan></text><path class="n" d="M1543-369a8,8,0,0,1-8,8h-44a8,8,0,0,1-8-8v-68a8,8,0,0,1,8-8h32.686a8,8,0,0,1,5.657,2.343l11.314,11.314a8,8,0,0,1,2.343,5.657"/><text class="l" transform="translate(1539.224 -401.789)"><tspan x="-28.602" y="0">OBJECT</tspan><tspan x="-25.703" y="19.2">BASED</tspan></text><path class="n" d="M1732,105v14a8,8,0,0,1-8,8h-44a8,8,0,0,1-8-8V51a8,8,0,0,1,8-8h32.686a8,8,0,0,1,5.657,2.343l11.314,11.314A8,8,0,0,1,1732,62.314V67"/><text class="l" transform="translate(1737.225 92.211)"><tspan x="-33.664" y="0">NSD</tspan></text><g class="c"><text class="m" transform="translate(1449.512 84.852) rotate(-90)"><tspan x="-56.088" y="0">PROTECTED</tspan></text></g><path class="o" d="M1506.291-64.079a128.744,128.744,0,0,1-40.4-93.8,128.764,128.764,0,0,1,41.463-94.8"/><path class="o" d="M1688.673-246.732a128.666,128.666,0,0,1,35.434,88.849A128.775,128.775,0,0,1,1681.791-62.3"/></g></svg>